<svg id="aw" xmlns="http://www.w3.org/2000/svg" viewBox="0 0 120 60"><defs><style>.cls-1{fill:#80c042;}.cls-2{fill:#008174;}</style></defs><title>ai_template_aer_lingus_full_1</title><path class="cls-1" d="M102.09923,21.38676c-.44047.50053-.31033-.15015-.63067.16017a6.83717,6.83717,0,0,0-1.66175,2.20232c-.84088,1.892-.32034,4.86513,1.35142,6.00633a4.12427,4.12427,0,0,1-.48051,1.19126c-.6607-1.45153-1.25132-2.853-2.58272-3.63383a3.00288,3.00288,0,0,0-.74078-.23024,3.92415,3.92415,0,0,0-1.81191.12012c-.36038.13014.08009.25027-.2002.35037a1.75161,1.75161,0,0,0-.51054.2803,1.65172,1.65172,0,0,0-.74078,1.25131v.64068a3.07325,3.07325,0,0,0-2.0822,3.42361,1.39146,1.39146,0,0,0,.84088.8609c.33035.14015-.43045.27029.40043.41044a6.10674,6.10674,0,0,0,2.26238-.16017,12.69349,12.69349,0,0,0,4.58484-2.39252,14.235,14.235,0,0,1-4.00422,4.52476c.1001.4705-.3704.68072-.34036,1.27134a1.94245,1.94245,0,0,1-.26027.57061c-.07008.14014,0,.20021.18019.08008a18.7297,18.7297,0,0,0,5.42571-6.56692c2.60274,3.73394,4.9352,3.764,5.92624,3.86407a4.00418,4.00418,0,0,0,1.63172-.15016,6.34658,6.34658,0,0,0,2.07218-.8609c.40043-.27029-.21022-.30032.15016-.52055a2.61261,2.61261,0,0,0,.69073-.901,2.47262,2.47262,0,0,0-.58061-2.64279,2.10222,2.10222,0,0,0,1.00106-1.66175,1.45154,1.45154,0,0,0-.88093-1.51159,2.00226,2.00226,0,0,0-.40042-.18019c-1.12119-.16017,0-.55058-1.00106-.43045a2.77367,2.77367,0,0,0-.4705.05c-1.922.20021-2.51265.72076-4.14436,1.65174s-2.90306,2.05216-3.53372,2.43256a5.00515,5.00515,0,0,0,.38039-.8509,9.68044,9.68044,0,0,1,2.2724-1.6117c.73077-.45047,3.73393-2.00211,4.58483-4.14436a4.14468,4.14468,0,0,0,.30032-1.12118c.08008-.79084-.29031-.25027-.30032-.49052a2.6528,2.6528,0,0,0-.1902-.75079c-.63067-1.46154-2.9331-1.21128-3.72393-.42045-.33035-1.09115-2.15227-.79083-2.79294-.11011Z"/><path class="cls-2" d="M31.87523,26.86253H29.33255a1.33142,1.33142,0,0,1,.31033.3804,1.5218,1.5218,0,0,1,.16017.40042,4.15447,4.15447,0,0,1,.08008.90095v5.716a2.373,2.373,0,0,1-.06006.41043,1.51158,1.51158,0,0,1-.37039.68072l-.10011.1001h3.17335a1.45148,1.45148,0,0,1-.31033-.37039,2.05246,2.05246,0,0,1-.16017-.41043,4.0038,4.0038,0,0,1-.08008-.89094V31.36728a7.59652,7.59652,0,0,1,.05005-1.22129,1.8019,1.8019,0,0,1,.48051-1.16122,1.30134,1.30134,0,0,1,1.0511-.48051h.13014a1.932,1.932,0,0,1,.5706.0901,1.33145,1.33145,0,0,1,.48051.23024V26.82249a1.45184,1.45184,0,0,0-.42044-.06006h-.35037a2.15222,2.15222,0,0,0-1.31138.50053,2.8729,2.8729,0,0,0-.71075.84088l-.0901.23024V26.86253Z"/><path class="cls-2" d="M45.44953,35.40153l.7508-2.23235a1.79178,1.79178,0,0,1-.42045.25026,4.18374,4.18374,0,0,1-.56059.20021,6.00608,6.00608,0,0,1-1.73182.18019H41.65554v-6.637a12.05869,12.05869,0,0,1,0-1.40148,3.67329,3.67329,0,0,1,.1001-.6707,3.06339,3.06339,0,0,1,.46048-1.00106l.0901-.12013H38.65237a1.91216,1.91216,0,0,1,.39041.58061,3.72379,3.72379,0,0,1,.21022.54058,6.00619,6.00619,0,0,1,.14015,1.45153v6.86723a6.67551,6.67551,0,0,1-.08009.69073,2.78259,2.78259,0,0,1-.28029.77081,1.70168,1.70168,0,0,1-.37039.5706Z"/><path class="cls-2" d="M49.89422,24.92049a1.28135,1.28135,0,0,0-1.261-1.30137h-.00031a1.31137,1.31137,0,0,0-1.30137,1.31138,1.28135,1.28135,0,1,0,2.5627,0Z"/><path class="cls-2" d="M47.09126,35.40153h3.18336a1.39159,1.39159,0,0,1-.30032-.37039,1.29169,1.29169,0,0,1-.16017-.41043,3.37363,3.37363,0,0,1-.09009-.89094V26.86253H47.15133a1.85234,1.85234,0,0,1,.21022.29031,2.00211,2.00211,0,0,1,.23024.6607,5.00445,5.00445,0,0,1,.05.72075v5.696a2.33174,2.33174,0,0,1-.07007.41043,1.4916,1.4916,0,0,1-.36038.68072.93117.93117,0,0,1-.1001.1001Z"/><path class="cls-2" d="M54.10866,26.86253H51.556a1.25148,1.25148,0,0,1,.30031.37039,1.5517,1.5517,0,0,1,.17018.40043,4.15433,4.15433,0,0,1,.08009.90094v5.716a2.372,2.372,0,0,1-.06007.41043,1.5517,1.5517,0,0,1-.37039.68072.93117.93117,0,0,1-.1001.1001h3.18335a1.3912,1.3912,0,0,1-.30031-.37039,1.59139,1.59139,0,0,1-.16017-.41043,3.08362,3.08362,0,0,1-.08009-.89094V30.55643a3.12326,3.12326,0,0,1,.32034-1.18125A2.20233,2.20233,0,0,1,55.83047,28.254a2.52269,2.52269,0,0,1,.75079-.13013,1.81179,1.81179,0,0,1,1.10116.35037,1.66157,1.66157,0,0,1,.37039.3904,2.15229,2.15229,0,0,1,.25027,1.2313v4.10432a2.37188,2.37188,0,0,1-.06007.41043,1.55139,1.55139,0,0,1-.37039.68072.46048.46048,0,0,1-.1001.10011H60.9759a1.45165,1.45165,0,0,1-.31033-.37039,1.842,1.842,0,0,1-.16017-.41044,3.83378,3.83378,0,0,1-.08009-.89093v-3.4136a8.008,8.008,0,0,0,0-1.18124,3.39342,3.39342,0,0,0-.37039-1.14121A2.77286,2.77286,0,0,0,58.213,26.72239a4.78465,4.78465,0,0,0-1.001-.11012,3.52373,3.52373,0,0,0-2.41254.79083,2.27251,2.27251,0,0,0-.64068.84089V26.86253Z"/><path class="cls-2" d="M87.27361,27.06274a4.9366,4.9366,0,0,0-.86091-.22023,9.07953,9.07953,0,0,0-1.8019-.17018,4.0043,4.0043,0,0,0-2.5527.67071,2.20232,2.20232,0,0,0-.85089,1.72181,2.35248,2.35248,0,0,0,.42044,1.3214,2.58272,2.58272,0,0,0,.61065.5706,6.18583,6.18583,0,0,0,.911.50052l.89094.35037a6.20673,6.20673,0,0,1,1.31138.64068.941.941,0,0,1,.38039.69072,1.06108,1.06108,0,0,1-.28029.65069,1.26124,1.26124,0,0,1-.45047.24025,2.43247,2.43247,0,0,1-.77081.11012,5.56594,5.56594,0,0,1-2.00211-.41043c-.17018-.07007-.41044-.1902-.74078-.36038a4.69555,4.69555,0,0,1-.55058-.31033l-.17018-.13014.69073,2.19231a6.367,6.367,0,0,0,1.13119.29031,11.582,11.582,0,0,0,2.00211.22023,4.25451,4.25451,0,0,0,1.902-.40042A2.43258,2.43258,0,0,0,87.94431,32.999a2.39246,2.39246,0,0,0-.63066-1.6117,3.76392,3.76392,0,0,0-.85089-.67071,10.73151,10.73151,0,0,0-1.75185-.78082,3.57377,3.57377,0,0,1-.90095-.43046.75077.75077,0,0,1-.36038-.61064.63064.63064,0,0,1,.32034-.54057,1.94205,1.94205,0,0,1,1.00105-.21022,6.78756,6.78756,0,0,1,1.74183.27028,5.236,5.236,0,0,1,.82087.31033V27.06274Z"/><path class="cls-2" d="M18.76141,31.91786l.26028.65069.40042.85089.36038.73077a4.775,4.775,0,0,0,.45047.65069,2.21234,2.21234,0,0,0,.63067.59062H16.70925a1.33126,1.33126,0,0,0,.41043-.36038.79078.79078,0,0,0,.21022-.55058,1.63159,1.63159,0,0,0-.18019-.69073l-.14014-.47049-.14015-.3804L16.16868,31.127H11.87416l-.65069,1.66176a9.00155,9.00155,0,0,0-.35037,1.001,2.643,2.643,0,0,0-.12013.6707.8509.8509,0,0,0,.15016.51054.881.881,0,0,0,.1902.24026,1.56189,1.56189,0,0,0,.25027.22023H7.93l.16017-.14015a2.32246,2.32246,0,0,0,.70074-.941c.1001-.1902.20021-.40042.30031-.62065.1902-.41043.32034-.71075.49052-1.13119l3.42361-8.64912h2.34247l3.38356,8.00844Zm-3.17334-2.16228L14.0064,25.64125l-1.57165,4.11433Z"/><path class="cls-2" d="M22.59545,31.17708a3.704,3.704,0,0,0,.27029,1.37144,2.51271,2.51271,0,0,0,.63066,1.00106,2.66282,2.66282,0,0,0,2.00211.72076,4.16441,4.16441,0,0,0,1.892-.44046,2.49247,2.49247,0,0,0,.72076-.41044l-.62065,1.76186a3.00289,3.00289,0,0,1-.77081.27028,6.23646,6.23646,0,0,1-1.65174.21023,5.736,5.736,0,0,1-1.57166-.20022,4.00417,4.00417,0,0,1-1.50158-.77081,4.67494,4.67494,0,0,1-1.60169-3.66386,4.29451,4.29451,0,0,1,1.43151-3.36354,4.0843,4.0843,0,0,1,2.77292-1.00106,3.63378,3.63378,0,0,1,2.60274.931,3.4837,3.4837,0,0,1,.901,1.40148,6.11623,6.11623,0,0,1,.30032,1.872v.30032Zm3.57377-2.31244a1.88212,1.88212,0,0,0-.45048-.58061,1.63172,1.63172,0,0,0-1.10116-.37039,1.862,1.862,0,0,0-1.29136.47049,2.48262,2.48262,0,0,0-.42044.55058,2.09233,2.09233,0,0,0-.27029.82087h3.764A1.71179,1.71179,0,0,0,26.16922,28.86464Z"/><path class="cls-2" d="M77.48329,35.40153v-1.3314a2.7429,2.7429,0,0,1-.58061.72076,3.34377,3.34377,0,0,1-.73077.51053,4.06408,4.06408,0,0,1-1.66176.33035,3.57374,3.57374,0,0,1-2.2824-.7608,2.0021,2.0021,0,0,1-.6707-1.001,6.25716,6.25716,0,0,1-.21022-1.74184V28.65442a.8409.8409,0,0,0-.32034-.62066,1.3214,1.3214,0,0,0-.85089-.25026,2.10235,2.10235,0,0,0-.88093.18019,1.85177,1.85177,0,0,0-.4705.33035,3.14346,3.14346,0,0,1,.31033.61064,3.55385,3.55385,0,0,1,.17018,1.08114,3.00319,3.00319,0,0,1-.87092,2.11223,4.00421,4.00421,0,0,1-2.7529.911h-.45048a2.17275,2.17275,0,0,1-.52054-.07007l-.09009.09009a.55053.55053,0,0,0-.12013.32034.45045.45045,0,0,0,.1902.35036,1.12128,1.12128,0,0,0,.37038.17019,15.08839,15.08839,0,0,0,1.51159.09009,7.12754,7.12754,0,0,1,2.22235.27029,2.40252,2.40252,0,0,1,1.00105.71074,2.58273,2.58273,0,0,1,.59062,1.67176,2.79294,2.79294,0,0,1-1.63172,2.58273,7.0775,7.0775,0,0,1-3.00316.59062,9.38981,9.38981,0,0,1-2.9431-.48051,3.43378,3.43378,0,0,1-1.00106-.53055,1.64176,1.64176,0,0,1-.75079-1.38146,1.2113,1.2113,0,0,1,.46049-1.00106,1.67177,1.67177,0,0,1,1.001-.33035H62.958a3.39424,3.39424,0,0,1,.52055.10011,1.001,1.001,0,0,0-.26027.35037,1.2415,1.2415,0,0,0-.14015.54057,1.26134,1.26134,0,0,0,.51054,1.001,2.10207,2.10207,0,0,0,.69073.33035,5.11514,5.11514,0,0,0,1.46154.1902,4.51483,4.51483,0,0,0,2.00211-.39041,2.0023,2.0023,0,0,0,.59061-.46048,1.18122,1.18122,0,0,0,.34036-.82087,1.08114,1.08114,0,0,0-.51054-.941,1.82192,1.82192,0,0,0-.69073-.23024,16.12524,16.12524,0,0,0-2.07218-.13014,4.22439,4.22439,0,0,1-1.912-.30032,1.34137,1.34137,0,0,1-.66069-1.19125,1.55164,1.55164,0,0,1,.35036-1.001,2.00245,2.00245,0,0,1,.39041-.45048,2.46245,2.46245,0,0,1-.87091-.55058,2.93312,2.93312,0,0,1-.82086-2.24236,3.10329,3.10329,0,0,1,1.18125-2.49263,4.19441,4.19441,0,0,1,2.57271-.70074,3.7139,3.7139,0,0,1,1.852.41043,2.10228,2.10228,0,0,1,.71075.49052l.47049-.71075h4.80507v5.42572a5.14548,5.14548,0,0,0,.09009.83088,1.40148,1.40148,0,0,0,.37039.66069,1.65174,1.65174,0,0,0,1.14121.41043,2.30211,2.30211,0,0,0,.68071-.11011A2.2324,2.2324,0,0,0,77.00278,33.029a2.91341,2.91341,0,0,0,.23025-.55058,6.33647,6.33647,0,0,0,.16017-1.68177V28.53429a3.37323,3.37323,0,0,0-.08009-.90094,1.67171,1.67171,0,0,0-.16017-.40043,1.2113,1.2113,0,0,0-.31032-.3804h2.63277v6.87725a3.83386,3.83386,0,0,0,.08009.89094,1.48158,1.48158,0,0,0,.17017.41043,1.22129,1.22129,0,0,0,.30032.37039ZM66.82206,28.39415a1.862,1.862,0,0,0-1.21128-.40043,1.80192,1.80192,0,0,0-1.31138.49052,1.862,1.862,0,0,0-.49052,1.38146,2.8329,2.8329,0,0,0,.12013.78082,1.63164,1.63164,0,0,0,.36037.63066,1.842,1.842,0,0,0,1.33141.51054,1.82192,1.82192,0,0,0,1.32139-.51054,1.932,1.932,0,0,0,.48051-1.35142,1.872,1.872,0,0,0-.60063-1.50158Z"/></svg>