<svg id="aw" xmlns="http://www.w3.org/2000/svg" viewBox="0 0 120 60"><defs><style>.cls-1{fill:#005299;}</style></defs><title>ai_template_aeroflot_russian_airlines_full_1</title><path class="cls-1" d="M12.99052,38.69857l-1.0782-.46208,4.46683-.55451c.09241.12323.154.24645.24644.36967Zm11.95261,0,1.0782-.49289-4.436-.52369c-.03081.154-.154.24644-.24645.36966Zm-.64692.09242-1.32465.46208-1.90995-.5853-.154-.06161c.06161-.06161.12323-.09242.154-.18484a1.423,1.423,0,0,0,.21564-.21564Zm3.57346-1.263-1.23223.5853-4.92891-.5853c.03081-.12323.09242-.24645.12322-.33887Zm.46208-.18484,1.6019-1.01659h-8.718a2.29652,2.29652,0,0,1-.18483.955,2.03874,2.03874,0,0,1-2.03318,1.263,2.4109,2.4109,0,0,1-2.064-1.23222,2.33014,2.33014,0,0,1-.21564-.98579H8l1.6019,1.01659,6.68483-.33886a2.72274,2.72274,0,0,0,.67773,1.20142,2.86318,2.86318,0,0,0,2.064.86256,2.55846,2.55846,0,0,0,2.03317-.86256,3.19112,3.19112,0,0,0,.64692-1.20142Zm-7.30094,2.64929.18483.30806-.18483.09242-.46209.21564-.5237-1.01659a2.99968,2.99968,0,0,1-1.04739.18483,3.40427,3.40427,0,0,1-1.13981-.154l-.43128.98579a.78362.78362,0,0,1-.46209-.09242.31549.31549,0,0,1-.154-.18484l.154-.24644.36967-.67773a2.35153,2.35153,0,0,1-.33886-.24644l.30806-.36967a3.09312,3.09312,0,0,0,1.69431.49289,2.63894,2.63894,0,0,0,1.66351-.5545L21,38.82179l.154.06161a.541.541,0,0,0-.154.12323,1.29978,1.29978,0,0,1-.36967.30805Zm0-5.29858a3.31465,3.31465,0,0,1,.70853,1.47868h-.55451a3.02758,3.02758,0,0,0-.154-.49289A4.8536,4.8536,0,0,0,18.99763,33.4c-.12322-.06161-.21564-.154-.33886-.21564.12322.0308.21564.09242.33886.12322a4.87856,4.87856,0,0,1,2.03318,1.38625m-1.50948,3.66588a1.01789,1.01789,0,0,0,.52369-.24645l-.89336-1.75592.92417-.43128-.77014-.67772-.30806.154-1.32464.61611.40047.89337.64692-.27726Zm-2.40285.24645c-.06161-.03081-.09241-.09242-.154-.12323a1.99336,1.99336,0,0,1-.24644-.27725l-3.04976.58531,1.29384.43128Zm-.83175-1.0782a2.33962,2.33962,0,0,1-.12322-.33887L10.064,37.528l1.23223.5853Z"/><polygon class="cls-1" points="26.915 27.732 26.915 25.021 31.967 25.021 31.967 23.604 26.915 23.604 26.915 21.17 32.244 21.17 32.244 19.753 23.156 19.753 23.156 29.149 32.552 29.149 32.552 27.732 26.915 27.732"/><path class="cls-1" d="M38.03555,29.14881V21.17014h2.218a3.167,3.167,0,0,1,1.84835.43128,1.53469,1.53469,0,0,1,.67772,1.23222,1.397,1.397,0,0,1-.70853,1.23223A4.78761,4.78761,0,0,1,39.237,24.528l-.46209-.06161,3.75829,4.68246h4.3436l-3.57345-3.91232a5.76853,5.76853,0,0,0,2.27962-.70853,2.35716,2.35716,0,0,0,1.109-1.94076A2.60645,2.60645,0,0,0,45.33649,20.4a8.40092,8.40092,0,0,0-4.06635-.64692H34.27725v9.39573Z"/><polygon class="cls-1" points="68.41 23.758 68.41 21.17 73.893 21.17 73.893 19.753 64.652 19.753 64.652 29.149 68.41 29.149 68.41 25.175 73.493 25.175 73.493 23.758 68.41 23.758"/><polygon class="cls-1" points="75.28 19.753 75.28 29.149 84.583 29.149 84.583 27.732 79.038 27.732 79.038 19.753 75.28 19.753"/><polygon class="cls-1" points="112 19.753 100.109 19.753 100.109 21.17 104.175 21.17 104.175 29.149 107.934 29.149 107.934 21.17 112 21.17 112 19.753"/><path class="cls-1" d="M92.09952,19.47582a10.91478,10.91478,0,0,0-5.88388,1.57109,4.29425,4.29425,0,0,0-1.94076,3.38863,4.29423,4.29423,0,0,0,1.94076,3.38862,11.80341,11.80341,0,0,0,11.76777,0,4.21128,4.21128,0,0,0,1.91-3.38862,4.29448,4.29448,0,0,0-1.91-3.38863,10.845,10.845,0,0,0-5.88389-1.57109m0,8.81043A3.50556,3.50556,0,0,1,89.2346,27.054a3.93685,3.93685,0,0,1-.801-2.58768,3.96729,3.96729,0,0,1,.801-2.61848,3.34888,3.34888,0,0,1,2.86492-1.23223,3.46965,3.46965,0,0,1,2.86493,1.23223,3.91916,3.91916,0,0,1,.801,2.61848,3.93685,3.93685,0,0,1-.801,2.58768,3.46965,3.46965,0,0,1-2.86493,1.23223"/><path class="cls-1" d="M55.53317,19.47582a10.91481,10.91481,0,0,0-5.88388,1.57109,4.29425,4.29425,0,0,0-1.94076,3.38863,4.29423,4.29423,0,0,0,1.94076,3.38862,11.86111,11.86111,0,0,0,11.79858,0,4.29448,4.29448,0,0,0,1.90995-3.38862,4.2945,4.2945,0,0,0-1.90995-3.38863,11.01732,11.01732,0,0,0-5.9147-1.57109m0,8.81043A3.41328,3.41328,0,0,1,52.69905,27.054a3.93691,3.93691,0,0,1-.801-2.58768,3.96729,3.96729,0,0,1,.801-2.61848,3.32712,3.32712,0,0,1,2.83412-1.23223,3.46965,3.46965,0,0,1,2.86493,1.23223,3.91916,3.91916,0,0,1,.801,2.61848,3.93685,3.93685,0,0,1-.801,2.58768,3.46965,3.46965,0,0,1-2.86493,1.23223"/><path class="cls-1" d="M9.87915,29.14881l1.47867-2.74171h5.237l1.60189,2.74171h4.22038l-5.699-9.39573H13.20616L8,29.14881Zm2.1872-4.00474,1.78673-3.2654h.06161l1.94076,3.2654Z"/><path class="cls-1" d="M47.58531,36.6962l-.83176,3.08057a1.97742,1.97742,0,0,1-.40047.30806,1.3855,1.3855,0,0,1-.64692.18483.51631.51631,0,0,1-.46209-.21564.62554.62554,0,0,1-.0308-.5545l.77014-2.83412h-.83175l-.73934,2.7109a1.31837,1.31837,0,0,0,.06161,1.01659,1.071,1.071,0,0,0,.955.40047,1.76718,1.76718,0,0,0,.73934-.154,3.33136,3.33136,0,0,0,.5545-.33887l-.12322.43128h.70853l1.0782-4.03554h-.801Z"/><path class="cls-1" d="M52.57583,37.15829a1.40823,1.40823,0,0,0-.46208-.40048,1.49348,1.49348,0,0,0-.801-.154,1.76087,1.76087,0,0,0-.955.24644,1.57794,1.57794,0,0,0-.70853.955.79583.79583,0,0,0,.06161.77014,1.27009,1.27009,0,0,0,.5853.33886l.40048.12323c.21564.0308.40048.0308.5237.21563a.486.486,0,0,1,.09242.40048,1.0214,1.0214,0,0,1-.27725.40047,1.17321,1.17321,0,0,1-.73934.21564,1.2741,1.2741,0,0,1-.5853-.154,1.74561,1.74561,0,0,1-.33887-.30805l-.52369.46208a1.41457,1.41457,0,0,0,1.263.55451,2.3644,2.3644,0,0,0,1.44787-.43128,2.06615,2.06615,0,0,0,.5853-.83176.85857.85857,0,0,0-.67773-1.17061l-.27724-.09242c-.36967-.09242-.5237-.12322-.61612-.21564-.09242-.06161-.154-.18483-.09242-.43128a.94.94,0,0,1,.27725-.40048,1.06532,1.06532,0,0,1,.5237-.154.72472.72472,0,0,1,.49289.154,2.778,2.778,0,0,1,.30806.27726Z"/><path class="cls-1" d="M56.7654,37.15829a1.15719,1.15719,0,0,0-.46208-.40048,1.38867,1.38867,0,0,0-.77015-.154,1.76086,1.76086,0,0,0-.955.24644,1.73617,1.73617,0,0,0-.73934.955.87581.87581,0,0,0,.09242.77014,1.27007,1.27007,0,0,0,.58531.33886l.36966.12323a.74238.74238,0,0,1,.55451.21563.40348.40348,0,0,1,.06161.40048,1.0214,1.0214,0,0,1-.27725.40047,1.17321,1.17321,0,0,1-.73934.21564,1.51521,1.51521,0,0,1-.61611-.154,1.74561,1.74561,0,0,1-.33887-.30805l-.52369.46208a1.46677,1.46677,0,0,0,1.29384.55451,2.36438,2.36438,0,0,0,1.44786-.43128,1.72388,1.72388,0,0,0,.55451-.83176.93579.93579,0,0,0-.03081-.70853,1.0321,1.0321,0,0,0-.64692-.46208l-.27725-.09242c-.33887-.09242-.5237-.12322-.58531-.21564-.09242-.06161-.154-.18483-.09242-.43128a.72464.72464,0,0,1,.27725-.40048.98827.98827,0,0,1,.5237-.154.75718.75718,0,0,1,.5237.154,2.77789,2.77789,0,0,1,.30805.27726Z"/><path class="cls-1" d="M58.27488,36.6962l-.154.5237h.46209l-.92417,3.51185h.77014l1.0782-4.03555Zm.49289-1.32464a.39527.39527,0,0,0,.36967.52369.65186.65186,0,0,0,.61611-.52369.36047.36047,0,0,0-.36966-.49289.687.687,0,0,0-.61612.49289"/><path class="cls-1" d="M65.85308,40.73175l.86256-3.173a1.83181,1.83181,0,0,1,1.04739-.40047c.27725,0,.40048.09241.46209.21564a.86407.86407,0,0,1,.0308.61611l-.73933,2.74171h.77014l.73934-2.6801a1.37756,1.37756,0,0,0-.06161-1.04739.93218.93218,0,0,0-.89337-.40048,2.08946,2.08946,0,0,0-1.20142.40048l.09242-.30806h-1.263l-.154.5237h.46208l-.955,3.51185h.801"/><path class="cls-1" d="M40.28436,34.90947l-1.57109,5.82228h.86256l.67772-2.55687h.58531l.83176,2.55687H42.718l-.955-2.58768a2.72362,2.72362,0,0,0,1.35545-.5237,1.91,1.91,0,0,0,.77014-1.13981,1.16529,1.16529,0,0,0-.18483-1.109,1.91623,1.91623,0,0,0-1.44787-.46208H40.28436Zm1.44787,2.58768H40.43839l.5237-1.90995H42.1327a.9923.9923,0,0,1,.70853.21564.69.69,0,0,1,.154.64692,1.58571,1.58571,0,0,1-.49289.77014A1.56445,1.56445,0,0,1,41.73223,37.49715Z"/><path class="cls-1" d="M62.09479,38.35971a1.7309,1.7309,0,0,0-1.72512,1.263.85281.85281,0,0,0-.03081.27726v.154c.03081.46209.33886.77015,1.01659.77015a1.80811,1.80811,0,0,0,.77014-.154c.03081,0,.03081-.03081.09242-.03081a1.68335,1.68335,0,0,0,.52369-.40047h.03081l-.154.49289H63.327l.70854-2.58768c.09241-.40047.21563-.83175-.03081-1.13981a1.2803,1.2803,0,0,0-1.01659-.40047,3.79212,3.79212,0,0,0-.89336.09241,1.18377,1.18377,0,0,0-1.01659,1.01659l.70853.03081a.97913.97913,0,0,1,.27725-.46209,1.15516,1.15516,0,0,1,.70853-.154.605.605,0,0,1,.46209.154.527.527,0,0,1,.0308.5237l-.154.52369h-.58531a2.03347,2.03347,0,0,0-.43128.03081m0,1.84834a1.546,1.546,0,0,1-.36967.06161.62413.62413,0,0,1-.49289-.18483.54075.54075,0,0,1-.06161-.49289.799.799,0,0,1,.33886-.49289,1.05423,1.05423,0,0,1,.58531-.21564,1.26921,1.26921,0,0,1,.36966-.03081h.58531l-.21564.86256a1.5077,1.5077,0,0,1-.40047.36967A2.03217,2.03217,0,0,0,62.09479,40.20805Z"/><path class="cls-1" d="M80.763,36.6962l-.154.5237h.46208l-.955,3.51185h.77015l1.07819-4.03555Zm.73933-1.32464a.39527.39527,0,0,0,.36967.52369.65186.65186,0,0,0,.61611-.52369.36047.36047,0,0,0-.36967-.49289.65669.65669,0,0,0-.61611.49289"/><path class="cls-1" d="M83.72038,36.6962l-1.0782,4.03555h.77014l.61612-2.31043a4.11072,4.11072,0,0,1,.33886-.73934.8079.8079,0,0,1,.70853-.46208.59432.59432,0,0,1,.30806.09242.49552.49552,0,0,1,.09242.33886l.70853-.21564c.154-.40047,0-.64692-.24645-.73934a.94859.94859,0,0,0-.40047-.09241,1.4877,1.4877,0,0,0-1.20142.67772l.154-.58531Z"/><path class="cls-1" d="M88.03318,34.81706l-1.29384,4.80568c-.09242.36967-.27725,1.109.64692,1.109h.46208l.154-.5237h-.21564c-.40047,0-.27725-.33886-.27725-.40047l1.32464-4.95972h-.80094Z"/><path class="cls-1" d="M90.128,36.6962l-.12322.5237h.46209l-.955,3.51185h.801L91.391,36.6962Zm.73934-1.32464a.39526.39526,0,0,0,.36967.52369.71476.71476,0,0,0,.64692-.52369.37119.37119,0,0,0-.36967-.49289.66511.66511,0,0,0-.64692.49289"/><path class="cls-1" d="M92.99289,40.73175l.83175-3.173a1.91756,1.91756,0,0,1,1.0474-.40047c.27725,0,.40047.09241.46208.21564.154.18483.03081.49289.03081.61611l-.73934,2.74171h.77015l.73933-2.6801a1.37756,1.37756,0,0,0-.06161-1.04739.93218.93218,0,0,0-.89337-.40048,2.08948,2.08948,0,0,0-1.20142.40048l.09242-.30806H92.83886l-.154.5237h.46209l-.92417,3.51185Z"/><path class="cls-1" d="M105.00711,37.15829a1.14381,1.14381,0,0,0-.43128-.40048,1.44078,1.44078,0,0,0-.77014-.154,1.76087,1.76087,0,0,0-.955.24644,1.61221,1.61221,0,0,0-.73934.955.87584.87584,0,0,0,.09242.77014,1.13449,1.13449,0,0,0,.5853.33886l.40047.12323c.21565.0308.40047.0308.5237.21563.09242.09242.12322.18484.09242.40048a1.0215,1.0215,0,0,1-.27725.40047,1.05252,1.05252,0,0,1-.73934.21564,1.2741,1.2741,0,0,1-.5853-.154,1.74561,1.74561,0,0,1-.33887-.30805l-.5237.46208a1.41459,1.41459,0,0,0,1.263.55451,2.18908,2.18908,0,0,0,1.41706-.43128,2.06628,2.06628,0,0,0,.58531-.83176.93579.93579,0,0,0-.03081-.70853,1.0321,1.0321,0,0,0-.64692-.46208l-.27725-.09242a1.63757,1.63757,0,0,1-.61612-.21564.413.413,0,0,1-.09241-.43128.72459.72459,0,0,1,.27725-.40048,1.06529,1.06529,0,0,1,.5237-.154.67852.67852,0,0,1,.49289.154,2.3515,2.3515,0,0,1,.27725.27726Z"/><path class="cls-1" d="M73.86256,40.73175h.89336l.89336-1.41706h2.218l.09242,1.41706H78.9763l-.5545-5.82228h-.70854ZM76.019,38.637l1.57109-2.46445h.03081l.18483,2.46445Z"/><path class="cls-1" d="M98.16825,38.88341h2.43365l.06161-.27725a1.80158,1.80158,0,0,0,.03081-1.54029,1.20764,1.20764,0,0,0-1.0782-.46208,2.17755,2.17755,0,0,0-1.41706.52369,3.32144,3.32144,0,0,0-.89337,1.6327,1.88687,1.88687,0,0,0,.09242,1.57109,1.55368,1.55368,0,0,0,1.263.46209,2.18636,2.18636,0,0,0,.89336-.154c.154-.06161.36968-.154.5545-.24645l-.12322-.46208a1.77873,1.77873,0,0,1-.5237.18483,3.32463,3.32463,0,0,1-.5853.09242.843.843,0,0,1-.70853-.27725,1.0285,1.0285,0,0,1-.06162-.89337Zm.12322-.55451.03081-.18483a1.89273,1.89273,0,0,1,.46208-.77014,1.1085,1.1085,0,0,1,.67773-.27725.72465.72465,0,0,1,.5237.18483,1.04984,1.04984,0,0,1,.03081.86256l-.03081.154-1.69432.0308Z"/></svg>