<svg id="aw" xmlns="http://www.w3.org/2000/svg" xmlns:xlink="http://www.w3.org/1999/xlink" viewBox="0 0 120 60"><defs><style>.cls-1{fill:none;}.cls-2{fill:#ec1c24;}.cls-3{clip-path:url(#clip-path);}.cls-4{clip-path:url(#clip-path-2);}</style><clipPath id="clip-path"><path class="cls-1" d="M-1817.18,1391.27h16.9l.14-1h-16.08l-1,1m2.28-2.36h15l.14-1h-14.13Zm2.27-2.37h13l.15-1h-12.2Zm-6.82,7.1h18.83l.14-1h-18Zm-2.27,2.36h20.77l.14-1h-20Zm20.46-21.28h3.3l.15-1h-2.5Zm-2.28,2.36h5.25l.14-1h-4.43Zm5.51-5.73-1,1h1.38l.14-1Zm-10,10.46h9.12l.15-1h-8.32Zm-2.28,2.37h11.07l.14-1h-10.25Zm4.55-4.73h7.19l.14-1h-6.37Z"/></clipPath><clipPath id="clip-path-2"><path class="cls-1" d="M-1537.18,1391.27h16.9l.14-1h-16.08l-1,1m2.28-2.36h15l.14-1h-14.13Zm2.27-2.37h13l.15-1h-12.2Zm-6.82,7.1h18.83l.14-1h-18Zm-2.27,2.36h20.77l.14-1h-20Zm20.46-21.28h3.3l.15-1h-2.5Zm-2.28,2.36h5.25l.14-1h-4.43Zm5.51-5.73-1,1h1.38l.14-1Zm-10,10.46h9.12l.15-1h-8.32Zm-2.28,2.37h11.07l.14-1h-10.25Zm4.55-4.73h7.19l.14-1h-6.37Z"/></clipPath></defs><title>Airline Logo_Airchina_Full_Dark</title><path class="cls-2" d="M8,26.45h3.19a1.65,1.65,0,0,1,1.64-1.63,4.29,4.29,0,0,0,1.19,0,2.17,2.17,0,0,0,1.29-1.17,1.74,1.74,0,0,1-.94,2,2.37,2.37,0,0,1-1.77.11.82.82,0,0,0-.94.7A1.39,1.39,0,0,1,13,27.74V35a1.07,1.07,0,0,0,2.13,0V30c0-7.47,5.78-10.62,9.2-10.85,2.83-.23,4.71,0,8.25-2.34a7.53,7.53,0,0,1-6,5.14c-.94.24-3.54-.12-6.13,2.56-2,2-2.23,4-2.23,6.43v4.55a3.93,3.93,0,0,1-4,3.85,3.82,3.82,0,0,1-3.89-3.85c0-1.28-.12-7.59-.12-7.59,0-.7-.35-1.17-1.06-1.17H8"/><path class="cls-2" d="M10.83,38.83a4.88,4.88,0,0,0,5.9.58,5.16,5.16,0,0,0,2.36-4V29.49a6.65,6.65,0,0,1,2.59-5.14,8,8,0,0,1,5-1.52,7.14,7.14,0,0,0,4.48-2.33,5.46,5.46,0,0,1-4.25,4.91c-.71.23-5.07-.24-5.07,4.78V36a5.61,5.61,0,0,1-2.59,5,5.78,5.78,0,0,1-8.38-2.22"/><path class="cls-2" d="M14.37,42.57a6.46,6.46,0,0,0,8.25-6.07V31.36a3.6,3.6,0,0,1,7.2,0c0,.81-.36,2.57-2,2.57a1.74,1.74,0,0,1-1.77-2.34.51.51,0,0,0,.46.7c.36,0,.6-.35.6-.81-.12-.12-.12-.94-1.06-.94A1,1,0,0,0,25,31.59v4.67c0,4.91-5.42,8.53-10.61,6.31"/><polyline points="50.24 26.91 47.16 26.91 44.52 38.73 47.59 38.73"/><polyline points="90.93 26.91 87.85 26.91 85.22 38.73 88.28 38.73"/><path d="M59.25,26.9H52.67L50,38.73h3.06L53.93,35a.67.67,0,0,1,.67.43l.87,3.32h3l-1.16-4c1.64,0,1.91-1.16,1.91-1.16l1.23-5.37a2.22,2.22,0,0,0,0-.49c-.14-.94-1.2-.85-1.24-.85m-2.49,6.27H54.49l.91-4.63h2.22Z"/><path d="M73.46,31.68h-3L71,29s.17-.48-.4-.48H69.11a.43.43,0,0,0-.43.31l-1.74,7.83s-.1.5.48.5h1.33a.42.42,0,0,0,.51-.39l.48-2h3.13l-.64,2.68a2.16,2.16,0,0,1-2.1,1.33H65.29S64,38.63,64.13,37L66,28.54s.43-1.63,1.73-1.63h5.19s1.46,0,1,2.11l-.5,2.66"/><polyline points="82.31 26.91 81.23 31.7 78.97 31.7 80.04 26.91 76.96 26.91 74.33 38.73 77.39 38.73 78.63 33.21 80.9 33.21 79.67 38.73 82.74 38.73 85.37 26.91"/><polyline points="98.63 26.91 97.25 33.5 96.17 26.91 93.31 26.91 90.85 38.73 93.71 38.73 95 32.52 96.16 38.73 99.02 38.73 101.47 26.91"/><path d="M38.14,26.91c-1.67,0-2.11,1.85-2.11,1.85l-2.44,10h3l1.33-5.33h2.16l-.42,1.72-.87,3.61H42l2.67-11.82m-4.28,5H38.18l.76-3.25h2.21Z"/><path d="M105.52,26.91c-1.68,0-2.1,1.85-2.1,1.85l-2.45,10h3l1.33-5.33h2.15L107,35.12l-.87,3.61h3.17L112,26.91m-4.27,5h-2.18l.77-3.25h2.2Z"/></svg>