<svg id="aw" xmlns="http://www.w3.org/2000/svg" viewBox="0 0 120 60"><defs><style>.cls-1{fill:#d7282f;}</style></defs><title>ai_template</title><path class="cls-1" d="M105.31719,32.68556c.00027-.439.22568-.5191.64379-.2858.771.43108,1.5728.87571,1.5728.87571.02764-.24544.24064-.45251.7022-.347.4305.10044.9115.20736.9115.20736s-.259-.58511-.37462-.83985c-.21217-.47173-.00989-.69712.19774-.76342,0,0-.29394-.19945-.48863-.33459-.41583-.28976-.318-.56961.08381-.74395.55209-.23643,1.236-.5421,1.236-.5421a.60878.60878,0,0,1-.187-.90107c.28267-.4102.70529-.98419.70529-.98419s-.74675.00679-1.24355,0a.54845.54845,0,0,1-.55721-.6205s-.73462.51866-1.25993.87342c-.44209.29877-.84411.00832-.77723-.50428.10466-.80233.20029-1.6872.20029-1.6872a.631.631,0,0,1-.94707-.26774c-.30723-.66214-.66043-1.436-.66043-1.436s-.35435.77384-.66072,1.436a.63173.63173,0,0,1-.94764.26774s.09453.88487.19945,1.6872c.0663.5126-.33485.80305-.77581.50428-.52615-.35476-1.26135-.87342-1.26135-.87342a.54792.54792,0,0,1-.55692.6205c-.49622.00679-1.24187,0-1.24187,0s.42178.574.70474.98419a.61.61,0,0,1-.18734.90107s.68386.30567,1.23456.5421c.4037.17434.50189.45419.08349.74395-.19381.13514-.4875.33459-.4875.33459.20737.0663.41023.29169.19749.76342-.11538.25474-.37437.83985-.37437.83985s.48074-.10692.91237-.20736c.46126-.1055.67484.10157.7022.347,0,0,.8012-.44463,1.57254-.87571.41808-.2333.64266-.15317.6435.2858v1.07683a3.38484,3.38484,0,0,1-.34644,1.66565,6.08071,6.08071,0,1,1,1.25514-.026v.78514A6.73007,6.73007,0,0,0,112,29.622a6.9365,6.9365,0,0,0-13.85623,0,6.69194,6.69194,0,0,0,5.58846,6.47177,1.7039,1.7039,0,0,1,1.16347.52757,6.97805,6.97805,0,0,0,.42149-2.68435S105.31661,33.0272,105.31719,32.68556Z"/><path class="cls-1" d="M23.47049,33.14345V26.10317h3.42888c1.83277.00552,2.64937.76977,2.71212,1.753a1.69711,1.69711,0,0,1-.39015,1.2406,2.46741,2.46741,0,0,1-1.03381.75256l2.59956,3.29585H28.865L26.57012,30.234H25.014v2.90949ZM25.014,29.30267h.69922c1.90713,0,2.29531-.31116,2.29531-1.23763,0-.90884-.83575-1.0519-2.07668-1.0519H25.014Z"/><path class="cls-1" d="M8,33.14767l3.08692-7.04378h1.87454l3.0494,7.04265H14.09813l-.81929-1.88849H10.02673l-.82986,1.88962Zm2.43452-2.82089h2.44132L11.662,27.52534Z"/><path class="cls-1" d="M18.20546,33.14429V26.10008h1.65083v7.04421Z"/><path class="cls-1" d="M42.6084,32.90335a7.9646,7.9646,0,0,1-2.91766.46436,4.9167,4.9167,0,0,1-3.26312-.99614,3.40212,3.40212,0,0,1-1.16093-2.75476,3.3793,3.3793,0,0,1,1.18618-2.7649A5.17062,5.17062,0,0,1,39.82,25.89217a14.14009,14.14009,0,0,1,2.77209.28126l-.00312,1.15737a10.283,10.283,0,0,0-2.71255-.46436,2.85752,2.85752,0,0,0-2.08217.70769,2.69749,2.69749,0,0,0-.73733,2.02309,2.584,2.584,0,0,0,.77951,2.009,3.11,3.11,0,0,0,2.18189.72756,6.67435,6.67435,0,0,0,2.58983-.52641Z"/><path class="cls-1" d="M44.62412,33.14767l3.08666-7.04378h1.87454L52.635,33.14654H50.72225l-.81955-1.88849h-3.252l-.82986,1.88962Zm2.43427-2.82089h2.44145l-1.214-2.80144Z"/><path class="cls-1" d="M64.99067,33.14767l3.08692-7.04378h1.87469l3.0494,7.04265h-1.913l-.81929-1.88849h-3.252l-.82972,1.88962Zm2.43438-2.82089h2.44146l-1.21368-2.80144Z"/><path class="cls-1" d="M84.31742,33.14767l3.087-7.04378h1.87468l3.04911,7.04265H90.41541l-.819-1.88849H86.34418l-.82972,1.88962Zm2.4347-2.82089h2.44146l-1.214-2.80144Z"/><path class="cls-1" d="M54.98321,33.14625l-.0004-7.042h1.90175l4.40894,5.02285.0017-5.02424H62.635l.00054,7.04193H60.90841L56.32048,27.8846v5.26165Z"/><path class="cls-1" d="M75.31984,33.14458v-7.0421h3.41137a4.10373,4.10373,0,0,1,2.81216.88119,3.17456,3.17456,0,0,1,.96991,2.50733,3.51462,3.51462,0,0,1-1.043,2.7031,4.09457,4.09457,0,0,1-2.90273.95048Zm1.651-1.00577,1.21789.00367a2.61715,2.61715,0,0,0,1.93111-.63478,2.649,2.649,0,0,0,.64183-1.94067,2.6885,2.6885,0,0,0-.50614-1.68072,1.82828,1.82828,0,0,0-.84494-.64,4.527,4.527,0,0,0-1.44219-.18055l-.99756-.00214Z"/></svg>