<svg id="aw" xmlns="http://www.w3.org/2000/svg" viewBox="0 0 120 60"><defs><style>.cls-1{fill:#e20e1c;}.cls-2{fill:#323374;}</style></defs><title>ai_template_air_france_full_1</title><path class="cls-1" d="M106.436,25.04453l-4.68,6.76a4.07741,4.07741,0,0,1-2.808,1.846v.208h5.2a3.78693,3.78693,0,0,0,3.068-1.872l4.784-6.942Z"/><path class="cls-2" d="M59.168,30.40053h2.548l-1.326-2.47Zm4.524,3.432-1.014-1.768H58.284l-.91,1.768H55.19l4.368-8.06H61.56l4.94,8.06Zm-51.61-3.432h2.626l-1.352-2.47Zm4.628,3.432-1.04-1.768H11.172l-.936,1.768H8l4.498-8.06h2.054l5.096,8.06Zm13.104-4.342c.936,0,1.378-.468,1.378-1.014s-.39-.962-1.378-.962H27.318v1.976Zm1.872,1.326,3.25,3.016H32.414a1.58371,1.58371,0,0,1-1.222-.468l-2.21-2.132a.28086.28086,0,0,0-.182-.078H27.292v2.678h-2.34v-8.06h5.096c2.652,0,3.744,1.196,3.744,2.496a2.8788,2.8788,0,0,1-2.106,2.548m18.304-1.352c.936,0,1.378-.468,1.378-1.014s-.39-.962-1.378-.962H47.494v1.976Zm1.872,1.352,3.25,3.016H52.616a1.58371,1.58371,0,0,1-1.222-.468l-2.21-2.132a.28086.28086,0,0,0-.182-.078H47.494v2.678h-2.34v-8.06H50.25c2.652,0,3.744,1.196,3.744,2.496a2.83978,2.83978,0,0,1-2.132,2.548m36.478,3.016v-8.06h8.164v1.742H90.68v1.404H96.4v1.742H90.68v1.482h5.772v1.742Zm-52.52,0v-8.06h7.852v1.742H38.16v2.002h5.382v1.742H38.16v2.6H35.82Zm51.116-5.46a8.2484,8.2484,0,0,0-3.848-.936c-1.898,0-3.302.988-3.302,2.34s1.43,2.392,3.302,2.392a7.45307,7.45307,0,0,0,3.926-1.092v2.002a9.4124,9.4124,0,0,1-4.03.91c-3.224,0-5.746-1.638-5.746-4.212,0-2.522,2.574-4.16,5.746-4.16a10.99725,10.99725,0,0,1,3.978.728Zm-12.298,5.46-5.642-4.784v4.784H67.02v-8.06h1.69l5.564,4.706v-4.706H76.25v8.06Zm-51.896,0h-2.34v-8.06h2.34Z"/></svg>