<svg id="aw" xmlns="http://www.w3.org/2000/svg" viewBox="0 0 120 60"><defs><style>.cls-1{fill:#e2011b;}.cls-2{fill:#e68036;}</style></defs><title>ai_template</title><path class="cls-1" d="M110.95644,33.44465l-2.28178,4.1529h-2.60185l2.17063-3.91223s.26415-.417-.06986-.417h-.89029c-.26441,0-.43121.32059-.43121.32059l-2.10091,3.84826h-2.588l.62615-1.02626s.11142-.33667-.37569-.33667H97.0293c-.79323,0-.16706-.93-.16706-.93l.64-1.1543h2.46267c.38964,0,.807-.72163.29217-.72163H98.6848l.33546-.48309h12.97358L112,33.44465Zm-6.72-.11223h-.96a.27708.27708,0,0,0-.27836.16036l-.43147.75354a.46907.46907,0,0,1-.37542.27272H99.72835l-.27822.513s-.29229.49717.22258.49717h3.58961l1.04356-1.82793S104.51464,33.33242,104.23643,33.33242Zm-6.42866-.08152h-.74791l-.54557.97812s-.10109.2329-.50508.2329H92.63438c-.34364,0-.5154.58218-.05067.58218h2.809c.72753,0,.39407.58231.39407.58231l-.66679,1.211a.95787.95787,0,0,1-.8891.46566H89.11823c-.80837,0-.53552-.69855-.53552-.69855l.20207-.34928H91.442s-.32328.55884.04036.55884h.849c.23223,0,.39393-.26788.39393-.26788l.293-.617s.11128-.34928-.36363-.34928H89.88612c-.63648,0-.36376-.51246-.36376-.51246l.36376-.62857a.91182.91182,0,0,1,.889-.4426h3.41531l.36376-.74536h-5.335L86.855,37.27977H84.16716L86.673,33.2277h-.60619l.30289-.51232h.60645l.60618-.9316s.08085-.32581.76788-.32581h9.134c.41431,0,.60619.24429.43456.54718s-.43456.78009-.43456.78009h.62656Zm-3.11229-1.30408H90.17909a.422.422,0,0,0-.384.29123l-.25248.48913h5.254l.192-.43095S95.14009,31.94682,94.69548,31.94682Zm-11.637.10056.35425-.56636h2.55973l-.25127.56636Zm2.457,1.19843H84.967l-.51419.89552a.65048.65048,0,0,1-.54867.25006H80.38446c-.20568,0-.5256.59264-.04572.59264h3.06267c.65124,0,.25128.5138.25128.5138l-.91417,1.475a.81488.81488,0,0,1-.62857.35532H78.57878l-.27418.56636H76.5905l.30865-.57938s-.62857-.066-.42288-.64533c.22846-.43469.29711-.5795.29711-.5795H79.219l-.06878.316s-.13717.36885.19429.36885h.78852c.22862,0,.4115-.26333.4115-.26333l.33145-.54008a.29728.29728,0,0,0-.30866-.43456H77.56192c-.457,0-.29727-.44783-.29727-.44783l.45708-.84284a.81743.81743,0,0,1,.743-.38185H82.087l.26293-.47385s.02293-.11879-.21707-.11879H78.40757l.3313-.54008h7.085ZM74.545,35.366l.38856-.67161h.97142l-.4.67161Zm-.89137-2.12021-.83426,1.43546s-.25141.44784-.57131.44784h-.71989a.57721.57721,0,0,1-.0114.61892c-.21708.28961-.4.51339-.4.51339s-.34285.48068.29713.48068h1.14826l-.31414.44127H68.80829c-.55978,0-.44569-.73758-.25127-.97437a3.8092,3.8092,0,0,0,.4-.60605c.30853-.50039-.32-.553-.32-.553l.24-.36873H70.3053l.90291-1.42232h-.97156l.28587-.48726h4.4566l-.29686.47412Zm-5.49653.01314-2.28555,3.88486H63.24312l1.23422-2.05439H63.40308l.27433-.50039h1.05132l.89138-1.29053h-.97142l.36578-.52681h4.52524l-.35425.48726ZM63.243,34.418s-.16.2896-.35411.2896h-.30851l-.02293.11841s.34285.19776.04558.68487c-.297.48726-.74268,1.14586-.74268,1.14586a1.33963,1.33963,0,0,1-1.14276.474H55.82668c-.54859,0-.28579-.64547-.28579-.64547l.10284-.35545h2.51415s-.22867.54008.30846.54008h.58285a.45831.45831,0,0,0,.42283-.19777l.66765-1.0666s.13221-.3029-.439-.3029h-1.3028l.28572-.53847h1.94258l.63982-.91015s.27448-.47424-.34257-.47424H60.3176c-.2628,0-.43992.34929-.43992.34929l-.19992.296H57.06091l.44548-.67147a.66394.66394,0,0,1,.62863-.39527h5.43941c.71989,0,.38857.56636.38857.56636Zm-7.65013-1.28076-1.29972,2.13444a1.1751,1.1751,0,0,1-1.0646.52052H50.68226l.30195-.489h.30423a.53166.53166,0,0,0,.4851-.2097l1.21237-1.88625H51.53106l-1.81882,2.79465s-.44815.55885.32939.55885h3.85375a.46286.46286,0,0,1,.51071.60445l-.10042.44353H51.47032a.34379.34379,0,0,0-.36369-.489H47.68394c-1.22906,0-.6391-.97826-.6391-.97826l1.9183-3.00423h-1.368l.30356-.42851h9.20978l-.28011.42851Z"/><path class="cls-1" d="M47.75473,40.53862l-3.77726,4.46194h3.7231l.5329-.63526h1.55889l-.22579.63526h3.42657l1.25219-4.46194Zm2.33851,2.97914H48.944l1.99365-2.37766Zm5.814-2.97914-2.3261,4.46194h3.72316l2.29017-4.46194Zm11.4817-.001c-1.24306,0-3.26085.001-3.26085.001H60.44069l-2.326,4.46194h3.7231l.75621-1.48977a.389.389,0,0,1,.339.21171l.72014,1.24978h3.38971l-.85463-1.54636c.93214,0,1.12736-.37624,1.12736-.37624l.90652-1.55855C68.45365,41.056,68.26486,40.53767,67.3889,40.53767Zm-2.80175,1.5465-.2093.48028c-.09265.18261-.21962.25421-.56931.25421h-.83667l.54679-1.17695.809-.00149C64.73383,41.64022,64.64708,41.93587,64.58715,42.08417Zm8.81879-1.54555-2.32617,4.46194h3.72316l2.2901-4.46194Zm10.12621,0-.6995,1.342-.97464-1.342H78.109L75.7828,45.00056h2.87577L79.555,43.2543l1.138,1.74626h3.3889l2.29025-4.46194Zm11.02979-.001c-1.24294,0-3.26073.001-3.26073.001H87.61385L85.288,45.00056h7.33464c.93212,0,1.12721-.37609,1.12721-.37609l1.64531-3.13334C95.62694,41.056,95.43829,40.53767,94.56194,40.53767Zm-2.80177,1.5465-.8844,1.53241c-.09265.18262-.21976.25408-.56931.25408h-.83693l1.22229-2.22895.80891-.00149C91.907,41.64022,91.82024,41.93587,91.76017,42.08417Zm5.11869-1.54555-2.32645,4.46194h3.72331l2.2901-4.46194Zm5.78694,0-3.77747,4.46194h3.72331l.53283-.63526h1.55882l-.22578.63526h3.42671l1.25218-4.46194Zm2.33839,2.97914h-1.14895l1.99337-2.37766Z"/><path class="cls-1" d="M52.81777,14.58345H47.608l-17.59172,13.682c-3.53659,2.49968-6.64829,4.9189-8.93054,5.49921A48.98128,48.98128,0,0,1,8,34.87864a43.8245,43.8245,0,0,0,4.36776.71921,23.36365,23.36365,0,0,1,11.3316,4.42027c1.94707,1.42085,3.14219,2.64943,4.52564,3.47322a11.37666,11.37666,0,0,0,5.43773,1.50855,20.47817,20.47817,0,0,0,5.06941-.614,22.54351,22.54351,0,0,1-5.122-.36845c-1.491-.31564-4.65945-1.43924-5.01678-3.2626-.342-1.74533,4.02981-3.08267,5.75356-3.33285a46.28987,46.28987,0,0,1,9.66517-.36834c-1.8418-.7192-2.3505-1.59622-2.3505-2.35057a4.34393,4.34393,0,0,1,.842-2.01725Z"/><path class="cls-2" d="M40.276,21.15168c1.4029-1.33209,5.407-4.71992,6.0663-5.23614-.40929.30437-2.17353,1.52424-3.86428,2.65783l-7.32493,5.697c-.03023.03245-.05986.06382-.09023.0968l.15017.19683A20.61973,20.61973,0,0,0,40.276,21.15168Zm8.42318-1.02538c.03305-.01181.05946-.0216.07723-.02869C48.75833,20.10377,48.73192,20.11363,48.69913,20.1263Zm-13.2546,4.7928.08616.232A20.61287,20.61287,0,0,0,41.369,23.36456c1.73059-.86482,6.54908-2.93692,7.33016-3.23826-.7884.28183-5.79083,1.85856-7.66615,2.33374A20.62,20.62,0,0,0,35.44453,24.9191Zm-3.25911,3.2166a20.61671,20.61671,0,0,0-2.71266,5.46971c-.56045,1.85179-2.36506,6.77673-2.6827,7.55131.33682-.7664,2.62766-5.48485,3.57086-7.174a20.61639,20.61639,0,0,0,2.05231-5.75035Zm-5.39536,13.021c-.01414.032-.02514.05807-.03217.07577C26.7658,41.21519,26.77673,41.18918,26.79006,41.15672Zm6.85886-12.82084-.24583.02856a20.61436,20.61436,0,0,0,.34766,6.0956c.15453.68033.36618,1.7877.57864,2.96467l.01749-.00267q.24084-.03482.47894-.06651c-.06309-1.19025-.111-2.31157-.11658-3.00677A20.61593,20.61593,0,0,0,33.64892,28.33588ZM20.111,35.98294c-.02816.02092-.05062.03808-.06544.05C20.06093,36.02168,20.08333,36.00452,20.111,35.98294Zm11.27951-8.45167-.15018-.19683-.08226.043-1.14176.888c-1.75131,1.23785-3.39809,2.45557-4.89189,3.44039-1.76349,1.56754-4.48078,3.86006-5.01342,4.27706.67174-.49946,4.99659-3.46734,6.65176-4.46893A20.61776,20.61776,0,0,0,31.39046,27.53127ZM46.34225,15.91554c.02816-.02091.05062-.038.06551-.05C46.39234,15.8768,46.36994,15.894,46.34225,15.91554ZM32.77934,28.32932A20.61575,20.61575,0,0,0,31.55618,34.311c-.0311.88144-.14877,2.44671-.27788,3.96759q.21108-.08407.425-.161c.29215-1.42568.59975-2.85566.808-3.669a20.61465,20.61465,0,0,0,.513-6.08407Zm2.71481-1.5241-.1009.22592a20.614,20.614,0,0,0,5.41808,2.81436c.6452.20864,1.66522.5771,2.751.982l.25362-.445c-1.04268-.54719-2.01665-1.07131-2.61082-1.41791A20.61527,20.61527,0,0,0,35.49415,26.80522Zm6.15821-2.18137a20.62315,20.62315,0,0,0-6.03165.94782l.024.24631a20.60892,20.60892,0,0,0,6.101-.23371c1.13546-.23571,3.45413-.607,5.30907-.8864l.13422-.23546C45.29112,24.5485,42.8444,24.63645,41.65236,24.62385Zm-6.45259,2.73284-.1554.19267a20.61256,20.61256,0,0,0,4.51787,4.10677c.59324.38134,1.534,1.03365,2.52193,1.73354.08494-.15191.17376-.29725.25757-.43455-.87254-.79993-1.6854-1.56057-2.17346-2.04984A20.61775,20.61775,0,0,0,35.19977,27.35669Zm.43791-1.16007-.03983.2443a20.61293,20.61293,0,0,0,5.95784,1.33477c.80468.04345,2.17876.16988,3.568.31161l.223-.39152c-1.41422-.3175-2.8297-.65-3.63575-.87247A20.619,20.619,0,0,0,35.63768,26.19662Zm-.86362,1.61809-.19951.14641a20.61593,20.61593,0,0,0,3.317,5.12593c.73858.80758,2.11921,2.45959,3.27043,3.86342q.161.00039.316.00188c-1.0156-1.54945-2.2403-3.45648-2.80847-4.43622A20.612,20.612,0,0,0,34.77406,27.81471Zm-2.9178.13369-.1955-.15192a20.61866,20.61866,0,0,0-4.0217,4.59389c-1.01546,1.64678-4.01981,5.94623-4.525,6.61382.52164-.65472,3.94332-4.63022,5.28722-6.02186A20.616,20.616,0,0,0,31.85626,27.9484ZM23.114,39.00419c-.02186.02749-.03915.04974-.05049.065C23.07561,39.05447,23.09284,39.03221,23.114,39.00419ZM34.24537,28.14844,34.015,28.239a20.61151,20.61151,0,0,0,1.89544,5.80384c.35585.68006.91075,1.8424,1.47047,3.04565q.23631-.0179.46747-.03325c-.4253-1.30877-.83036-2.5989-1.0398-3.36531A20.6186,20.6186,0,0,0,34.24537,28.14844Z"/></svg>