<svg id="aw" xmlns="http://www.w3.org/2000/svg" viewBox="0 0 120 60"><title>ai_template</title><path d="M45.342,35.11079l-.49361-4.19025c-.02178-.19658-.187-.27383-.37369-.27383H43.46647l.19808,1.51348-1.59134,2.9506-.59185-4.19025c-.02278-.19658-.18658-.27383-.37367-.27383H40.05492l.93235,6.38271h.70167l2.10683-3.80558.49288,3.80558h.70259l3.6419-6.38271h-.76886L45.342,35.11079Zm-30.1464,1.91863h1.47l1.36-6.38271H16.556l-1.36039,6.38271ZM57.1409,30.64671H51.75333c.08855.439.274.62573.81242.62573H55.286l-4.31384,4.561a1.7018,1.7018,0,0,0-.63582,1.196h5.60653c-.08735-.43578-.27221-.62218-.8003-.62379H52.29977l4.14934-4.49729a2.163,2.163,0,0,0,.69179-1.26163Zm-35.16658,0H19.1881l.28311.55354-1.23682,5.82917h1.469l1.229-5.79026h.44931a1.04912,1.04912,0,0,1,1.14112,1.28424c-.05457.68953-.53787,1.436-2.01848,1.59989l1.18479,2.204c.30762.56149.44981.70209,1.26122.70209h.77812l-1.64419-2.70824a2.17539,2.17539,0,0,0,1.952-1.75595c.132-1.18429-.69058-1.91852-2.06195-1.91852ZM10.40194,34.67185l1.77732-2.65306.39537,2.65306Zm2.17269-4.5841L8,37.02942h.82321L9.96341,35.33h2.69836l.12114.78952c.087.62419.24135.90994.93224.90994h.70146l-1.10813-6.94167ZM32.1568,35.066,30.084,31.32709c-.29662-.53869-.45043-.68038-1.08592-.68038h-.91087l.38438.74533-1.19618,5.63738H28.044l.9977-4.69294,2.28192,3.99085a1.13417,1.13417,0,0,0,1.18418.70209L33.868,30.64671h-.76855L32.1568,35.066Zm1.71279,1.96341H38.541c-.08734-.43843-.27421-.62379-.81169-.62379H35.48152L35.986,34.057H38.3005l.13081-.63348H36.10694l.46051-2.1511h2.13829c.53748,0,.72418-.18669.81151-.62573H35.22906l-1.35947,6.38271ZM85.234,35.066l-2.073-3.73892c-.29634-.53869-.44953-.68038-1.08585-.68038h-.91055l.38438.74533-1.19579,5.63738h.76795l.9989-4.69294,2.2798,3.99085a1.13682,1.13682,0,0,0,1.18487.70209l1.36018-6.38271h-.76773L85.234,35.066ZM61.75829,31.27244c.5385,0,.72468-.18669.81232-.62573H58.28222l-1.35976,6.38271H61.5942c-.08835-.43843-.27444-.62379-.8113-.62379H58.534l.50449-2.34861h2.31367l.13184-.63348h-2.3249l.46022-2.1511Zm2.5299,3.39941,1.42623-2.22633.47213,2.22633Zm1.76634-4.02514L61.9627,37.02942h.8227L63.87246,35.33h2.45589l.16419.78952c.13295.61645.27556.90994.96675.90994h.70115l-1.37067-6.38271Zm9.63736,4.02514,1.424-2.22633.47253,2.22633Zm1.76522-4.02514L73.366,37.02942h.8222l1.086-1.69946h2.4567l.16481.78952c.13131.61645.27371.90994.96521.90994h.70218l-1.37087-6.38271Zm-5.27162,5.75892H70.5408L71.769,30.64671H70.30016l-1.36131,6.38271h4.05886c-.08807-.43843-.27413-.62379-.81222-.62379Zm19.85977-2.56656A2.90157,2.90157,0,0,1,89.15,36.437h-.40637l1.10854-5.18681h.40576c1.39173,0,2.02846.96471,1.78731,2.58892Zm-1.46015-3.19185H88.11406l.28237.55193-1.2429,5.83066h2.22615a4.00419,4.00419,0,0,0,4.17884-3.19074c.31811-1.99526-1.04075-3.19185-2.97341-3.19185Z"/><path d="M97.63031,35.38614c.90109,1.9739,2.3944,3.16571,4.21946,3.16571A2.8204,2.8204,0,0,0,104.733,35.8656a2.348,2.348,0,0,0-2.36068-2.45915,1.51253,1.51253,0,0,0-1.65,1.35294,1.186,1.186,0,0,0,1.12745,1.20424.973.973,0,0,0,1.07027-.83279.86638.86638,0,0,1,.3065.73476,1.23852,1.23852,0,0,1-1.37677,1.16473c-.76742,0-1.89745-.42356-2.677-2.15244a11.53255,11.53255,0,0,1-.98271-2.62345h12.07525l.68946-1.61131H95.76758s.80018,2.42547,1.86273,4.743Zm2.03038-7.19879a28.13941,28.13941,0,0,1,2.94256-3.3141c.5036-.49524,1.82386-1.74385,3.16786-1.74385a1.4428,1.4428,0,0,1,1.56417,1.36515,1.03964,1.03964,0,0,1-.62828,1.0033c.06555-.332-.13631-1.24332-.969-1.24332a1.18012,1.18012,0,0,0-1.22642,1.15893,1.69961,1.69961,0,0,0,1.78423,1.64184,2.58937,2.58937,0,0,0,2.70552-2.71393,3.03418,3.03418,0,0,0-3.23024-2.79874c-1.83486,0-3.5331,1.3611-4.49791,2.35521a72.23893,72.23893,0,0,0-5.245,5.89653h15.28827L112,28.199v-.0116Z"/></svg>