<svg id="aw" xmlns="http://www.w3.org/2000/svg" viewBox="0 0 120 60"><defs><style>.cls-1{fill:#231f20;}.cls-2{fill:#bfd630;}.cls-2,.cls-3,.cls-4,.cls-5{fill-rule:evenodd;}.cls-3{fill:#70c045;}.cls-4{fill:#ec1c24;}.cls-5{fill:#bb151b;}</style></defs><title>ai_template</title><path class="cls-1" d="M45.572,30.98379l-.51245,1.84715H43.37274L45.572,25.63515h2.13523l2.23135,7.19579h-1.751l-.555-1.84715Zm1.82573-1.21716-.44847-1.52636c-.12826-.42733-.25623-.96121-.36306-1.388H46.565c-.10684.42676-.21367.97164-.33122,1.388l-.427,1.52636Z"/><path class="cls-1" d="M52.53063,25.63515v7.19579H50.89714V25.63515Z"/><path class="cls-1" d="M53.93886,25.73127a14.3377,14.3377,0,0,1,2.16708-.14939,3.67436,3.67436,0,0,1,2.32747.56572,1.82711,1.82711,0,0,1,.66185,1.50552A1.90918,1.90918,0,0,1,57.82484,29.425v.03242a1.81472,1.81472,0,0,1,.96092,1.34513c.22409.81124.44847,1.751.58715,2.02839H57.70758a9.2931,9.2931,0,0,1-.502-1.67633c-.192-.89637-.50175-1.14246-1.16359-1.15288h-.491v2.82921H53.93886Zm1.61207,3.09615h.64042c.81153,0,1.29185-.40591,1.29185-1.03533,0-.66243-.44847-.99306-1.19573-1.00406a4.03564,4.03564,0,0,0-.73654.05385Z"/><path class="cls-1" d="M61.99657,25.72085a10.76673,10.76673,0,0,1,1.78288-.139,2.959,2.959,0,0,1,2.018.59757,1.93559,1.93559,0,0,1,.63,1.50552,2.11733,2.11733,0,0,1-.55531,1.53736,2.97986,2.97986,0,0,1-2.19921.78982,3.20752,3.20752,0,0,1-.74755-.0637v2.88249h-.92878Zm.92878,3.46963a3.1237,3.1237,0,0,0,.769.0747c1.121,0,1.8043-.5443,1.8043-1.53736,0-.95022-.67285-1.4094-1.69776-1.4094a3.89438,3.89438,0,0,0-.87552.0747Z"/><path class="cls-1" d="M74.03723,29.15864c0,2.47657-1.50494,3.78985-3.34167,3.78985-1.90043,0-3.23455-1.47367-3.23455-3.65146,0-2.28433,1.41982-3.77943,3.34167-3.77943C72.7668,25.5176,74.03723,27.02312,74.03723,29.15864Zm-5.58373.117c0,1.53737.83324,2.91492,2.29591,2.91492,1.47309,0,2.30576-1.35613,2.30576-2.98961,0-1.43024-.74755-2.92534-2.29534-2.92534C69.22247,26.27557,68.4535,27.696,68.4535,29.2756Z"/><path class="cls-1" d="M75.45531,25.73127a9.67174,9.67174,0,0,1,1.78288-.14939,2.9432,2.9432,0,0,1,2.08224.58715,1.79347,1.79347,0,0,1,.56573,1.36654A1.88912,1.88912,0,0,1,78.53,29.37173v.03242a1.79192,1.79192,0,0,1,1.05733,1.45167,11.43538,11.43538,0,0,0,.55473,1.97512h-.96064a9.64172,9.64172,0,0,1-.4806-1.71861c-.21309-.99306-.59758-1.36654-1.44125-1.399H76.3841v3.11758h-.92879Zm.92879,3.27739h.95021c.99306,0,1.62306-.5443,1.62306-1.36654,0-.92879-.67285-1.33412-1.65491-1.34512a3.81267,3.81267,0,0,0-.91836.08569Z"/><path class="cls-1" d="M82.87288,26.42554H80.68467v-.79039h5.32721v.79039H83.81267v6.4054h-.93979Z"/><path class="cls-1" d="M87.95342,25.63515v4.26c0,1.61206.7157,2.29534,1.67633,2.29534,1.06776,0,1.751-.7047,1.751-2.29534v-4.26H92.32v4.19576c0,2.21021-1.16331,3.11758-2.72209,3.11758-1.47367,0-2.5837-.84367-2.5837-3.07473V25.63515Z"/><path class="cls-1" d="M99.62,32.51073a6.70731,6.70731,0,0,1-2.21022.39491,3.37942,3.37942,0,0,1-3.69373-3.63,3.60866,3.60866,0,0,1,3.8964-3.71515,4.44948,4.44948,0,0,1,1.79388.33121l-.22409.758a3.73113,3.73113,0,0,0-1.59064-.30978,2.69148,2.69148,0,0,0-2.89349,2.89348,2.63777,2.63777,0,0,0,2.77595,2.90391,3.03363,3.03363,0,0,0,1.23857-.19224V29.79906H97.25v-.74755h2.37Z"/><path class="cls-1" d="M102.41507,30.56745l-.74755,2.26349h-.96064l2.44473-7.19579h1.121l2.45573,7.19579h-.99306l-.769-2.26349Zm2.35961-.72554-.7047-2.07124c-.1604-.47019-.26694-.89694-.37406-1.31328h-.02085c-.10712.42676-.22467.86452-.36306,1.30227l-.7047,2.08225Z"/><path class="cls-1" d="M107.99648,25.63515h.92879v6.4164H112v.77939h-4.00352Z"/><polygon class="cls-2" points="15.428 29.936 22.558 29.936 22.558 34.717 15.428 34.717 15.428 29.936 15.428 29.936"/><polygon class="cls-2" points="11.586 37.706 16.325 21.013 23.497 21.013 28.236 37.706 23.497 37.706 19.911 25.795 16.325 37.706 11.586 37.706 11.586 37.706"/><polygon class="cls-2" points="11.586 37.706 11.586 25.795 8 25.795 8 21.013 19.911 21.013 19.911 25.795 16.325 25.795 16.325 37.706 11.586 37.706 11.586 37.706"/><polygon class="cls-3" points="11.586 37.706 16.325 37.706 16.325 25.795 19.911 25.795 19.911 21.013 16.325 21.013 11.586 37.706 11.586 37.706"/><path class="cls-4" d="M31.822,21.01321H23.49711V37.70563h4.7388V32.92416H31.822a5.95551,5.95551,0,0,0,0-11.91095Zm0,7.17219H28.23591V25.79467H31.822a1.158,1.158,0,0,1,1.15266,1.19544A1.18488,1.18488,0,0,1,31.822,28.1854Z"/><polygon class="cls-5" points="23.497 37.706 28.236 37.706 23.497 21.013 23.497 37.706 23.497 37.706"/></svg>