<svg id="aw" xmlns="http://www.w3.org/2000/svg" xmlns:xlink="http://www.w3.org/1999/xlink" viewBox="0 0 120 60"><defs><style>.cls-1{fill:none;}.cls-2{clip-path:url(#clip-path);}.cls-3{fill:url(#radial-gradient);}.cls-4{fill:#d71921;}.cls-5{fill:#771617;}</style><clipPath id="clip-path"><path class="cls-1" d="M15.63,42H8L28,21.1c2.28-2.48,4-3.14,6.59-3.14H41.7L38.36,42H32.5l2.89-20.58L15.63,42M48.48,24H43.34L40.81,42H46ZM75.56,35.6l-.49,3.52H72.6a2.17,2.17,0,0,1-1.34-.35,1.18,1.18,0,0,1-.45-1,2,2,0,0,1,1.91-2.08,10.32866,10.32866,0,0,1,1.16-.07Zm3.63-7.54a8.76989,8.76989,0,0,0-3.38-.52H70l-1.8,2.95h6.35c1.22,0,1.53.38,1.53,1.07a6.09766,6.09766,0,0,1-.07.76,1.16684,1.16684,0,0,1-.06.39H73.36c-2.71,0-4.45.34-5.83,1.75a5.50993,5.50993,0,0,0-1.37,3.88,3.3,3.3,0,0,0,1.56,3,7.46,7.46,0,0,0,3.64.69H79.8L81,33.57A16.22994,16.22994,0,0,0,81.21,31a3.09,3.09,0,0,0-2.02-2.93Zm27.15,7.54-.48,3.52h-2.47a2.16994,2.16994,0,0,1-1.34-.35,1.18,1.18,0,0,1-.45-1,2,2,0,0,1,1.91-2.08,10.3287,10.3287,0,0,1,1.16-.07ZM110,28.07a8.77016,8.77016,0,0,0-3.38-.52h-7L99.2,30.5h6.15c1.22,0,1.53.38,1.53,1.07a4.64,4.64,0,0,1-.07.76,1.16666,1.16666,0,0,1-.06.39h-2.61c-2.71,0-4.45.34-5.83,1.75A5.51,5.51,0,0,0,97,38.35a3.3,3.3,0,0,0,1.56,3,7.43991,7.43991,0,0,0,3.63.69h8.45l1.19-8.44A16.22981,16.22981,0,0,0,112,31,3.09,3.09,0,0,0,110,28.07ZM62.71,30.5H66.2L68,27.55H63.13L63.62,24H58.49L56.61,37.37a14.44925,14.44925,0,0,0-.16,1.69,4.12974,4.12974,0,0,0,.12,1.13c.35,1.32,1.37,1.83,2.92,1.83h4.92l.45-3h-2c-.85,0-1.16-.27-1.16-.83a4.401,4.401,0,0,1,.07-.71ZM56.07,24H50.93l-.35,2.48h5.14Zm-5.63,3.54L48.4,42h5.14l2-14.47ZM89.82,24H84.68L82.15,42h5.14Zm7.56,0H92.24l-.35,2.48H97Zm-5.64,3.54L89.71,42h5.13l2-14.47Z"/></clipPath><radialGradient id="radial-gradient" cx="325.71708" cy="44.77765" r="36.06" gradientTransform="matrix(1.24, 0, 0, -1.2, -342.57999, 86.56718)" gradientUnits="userSpaceOnUse"><stop offset="0" stop-color="#4c972d"/><stop offset="0.18" stop-color="#48922c"/><stop offset="0.41" stop-color="#3b822a"/><stop offset="0.66" stop-color="#276926"/><stop offset="0.93" stop-color="#0a4620"/><stop offset="1" stop-color="#013b1e"/></radialGradient></defs><title>ai_template_alitalia_full_1</title><g id="g3343"><g class="cls-2"><rect id="rect3364" class="cls-3" x="4" y="9.44999" width="117.46" height="46.05"/></g></g><g id="g3366"><polyline id="polyline3368" class="cls-4" points="30.07 42.02 32.01 28.18 18.72 42.02 30.07 42.02"/></g><g id="use3376"><path id="SVGID" class="cls-5" d="M21.2,39.44h9.23l.07-.55H21.73l-.53.55m1.24-1.3h8.17l.08-.55H23Zm1.24-1.29h7.11l.08-.54H24.21ZM20,40.72H30.24l.08-.54H20.48ZM18.72,42H30.06l.08-.55H19.24ZM29.89,30.39H31.7l.08-.54H30.41Zm-1.24,1.29h2.87l.07-.54H29.17Zm3-3.13-.53.55h.75l.08-.55Zm-5.49,5.72h5l.08-.55H26.69Zm-1.25,1.29h6l.08-.55h-5.6ZM27.41,33h3.93l.07-.54H27.93Z"/></g></svg>