<svg id="aw" xmlns="http://www.w3.org/2000/svg" xmlns:xlink="http://www.w3.org/1999/xlink" viewBox="0 0 120 60"><defs><style>.cls-1{fill:none;}.cls-2{clip-path:url(#clip-path);}.cls-3{fill:url(#linear-gradient);}.cls-4{clip-path:url(#clip-path-2);}.cls-5{fill:url(#linear-gradient-2);}.cls-6{clip-path:url(#clip-path-3);}.cls-7{fill:url(#linear-gradient-3);}.cls-8{fill:#394c75;}</style><clipPath id="clip-path"><path class="cls-1" d="M95.7,22l3.13,5.14A2.34,2.34,0,0,0,101,28.43h3.14L99.91,23.2A3.32,3.32,0,0,0,97,22H95.7"/></clipPath><linearGradient id="linear-gradient" x1="-659.85768" y1="1891.11166" x2="-658.8477" y2="1891.11166" gradientTransform="translate(11900.46135 4140.73989) rotate(90) scale(6.24)" gradientUnits="userSpaceOnUse"><stop offset="0" stop-color="#00d9ff"/><stop offset="1" stop-color="#0e518a"/></linearGradient><clipPath id="clip-path-2"><path class="cls-1" d="M102.73,30.83l-.58,1.8,2,3.42a3.53,3.53,0,0,0,3.15,2H112l-6.69-8.11Z"/></clipPath><linearGradient id="linear-gradient-2" x1="-887.03229" y1="2258.23329" x2="-886.02234" y2="2258.23329" gradientTransform="translate(8786.59976 -22074.1088) scale(9.79)" gradientUnits="userSpaceOnUse"><stop offset="0" stop-color="#f12e1f"/><stop offset="1" stop-color="#9f1e1c"/></linearGradient><clipPath id="clip-path-3"><path class="cls-1" d="M102.66,28.88c-1.65.18-2,1.14-1.6,1.95l1.54,2.61c-.17-2.89,3.15-3.56,5.38-3.34-.53-1.09-1.94-1.35-3.31-1.35a19.40231,19.40231,0,0,0-2,.13"/></clipPath><linearGradient id="linear-gradient-3" x1="-806.57039" y1="2443.93981" x2="-805.57039" y2="2443.93981" gradientTransform="translate(4320.52848 -12750.71165) scale(5.23)" gradientUnits="userSpaceOnUse"><stop offset="0" stop-color="#e6eaef"/><stop offset="1" stop-color="#95aab1"/></linearGradient></defs><title>ai_template_american_airlines_full_1</title><g class="cls-2"><rect class="cls-3" x="95.7" y="21.94999" width="8.45" height="6.48"/></g><g class="cls-4"><rect class="cls-5" x="102.15" y="29.93999" width="9.85" height="8.11"/></g><g class="cls-6"><rect class="cls-7" x="100.5629" y="28.67386" width="7.46" height="4.84" transform="translate(-0.58278 2.02619) rotate(-1.11)"/></g><path class="cls-8" d="M23,34.9V31.68c0-1.06-.38-1.62-1.11-1.62a1.18,1.18,0,0,0-1.09.82,1.58013,1.58013,0,0,0-.08.52v3.5H19.35V31.52c0-.93-.39-1.46-1.07-1.46a1.25,1.25,0,0,0-1.13.87,1.76994,1.76994,0,0,0-.08.52V34.9H15.71V30.79c0-.66,0-1.23-.05-1.72h1.19l.07.88H17a2,2,0,0,1,1.79-1A1.66,1.66,0,0,1,20.42,30h.08a2.4801,2.4801,0,0,1,.71-.73,2,2,0,0,1,1.19-.34c.45,0,1.92.18,1.92,2.52V34.9Z"/><path class="cls-8" d="M28.32,35a2.76,2.76,0,0,1-3-2.94,2.89,2.89,0,0,1,2.629-3.12931q.11025-.00957.221-.01069a2.54,2.54,0,0,1,2.51,2.83,4.819,4.819,0,0,1,0,.59h-4A1.67,1.67,0,0,0,28.53,34a4.99954,4.99954,0,0,0,1.6-.25l.2.93a5.39982,5.39982,0,0,1-2,.35m-.25-5.16a1.52,1.52,0,0,0-1.42,1.5v.05h2.7v-.05A1.64,1.64,0,0,0,29,30.2a1.19,1.19,0,0,0-.88-.34"/><path class="cls-8" d="M31.73,34.9v-4c0-.83,0-1.37-.05-1.86h1.19l.06,1.12h.12a1.72,1.72,0,0,1,1.59-1.22h.54v1.3h-.64a1.37,1.37,0,0,0-1.39,1.17,3.33087,3.33087,0,0,0,0,.46v3Z"/><path class="cls-8" d="M41.32,35a2.81,2.81,0,0,1-3-3,3,3,0,0,1,3.25-3.1,4.00018,4.00018,0,0,1,1.39.25l-.24,1a2.63014,2.63014,0,0,0-1.1-.21,1.82,1.82,0,0,0-1.33.52A2,2,0,0,0,39.75,32a1.80995,1.80995,0,0,0,1.86,2,3.0797,3.0797,0,0,0,1.14-.21l.19,1a4.49969,4.49969,0,0,1-1.62.28"/><path class="cls-8" d="M45.4,35a1.71,1.71,0,0,1-1.80712-1.607q-.0033-.05642-.00288-.113c0-1.41,1.21-2.19,3.42-2.19h.1V31c0-.4-.16-1.08-1.25-1.08a3.27007,3.27007,0,0,0-1.57.41L44,29.44a4.13007,4.13007,0,0,1,2.08-.5,2.18,2.18,0,0,1,2.4,2.46v2.13a8.00082,8.00082,0,0,0,.09,1.37H47.34l-.11-.65h-.11A2.1,2.1,0,0,1,45.4,35M47,32c-1.36,0-2,.38-2,1.15a.83.83,0,0,0,.9.9,1.28,1.28,0,0,0,1.23-.85.99989.99989,0,0,0,0-.34V32Z"/><path class="cls-8" d="M53.52,34.9V31.6c0-1-.42-1.54-1.18-1.54a1.29,1.29,0,0,0-1.21.91,1.36011,1.36011,0,0,0-.08.49V34.9h-1.4V29.07h1.2l.07.89H51a2.09,2.09,0,0,1,1.85-1c1,0,2.06.65,2.06,2.49V34.9Z"/><path class="cls-8" d="M67.74,34.9V29.04h1.19l.06,1.12h.12a1.72,1.72,0,0,1,1.59-1.22h.55v1.3H70.6a1.37,1.37,0,0,0-1.39,1.17,3.32774,3.32774,0,0,0,0,.46v3Z"/><rect class="cls-8" x="71.83" y="26.35999" width="1.4" height="8.54"/><path class="cls-8" d="M81.45,34.9V31.6c0-1-.42-1.54-1.18-1.54a1.29,1.29,0,0,0-1.21.91,1.3599,1.3599,0,0,0-.08.49V34.9h-1.4V29.07h1.21l.07.89h.11a2.09,2.09,0,0,1,1.85-1c1,0,2.06.65,2.06,2.49V34.9Z"/><path class="cls-8" d="M86.93,35a2.76,2.76,0,0,1-3-2.94,2.89,2.89,0,0,1,2.629-3.12931q.11025-.00957.221-.01069a2.54,2.54,0,0,1,2.51,2.83,4.819,4.819,0,0,1,0,.59h-4A1.67,1.67,0,0,0,87.14,34a4.99963,4.99963,0,0,0,1.6-.25l.2.93a5.39978,5.39978,0,0,1-2,.35m-.25-5.16a1.52,1.52,0,0,0-1.42,1.5v.05H88v-.05a1.64,1.64,0,0,0-.4-1.16,1.19,1.19,0,0,0-.88-.34"/><path class="cls-8" d="M91.72,35A3.77993,3.77993,0,0,1,90,34.63l.28-1a3.36992,3.36992,0,0,0,1.47.41c.64,0,1-.26,1-.72s-.32-.66-1-.91c-1-.35-1.6-.93-1.6-1.68,0-1.06.9-1.8,2.19-1.8a3.38024,3.38024,0,0,1,1.52.33l-.27.95a2.61,2.61,0,0,0-1.23-.32c-.53,0-.87.27-.87.68s.31.6,1.06.88c1.08.37,1.54.89,1.55,1.75,0,1.12-.9,1.81-2.36,1.81"/><path class="cls-8" d="M13.56,34.9h1.51l-2.63-8.1H10.6L8,34.9H9.44L10,33.12h3Zm-3.31-2.8L11,29.46c.09-.31.18-.65.26-1a2.36792,2.36792,0,0,1,.13-.54h.1l.08.32c.1.4.22.85.35,1.25l.78,2.64Z"/><path class="cls-8" d="M62.6,34.9h1.52l-2.64-8.1H59.64l-2.59,8.1h1.44L59,33.12h3.07Zm-3.3-2.8.76-2.64c.09-.31.17-.65.25-1a1.95173,1.95173,0,0,1,.14-.54h.1l.08.32c.1.4.21.85.34,1.25l.79,2.64Z"/><rect class="cls-8" x="35.96" y="29.06999" width="1.4" height="5.83"/><rect class="cls-8" x="36.04" y="26.84999" width="1.25" height="1.2"/><rect class="cls-8" x="64.8" y="29.06999" width="1.4" height="5.83"/><rect class="cls-8" x="64.88" y="26.84999" width="1.26" height="1.2"/><rect class="cls-8" x="74.81" y="29.06999" width="1.4" height="5.83"/><rect class="cls-8" x="74.89" y="26.84999" width="1.26" height="1.2"/></svg>