<?xml version="1.0" encoding="UTF-8"?>
<svg width="653px" height="248px" viewBox="0 0 653 248" version="1.1" xmlns="http://www.w3.org/2000/svg" xmlns:xlink="http://www.w3.org/1999/xlink">
    <!-- Generator: Sketch 61.2 (89653) - https://sketch.com -->
    <title>ANAlogo_with_margin</title>
    <desc>Created with Sketch.</desc>
    <g id="Page-1" stroke="none" stroke-width="1" fill="none" fill-rule="evenodd">
        <g id="ANAlogo_without_margin-1">
            <rect id="Rectangle" fill="#FFFFFF" opacity="0" x="0" y="0" width="653" height="248"></rect>
            <path d="M222.17,170.28 L216.59,88.86 L189.65,88.86 L144,170.28 L157.94,170.28 L194.58,104.92 L194.58,104.92 C194.967278,104.255178 195.730776,103.905709 196.487072,104.047094 C197.243367,104.188478 197.829052,104.790168 197.95,105.55 L200.45,142.49 C200.375035,144.454286 198.765694,146.010718 196.8,146.02 L174.5,146.02 L168.13,157.8 L198.39,157.8 L198.39,157.8 C199.278475,157.8 200.130561,158.152945 200.758808,158.781192 C201.387055,159.409439 201.74,160.261525 201.74,161.15 L201.74,161.15 L202.37,170.26 L222.17,170.28 Z" id="Path" fill="#00146E" fill-rule="nonzero"></path>
            <path d="M374.89,170.28 L367.65,88.86 L341.29,88.86 L299.75,170.28 L313.14,170.28 L346.25,105.73 L346.25,105.73 C346.539391,105.173741 347.112975,104.823431 347.74,104.82 C348.624148,104.843466 349.364984,105.495906 349.5,106.37 L352.71,142.48 C352.800101,143.423245 352.471483,144.358479 351.811167,145.038046 C351.150851,145.717614 350.225444,146.072965 349.28,146.01 L328.58,146.01 L322.72,157.79 L350.72,157.79 L350.72,157.79 C351.678045,157.766929 352.60275,158.142238 353.27372,158.826476 C353.944691,159.510715 354.301824,160.44259 354.26,161.4 L354.26,161.4 L355.1,170.25 L374.89,170.28 Z" id="Path" fill="#00146E" fill-rule="nonzero"></path>
            <path d="M298.56,88.86 L287.62,152.06 C287.443278,152.652745 286.898527,153.059275 286.28,153.06 C285.65993,153.057174 285.113396,152.652335 284.93,152.06 L266.81,88.87 L239.34,88.87 L225.26,170.29 L237.45,170.29 L248.34,107.34 L248.34,107.43 C248.500816,106.781583 249.071067,106.31767 249.738642,106.292173 C250.406217,106.266675 251.010193,106.685739 251.22,107.32 L269.27,170.32 L296.67,170.32 L310.75,88.9 L298.56,88.86 Z" id="Path" fill="#00146E" fill-rule="nonzero"></path>
            <polygon id="Path" fill="#00146E" fill-rule="nonzero" points="433.56 77 380.5 170.28 440.56 170.28 493.62 77"></polygon>
            <polygon id="Path" fill="#00AFF0" fill-rule="nonzero" points="493.62 77 440.56 170.28 455.56 170.28 508.62 77"></polygon>
        </g>
    </g>
</svg>