<?xml version="1.0" encoding="utf-8"?>
<!-- Generator: Adobe Illustrator 22.1.0, SVG Export Plug-In . SVG Version: 6.00 Build 0)  -->
<svg version="1.1" id="aw" xmlns="http://www.w3.org/2000/svg" xmlns:xlink="http://www.w3.org/1999/xlink" x="0px" y="0px"
	 viewBox="0 0 120 60" style="enable-background:new 0 0 120 60;" xml:space="preserve">
<style type="text/css">
	.st0{fill:#657074;}
	.st1{fill:#EE353A;}
</style>
<title>ai_template</title>
<g>
	<path class="st0" d="M13.6,39.3l-0.5-1.7h-2.9l-0.5,1.7H8l2.8-8.4h1.6l2.8,8.4H13.6z M11.6,32.8l-1.1,3.4h2.1L11.6,32.8z"/>
	<path class="st0" d="M21.5,38.2c-0.6,0.9-1.6,1.4-2.7,1.3c-1.4,0.1-2.7-0.7-3.1-2c-0.1-0.3-0.1-0.6-0.1-1h1.6
		c0,0.2,0.1,0.4,0.1,0.7c0.3,0.6,0.9,1,1.6,1c0.5,0,1.3-0.2,1.3-0.9c0-0.1,0-0.3-0.1-0.4c-0.2-0.4-0.8-0.6-1.2-0.7
		c-0.8-0.3-1.5-0.6-2.2-1.1c-0.6-0.4-0.9-1.1-0.9-1.8c0.1-1.4,1.3-2.5,2.7-2.5c0.1,0,0.1,0,0.2,0c1.1-0.1,2.1,0.5,2.6,1.5
		c0.2,0.4,0.2,0.8,0.2,1.1H20c0-0.7-0.6-1.2-1.2-1.2h-0.1c-0.5,0-1.2,0.3-1.2,0.9c0,0.6,0.7,0.8,1.2,1c0.8,0.3,1.6,0.6,2.3,1
		c0.6,0.4,0.9,1.1,0.9,1.8C21.8,37.3,21.7,37.8,21.5,38.2z"/>
	<path class="st0" d="M22.9,39.3V31h1.6v8.4h-1.6V39.3z"/>
	<path class="st0" d="M31,39.3l-0.5-1.7h-2.9L27,39.3h-1.7l2.8-8.4h1.6l2.8,8.4H31z M29,32.8l-1.1,3.4H30L29,32.8z"/>
	<path class="st0" d="M38.3,39.3l-3.5-5.9v5.9h-1.5V31H35l3.4,5.9V31h1.5v8.4h-1.6V39.3z"/>
	<path class="st0" d="M46.1,39.3l-0.5-1.7h-2.9l-0.5,1.7h-1.7l2.8-8.4h1.6l2.8,8.4H46.1z M44.1,32.8L43,36.2h2.1L44.1,32.8z"/>
	<path class="st0" d="M57.2,39.3l-0.5-1.7h-2.9l-0.5,1.7h-1.7l2.8-8.4H56l2.8,8.4H57.2z M55.2,32.8l-1.1,3.4h2.1L55.2,32.8z"/>
	<path class="st0" d="M59.7,39.3V31h1.6v8.4h-1.6V39.3z"/>
	<path class="st0" d="M67.3,39.3l-1.7-3.2h-1.2v3.2h-1.6V31H65c0.7,0,1.4,0,2,0.2c1,0.3,1.7,1.3,1.6,2.4c0,1-0.5,1.9-1.5,2.3
		l1.9,3.5L67.3,39.3z M66.4,32.5c-0.4-0.1-0.8-0.2-1.2-0.2h-0.8v2.4h1.1c0.9,0,1.6-0.2,1.6-1.2C67.1,33.1,66.8,32.7,66.4,32.5z"/>
	<path class="st0" d="M69.9,39.3V31h1.6v7h3.6v1.4h-5.2V39.3z"/>
	<path class="st0" d="M76.2,39.3V31h1.6v8.4h-1.6V39.3z"/>
	<path class="st0" d="M84.2,39.3l-3.5-5.9v5.9h-1.5V31h1.7l3.4,5.9V31h1.5v8.4h-1.6V39.3z"/>
	<path class="st0" d="M87.3,39.3V31h5.3v1.4h-3.7v2h3.3v1.4h-3.3v2.3h3.8v1.4L87.3,39.3z"/>
	<path class="st0" d="M99.1,38.2c-0.6,0.9-1.6,1.4-2.7,1.3c-1.4,0.1-2.7-0.7-3.1-2c-0.1-0.3-0.1-0.6-0.1-1h1.6
		c0,0.2,0.1,0.4,0.1,0.7c0.3,0.6,0.9,1,1.6,1c0.5,0,1.3-0.2,1.3-0.9c0-0.1,0-0.3-0.1-0.4c-0.2-0.4-0.8-0.6-1.2-0.7
		c-0.8-0.3-1.5-0.6-2.2-1.1c-0.6-0.4-0.9-1.1-0.9-1.8c0.1-1.4,1.3-2.5,2.7-2.5c0.1,0,0.1,0,0.2,0c1.1-0.1,2.1,0.5,2.6,1.5
		c0.2,0.4,0.2,0.8,0.2,1.2h-1.6c0-0.7-0.6-1.2-1.2-1.2h-0.1c-0.5,0-1.2,0.3-1.2,0.9c0,0.6,0.7,0.8,1.2,1c0.8,0.3,1.6,0.6,2.3,1
		c0.6,0.4,0.9,1.1,0.9,1.8C99.4,37.3,99.3,37.8,99.1,38.2z"/>
	<path class="st1" d="M97.8,25.4c0,0.2,0,0.4,0.1,0.6c0.3,0.9,1.3,1.3,2.2,1c0.1,0,0.1,0,0.2-0.1c0.3-0.1,7.7-3.1,7.7-3.1
		s-2.9,7.4-3,7.7c-0.4,0.9,0,1.9,0.8,2.3c0,0,0.1,0,0.1,0.1c0.2,0.1,0.4,0.1,0.6,0.1c0.8,0,1.4-0.5,1.6-1.3c0-0.1,3.7-10.2,3.8-10.4
		c0.1-0.2,0.1-0.5,0.1-0.7c0-1-0.8-1.8-1.8-1.8l0,0c-0.2,0-0.5,0.1-0.7,0.1c-0.2,0.1-9.6,3.6-10.4,3.9C98.3,24,97.8,24.7,97.8,25.4z
		"/>
</g>
</svg>
