<svg id="aw" xmlns="http://www.w3.org/2000/svg" xmlns:xlink="http://www.w3.org/1999/xlink" viewBox="0 0 120 60"><defs><style>.cls-1,.cls-2,.cls-3{fill-rule:evenodd;}.cls-1{fill:url(#New_Gradient_Swatch_copy_3);}.cls-2{fill:#ee212c;}.cls-3{fill:url(#New_Gradient_Swatch_copy_3-2);}</style><linearGradient id="New_Gradient_Swatch_copy_3" x1="86.34041" y1="26.11407" x2="94.47208" y2="26.11407" gradientUnits="userSpaceOnUse"><stop offset="0" stop-color="#ee212c"/><stop offset="1" stop-color="#ba212c"/></linearGradient><linearGradient id="New_Gradient_Swatch_copy_3-2" x1="97.40923" y1="27.54817" x2="86.77367" y2="35.67746" xlink:href="#New_Gradient_Swatch_copy_3"/></defs><title>ai_template</title><path class="cls-1" d="M86.34041,26.5553l6.00012-1.35375s1.73939-.37872,2.13155.60066c-.00038.00659-1.50806-.17-4.58137,1.2964Z"/><path class="cls-2" d="M69.74311,36.45541a2.39088,2.39088,0,0,1-1.60621.56287c-1.04187,0-1.56655-.3013-1.8415-.94655a2.78911,2.78911,0,0,1-2.34051.94655c-1.59031,0-2.66371-.82854-2.66371-2.253,0-1.53793,1.368-2.27856,3.22248-2.84919l.13767-.04343c.93206-.28643,1.656-.60738,1.656-1.40178v-.39406c0-1.18581-.54358-1.80768-1.54355-1.80768-.77619,0-1.09939.36395-1.19363,1.15578-.04971.41372-.22377.9072-.826.9072a.74128.74128,0,0,1-.81926-.75915c0-1.0393,1.20036-1.77246,2.98172-1.77246,2.18988,0,3.04066.87564,3.04066,2.6637v4.38121c0,1.15435.19219,1.564.73539,1.564a1.35343,1.35343,0,0,0,.81558-.28795l.24486.334Zm-3.415-2.48709v-2.335c-.34544.19743-.67268.36882-.98959.534-1.32606.68824-2.30637,1.26821-2.30637,2.65327a1.5191,1.5191,0,0,0,1.46859,1.62965c1.17545,0,1.82737-.902,1.82737-2.4819ZM12.22916,30.77847h4.29072L14.389,25.38687l-2.15984,5.3916Zm4.50816.54691h-4.7267l-.37328.93206a8.95839,8.95839,0,0,0-.73687,2.68856c-.00262.86935.61516,1.25154,1.8066,1.41369V36.717H8v-.37291c1.394-.07976,2.02889-1.84293,3.55386-5.56041l3.3219-8.1035h.43858L19.503,32.96578c.87306,2.14275,1.33393,3.33786,2.64666,3.37829V36.717h-5.7096v-.37143c1.1113-.06157,1.69121-.36915,1.69235-1.05635a5.56587,5.56587,0,0,0-.49867-1.69788l-.89644-2.26594Zm13.98191-3.221h-3.063v.38591h.15324c1.28268,0,1.32354.42558,1.32354,2.677v2.56683A2.63215,2.63215,0,0,1,28.68,35.59939a2.2785,2.2785,0,0,1-1.699.82968c-1.17283,0-1.76727-.81148-1.76727-2.3717v-5.953H22.08029v.38591h.15177c1.28268,0,1.32349.42558,1.32349,2.677V33.9828c0,1.95165.83111,3.03548,2.86518,3.03548a3.6959,3.6959,0,0,0,2.71233-1.06416V36.924l.479-.06938c.84672-.12171,1.64779-.23562,2.4266-.32358l.0471-.00518v-.31648l-.04824-.00263c-.99363-.07752-1.266-.44782-1.266-1.72792V28.10438Zm3.32233,2.06932c0,1.57987,1.29825,2.10488,2.67927,2.87333.93059.52353,1.59288,1.08082,1.59288,1.95688a1.41717,1.41717,0,0,1-1.48416,1.48564c-1.31535,0-2.09565-.68087-2.61808-2.62847l-.01038-.03824h-.27344v3.05405h.26043l.01563-.02114c.20033-.28273.36914-.403.56286-.403a1.29893,1.29893,0,0,1,.407.14395,4.15337,4.15337,0,0,0,1.77769.42154,2.66983,2.66983,0,0,0,2.88223-2.66,2.47587,2.47587,0,0,0-.784-1.82069,8.32745,8.32745,0,0,0-1.91494-1.25783c-1.0942-.5981-1.817-.974-1.817-1.8326a1.20411,1.20411,0,0,1,1.34573-1.15834c1.06826,0,1.86.7762,2.17284,2.24365l.00929.04047h.276V27.94338h-.26976l-.01152.03114c-.09425.2241-.19924.31168-.377.31168a1.26515,1.26515,0,0,1-.39552-.13467,3.67338,3.67338,0,0,0-1.48679-.351,2.39115,2.39115,0,0,0-2.53937,2.37318Zm12.93894,6.131a2.52665,2.52665,0,0,1-1.90864.71354c-1.61364,0-2.3758-.73169-2.3758-2.15723,0-1.3365.07757-6.24761.07757-6.24761H41.66605v-.48419l.04343-.00815c1.1673-.19372,1.80736-.85711,2.28265-2.32456l.01186-.03676h.41334l-.01929,2.3446h2.22775v.50906H44.39656l-.04042,5.65469v.24229c0,1.204.34024,1.87932,1.322,1.87932a1.38738,1.38738,0,0,0,1.0263-.403l.276.318Zm3.58129-8.45712a15.287,15.287,0,0,1-2.71861.64525l-.04452.00666v.31539l.04709.00409c1.07345.0772,1.36655.45268,1.36655,1.74612v3.06814c0,2.28412,0,2.69524-1.322,2.69524h-.13247V36.717H52.571v-.38847h-.174c-.77882,0-1.11906-.12173-1.30235-.466a5.54969,5.54969,0,0,1-.22152-2.16913V31.95505c0-2.02365.76729-3.34161,1.48306-3.34161.34691,0,.51463.21186.69125.48052a1.02579,1.02579,0,0,0,.86525.61.73784.73784,0,0,0,.79849-.75948c0-.70388-.6152-1.14393-1.52612-1.14393a2.56542,2.56542,0,0,0-2.35351,1.64664,14.07377,14.07377,0,0,0-.08014-1.51454L50.74765,27.9l-.16881-.05752-.017.00519Zm5.94518-3.3182a.94968.94968,0,0,0,.98178.98179.93894.93894,0,0,0,.9803-.98179.981.981,0,1,0-1.96208,0Zm1.77617,3.31043a27.70071,27.70071,0,0,1-2.96609.64673l-.04305.00776v.31429l.04824.00257c1.07231.07829,1.36545.45415,1.36545,1.74726v3.07481c0,2.28412,0,2.69524-1.322,2.69524h-.1321V36.717h4.59017v-.38847h-.13325c-1.3053,0-1.34168-.38368-1.34168-2.69524V27.82276l-.06567.01709Zm15.04907.00777a15.342,15.342,0,0,1-2.71861.64525l-.04453.00666v.31539l.04858.00409c1.072.0772,1.36654.45268,1.36654,1.74612v3.06814c0,2.28412,0,2.69524-1.32349,2.69524h-.1321V36.717h4.58906v-.38847h-.13209c-1.30531,0-1.34317-.38368-1.34317-2.69524v-2.686a2.47979,2.47979,0,0,1,.43339-1.70565,2.24749,2.24749,0,0,1,1.69751-.81c1.17286,0,1.76725.79182,1.76725,2.35352v2.84813c0,2.31156-.03671,2.69524-1.322,2.69524h-.1321V36.717h4.58907v-.38847h-.1321c-1.30126,0-1.34169-.42668-1.34169-2.69524v-2.8678c0-1.86817-.78292-2.965-2.78542-2.965A3.75364,3.75364,0,0,0,73.632,28.878c-.01709-.1692-.1139-.97807-.1139-.97807l-.16886-.05752-.017.00519Z"/><path class="cls-3" d="M89.60664,32.72124c5.09805-4.47207,5.24138-6.16739,4.86591-6.9189h.001a1.4415,1.4415,0,0,0-.1968-.29113A1.67736,1.67736,0,0,0,93.05,25.14883a4.91152,4.91152,0,0,0-.73393.05636c.42343-.08518,1.066-.20625,1.066-.20625A185.09972,185.09972,0,0,1,112,22.614v.01679a.074.074,0,0,1-.03326.01859,100.39944,100.39944,0,0,0-13.5082,5.96954A57.47685,57.47685,0,0,0,87.67942,36.4224l-3.86863.62492a53.32476,53.32476,0,0,0,5.79585-4.32608Z"/></svg>