<svg id="aw" xmlns="http://www.w3.org/2000/svg" xmlns:xlink="http://www.w3.org/1999/xlink" viewBox="0 0 120 60"><defs><style>.cls-1{fill:none;}.cls-2{fill:#0054a5;}.cls-3{clip-path:url(#clip-path);}.cls-4{fill:url(#linear-gradient);}.cls-5{fill:#ec1c28;}</style><clipPath id="clip-path"><path class="cls-1" d="M109.03748,25.21786a16.09662,16.09662,0,0,1-5.04148,2.67666c-1.74114.64967-2.49476.88356-3.48226,1.1954-1.09146.36382-3.30035,1.01349-3.30035,1.01349a55.12956,55.12956,0,0,0,7.74412,1.76712,26.8791,26.8791,0,0,0,3.87206-1.71514,10.03494,10.03494,0,0,0,2.36482-1.50725,2.37116,2.37116,0,0,0,.70166-1.16941c0-.052.026-.15592.026-.25987v-.12994a.31534.31534,0,0,0-.026-.12993s-.026-.12994-.052-.23389a1.33436,1.33436,0,0,0-.4158-.57171,3.79193,3.79193,0,0,0-1.42928-.8056,6.50008,6.50008,0,0,0-.88356-.23388Z"/></clipPath><linearGradient id="linear-gradient" x1="-453.96975" y1="93.31793" x2="-453.50494" y2="93.31793" gradientTransform="matrix(-11.4298, 19.7969, -19.7969, -11.4298, -3234.0066, 10077.50739)" gradientUnits="userSpaceOnUse"><stop offset="0" stop-color="#e0e2f2"/><stop offset="0.09757" stop-color="#adbadd"/><stop offset="0.1906" stop-color="#849bcc"/><stop offset="0.2749" stop-color="#6784c0"/><stop offset="0.3475" stop-color="#5576b9"/><stop offset="0.4" stop-color="#4f71b6"/><stop offset="0.6164" stop-color="#2f65af"/><stop offset="0.9" stop-color="#0054a5"/><stop offset="1" stop-color="#0054a5"/></linearGradient></defs><title>ai_template_british_airways_full_1</title><path class="cls-2" d="M8,37.27583a.677.677,0,0,0,.33783-.62369V30.83105A.74742.74742,0,0,0,8,30.18137h2.78061c1.24738,0,2.44278.49376,2.44278,1.89706a1.57662,1.57662,0,0,1-1.35133,1.45527,1.79493,1.79493,0,0,1,1.975,1.71514c0,1.58521-1.66317,2.001-2.83259,2.001H8m2.23488-6.44478a3.18962,3.18962,0,0,0-.44178.026v2.46876H10.079c.85757,0,1.66317-.25987,1.66317-1.24737,0-.96152-.64968-1.24738-1.50725-1.24738m.18191,3.14443a5.21871,5.21871,0,0,0-.62369.026v2.62468a5.92369,5.92369,0,0,0,.93554.078,1.28446,1.28446,0,0,0,1.42928-1.4033c0-1.09146-.85757-1.32534-1.74113-1.32534m6.15892-3.14443c-.12993,0-.23388.026-.36382.026v2.44278c.104,0,.2079.026.33784.026A1.23633,1.23633,0,0,0,17.927,32.00046c0-.88355-.57172-1.1954-1.35133-1.1954m3.58621,6.49675a3.01032,3.01032,0,0,1-.83159-.078c-.49375-.15592-1.14342-1.22139-1.40329-1.66317-.4158-.70165-.77961-1.63718-1.68916-1.66317v2.70265a.677.677,0,0,0,.33783.62369H14.44478a.677.677,0,0,0,.33783-.62369V30.83105a.74742.74742,0,0,0-.33783-.64968H16.9915c1.11744,0,2.49476.4158,2.49476,1.76712a1.762,1.762,0,0,1-1.975,1.68916c1.48126,0,2.33883,3.45627,3.976,3.48226a4.53519,4.53519,0,0,1-1.32534.1819m1.42928-.026a.67652.67652,0,0,0,.36382-.62369V30.83105a.75347.75347,0,0,0-.36382-.64968h2.18291a.69.69,0,0,0-.36382.64968v5.82109a.67652.67652,0,0,0,.36382.62369Zm4.72964,0a.677.677,0,0,0,.33783-.62369V30.987H25.09945a2.23547,2.23547,0,0,0-1.09145.23389l.49375-1.03948h5.1974a4.958,4.958,0,0,0,1.24738-.104,1.48432,1.48432,0,0,1-1.11745.93553c-.41579,0-1.09145-.026-1.68915-.026v5.66517a.6718.6718,0,0,0,.36382.62369Zm4.88556,0a.67652.67652,0,0,0,.36382-.62369V30.83105a.75347.75347,0,0,0-.36382-.64968h2.18291a.69.69,0,0,0-.36382.64968v5.82109a.67652.67652,0,0,0,.36382.62369Zm6.41879-1.6112c0-1.35132-3.17042-1.66317-3.17042-3.7941,0-1.32534,1.27337-1.76712,2.39081-1.76712a4.48224,4.48224,0,0,1,1.66317.28586l.078,1.32534a1.89745,1.89745,0,0,0-1.63719-1.0135c-.51974,0-1.03948.25987-1.03948.83159,0,1.4033,3.22239,1.74113,3.22239,3.76811,0,1.48126-1.29935,2.105-2.5987,2.105a4.23741,4.23741,0,0,1-2.18291-.51974,6.84987,6.84987,0,0,1-.052-.72764,4.78529,4.78529,0,0,1,.078-.85757,2.24622,2.24622,0,0,0,2.027,1.45527c.70165-.026,1.22139-.31184,1.22139-1.09145m6.80859,1.6112a.69689.69689,0,0,0,.31184-.62369V34.00146a12.70438,12.70438,0,0,0-1.50724-.052c-.5977,0-1.14343.026-1.53323.052v2.62469a.69688.69688,0,0,0,.31184.62369H39.912a.69688.69688,0,0,0,.31185-.62369v-5.7951a.74735.74735,0,0,0-.31185-.64968h2.105a.71376.71376,0,0,0-.31184.64968v2.3908a12.94525,12.94525,0,0,0,1.53323.052c.5977,0,1.11744-.026,1.50724-.052v-2.3908a.74734.74734,0,0,0-.31184-.64968h2.105a.71376.71376,0,0,0-.31184.64968v5.82109a.69689.69689,0,0,0,.31184.62369Z"/><path class="cls-2" d="M54.30884,37.27583c.078-.078.12994-.12994.12994-.23389a.76518.76518,0,0,0-.078-.23388s-.57172-1.58521-.64968-1.76712a11.302,11.302,0,0,0-1.32534-.052,10.4356,10.4356,0,0,0-1.27336.052c-.052.15592-.67566,1.74113-.67566,1.74113a1.26686,1.26686,0,0,0-.10395.33783.19457.19457,0,0,0,.15592.18191H49.05947a1.25711,1.25711,0,0,0,.49375-.54572l2.33883-6.055c0-.026.026-.052.026-.078a.45494.45494,0,0,0-.25987-.3898h1.84508l2.3908,6.52274a1.23924,1.23924,0,0,0,.46777.54572h-2.053M52.46377,31.5327,51.3983,34.28732c.31184.026.64967.052.98751.052a7.67649,7.67649,0,0,0,1.09145-.052Zm4.23588,5.74313a.67651.67651,0,0,0,.36381-.62369V30.83105a.75346.75346,0,0,0-.36381-.64968h2.1829a.69.69,0,0,0-.36381.64968v5.82109a.67653.67653,0,0,0,.36381.62369Zm5.48326-6.47077c-.12994,0-.23388.026-.36382.026v2.44278c.10395,0,.2079.026.33783.026a1.23632,1.23632,0,0,0,1.37731-1.29935c0-.88355-.57171-1.1954-1.35132-1.1954M65.925,37.30181a3.01025,3.01025,0,0,1-.83158-.078c-.49375-.12993-1.14343-1.22139-1.4033-1.66317-.41579-.70165-.93553-1.66317-1.87106-1.66317v2.70265a.677.677,0,0,0,.33783.62369H60.026a.677.677,0,0,0,.33783-.62369V30.83105a.74742.74742,0,0,0-.33783-.64968H62.5987c1.11744,0,2.49475.4158,2.49475,1.76712a1.7495,1.7495,0,0,1-1.7931,1.68916c1.53323.078,2.44278,3.48226,3.976,3.48226a4.71134,4.71134,0,0,1-1.35134.1819M74.76062,30.883l-2.15693,6.39281a.6881.6881,0,0,1-.44177-.12994,6.792,6.792,0,0,1-.67567-1.37731l-.96152-2.46877-1.40329,3.95h-.67567L66.029,30.857a1.2771,1.2771,0,0,0-.54573-.67567h2.105a.39609.39609,0,0,0-.15592.28586.62073.62073,0,0,0,.052.23388L69.04347,34.937l1.66317-4.78161,1.84508,4.5997L73.955,30.59717a.96428.96428,0,0,0,.052-.23389c0-.078-.026-.12993-.12994-.20789h1.37731a1.58468,1.58468,0,0,0-.49374.72763m2.57271.64968-1.06547,2.75462c.31185.026.64967.052.9875.052a7.67656,7.67656,0,0,0,1.09146-.052Zm1.84508,5.74313c.078-.078.12993-.12994.12993-.23389a2.11667,2.11667,0,0,0-.052-.23388s-.57171-1.58521-.64967-1.76712a11.52486,11.52486,0,0,0-1.35133-.052,10.4356,10.4356,0,0,0-1.27336.052c-.052.15592-.67566,1.74113-.67566,1.74113a1.26686,1.26686,0,0,0-.104.33783.19457.19457,0,0,0,.15592.18191H73.929a1.25711,1.25711,0,0,0,.49375-.54572l2.33883-6.055c0-.026.026-.052.026-.078a.45494.45494,0,0,0-.25987-.3898h1.84508l2.39081,6.52274a1.13755,1.13755,0,0,0,.49375.54572h-2.079Zm6.3928-6.34083-1.68915,2.93653v2.75462a.70948.70948,0,0,0,.31184.62369h-2.079a.74088.74088,0,0,0,.31185-.62369V33.87153L80.97152,31.5327c-.12994-.2079-.72764-1.24738-1.48127-1.24738a4.67324,4.67324,0,0,1,1.2214-.18191,1.37582,1.37582,0,0,1,1.45527.72764L83.51825,32.962c.10394-.20789,1.16941-2.079,1.16941-2.079a1.45939,1.45939,0,0,0,.2079-.46776c0-.104-.052-.15592-.15593-.23389h1.50725a2.11065,2.11065,0,0,0-.67567.75363m3.924,4.72963c0-1.35132-3.17042-1.66317-3.17042-3.7941,0-1.32534,1.27337-1.76712,2.39081-1.76712a4.48221,4.48221,0,0,1,1.66317.28586l.078,1.32534a1.95088,1.95088,0,0,0-1.63718-1.0135c-.51974,0-1.03948.25987-1.03948.83159,0,1.4033,3.22238,1.74113,3.22238,3.76811,0,1.48126-1.27336,2.105-2.5987,2.105a4.23735,4.23735,0,0,1-2.1829-.51974,6.84725,6.84725,0,0,1-.052-.72764,4.78529,4.78529,0,0,1,.078-.85757,2.316,2.316,0,0,0,2.027,1.45527c.70166-.026,1.2214-.31184,1.2214-1.09145"/><g class="cls-3"><polygon class="cls-4" points="114.885 26.829 108.284 38.263 94.303 30.207 100.93 18.747 114.885 26.829"/></g><path class="cls-5" d="M111.948,27.19287a1.14229,1.14229,0,0,0-.026-.23388,1.392,1.392,0,0,0-.12993-.28586,2.10283,2.10283,0,0,0-.33783-.38981c-.12993-.10394-.23388-.20789-.3898-.31184a5.33629,5.33629,0,0,0-2.13094-.72764,17.86321,17.86321,0,0,0-2.46877-.12993c-.41579,0-3.01449.026-3.69015.026-2.98851.052-6.65268.078-7.61419.078-9.90106.052-14.2149-.15593-18.99651-1.11744a52.9728,52.9728,0,0,1-6.34083-1.58521c3.58621-.12994,24.58371-.98751,28.40381-1.09146,2.49475-.078,4.28785-.078,5.71714,0a19.49877,19.49877,0,0,1,2.26087.25987,14.26577,14.26577,0,0,1,1.87107.49376,4.40949,4.40949,0,0,1,1.923,1.24737,3.18351,3.18351,0,0,1,.25987.31185c.15592.23388.33782.49375.41579.5977a15.57267,15.57267,0,0,1,.85757,1.45527,5.19537,5.19537,0,0,1,.25987.54573,3.384,3.384,0,0,1,.12993.36382,2.073,2.073,0,0,1,.078.41579l-.052.078"/></svg>