<svg id="aw" xmlns="http://www.w3.org/2000/svg" viewBox="0 0 120 60"><defs><style>.cls-1{fill:#ff4438;}.cls-2{fill:#001f60;}</style></defs><title>ai_template</title><path class="cls-1" d="M13.78866,42.07359c0,1.18049-1.29578,2.13684-2.89423,2.13684C9.29368,44.21043,8,43.25408,8,42.07359c0-1.17822,1.29368-2.13533,2.89556-2.13533,1.59732,0,2.8931.95711,2.8931,2.13533"/><path class="cls-1" d="M15.81438,36.98932c0,.98626-1.13713,1.78209-2.54062,1.78436-1.40424-.00227-2.53967-.7981-2.53967-1.78436,0-.9821,1.13543-1.77641,2.53967-1.77717,1.40349,0,2.54062.79507,2.54062,1.77717"/><path class="cls-1" d="M17.46888,32.74858c0,.79241-.96828,1.43339-2.16164,1.4349-1.19412,0-2.16107-.64249-2.16107-1.4349,0-.79432.967-1.43643,2.16107-1.43643,1.19336,0,2.16164.644,2.16164,1.43643"/><path class="cls-1" d="M21.88775,21.15725c-.00113.31273-.50487.56449-1.12861.56449-.62262,0-1.12692-.25176-1.12692-.56449s.5043-.56337,1.12692-.566c.62374,0,1.12748.25176,1.12861.566"/><path class="cls-1" d="M23.18977,17.88232c0,.2249-.37917.40663-.84618.4089-.47041,0-.8475-.184-.85034-.4089,0-.22565.37993-.40586.85034-.40586.467,0,.84618.18021.84618.40586"/><path class="cls-1" d="M22.57605,19.44293c0,.2601-.43766.46719-.97926.46947-.54121,0-.9785-.20937-.97982-.46947,0-.262.43861-.47023.97982-.47023.5416,0,.97926.20824.97926.47023"/><path class="cls-1" d="M18.87085,29.02009c0,.63719-.8227,1.154-1.83907,1.154-1.01655,0-1.84077-.5168-1.84077-1.154,0-.63454.82422-1.15322,1.84077-1.15322,1.01637,0,1.83907.51868,1.83907,1.15322"/><path class="cls-1" d="M20.08124,25.908c0,.5096-.70136.92758-1.5676.92758-.86758,0-1.57121-.418-1.57121-.92758,0-.51035.70363-.92757,1.57121-.92757.86624,0,1.5676.41722,1.5676.92757"/><path class="cls-1" d="M20.54163,41.71959c0,1.06086-1.17557,1.918-2.627,1.918-1.45232,0-2.62864-.85715-2.62864-1.918,0-1.062,1.17632-1.92217,2.6258-1.91913,1.45422,0,2.62979.85866,2.62979,1.91913"/><path class="cls-1" d="M26.31855,40.12076c0,.93779-1.06065,1.695-2.36873,1.695s-2.36836-.75721-2.36836-1.695c0-.93213,1.06028-1.69161,2.36836-1.69161s2.36873.75645,2.36873,1.69161"/><path class="cls-1" d="M29.26693,36.87233c0,.73714-.86738,1.33534-1.93959,1.33534-1.07126,0-1.93883-.5982-1.93883-1.33534,0-.736.86757-1.33382,1.93883-1.33382,1.07069,0,1.93959.59744,1.93959,1.33382"/><path class="cls-1" d="M26.44538,31.0759c.00114.48765-.63226.884-1.4103.884-.78124,0-1.41351-.39639-1.41351-.884s.63227-.88517,1.41351-.88517c.778,0,1.41144.39754,1.4103.88517"/><path class="cls-1" d="M21.12771,23.31528c0,.40852-.5982.7398-1.33628.7398-.73582,0-1.334-.33128-1.33251-.7398,0-.40737.59669-.73827,1.33251-.73827.73732,0,1.33628.3309,1.33628.73827"/><path class="cls-1" d="M28.74767,33.50351c.00114.59669-.73581,1.07827-1.645,1.07524-.9094.003-1.64408-.48083-1.64408-1.07524-.00247-.591.73468-1.07409,1.64484-1.07409.9096,0,1.64427.48233,1.64427,1.07409"/><path class="cls-2" d="M36.37162,37.54208v3.245a3.05291,3.05291,0,0,0,.50752.04769q1.83774,0,1.83717-1.76429a1.70952,1.70952,0,0,0-.45394-1.2933,1.4654,1.4654,0,0,0-1.06956-.38542,2.49764,2.49764,0,0,0-.82119.1503M35.0554,41.7177V33.50351h1.31622v3.03262a3.60977,3.60977,0,0,1,1.196-.22337,2.33738,2.33738,0,0,1,1.90476.81778,2.802,2.802,0,0,1,.58967,1.85175,2.62363,2.62363,0,0,1-1.00028,2.24663,3.933,3.933,0,0,1-2.41132.65462,9.36329,9.36329,0,0,1-1.59506-.16584"/><path class="cls-2" d="M41.41084,41.81462V36.7898a6.08793,6.08793,0,0,1,2.318-.46682,3.57083,3.57083,0,0,1,1.05592.15333v1.10855a2.69145,2.69145,0,0,0-.923-.1537,3.20362,3.20362,0,0,0-1.13467.20822v4.17524Z"/><path class="cls-2" d="M45.65328,36.412h1.31584v3.22343a1.17119,1.17119,0,0,0,.28262.91812,1.27867,1.27867,0,0,0,.83635.21239,4.26044,4.26044,0,0,0,.87967-.103V36.412H50.284v5.21337a12.12694,12.12694,0,0,1-2.30532.25822,2.70973,2.70973,0,0,1-1.81824-.50128,1.47337,1.47337,0,0,1-.41021-.69776,4.05029,4.05029,0,0,1-.09693-.9946Z"/><path class="cls-2" d="M51.7259,41.62532V40.43008a2.80314,2.80314,0,0,0,1.46973.48423q.87516,0,.87534-.54519,0-.37254-.51869-.61031l-.52948-.254a2.62078,2.62078,0,0,1-1.03207-.74547,1.37136,1.37136,0,0,1-.26483-.842,1.40128,1.40128,0,0,1,.63226-1.22062,2.44953,2.44953,0,0,1,1.42677-.38315,3.39361,3.39361,0,0,1,1.39421.298v1.13014a2.47771,2.47771,0,0,0-1.30164-.4089q-.87515,0-.87533.51869a.42946.42946,0,0,0,.17833.35059,5.40918,5.40918,0,0,0,.75019.39981,3.84036,3.84036,0,0,1,1.08546.7254,1.4569,1.4569,0,0,1,.351.98512,1.44193,1.44193,0,0,1-.64287,1.26113,2.5484,2.5484,0,0,1-1.48015.39,3.5709,3.5709,0,0,1-1.5182-.3381"/><path class="cls-2" d="M56.42266,41.62532V40.43008a2.80421,2.80421,0,0,0,1.46974.48423q.87514,0,.87534-.54519,0-.37254-.51869-.61031l-.52948-.254a2.62228,2.62228,0,0,1-1.03207-.74547,1.37137,1.37137,0,0,1-.26484-.842,1.40213,1.40213,0,0,1,.63228-1.22062,2.44943,2.44943,0,0,1,1.42676-.38315,3.39665,3.39665,0,0,1,1.39459.298v1.13014a2.47984,2.47984,0,0,0-1.30183-.4089q-.876,0-.87514.51869a.42959.42959,0,0,0,.178.35059,5.433,5.433,0,0,0,.7502.39981,3.845,3.845,0,0,1,1.08564.7254,1.45769,1.45769,0,0,1,.35078.98512,1.44193,1.44193,0,0,1-.64287,1.26113,2.5484,2.5484,0,0,1-1.48015.39,3.571,3.571,0,0,1-1.51821-.3381"/><path class="cls-2" d="M62.42258,38.42082h2.35379Q64.68948,37.293,63.678,37.293a1.16819,1.16819,0,0,0-.87117.34,1.39994,1.39994,0,0,0-.38429.78787m3.62552.94007H62.3357a1.45736,1.45736,0,0,0,1.6721,1.50382,2.91837,2.91837,0,0,0,1.76391-.57207V41.3921a3.73553,3.73553,0,0,1-1.95964.55125,2.68427,2.68427,0,0,1-2.11678-.82308,2.82572,2.82572,0,0,1-.633-1.93429,2.94,2.94,0,0,1,.81721-2.19325,2.49225,2.49225,0,0,1,1.819-.69928,2.41663,2.41663,0,0,1,1.34784.3733,2.05611,2.05611,0,0,1,.74736.87647,4.75774,4.75774,0,0,1,.25442,1.7961Z"/><rect class="cls-2" x="67.40275" y="33.50351" width="1.31602" height="8.31111"/><path class="cls-2" d="M70.17261,41.62532V40.43008a2.80161,2.80161,0,0,0,1.46973.48423q.87459,0,.87534-.54519,0-.37254-.51869-.61031l-.53-.254a2.61776,2.61776,0,0,1-1.0317-.74547,1.37123,1.37123,0,0,1-.26464-.842,1.4013,1.4013,0,0,1,.63226-1.22062,2.44809,2.44809,0,0,1,1.42659-.38315,3.39284,3.39284,0,0,1,1.394.298v1.13014a2.47568,2.47568,0,0,0-1.30164-.4089q-.87571,0-.87534.51869a.42833.42833,0,0,0,.1787.35059,5.40423,5.40423,0,0,0,.75.39981,3.85515,3.85515,0,0,1,1.08546.7254,1.55828,1.55828,0,0,1-.2919,2.24625,2.55035,2.55035,0,0,1-1.48073.39,3.56946,3.56946,0,0,1-1.51744-.3381"/><path class="cls-2" d="M80.00874,40.80867V39.37a3.40416,3.40416,0,0,0-1.39175.3078.662.662,0,0,0-.33015.60577q0,.61107.72011.61107a7.3293,7.3293,0,0,0,1.00179-.086M77.39637,37.996V36.86552a4.42457,4.42457,0,0,1,2.10276-.55239,1.543,1.543,0,0,1,1.51821.68717A3.11291,3.11291,0,0,1,81.196,38.283v3.42333a17.02036,17.02036,0,0,1-2.27465.19764,2.07966,2.07966,0,0,1-1.45687-.41685,1.46654,1.46654,0,0,1-.38466-1.10968,1.58555,1.58555,0,0,1,.931-1.553,5.92207,5.92207,0,0,1,1.86235-.43313l.11359-.011v-.195a.84039.84039,0,0,0-.1946-.6459.909.909,0,0,0-.58571-.14765,3.40887,3.40887,0,0,0-1.8101.60425"/><path class="cls-2" d="M82.821,36.42217h1.316v5.39245H82.821Zm-.01969-2.434h1.35539V35.3935H82.80132Z"/><path class="cls-2" d="M85.83621,41.81462V36.7898A6.08623,6.08623,0,0,1,88.154,36.323a3.57438,3.57438,0,0,1,1.05632.15333v1.10855a2.69612,2.69612,0,0,0-.92342-.1537,3.2029,3.2029,0,0,0-1.13468.20822v4.17524Z"/><rect class="cls-2" x="90.26511" y="33.50351" width="1.31602" height="8.31111"/><path class="cls-2" d="M93.29167,36.42217h1.316v5.39245h-1.316Zm-.01969-2.434h1.35541V35.3935H93.272Z"/><path class="cls-2" d="M96.30687,41.81462v-5.1278a8.90418,8.90418,0,0,1,2.448-.36384,2.40437,2.40437,0,0,1,1.79837.55238,2.1136,2.1136,0,0,1,.43313,1.47277v3.46649h-1.316V38.43937a1.0574,1.0574,0,0,0-.27713-.84239,1.26565,1.26565,0,0,0-.80113-.2052,3.384,3.384,0,0,0-.97.14993v4.27291Z"/><path class="cls-2" d="M103.64421,38.42082h2.35416q-.08746-1.12785-1.0987-1.12786a1.17079,1.17079,0,0,0-.87155.34,1.40441,1.40441,0,0,0-.38391.78787m3.62551.94007h-3.71183a1.45688,1.45688,0,0,0,1.67191,1.50382,2.92271,2.92271,0,0,0,1.76429-.57207V41.3921a3.73815,3.73815,0,0,1-1.9604.55125,2.6854,2.6854,0,0,1-2.11716-.82308,2.831,2.831,0,0,1-.63226-1.93429,2.93994,2.93994,0,0,1,.817-2.19325,2.49177,2.49177,0,0,1,1.81881-.69928,2.41745,2.41745,0,0,1,1.34782.3733,2.0483,2.0483,0,0,1,.74737.87647,4.773,4.773,0,0,1,.25442,1.7961Z"/><path class="cls-2" d="M108.35859,41.62532V40.43008a2.80366,2.80366,0,0,0,1.46973.48423q.87458,0,.87534-.54519,0-.37254-.51945-.61031l-.52852-.254a2.61654,2.61654,0,0,1-1.03208-.74547,1.3715,1.3715,0,0,1-.265-.842,1.40128,1.40128,0,0,1,.63226-1.22062,2.449,2.449,0,0,1,1.42734-.38315,3.39667,3.39667,0,0,1,1.394.298v1.13014a2.47768,2.47768,0,0,0-1.30164-.4089q-.87571,0-.87534.51869a.42859.42859,0,0,0,.17795.35059,5.39213,5.39213,0,0,0,.7504.39981,3.84627,3.84627,0,0,1,1.08508.7254A1.4563,1.4563,0,0,1,112,40.31232a1.44152,1.44152,0,0,1-.64287,1.26113,2.55068,2.55068,0,0,1-1.48034.39,3.57024,3.57024,0,0,1-1.5182-.3381"/></svg>