<svg id="aw" xmlns="http://www.w3.org/2000/svg" viewBox="0 0 120 60"><defs><style>.cls-1{fill:#276563;}</style></defs><title>ai_template</title><path class="cls-1" d="M12.42716,29.45592c-.04745.00635-.10028-.06213-.12278-.09442-.00685-.00929-.03278-.06457-.02642-.07288.01027-.00783.06408.01027.07827.022a.23531.23531,0,0,1,.0812.134.01055.01055,0,0,1-.01027.01125m-1.14468-.63446c-.03229.01174-.11154-.07827-.13355-.11154-.0406-.06114-.08169-.12914-.12474-.18931a.32745.32745,0,0,1-.0949-.18491c-.001-.01076-.00734-.03865-.00048-.03816.04353.00343.08511.07974.10713.10958.01565.02152.03424.04305.04843.06555.02152.03278.03032.07191.05283.10273.02739.03718.06065.0724.09.11006a.23745.23745,0,0,1,.04647.06507c.0044.01418.0181.066.0088.07093m-.32775-.01272c-.02446-.002-.03473-.01712-.0499-.02837a.181.181,0,0,1-.07484-.14725c-.001-.00685.002-.0088.00685-.0088.04794-.00049.09637.07337.115.10762a.12594.12594,0,0,1,.01614.05772c0,.01321-.00587.01908-.01321.01908m-1.0894.22013a.01627.01627,0,0,1-.0137.01223c-.05186-.00147-.06751-.07876-.09-.114-.01858-.02984-.03522-.06164-.05429-.09148a.51107.51107,0,0,1-.04207-.06506.72124.72124,0,0,0-.03816-.08854.5172.5172,0,0,0-.03375-.03962.51307.51307,0,0,1-.07191-.12621l-.01272-.05088c-.01076-.02886-.024-.06065-.03376-.09147a.14331.14331,0,0,1-.00538-.05773c.00245-.0044.00441-.00782.00832-.00685.03962.00587.07778.10224.09735.138.02152.03767.05478.068.07337.10664.01664.03571.02251.08023.04109.11447.01517.02642.03963.04745.05626.07289a.93255.93255,0,0,1,.05283.11153c.01859.0411.0455.07289.06164.11252a.12179.12179,0,0,1,.00489.06359m-.202-1.48466a.46168.46168,0,0,1-.02837-.05871c-.00832-.022-.0093-.04206-.0181-.0631-.03082-.068-.06506-.14284-.09539-.20986a.18116.18116,0,0,1-.01859-.11642c.002-.00489.01223-.002.01663.00293a.26231.26231,0,0,1,.02642.02544c.00636.00978.00782.02054.01467.03033a.5008.5008,0,0,1,.04647.07191c.02544.05528.03229.11691.05773.17072.01614.03522.04353.066.06163.10175a.47191.47191,0,0,1,.02055.06115.30272.30272,0,0,1,.00391.04892c.00049.01859-.00147.02984-.00782.03082-.04794-.00294-.06213-.06164-.07974-.09588m10.35449,4.58656c-.06017-.2216-.71029-.12621-1.245-.17513a7.59473,7.59473,0,0,1-1.86133-.39232,13.50039,13.50039,0,0,1-1.97384-.84286s-.23921-.12621-.26465-.1404c-.04941-.02984-.08805-.05136-.13648-.08169a1.14575,1.14575,0,0,0-.10566-.05772.69133.69133,0,0,1-.10518-.06164c-.03669-.023-.08658-.047-.12376-.069-.0543-.03375-.088-.05968-.13942-.09636a.93258.93258,0,0,0-.0905-.05675c-.02543-.01516-.07191-.04011-.09441-.05528-.04745-.0313-.07778-.05723-.12572-.0905-.02886-.02054-.05038-.03326-.08512-.05478-.03424-.021-.0675-.04794-.09734-.07a.516.516,0,0,1-.05626-.04255c-.03522-.03376-.07-.0636-.10615-.093-.03326-.02495-.06506-.05577-.09735-.08071-.021-.01517-.05674-.045-.07729-.06017-.05381-.03865-.08756-.06751-.14088-.10616-.03424-.02543-.06311-.05919-.09735-.08462-.03815-.02838-.07338-.06115-.113-.08952a.54642.54642,0,0,1-.07436-.06017c-.02543-.03082-.0494-.05186-.07631-.08219-.01956-.02152-.05723-.04549-.07924-.0675a.66377.66377,0,0,0-.12328-.11936.34411.34411,0,0,1-.044-.04794.41554.41554,0,0,0-.03816-.046c-.021-.02152-.02886-.02739-.03718-.03668-.00978-.00783-.021-.0181-.04989-.04648-.00881-.00929-.024-.03033-.03914-.05087-.01321-.0181-.02544-.0362-.03424-.04549-.02593-.0274-.043-.04648-.06164-.066l-.04451-.046c-.01028-.01125-.0181-.02446-.0274-.03669a.26728.26728,0,0,0-.025-.03522c-.01565-.01712-.02788-.01125-.03081-.00929-.0093.00636-.01321.025-.00294.047a.7065.7065,0,0,0,.046.07142l.00685.00929.01419.02446a.33273.33273,0,0,0,.023.03718.63618.63618,0,0,0,.06213.07044l.02054.02153a.29693.29693,0,0,1,.03571.047.56489.56489,0,0,0,.03914.05039.14354.14354,0,0,1,.01908.02348.28213.28213,0,0,0,.02152.02641l.03571.03522a.82278.82278,0,0,0,.05968.05821c.01517.01272.03033.02887.046.044.03963.04745.08317.0949.11888.1404a.4341.4341,0,0,0,.08071.06212.42145.42145,0,0,1,.06555.07778c.01565.01859.0499.04892.066.06849a.54363.54363,0,0,0,.11936.1174.37594.37594,0,0,1,.08023.07485c.01467.01907.05968.06261.0768.08365.04305.05478.06261.10615.05625.10762-.02935.00782-.10077-.05528-.14333-.08268-.03473-.024-.0406-.03326-.07386-.05821a.59518.59518,0,0,1-.07827-.066c-.01419-.01272-.05332-.05528-.06555-.07a1.14292,1.14292,0,0,0-.14822-.14773c-.0499-.04892-.112-.09246-.16046-.136-.01467-.01516-.02886-.03032-.043-.047-.01615-.01614-.0362-.03082-.05088-.047a.71126.71126,0,0,0-.08022-.10468c-.02838-.022-.04941-.04207-.07827-.0636-.01028-.00685-.01908-.02005-.02984-.02837a.20051.20051,0,0,1-.04109-.03473c-.03327-.04256-.06555-.0861-.10029-.12866-.01516-.02054-.03717-.03717-.05234-.05821-.03228-.046-.05968-.09294-.09245-.136-.04648-.06017-.11252-.10322-.157-.16388-.046-.06261-.07338-.135-.11643-.20056-.01858-.02837-.04745-.04843-.068-.07533-.01174-.01566-.0181-.03376-.02935-.05088-.023-.03522-.0499-.06946-.07338-.10273-.03033-.045-.05088-.09343-.08169-.14088a.34832.34832,0,0,0-.03425-.06164.846.846,0,0,1-.05478-.08316c-.02153-.03277-.03131-.05479-.04648-.07729-.01516-.02348-.02494-.045-.03522-.06066-.00978-.01663-.03179-.04647-.03962-.05821-.02788-.04305-.03571-.0631-.06457-.10273-.01761-.02446-.03718-.04451-.05381-.03864-.01272.00929-.00783.02446-.0049.03522a.234.234,0,0,0,.02642.0543c.02348.04207.0318.06212.05675.10077.01125.01859.0313.06066.04745.08316.01565.02348.03228.05136.043.07044.01223.02055.02936.07436.04648.09686a.63243.63243,0,0,1,.04207.0724,1.06741,1.06741,0,0,0,.07924.12278c.01663.03082.03327.06311.04941.09344.03326.04989.07289.09636.10517.14773.02006.03571.03963.07142.0592.10713.02.02935.047.0543.066.08414.02348.03571.0362.07484.05968.11006.01859.0274.04207.05381.06066.08121.0318.047.06017.09343.09344.13844.01858.02445.04256.045.06066.07.02494.03375.045.07387.07093.10224a.77141.77141,0,0,1,.06457.07484c.0362.04452.1267.1717.111.17268-.05283.00734-.15507-.1086-.19812-.15066a.97654.97654,0,0,1-.09343-.08806c-.03424-.046-.05919-.09783-.09343-.14235-.01223-.01663-.03082-.02886-.043-.04451a.86116.86116,0,0,0-.07289-.089.4249.4249,0,0,1-.03375-.03277c-.04158-.05332-.0768-.11056-.11692-.16632-.01761-.0225-.03913-.04256-.05625-.06457-.01272-.0181-.02055-.03767-.0318-.05724-.01614-.025-.03767-.04892-.05381-.07386-.01223-.01859-.01957-.03718-.03228-.05626-.022-.03326-.05137-.06213-.07338-.09588-.01712-.02739-.022-.0631-.04011-.091-.0455-.06946-.09491-.14039-.13942-.20986-.01174-.01809-.01663-.03815-.0274-.05576-.03668-.05724-.07044-.11887-.10664-.17513-.0132-.021-.01858-.045-.03179-.06555-.01664-.02544-.04207-.04549-.0587-.06995a.433.433,0,0,1-.02789-.06311c-.01321-.02984-.03179-.0587-.047-.08658-.00929-.01712-.01419-.03473-.025-.05088a1.83973,1.83973,0,0,1-.11447-.21524c-.01858-.03864-.046-.07484-.06408-.11446-.021-.04354-.04109-.08806-.06017-.13013-.01125-.02886-.02152-.05772-.03131-.08658-.021-.045-.05381-.08365-.07386-.13061-.01419-.0318-.022-.06115-.03522-.088-.00832-.01615-.024-.02984-.03522-.02251-.01174.00685-.01321.021-.00587.046a1.018,1.018,0,0,0,.05234.12963c.025.05381.03767.11006.06213.16485.01271.03082.03326.05968.047.089.024.05235.047.10469.07093.1541.01321.02886.024.05674.03962.08413a.47093.47093,0,0,1,.02691.046c.01565.03522.02.0724.0362.10566.01663.03473.04353.06359.05968.09735a4.35974,4.35974,0,0,0,.26562.49994c.02739.04354.04207.09637.07.13942.02887.04549.06849.07973.09686.12376.024.03669.02984.08756.05185.1267.03131.0587.07436.10811.11007.16338.0093.01566.01223.03278.022.04892.01321.021.03082.04158.04452.06311.01761.02886.0269.06163.047.088.021.02935.05137.05283.0724.08267.02593.03571.04452.07778.07191.11447.01859.02495.04794.04256.067.068.03033.03963.1355.17758.16583.21622a1.501,1.501,0,0,1,.1673.22405c.01223.024.05381.0812.045.09245-.022.01468-.1262-.0993-.14381-.11593a1.39583,1.39583,0,0,1-.11888-.14725c-.00929-.01076-.10908-.10811-.1174-.11887-.00978-.01272-.02006-.0269-.02886-.03962-.02788-.04158-.045-.09148-.07436-.13061-.01272-.01664-.03179-.02886-.04353-.045-.023-.03033-.03865-.06457-.06164-.09539-.03473-.04891-.08072-.092-.11643-.14039-.03815-.05283-.066-.11545-.10566-.16828-.01957-.02593-.04451-.04892-.0631-.07729-.00832-.01223-.01125-.02446-.01957-.03718a.572.572,0,0,1-.044-.06946.50793.50793,0,0,0-.03033-.0636c-.04109-.06408-.08218-.13207-.12278-.19616-.01908-.02886-.02935-.05968-.04745-.08854-.03082-.04745-.07-.09-.10028-.138-.0362-.05674-.05577-.12523-.09295-.182-.02348-.03767-.05136-.0724-.07484-.11007-.02642-.0406-.03914-.088-.06311-.13012-.02054-.03767-.04843-.0724-.06652-.10958-.02006-.04109-.03327-.0812-.05284-.12376-.01076-.0225-.02739-.04549-.03717-.068-.01321-.02935-.01566-.05821-.02935-.0856-.03523-.07876-.08855-.15312-.12573-.23188-.02593-.05527-.0499-.113-.07142-.17219a.90112.90112,0,0,0-.0318-.09294c-.03277-.0724-.07288-.14822-.10419-.21915-.0137-.03865-.02691-.07632-.04109-.11447a.31749.31749,0,0,0-.00783-.03278c-.01516-.03375-.03522-.067-.04843-.09979-.01174-.03914-.024-.07778-.03669-.11691-.05038-.12621-.09588-.269-.14382-.40064a.77388.77388,0,0,0-.01663-.07974c-.025-.06653-.0499-.135-.07387-.202-.01418-.03424-.04647-.023-.03913.01223.00978.046.01565.05772.024.09441l.01076.05577c.00587.0225.01712.046.023.0675.01321.04061.01419.08023.0274.11887.02.0543.03962.10714.05772.1629.0044.02788.01076.05577.01614.08414.00832.02593.01908.05283.02838.07631.02788.069.05478.13551.07875.203.01028.03914.02055.07778.02984.11692.01028.02152.02544.04353.03474.06457.0088.01908.01076.03669.01859.05674.01761.04354.03326.08806.05332.13257.01663.0362.0362.07289.05038.11154.00685.01907.00685.03522.0137.05381.04207.11544.08756.23627.13746.34585.01223.0269.01565.05527.02837.08267.00978.02348.02446.04794.03473.07044l.01517.04452c.01516.03228.04158.0587.05674.091a1.68086,1.68086,0,0,0,.13453.25144,1.42591,1.42591,0,0,1,.10762.25.87858.87858,0,0,0,.06506.10909c.01125.01859.0181.03913.02788.05919a1.02878,1.02878,0,0,0,.06653.12132.33727.33727,0,0,1,.0406.08414.50817.50817,0,0,1,.023.09734c-.00733.0049-.04891-.02005-.0631-.03571a.34413.34413,0,0,1-.069-.0949c-.01076-.023-.0313-.06261-.04207-.08463a1.48747,1.48747,0,0,0-.10272-.15458.99818.99818,0,0,1-.0455-.0949c-.0269-.05919-.05821-.11887-.08707-.18a.74894.74894,0,0,0-.044-.07239c-.01565-.02348-.0225-.04843-.03766-.0724a1.53418,1.53418,0,0,1-.09637-.16535c-.01957-.04158-.02984-.08316-.04843-.12376a.3576.3576,0,0,0-.025-.03767c-.01321-.021-.01859-.044-.03033-.0675-.01467-.03082-.03669-.06115-.05136-.09295-.02984-.06408-.047-.13061-.07632-.19371-.01467-.02935-.03815-.05479-.05185-.08414-.02152-.045-.02348-.10175-.045-.14871-.05528-.12523-.11936-.25389-.16632-.3845-.00734-.022-.01028-.04745-.01713-.07044-.02054-.05675-.04745-.10958-.068-.16535-.0093-.02543-.01223-.04891-.02153-.07484-.01369-.03767-.03179-.07778-.04549-.11643-.00342-.01271-.00538-.02641-.01027-.03962-.01712-.03571-.02691-.07876-.04354-.11642-.00929-.01957-.023-.03963-.03082-.06066-.01321-.03767-.00929-.08512-.023-.12034-.01908-.05332-.04158-.111-.06066-.16339-.01174-.03082-.0137-.06017-.02446-.09147-.01223-.03522-.02592-.07436-.03913-.10958-.01272-.0362-.01223-.07533-.02446-.11349-.00881-.02935-.021-.05919-.03082-.08659-.0181-.05136-.02593-.10566-.045-.1536l-.0093-.02641c-.00489-.01321-.0137-.02593-.0269-.022-.01517.00392-.01517.023-.01419.03571a.425.425,0,0,0,.02739.10322c.01272.03229.01859.067.0274.09784.00489.02.0044.04158.00929.06261.00636.03033.0181.05919.02593.089.00734.02935.00342.05822.01027.08121.01908.06408.0406.13648.06213.19763.0088.03179.01027.06848.02006.09588.01174.03228.024.06506.03522.09783.01076.0274.01271.05332.024.07925a.87767.87767,0,0,1,.0362.08609c.01223.03963.01076.07876.02445.11643.02251.06066.05039.11838.07094.17659.00684.02153.00929.04452.01663.066.0181.05039.03082.10469.04941.15556.02641.0724.06016.14333.08658.21475.02544.07044.02935.15507.0587.22111.01517.03278.04647.05234.06066.08414a.38248.38248,0,0,1,.01419.06751c.00831.0269.021.0543.0313.07925.00587.023.01174.045.0181.067.0093.02691.02789.05381.03963.07974a1.13375,1.13375,0,0,0,.05283.12376.76066.76066,0,0,1,.05772.08659c.01615.03473.022.0724.03816.10909.024.05381.05234.10517.0724.16094a1.27905,1.27905,0,0,0,.04989.14969c.02446.044.0543.08365.07827.12718.01517.03327.03033.066.046.09882.01223.02641.0362.0494.05136.07729.01859.03326.03669.06848.05185.10175a.55309.55309,0,0,0,.03131.07288c.021.03474.03718.06262.06017.09686a.6596.6596,0,0,1,.05528.10615.40781.40781,0,0,0,.03766.07925.68242.68242,0,0,1,.05333.07044.27349.27349,0,0,1,.0269.112c-.0181.00636-.069-.04207-.08267-.05919-.04011-.04843-.05968-.114-.09637-.16535a.95154.95154,0,0,1-.09441-.15164,1.47322,1.47322,0,0,0-.069-.136.70888.70888,0,0,1-.06359-.09294c-.01272-.02886-.01908-.0631-.0318-.09148-.01908-.0406-.05772-.0675-.07729-.11006-.0225-.047-.03228-.09539-.05625-.13942-.01174-.02152-.02691-.04549-.03718-.068-.0137-.02789-.02006-.05528-.03327-.08366-.0269-.05772-.0675-.10615-.09343-.16338-.02837-.0587-.04354-.1223-.0724-.18149-.01467-.03228-.04109-.05968-.05625-.092-.02006-.04256-.03033-.08708-.05039-.13013-.01272-.02592-.03082-.05136-.04305-.0768-.01712-.03717-.02348-.07778-.04109-.11642-.03864-.088-.07925-.17855-.11838-.26563-.01468-.03375-.01859-.06848-.03375-.10273-.01468-.02984-.02935-.05919-.045-.089-.03326-.0768-.04549-.16681-.08022-.2441-.01761-.03962-.03914-.0768-.05528-.11887-.02446-.06653-.03327-.135-.05821-.203-.03718-.1037-.067-.21181-.1042-.31454-.01125-.03082-.01223-.06115-.024-.09344-.01076-.02984-.022-.06016-.03326-.09-.00783-.025-.01272-.05968-.01908-.091-.02789-.08757-.05577-.17513-.08316-.26367-.00685-.021-.00783-.0587-.01517-.08561a.49356.49356,0,0,0-.01859-.047c-.00636-.02005-.00636-.03718-.01271-.05821-.02055-.06408-.03767-.13893-.05822-.203-.00587-.02006-.00782-.04892-.01418-.07142A2.89176,2.89176,0,0,0,8.952,24.072c-.00587-.01663-.01663-.03424-.03277-.02984-.01615.00391-.01272.0225-.01126.03767.0049.04158.02055.07729.0274.112a.48412.48412,0,0,1,.00391.05577.33168.33168,0,0,0,.00881.05136c.01712.0543.03717.11838.05283.1717.00538.02593.00049.066.00783.09588a2.60137,2.60137,0,0,0,.0719.26758,2.0197,2.0197,0,0,1,.05479.23285c.00587.03327.00783.067.01272.10029a.41959.41959,0,0,0,.03278.0812c.00782.02006.00685.03718.01467.05821.01615.05528.02935.10958.04892.16535.0137.03864.03473.07484.04843.112.00538.01712.00391.03228.00832.05087.00978.03865.01614.07681.0269.11447.02739.07583.05332.158.08023.23285.01516.04207.02005.08267.03424.12328.06017.16338.12083.3253.18.48673.00978.0362.02.0724.02935.10811.01321.0362.03473.067.04989.09979.01957.04207.02544.0861.04207.13061.0181.05235.04305.09246.06311.14676.00929.02544.01859.0543.03033.07973.0088.01859.02495.03669.03424.05577.01614.0318.01859.0724.03375.10469a.95625.95625,0,0,0,.06213.08854.99875.99875,0,0,1,.03277.09588c.02251.0494.05137.0949.07289.14724.00881.022.01272.04158.0225.06262.01126.024.02936.047.04061.07239l.002.00245.00343.0137.00978.0318a.299.299,0,0,0,.02691.04842c.00391.0049.01565.01762.02446.02936l.01271.01565a1.1665,1.1665,0,0,1,.0411.11887c.01761.03571.04842.06506.066.10273.01418.02837.021.0993.00391.10224-.07338,0-.07876-.10273-.10322-.15654-.02-.04207-.04941-.0768-.07142-.11692a.18884.18884,0,0,1-.01663-.0406.28771.28771,0,0,0-.01663-.04109c-.0093-.01957-.0093-.01663-.01566-.03082-.00685-.01369-.02739-.03962-.03326-.05185l-.001-.00245c-.02837-.045-.047-.10908-.067-.1399-.01125-.01664-.02592-.03376-.03718-.05088a.856.856,0,0,1-.04255-.09637c-.0137-.02886-.03571-.05772-.04941-.08854-.01614-.0362-.01712-.08169-.03473-.11838-.00832-.02006-.02446-.04011-.03425-.0587-.02054-.04207-.03277-.08659-.05332-.12768-.00929-.02-.02739-.03864-.03717-.0587-.01615-.03522-.025-.0724-.04305-.10468a2.43444,2.43444,0,0,1-.11154-.21965c-.01907-.043-.02592-.08658-.044-.12816-.01614-.03669-.03865-.0724-.05479-.10713a.59683.59683,0,0,1-.02348-.0724c-.01565-.0406-.03375-.08267-.04892-.12327-.0088-.02838-.01614-.08952-.025-.114-.01125-.03082-.0269-.06409-.04011-.09442-.02055-.04451-.02642-.09147-.04647-.13648-.01566-.03522-.03278-.07142-.0455-.10713-.01125-.03033-.01418-.0587-.02641-.08658-.0093-.02153-.022-.0455-.02984-.06751a.88212.88212,0,0,1-.025-.10517c-.01321-.03865-.02935-.07534-.04109-.11349-.00734-.02887-.00832-.09442-.01468-.112-.04109-.11838-.07827-.24508-.11593-.36346-.01712-.05479-.02544-.10957-.0406-.16241-.00539-.022-.00587-.04891-.01174-.07044-.01077-.03424-.025-.06946-.03571-.10468-.00588-.024-.00979-.04843-.01419-.07191a.51427.51427,0,0,0-.02837-.07436c-.02251-.07142-.03522-.14724-.05626-.21719-.00685-.02887-.00685-.06653-.01467-.09295-.02789-.08609-.03376-.18638-.0592-.27687-.00587-.02642-.00929-.05284-.01565-.07681-.04451-.16925-.06457-.359-.114-.52146-.00929-.03131.00294-.07093-.00538-.10469-.01027-.03815-.02055-.07142-.03131-.10468a.46854.46854,0,0,1-.00831-.04647c-.00881-.0274-.021-.04941-.0362-.046-.0181.00538-.01419.022-.0137.045a.53082.53082,0,0,0,.01321.09979c.00636.02593.002.04745.00929.07044.01566.05234.02055.1267.02984.17464.00294.01957,0,.04647.00392.06946.00538.02446.024.05577.02886.08219.00538.03473.00489.08022.01027.11838.00685.03179.01663.06261.02495.09245.00685.02593.002.05088.00978.07485a.70584.70584,0,0,1,.02544.0768c.00391.02984-.00049.07338.00587.10028.03816.14871.04941.32482.09294.46717.00539.02054.00636.04256.01126.0631.03619.12523.06408.25829.10174.382.0049.01908.00441.03914.0093.06066.01223.04354.0225.0905.03229.134.0044.021.00391.03962.00978.05919.01272.04549.02837.08952.04354.13452.00538.02251.00782.044.01174.06555.00391.01713.01271.03669.0181.05332.00782.02593.00538.05088.0132.07485a.29873.29873,0,0,1,.02055.044c.00587.0269.00929.05332.01663.07924.01076.03131.0274.06213.04011.093.00979.02592.00979.05234.01957.07778.01761.043.03669.0949.05381.14186.0137.03815.01566.07729.02935.11593.0093.02593.02153.05235.03033.07778.00587.01957.0093.03914.01614.06017.00636.0181.02691.04745.04012.0724a.90039.90039,0,0,1,.01418.09295c.0093.02984.02593.05381.0362.0812.0093.02788.00881.05772.01664.0861.00782.022.023.04305.03179.06359l.02642.07191c.00685.01516.02.0318.02788.04647.01272.0274.02348.05822.03473.08659a1.35781,1.35781,0,0,1,.03033.137c.00343.01369.00245.04549-.00489.04892-.01908.00342-.04011-.02642-.05283-.04452a.58588.58588,0,0,1-.05919-.10273c-.00587-.01418-.00881-.02739-.0137-.04207-.01223-.03082-.02152-.06653-.03571-.09734-.00832-.01957-.021-.04012-.02788-.06066-.00979-.02984-.00538-.06506-.01712-.091-.00979-.02152-.0274-.03914-.03718-.06066-.00685-.02006-.01076-.0406-.01908-.06066a.673.673,0,0,0-.03864-.068.60655.60655,0,0,1-.01615-.06947.53168.53168,0,0,0-.03131-.089c-.01271-.02837-.02935-.05674-.04207-.08609-.00587-.01615-.0088-.03278-.0132-.04892-.00783-.022-.01957-.0455-.02789-.067a.41652.41652,0,0,0-.01614-.04941c-.01027-.024-.023-.05087-.03277-.07729-.00734-.021-.00832-.044-.01615-.06506-.01321-.03767-.02592-.07974-.03913-.11642-.00783-.02838-.01027-.05724-.01908-.0861-.01076-.03326-.02544-.06653-.03767-.10028-.00929-.02691-.01174-.05577-.01956-.08365-.01272-.03571-.03082-.069-.04305-.10664-.00734-.03033-.00881-.06066-.01517-.089-.02054-.07-.043-.14725-.06506-.21916-.02543-.07973-.02788-.17023-.05087-.25095-.01663-.05772-.03718-.11349-.05479-.17023-.00636-.02984-.00734-.05724-.01468-.08561-.01565-.06457-.03913-.14773-.06065-.21475-.01077-.03522-.00734-.07142-.01761-.10909-.01028-.03815-.01077-.08316-.023-.12376a.5.5,0,0,1-.023-.07435c-.00685-.0318-.00636-.069-.01076-.093s-.04549-.16485-.05039-.19127c-.00489-.02592-.00489-.07386-.00782-.091-.00294-.01125-.024-.07191-.02642-.08805-.00293-.01565-.00293-.03375-.0088-.06506-.00685-.03131-.02495-.10077-.02789-.12083-.00342-.02054-.00342-.06114-.00733-.0812-.00441-.02006-.01761-.067-.02691-.10028-.01125-.04061-.002-.08316-.01321-.12132-.0088-.02837-.0181-.05577-.02886-.08267a.55748.55748,0,0,1-.01565-.06849c-.00147-.022-.00294-.066-.00441-.08267-.00048-.0225-.01027-.06066-.01222-.09392a.693.693,0,0,0-.02006-.12132c-.00391-.01663-.00245-.0362-.00587-.05136-.01174-.04452-.0225-.08561-.045-.08267-.01614.00244-.0225.01614-.01516.045.00783.03473.01125.06213.02054.09588a.56.56,0,0,1,.00539.07876c.00146.02446.00244.02984.00538.05381.00195.0088.00587.03131.0088.04109a.26571.26571,0,0,1,.00783.0499l-.00049.05478a.13011.13011,0,0,0,.00489.03571.21018.21018,0,0,1,.00832.04012c.001.01418-.00049.02788.00049.04011a.13754.13754,0,0,0,.00684.045.25305.25305,0,0,1,.02006.114.2896.2896,0,0,0,.01614.13062c.0049.02592,0,.05429.0049.07924.00929.03425.0181.07044.0269.10664.00734.02935.00245.05577.01027.08414.01028.03865.03718.09148.0411.10909.00293.01761.00244.06506.00733.09539.00538.02984.01272.06457.01468.08365.00244.01957-.00049.02788.00147.04207s.021.08218.024.09979c.00391.01761.00293.02691.00685.045.00342.01908.01907.092.022.11544.00391.024.00293.03767.00734.06164.00684.0362.02152.06653.02886.10126.00489.02642.00342.04256.00636.06311.00782.03277.01859.06212.02446.09294.00489.02446.00538.04794.00978.07289.01125.05234.01859.10517.03326.15751.00881.03082.02642.0592.03571.089.00734.02739.00979.05723.01713.08413.00733.023.02348.04452.02935.06947.00391.02152.00342.04354.00733.06555.00539.02446.01615.04892.021.07435.00391.01908.002.03767.00734.05773.00636.022.01761.04207.023.0631.00489.02691.00489.05381.01174.08121.00783.0313.021.06212.03082.091.00929.02691.0044.05675.01272.0861.01761.06359.03864.134.05968.19371.00929.0318.00782.06507.01956.0998.00881.023.01859.03864.02838.0587.00733.02054.00048.04305.00684.06653.01028.03864.01566.091.02984.12865.01517.04256.04012.07729.05479.11887.01517.04354.01615.08708.03082.13257.01321.03865.03326.07436.04794.10958.01223.03082.00783.07191.01957.10517.01369.03571.03864.06311.05283.09979.01516.04207.02544.08414.03816.12572.00489.0181.00782.03571.01125.05332.01565.05479.045.10029.06408.15214.00734.024.00929.04451.01614.067a.97155.97155,0,0,0,.046.11153c.01419.03229.03523.06408.0499.09637.01321.02984.01566.05968.02837.091.01223.02984.02642.06212.03767.09294.00734.01908.00783.0362.01614.05381.03718.08267.08219.16632.12034.247.02006.04451.02984.09245.05137.138.01614.03522.0362.069.05234.10713.00978.024.01272.047.023.06946.02055.04452.0499.08952.06946.13306a.15657.15657,0,0,1,.01468.0768l-.0044.00734c-.0137.00342-.04109-.02006-.05675-.03571-.05332-.05088-.06164-.1492-.09832-.21622-.01028-.01957-.02349-.0406-.03229-.06066a.39185.39185,0,0,0-.01516-.04207c-.023-.04354-.05186-.08267-.07191-.12865-.01517-.03327-.01713-.07093-.03131-.10224-.06017-.13012-.13012-.25487-.18785-.38548-.02641-.05919-.03228-.12621-.05527-.19078-.01419-.03815-.03718-.069-.05333-.10517-.01223-.02788-.01516-.05724-.02837-.0861-.01663-.03669-.0406-.07142-.05479-.112-.00831-.02593-.01223-.05234-.022-.07778-.01223-.02886-.03131-.05283-.044-.08022a.9486.9486,0,0,1-.03424-.12866c-.00783-.02544-.0181-.05136-.02593-.07435-.00635-.02153-.00929-.044-.01663-.06458-.01761-.0494-.047-.09245-.06555-.14284-.01223-.03375-.00929-.0768-.02446-.10957-.01174-.02691-.03326-.04843-.044-.07681-.01223-.02984-.001-.06506-.01076-.09979-.00881-.03326-.02251-.06408-.03327-.09588-.00587-.02005-.00783-.03913-.01321-.05821-.01565-.04011-.02984-.08072-.044-.12083-.00783-.02054-.00783-.03962-.01615-.05821-.01125-.024-.02837-.04647-.03766-.0724-.01028-.03962-.01321-.08071-.02251-.11887-.01565-.05185-.03473-.09294-.04989-.14235-.00294-.01566-.00294-.03082-.00783-.04843-.01223-.044-.0181-.09343-.03033-.13746-.00489-.02152-.00391-.03962-.00929-.06066-.01223-.04158-.02593-.08316-.03865-.12278-.00685-.02642-.00782-.05235-.01467-.07729-.02006-.06506-.03865-.14187-.05773-.20448-.00489-.01859-.00391-.03571-.00929-.05626-.01565-.04989-.0362-.10957-.04745-.16094-.00538-.02984-.00587-.0587-.01223-.08609-.00783-.03474-.02006-.068-.02691-.10273-.00244-.01614,0-.02788-.00146-.04158-.00294-.0225-.0049-.04452-.00881-.067-.023-.0905-.05772-.201-.07729-.29106-.00636-.03278-.00734-.06555-.01076-.09784-.00391-.0225-.00538-.04892-.01174-.0724a.53525.53525,0,0,1-.02153-.0724c-.00489-.03864-.00489-.0768-.01076-.114l-.002-.00832c-.00783-.04647-.03082-.1404-.0362-.17806-.00587-.04452-.01125-.0905-.01712-.134-.001-.02886-.00588-.05919-.0093-.08952-.00685-.04647-.01761-.08707-.023-.1355-.00343-.0318-.002-.06017-.00587-.08756-.002-.01713-.00294-.04648-.025-.04648-.021,0-.0181.025-.01957.045a.81062.81062,0,0,0,.01028.14088c.00636.05528.002.10958.00733.16583.00392.0318.0137.06311.01713.093.00782.05332.0132.10762.02005.15849v.00294a.63335.63335,0,0,0,.0093.06995l.00146.00685.00049.00342.001.00392h.00049c.002.01076.00391.021.00685.0313.00538.02006.00342.03669.00929.05773.01615.06163.01223.12865.02984.18833.02446.08952.03718.18883.06311.27688.00636.02593,0,.05185.00734.07974.00684.02837.01418.05527.021.08365.00685.03326.002.068.01125.10223.00783.03131.01712.06311.02544.09295.00978.03669.01076.07435.02054.114a1.21132,1.21132,0,0,1,.03229.12376c.00783.046.01272.09784.02152.14675.00734.04012.02936.08855.03914.13257.00293.01468.00147.02935.00391.044.00538.0318.01517.06261.02153.09294.00342.01419.00244.02691.00684.04207.01419.05773.03278.13061.05088.18834.0044.01565.00636.03228.01027.04892.01174.04109.024.07142.02886.09343.00392.01908.00587.04207.01126.0631.0088.03131.01809.0587.024.0861.00489.02152.00831.0406.01418.06212a.56131.56131,0,0,0,.02788.07534c.01762.05185.01957.10713.03816.158.01125.02984.02544.05919.03522.091.00832.02935.01027.06506.01908.09833.0181.04989.03718.10713.05528.15751.02152.06017.03473.12523.05479.182.0088.023.00684.045.01467.06946.01663.05626.0362.12034.05479.17757.00978.03033.00978.05969.022.08855.01908.04794.047.088.06506.13746.01468.04255.0181.08462.03474.12327.021.05234.04451.10566.06555.16094.01369.03816.01858.07582.03424.11153.01321.03082.03082.06262.04549.09393.0093.02739.01859.05381.0274.0812a.93152.93152,0,0,0,.045.08414c.01712.03767.01957.07778.03424.11838.022.06164.05283.12425.07827.182.01028.0225.01174.04353.021.0675.01565.04109.04207.07191.05919.11007.01663.0362.021.07435.03669.10909a.287.287,0,0,1,.04109.15115.01407.01407,0,0,1-.00979.01468c-.0132.00538-.02886-.0181-.03815-.02642a.35936.35936,0,0,1-.07-.12816c-.03717-.08072-.08462-.157-.12131-.2353-.01957-.04109-.0274-.08609-.04647-.12865-.01174-.02544-.02887-.05137-.04012-.0768-.01712-.03718-.02592-.07583-.045-.10909a1.51448,1.51448,0,0,1-.07093-.16143c-.00832-.02055-.0093-.0406-.0181-.06066-.00979-.02152-.02544-.04011-.03473-.06115-.0137-.03277-.023-.07435-.03669-.10908-.02984-.06507-.06311-.134-.08854-.203-.023-.06311-.03376-.12377-.05675-.18834-.00978-.02641-.0225-.05479-.0318-.08169-.00733-.024-.00782-.045-.01614-.06751-.021-.05772-.04794-.11936-.07338-.17464-.01174-.02788-.01516-.0543-.02592-.08365-.01223-.0362-.02838-.07484-.04109-.10957-.01713-.04648-.01761-.10077-.03523-.1492-.03717-.10469-.08609-.21378-.11838-.32384-.00587-.02544-.00391-.05136-.01174-.0768-.01712-.05479-.03522-.11594-.05234-.17513-.01908-.06506-.01712-.13355-.03718-.19714-.02592-.08267-.05576-.16877-.0812-.25-.00734-.02446-.00391-.05039-.01174-.0768-.01712-.06262-.03914-.137-.06017-.19518-.01027-.02936-.01027-.06115-.02152-.08855-.01321-.03375-.047-.02152-.044.01615a.776.776,0,0,0,.01761.09539c.00391.02348.00391.047.00929.07191.01028.044.02446.08071.03669.12082.0137.04207.0137.08072.025.12377.00685.021.01517.04451.02152.06457.01272.04305.01272.089.0274.12816.01125.02984.01957.06751.02935.10029.00587.02152.00489.03913.01174.06065.01125.03914.02348.07778.0362.11692.00587.022.00391.04158.00832.06213.0088.0313.01614.06261.02494.09147.00783.0274.00685.06555.01664.0949.01712.05332.03717.11007.05478.16094.02055.05626.023.11447.04305.17219.03669.10078.06995.2172.10615.31944.00979.02593.00685.05283.01468.0812.01223.04354.022.08708.03718.13062.00734.02054.021.04158.02935.06016.01223.02495.01467.05186.02641.07778.0093.02006.02251.0411.03033.06213.01125.03229.00734.0724.02006.10273.00929.02446.0225.05136.03229.0768.01076.02788.01027.05821.022.08463.00929.0225.02593.04451.03669.067a.45282.45282,0,0,1,.02054.0675c.00979.02446.023.04941.03327.0724.01125.02544.01174.05479.024.08169.00978.023.02543.045.03473.07.00929.02592.00978.05381.01908.0812.01565.03963.04011.07436.05723.112.01272.02789.01419.05968.02691.08855.01418.03326.03424.06555.0494.09734.01957.044.03425.09.05381.1311.03229.07338.04354.15361.07729.22552.02446.05429.05822.10419.08219.15653.01271.02984.01712.06115.03081.08855.01468.03179.04158.0587.05577.09147.01174.0318.021.06457.03473.09539.01908.0406.045.07729.0636.11692.01076.0225.01565.04451.02592.067.02006.04452.05381.08072.07436.12426.00978.02837.02054.05674.03033.08609.022.04647.05674.0861.07973.13306a.75532.75532,0,0,0,.04745.10273c.03131.0494.05186.08169.08268.13208a1.18457,1.18457,0,0,1,.0631.115c.01614.03522.04305.06409.0587.09833.01615.03375.03669.07044.05479.10224.02055.0362.04109.06212.06408.09637.0362.05527.05919.11446.09539.17072.025.03913.05381.07876.08121.11642.07386.10127.179.28079.22355.34145.03767.04892.06849.10762.10322.1585.02593.0406.05919.07973.088.11691.024.03033.04256.0636.06555.09588l.01859.02446a10.937,10.937,0,0,0,2.72376,2.50461l-.00048.00048a3.63189,3.63189,0,0,0,.66381.34732c.0543.023.01762.06261-.01076.08022L9.26216,36.90907c-.01516.01028-.05234.03767-.03718.068.01125.023.06017.01027.07338.00587,3.89339-1.36628,6.71792-2.48993,8.44473-3.30931,1.75078-.83063,2.33877-1.30611,2.27469-1.54288"/><path class="cls-1" d="M73.16247,30.64663v-.27735H73.499a4.20447,4.20447,0,0,1,1.10017.08412,1.41755,1.41755,0,0,1,1.02141,1.5326,1.58121,1.58121,0,0,1-1.59228,1.65393,2.26228,2.26228,0,0,1-.86586-.21474Zm1.36775,3.68256a2.423,2.423,0,0,0,2.53249-2.36029,2.15962,2.15962,0,0,0-1.84127-2.18811,5.26461,5.26461,0,0,0-1.27921-.09687L71.11966,29.681l.04794.047s.48184.07191.48184.91869v5.26749c0,.84629-.48184.91723-.48184.91723l-.04794.05037h2.56917l-.04745-.05037s-.47891-.07094-.47891-.91723v-1.8359a3.36645,3.36645,0,0,0,1.36775.251M112,34.64572l-.566,1.92737a8.42039,8.42039,0,0,1-2.27763.41727c-2.79175,0-4.14483-1.91808-4.14483-3.65517,0-2.15973,1.64022-3.76864,4.24951-3.76864a6.121,6.121,0,0,1,2.46254.498v1.5561l-.04207-.03474a2.52816,2.52816,0,0,0-2.30453-1.31835c-1.63484,0-2.67337,1.20926-2.67337,3.05788a2.5424,2.5424,0,0,0,2.61516,2.86415,3.29967,3.29967,0,0,0,2.61761-1.50374ZM93.85873,30.64666v5.26749c0,.84629.48282.91723.48282.91723l.04843.05037h-2.5726l.04941-.05037s.47989-.07094.47989-.91723V30.64666c0-.84678-.47989-.91869-.47989-.91869l-.04941-.047H94.39l-.04843.047s-.48282.07191-.48282.91869m6.01008-.96565a2.60924,2.60924,0,0,0,.97053-.08119v1.28556l-.04891-.03915A1.48509,1.48509,0,0,0,99.58851,30.36H97.76533V32.6611h1.51694c.84628,0,.91771-.37031.91771-.37031l.05038-.04988v1.54677L100.2,33.7378s-.07142-.37179-.91771-.37179H97.76533v2.54862c0,.8463.47793.91723.47793.91723l.05087.05037H95.725l.046-.05037s.48037-.07093.48037-.91723V30.64958c0-.84726-.48037-.9182-.48037-.9182l-.046-.04988h4.14385ZM90.8263,34.68583l.06115-.04011-.56355,1.92737a8.41864,8.41864,0,0,1-2.27957.41727c-2.78883,0-4.1419-1.91808-4.1419-3.65517,0-2.15973,1.63729-3.76718,4.249-3.76718a6.10762,6.10762,0,0,1,2.46009.49652v1.5561l-.0406-.03474a2.52909,2.52909,0,0,0-2.30208-1.31835c-1.6368,0-2.67337,1.20926-2.67337,3.05788a2.54018,2.54018,0,0,0,2.6137,2.86415,3.308,3.308,0,0,0,2.61711-1.50374m12.929-4.03917v5.26749c0,.84629.48087.91723.48087.91723l.04842.05037h-2.57211l.04843-.05037s.48086-.07094.48086-.91723V30.64666c0-.84678-.48086-.91869-.48086-.91869l-.04843-.047h2.57211l-.04842.047s-.48087.07191-.48087.91869m-25.13264,3.482,1.10947-2.33438,1.01359,2.33438H78.62272ZM83.224,35.901,80.06189,29.32l-3.1425,6.581c-.47108.90008-.98912.91917-.98912.91917l-.04843.04989h2.14848l-.047-.04989s-.60267-.11889-.2216-.91917l.567-1.16181h2.692l.54788,1.16181c.38108.80028-.22013.91917-.22013.91917L81.3,36.87h2.96248l-.04941-.04989s-.54544-.00387-.98913-.91917m-30.07679.00339c0-.84727-.00292-4.42025-.00292-5.26749s.48086-.90891.48086-.90891l.04941-.047H51.10239l.047.047s.48135.06164.48135.90891.00392,2.06777.00392,2.06777H48.09687V30.63686c0-.84727.48233-.906.48233-.906l.047-.0489H46.056l.05039.0489s.47939.05871.47939.906v5.26749c0,.84874-.47939.92161-.47939.92161l-.05039.048h2.57015l-.047-.048s-.48233-.07287-.48233-.92161V33.41h3.53775v2.49433c0,.84874-.47939.92161-.47939.92161l-.0499.048h2.57309l-.04989-.048s-.48136-.07287-.48136-.92161M39.64872,29.682a2.57432,2.57432,0,0,1-.9676-.08122l-.00293,1.43135.0494-.03619a1.48641,1.48641,0,0,1,1.23225-.62028h1.2073v5.52871c0,.84874-.47793.92161-.47793.92161l-.0499.048h2.57114l-.04794-.048s-.48136-.07287-.48136-.92161l.00637-5.52871H43.866a1.54734,1.54734,0,0,1,1.25523.62028l.0499.03619.00293-1.43135a2.58006,2.58006,0,0,1-.96809.08122ZM56.6678,34.12862l1.11142-2.33438,1.01163,2.33438h-2.123ZM61.272,35.90094,58.108,29.32l-3.14347,6.581c-.47011.90008-.98864.91917-.98864.91917l-.04892.04988h2.14995l-.046-.04988s-.60218-.11889-.22258-.91917l.56451-1.16181h2.69539l.5469,1.16181c.38254.80028-.21915.91917-.21915.91917L59.347,36.87h2.962l-.04941-.04988s-.54593-.00388-.98766-.91917m5.07623-6.219.0499.0489s.63544.17857.15605.92408c-.23481.36247-.94265,1.37556-1.58739,2.3549-.64768-.97934-1.34525-1.9988-1.5781-2.36078-.47891-.7465.159-.9182.159-.9182l.04647-.0489h-2.9615l.04794.0489s.42853.07093.99108.9182c.23579.35758,1.43869,2.03842,2.08587,3.01923v2.236c0,.84874-.48086.92161-.48086.92161l-.04794.048h2.57113l-.04941-.048s-.47891-.07287-.47891-.92161c0-.35858-.00488-1.25721-.00488-2.236.64816-.98081,1.8535-2.6548,2.09075-3.01335a1.88646,1.88646,0,0,1,1.197-.92408l.04989-.0489ZM28.54578,36.18954a2.54028,2.54028,0,0,1-2.61418-2.86415c0-1.84862,1.03755-3.05787,2.67043-3.05787a2.52814,2.52814,0,0,1,2.30453,1.31834l.04012.03474V30.06451A6.10277,6.10277,0,0,0,28.4861,29.568c-2.61027,0-4.24854,1.60746-4.24854,3.76719,0,1.73708,1.35308,3.65516,4.14287,3.65516A8.43334,8.43334,0,0,0,30.66,36.57306l.564-1.92737-.06212.04011a3.30422,3.30422,0,0,1-2.61614,1.50374m5.46855-2.06092,1.11044-2.33438,1.01212,2.33438ZM38.618,35.90094,35.454,29.32l-3.143,6.581c-.4701.90008-.9901.91917-.9901.91917l-.047.04988h2.15239l-.05185-.04988s-.60071-.11889-.21817-.91917l.563-1.16181h2.69441l.54739,1.16181c.3801.80028-.22062.91917-.22062.91917l-.047.04988h2.963l-.05088-.04988s-.54641-.00388-.98765-.91917"/></svg>