<svg id="aw" xmlns="http://www.w3.org/2000/svg" viewBox="0 0 120 60"><defs><style>.cls-1{fill:#c17b3c;}.cls-2{fill:#2d3153;}.cls-3{fill:#2293d0;}.cls-4{fill:#fff;}.cls-5{fill:#e42130;}</style></defs><title>ai_template_china_southern_full_1</title><path class="cls-1" d="M15,20.90075a8.46,8.46,0,0,1,4.87.51,8.5482,8.5482,0,1,1-11.17,11.23,9.86,9.86,0,0,1-.7-3.08,9.00007,9.00007,0,0,1,1.23-4.64,8.52,8.52,0,0,1,5.74-4"/><path class="cls-2" d="M15.17,21.50075a7.91,7.91,0,1,1-6.30875,5.9736A7.92,7.92,0,0,1,15.17,21.50075"/><path class="cls-3" d="M18.79,25.30075c.17-.16.33-.41.6-.36h3.23c-1.14,2.89-2.31,5.77-3.45,8.65H10.52c2.74-2.76,5.48-5.49,8.27-8.29"/><path class="cls-2" d="M31.36,26.03075a4.23991,4.23991,0,0,1,2.39-.52,10.36949,10.36949,0,0,1,2.22.27v1.43a5.99991,5.99991,0,0,0-2.83-.42,2,2,0,0,0-1.43,1.26,3.07,3.07,0,0,0,.22,2.81,2.36,2.36,0,0,0,2.15,1,5.55025,5.55025,0,0,0,1.92-.7v1.53a6.33,6.33,0,0,1-4.23,0,3.82,3.82,0,0,1-2.1-3.69,3.64,3.64,0,0,1,1.72-3"/><path class="cls-2" d="M62.75,26.38075a2.32,2.32,0,0,1,1.72-.87,5.93986,5.93986,0,0,1,2.13.29v1.53a4.36,4.36,0,0,0-2.14-.49c-.27,0-.6.22-.57.53s.46.63.78.84c.5.32,1,.67,1.46,1a2.18,2.18,0,0,1,.69,2.39,2.3,2.3,0,0,1-1.82,1.46,4.78009,4.78009,0,0,1-2.53-.36,16.00307,16.00307,0,0,1,0-1.7,4.7,4.7,0,0,0,1.64.79,1.07,1.07,0,0,0,1.2-.48.57.57,0,0,0-.23-.76c-.62-.42-1.25-.83-1.86-1.25a2.1,2.1,0,0,1-.43-2.92"/><path class="cls-2" d="M36.82,32.98075v-7.41h1.63v2.93h2.56v-2.93h1.65v7.4H41v-3.2H38.45v3.2H36.8"/><path class="cls-2" d="M43.89,25.61075h1.65v7.39H43.89v-7.38"/><path class="cls-2" d="M46.79,25.60075h.72c1.29,1.41,2.56,2.85,3.87,4.25v-4.24h1.25v7.4H51.9c-1.16-1.31-2.36-2.59-3.52-3.89a2.80877,2.80877,0,0,0-.31-.29v4.17H46.79v-7.4"/><path class="cls-2" d="M75.08,25.60075h1.64v4.78a1.40089,1.40089,0,1,0,2.8-.1h0v-4.68h1.25v4.7a2.75,2.75,0,0,1-1.33,2.35,3,3,0,0,1-3.54-.44,2.7,2.7,0,0,1-.8-1.91v-4.7"/><path class="cls-2" d="M81.22,25.60075h5.73v1.32h-2v6.1H83.27v-6.09h-2v-1.33"/><path class="cls-2" d="M87.45,25.60075h1.64v2.91h2.56v-2.91h1.64v7.38H91.64v-3.2H89.1v3.22H87.45v-7.4"/><path class="cls-2" d="M94.12,25.60075h5v1.27H95.79v1.59h3.36v1.28H95.79v1.94h3.36v1.3h-5v-7.38"/><path class="cls-2" d="M106.11,25.59075a2.99959,2.99959,0,0,1,.73,0c1.31,1.4,2.56,2.85,3.87,4.24q0-2.13,0-4.26H112c.05.88,0,1.75,0,2.63v4.79h-.72c-1.28-1.4-2.53-2.83-3.85-4.19v4.2h-1.28v-7.41"/><path class="cls-2" d="M69.94,25.58075a3.74,3.74,0,0,1,4.2,1.82,3.81,3.81,0,0,1-2.48,5.58,3.74,3.74,0,0,1-3.78-1.42,3.87,3.87,0,0,1-.51-3.66,3.78,3.78,0,0,1,2.57-2.32m.52,1a2.26,2.26,0,0,0-1.46,1.35,3.1,3.1,0,0,0,.76,3.65,1.83,1.83,0,0,0,2.25,0,3.08,3.08,0,0,0,.27426-4.34714q-.06015-.06825-.12426-.13286a1.85,1.85,0,0,0-1.69-.47"/><path class="cls-2" d="M100.09,25.61075h2.59a2.56,2.56,0,0,1,2,.73,2.19,2.19,0,0,1,.31,2.18,1.75,1.75,0,0,1-1.13,1c.56,1.17,1.18,2.31,1.76,3.47h-1.78c-.57-1.07-1.13-2.14-1.67-3.22h-.4v3.23H100.1v-7.39m1.54,1.16v1.89c.5,0,1.08.13,1.5-.22a1,1,0,0,0,.01588-1.41412l-.01588-.01588c-.42-.38-1-.22-1.53-.24"/><path class="cls-4" d="M17.54,27.67075c.12-.13.21-.35.42-.34s.33.19.43.35c.2-.13.52-.22.67,0s0,.5-.18.68c.42.17,1,0,1.27.49a.6.6,0,0,1-.36.95c-.28.05-.44-.2-.59-.38a6.44011,6.44011,0,0,1-.08,1.88,1.27,1.27,0,0,1-2.13.28c-.44-.6-.22-1.4-.24-2.08-.17.22-.44.49-.75.33a.63.63,0,0,1-.12-1c.31-.31.79-.22,1.17-.35-.14-.21-.37-.49-.15-.73s.44-.13.64,0"/><path class="cls-5" d="M17.7,27.69075a.28.28,0,0,1,.52-.08c.11.25-.25.4-.2.66l.35.24a1.58992,1.58992,0,0,0-.37.49,3.651,3.651,0,0,1-.35-.43c-.08-.17.17-.22.26-.3s0-.17,0-.23-.25-.2-.2-.35"/><path class="cls-5" d="M16.93,27.89075a.28.28,0,0,1,.51-.1c.2.27-.33.45-.15.72s.47.27.55.54a4.99977,4.99977,0,0,1,.07,1.34,6.141,6.141,0,0,1-.45.43v-1.49a1.3,1.3,0,0,0-.42-.71,2.26089,2.26089,0,0,0,.11-.22c.07-.2-.26-.3-.2-.51"/><path class="cls-5" d="M18.46,27.98075a.28.28,0,0,1,.52-.17c.13.19-.08.34-.2.46a.37.37,0,0,0,.17.32,1.46,1.46,0,0,0-.45.7,13.35566,13.35566,0,0,0,0,1.55c-.17-.2-.47-.36-.44-.65a5.069,5.069,0,0,1,0-1,1,1,0,0,1,.63-.66,1.06,1.06,0,0,0-.23-.52"/><path class="cls-2" d="M55.41,25.53075h1.53c.75,2.48,1.51,5,2.26,7.46H57.34c-.17-.7-.38-1.39-.56-2.08H55.23c-.17.7-.41,1.37-.58,2.06H53.16c.75-2.49,1.47-5,2.25-7.47m0,4.11h1.07c-.14-.66-.34-1.3-.49-2a19.45445,19.45445,0,0,0-.58,2"/><path class="cls-3" d="M17.38,28.52075a.84321.84321,0,0,1,.33-.57c0,.06.08.17.1.23l-.43.34"/><path class="cls-3" d="M18.25,28.03075a.41.41,0,0,1,.27.38c-.15,0-.5-.26-.27-.38"/><path class="cls-5" d="M18.77,28.96075a.74.74,0,0,1,1.34.28.38.38,0,0,1-.58.38c-.23-.13-.17-.4-.09-.6-.14.09-.32.15-.35.34a9.73119,9.73119,0,0,0,0,1.21l-.48.15a4.14009,4.14009,0,0,1,.19-1.76"/><path class="cls-5" d="M15.83,29.24075a.73.73,0,0,1,1.34-.27,3.86,3.86,0,0,1,.18,1.76l-.46-.16v-1.2c0-.18-.21-.26-.34-.36.05.2.12.47-.09.6a.38.38,0,0,1-.6-.37"/><path class="cls-5" d="M17.54,31.07075a1.52,1.52,0,0,1,.4-.54c.25.05.34.35.45.56a1.42,1.42,0,0,1,.69-.4,1.36,1.36,0,0,1-.22.73,1.13,1.13,0,0,1-1.8,0,1.23,1.23,0,0,1-.19-.7,1.68972,1.68972,0,0,1,.67.39"/></svg>