<svg id="aw" xmlns="http://www.w3.org/2000/svg" viewBox="0 0 120 60"><defs><style>.cls-1{fill:#991933;}.cls-2{fill:#e01933;}.cls-3{fill:#036;}</style></defs><title>ai_template_delta_full_1</title><path class="cls-1" d="M27.3296,36.44513l-9.31252-4.47246-.30633-.30633.15317-8.91428.15316-.61267M28.0648,38.1606l-10.04772-4.258-.30633.4595V38.13H28.0648Z"/><polyline class="cls-2" points="8.735 36.445 18.017 22.139 18.017 31.973"/><polyline class="cls-2" points="8 38.161 18.017 38.161 18.017 33.903"/><path class="cls-3" d="M35.87629,36.44513h4.50309c4.62563,0,7.41325-2.38939,7.41325-6.37172s-2.757-6.37172-7.41325-6.37172H35.87629m2.8489,2.20559h1.65419c3.00207,0,4.50309,1.4704,4.50309,4.16613,0,2.6651-1.501,4.16613-4.50309,4.16613H38.72519Z"/><polyline class="cls-3" points="57.473 30.901 62.895 30.901 62.895 28.695 57.473 28.695 57.473 25.877 63.599 25.877 63.599 23.671 54.624 23.671 54.624 36.445 63.783 36.445 63.783 34.209 57.473 34.209"/><polyline class="cls-3" points="80.049 34.209 74.535 34.209 74.535 23.671 71.687 23.671 71.687 36.445 80.049 36.445"/><polyline class="cls-3" points="95.427 23.671 83.971 23.671 83.971 25.877 88.259 25.877 88.259 36.445 91.139 36.445 91.139 25.877 95.427 25.877"/><path class="cls-3" d="M112,36.44513h-2.97143l-1.256-3.18586h-5.20766l-1.256,3.18586H98.52135l5.36083-12.83534h2.87953m.1838,7.50515-1.77673-4.53372-1.77673,4.53372Z"/></svg>