<svg id="aw" xmlns="http://www.w3.org/2000/svg" viewBox="0 0 120 60"><defs><style>.cls-1{fill:#ff6601;}</style></defs><title>ai_template_easyjet_full_1</title><path class="cls-1" d="M15,28h-.33c-.72,0-1-.05-1-.72a1.78,1.78,0,0,1,1.68-1.83,1.5,1.5,0,0,1,1.49752,1.50248q-.00014.0739-.00752.14752c0,.88-.2.9-1.62.9Zm5.41,2.58c1,0,1.45-.52,1.45-2,0-3.14-2.6-5.66-6.47-5.66a7.35,7.35,0,0,0-6,3.09A7.13,7.13,0,0,0,8,30.17a7,7,0,0,0,6.90523,7.09351q.1674.00225.33477-.0035a8.00009,8.00009,0,0,0,4.54-1.35,3,3,0,0,0,1.62-2.19,1.2,1.2,0,0,0-1.046-1.33635L20.32,32.38c-.67,0-1.68,1.14-3.33,1.14-1.83,0-3.22-1.42-3.22-2.58,0-.31.23-.36.8-.36Zm9.77-1.68a12.34067,12.34067,0,0,0-2.06-.23c-3.22,0-5.67,1.91-5.67,4.36s1.75,4,4.56,4a4.5,4.5,0,0,0,2.94-1c.26-.18.44-.39.67-.39s.54.44,1,.9a2.2,2.2,0,0,0,1.67.55c2.5,0,4.33-1.71,4.33-2.94a.89.89,0,0,0-.77-.9c-.75-.21-.77-.57-.77-2.45v-.3c0-.85.07-1.85.07-3,0-3-2.16-4.61-6.26-4.61-3.94,0-6.44,1.6-6.44,3.35a1.59,1.59,0,0,0,1.50794,1.668q.046.00232.09206.002a2.9,2.9,0,0,0,2.27-1.34c.59-.72,1-1.36,1.75-1.36s1.13.75,1.13,2.39a12.01987,12.01987,0,0,1-.05,1.29m0,2.61c0,1.77-.05,2.5-.95,2.5-.67,0-1-.52-1-1.53s.49-1.64,1.31-1.64c.6,0,.67.05.67.67m20,1.16c0-2-1.16-3.25-3.61-4.49-1.39-.69-2.26-.95-2.26-1.62a.75.75,0,0,1,.77-.7c.82,0,1.24.72,1.93,1.34a2.09,2.09,0,0,0,1.42.62,1.4,1.4,0,0,0,1.49-1.49c0-1.65-1.52-3.4-2.5-3.4-.41,0-.9.41-1.41.41S44.64,23,43.69,23c-3,0-5.28,2.12-5.28,4.54,0,1.85,1.16,3.45,3.37,4.56,1.14.57,2,.69,2,1.54a.64.64,0,0,1-.7.57,3.13913,3.13913,0,0,1-2-1.29c-.57-.59-1-1.13-1.81-1.13s-1.1.54-1.1,1.57c0,1.86,1.57,3.66,2.5,3.66.41,0,.82-.31,1.21-.31a13.46054,13.46054,0,0,0,2.83.47c3.35,0,5.49-1.94,5.49-4.51m5,0c1.16,2.52,1.94,4.2,1.94,5.21,0,.56-.26.87-.65.87-.56,0-.41-.82-.85-1.78a2.15,2.15,0,0,0-2.06-1.31,2.5,2.5,0,0,0-2.4,2.58c0,2.08,1.65,3.6,4.28,3.6s4.33-1.34,5.83-4,2.16-6.08,3.37-9.35c.54-1.42.72-1.94,1.78-2.35.77-.28,1.26-.49,1.26-1.47s-.93-1.57-2.94-1.57-3.27.59-3.27,1.55c0,.77,1,1.05,1,1.7A4.92,4.92,0,0,1,62,27.89c-.33.75-.62,1.14-1.08,1.14s-.82-.39-1.13-1.16a5.85,5.85,0,0,1-.52-1.65c0-.46.85-.52.85-1.47,0-1.37-1.34-1.67-4.17-1.67-3.43,0-5.18.77-5.18,2.13,0,.93.59,1.09,1.18,1.4a3.50314,3.50314,0,0,1,1.24,1.77ZM76,30.91c0,1.91-.7,2.91-1.78,2.91a.65.65,0,0,1-.69812-.598L73.52,33.18c0-.49.18-1,.18-1.44a2.85,2.85,0,0,0-2.80569-2.89363q-.09719-.0015-.19431.00363a3,3,0,0,0-3.00806,2.99192q-.00031.11415.00806.22808c0,3.1,2.76,5.29,7.19,5.29,3.76,0,6.16-1.5,7.09-4.39.56-1.75.33-4.89.49-9.3,0-1.31,0-1.72.9-2.21.62-.36,1-.55,1-1.47,0-1.5-1.59-1.88-5.2-1.88s-5.26.51-5.26,2.14c0,.87.46,1.05,1.11,1.33.87.37,1,.62,1,2.09ZM92.6,28h-.34c-.72,0-1-.05-1-.72a1.78,1.78,0,0,1,1.72885-1.82972L93,25.45a1.51,1.51,0,0,1,1.5065,1.5135q-.00017.06836-.0065.1365c0,.88-.21.9-1.63.9ZM98,30.58c1,0,1.44-.52,1.44-2,0-3.14-2.6-5.66-6.47-5.66A7.37,7.37,0,0,0,87,26a7.2,7.2,0,0,0-1.34,4.15,7,7,0,0,0,6.90524,7.09351q.16738.00225.33476-.00351a7.99992,7.99992,0,0,0,4.54-1.35A3,3,0,0,0,99,33.72a1.2,1.2,0,0,0-1.046-1.33634L97.92,32.38c-.67,0-1.67,1.14-3.32,1.14-1.83,0-3.22-1.42-3.22-2.58,0-.31.23-.36.79-.36Zm3.92-4.43v6.28c0,3.12,1.64,4.77,4.71,4.77S112,35.45,112,34.11c0-.93-.41-1.47-.88-1.47s-1.05.51-1.7.51c-.92,0-1.36-.51-1.36-1.54V26.87c0-.65.2-.62.85-.65l2-.07c.87,0,1-.08,1-1V24c0-.69-.12-.72-.87-.72h-2.86v-1.2c0-1.55,0-2-1.21-2s-2.89,1.16-5.62,3.07c-1.19.83-1.55.9-1.55,1.88,0,1.16.18,1.08,2.07,1.14"/></svg>