<svg id="aw" xmlns="http://www.w3.org/2000/svg" viewBox="0 0 120 60"><defs><style>.cls-1{fill:#d51921;}</style></defs><title>ai_template_emirates_full_1</title><path class="cls-1" d="M21.03769,19.13359A3.26335,3.26335,0,0,0,20.39427,21.03v5.8585a2.06708,2.06708,0,0,1-.44023,1.253,11.06949,11.06949,0,0,1-1.18525,1.01592h.508c.20319-.13545,1.96412-1.6932,2.13344-1.89639a3.23308,3.23308,0,0,0,.81274-1.96412v-5.723a2.15077,2.15077,0,0,1,.57569-1.52389,10.33479,10.33479,0,0,1,1.01593-.88047l-.508-.06772c-.16932.13545-2.06571,1.86252-2.26889,2.03184"/><path class="cls-1" d="M16.70308,40.50186l2.13344,1.89639h1.45616A5.24756,5.24756,0,0,0,23.95,40.87436,4.37951,4.37951,0,0,0,25.13525,37.725V34.64336a2.11478,2.11478,0,0,0-.81274-1.76093,6.83892,6.83892,0,0,0-.745-.71115v2.33663a11.28014,11.28014,0,0,1,.81274.88046c.64342.64342.64342,1.89639-1.3207,3.89438a4.415,4.415,0,0,1-2.77686,1.253h-3.5896Z"/><path class="cls-1" d="M22.6293,27.97213a2.49506,2.49506,0,0,0-.44023,1.38843V30.5458h1.18524a2.01578,2.01578,0,0,0,1.18525-.64342V28.81873a2.61614,2.61614,0,0,0,.64342.64342c.06773-.13546,1.18524-1.45616,2.06571-1.45616,1.52388,0,1.18524,1.82867.57569,2.50595-.20319.13546-1.08365.9482-1.38843,1.253-.64342.64342-1.89639.37251-1.89639-1.38843,0,0-1.3207,1.253-1.45616,1.38843a10.57727,10.57727,0,0,0-.88046.88047v3.01391a3.08959,3.08959,0,0,1-.88047,2.40435c-.13546.13545-1.82866,1.6932-2.06571,1.82866h-.508A15.54243,15.54243,0,0,1,19.954,38.87638a2.46789,2.46789,0,0,0,.44023-1.45616v-4.9103h-7.484c-2.6414,0-3.14937-2.84458-3.21709-3.65732V26.008a1.909,1.909,0,0,0-.745-1.52388h.745c.06772,0,.508.20318.508,1.96412v2.20116A1.83893,1.83893,0,0,0,11.9621,30.5458h8.43217a2.88219,2.88219,0,0,1,.64342-1.52388c.20318-.30478,2.06571-1.89639,2.26889-2.13344h.508c-.06773.06773-.9482.88047-1.18525,1.08365M25.44,29.73306a6.47647,6.47647,0,0,0,.745.81274c.94819.745,1.38842-.06772.745-.88046-.27092-.37251-1.21911-.20319-1.49.06772"/><path class="cls-1" d="M16.33057,35.15133c0,.44023-1.3207,1.52388-1.38842,1.62547-.06773-.44023-.37251-.94819-1.38843-1.89639l1.45615-1.45615c.98206.91433,1.3207,1.15137,1.3207,1.72707"/><path class="cls-1" d="M18.83652,18.76109c.30478.30478.9482,1.08365.508,1.45616-.30478.30477-.81274.88046-.81274.88046,0-.20318-.508-.64342-.508-.64342v1.52389c0,.64342-.20318.81274-.20318.81274a4.27249,4.27249,0,0,1,1.18524,2.6414v1.45616a1.41166,1.41166,0,0,1-.30478.81274c-.13545.06773-1.18524,1.18524-1.38843,1.3207a1.17412,1.17412,0,0,1-.88046.27091H12.47006c-.57569,0-1.253-.44023-1.253-.94819V26.88848a1.21868,1.21868,0,0,0,.88047.508,1.89669,1.89669,0,0,0,.94819-.44023c.06773-.13546,3.01391-3.14937,3.01391-3.14937a25.19559,25.19559,0,0,0-2.2689-1.82866.73677.73677,0,0,0-1.08365.44023,13.5,13.5,0,0,0,0,3.01391l-1.08365-1.08365a1.4712,1.4712,0,0,1,.10159-1.998,2.94015,2.94015,0,0,1,1.89639-.9482h1.52389a4.33648,4.33648,0,0,1,2.2689,1.01592.55311.55311,0,0,0,.13545-.3725V20.08179c-.81274-.81274-.94819-1.62548-.508-2.06571l.9482-.9482a2.77168,2.77168,0,0,0,.8466,1.69321m-4.978,7.99193a2.71008,2.71008,0,0,1-.81274.745h4.47007c1.18524,0,.94819-.745.745-1.08365a16.03292,16.03292,0,0,0-1.82866-2.2689s-2.50595,2.506-2.57368,2.60754"/><path class="cls-1" d="M8.81274,30.85058H8a1.74639,1.74639,0,0,1,.81274,1.52389v3.58959a4.44352,4.44352,0,0,0,4.233,4.47007h1.96412a2.778,2.778,0,0,0,2.2689-.9482l.745-.745a2.48692,2.48692,0,0,0,.81274-1.96412V35.59156a2.22689,2.22689,0,0,0-.88047-1.76094l-.64341-.64342v2.40436l.745.745a1.20425,1.20425,0,0,1-.745,2.13345H12.978A3.71237,3.71237,0,0,1,9.3207,34.81268V32.84856c0-1.998-.508-1.998-.508-1.998"/><path class="cls-1" d="M13.41826,35.15133c0,.44023-1.3207,1.52388-1.3207,1.62547a4.56034,4.56034,0,0,0-1.45616-1.89639l1.45616-1.45615c.94819.91433,1.3207,1.15137,1.3207,1.72707"/><path class="cls-1" d="M41.96572,36.06566H38.44385c-1.15138,0-1.01592-.91433-1.15138-1.72707V29.2251h1.72707a6.11576,6.11576,0,0,1,3.31868.57569,3.56441,3.56441,0,0,0-3.31868-2.1673H37.29247V26.04187a4.513,4.513,0,0,0-.33864-1.82866h2.40435c1.93025,0,3.55573,0,5.24894,1.01592,0,0-.33864-2.6414-4.33461-2.6414H32.61922a4.3455,4.3455,0,0,1,1.253,3.42028l.10159,9.38036c0,2.2689.91433,2.40436.91433,2.40436h7.5517a2.199,2.199,0,0,0,2.40436-1.93026v-.91433s-.57569,1.11752-2.87845,1.11752"/><path class="cls-1" d="M62.1826,35.28678V28.78487c0-2.506-2.06571-3.18323-3.65733-3.18323a3.11759,3.11759,0,0,0-2.84458,2.2689,3.36713,3.36713,0,0,0-3.31869-2.2689,3.14262,3.14262,0,0,0-3.08163,2.2689s-.10159-2.16731-2.06571-2.16731H45.2844s1.15138.44024,1.15138,2.40436v7.17919c0,2.40435.91433,2.50595.91433,2.50595h3.18323a3.2235,3.2235,0,0,1-1.253-2.50595V28.88646a1.89052,1.89052,0,0,1,1.93026-1.253,1.737,1.737,0,0,1,1.59161,1.72707v5.92622c0,2.40435.91433,2.40435.91433,2.40435h3.18322a3.06054,3.06054,0,0,1-1.15137-2.40435V28.88646a1.69166,1.69166,0,0,1,1.72707-1.253,1.78029,1.78029,0,0,1,1.72707,1.72707v5.92622c0,2.50595,1.01592,2.40435,1.01592,2.40435h3.18323a3.12889,3.12889,0,0,1-1.21911-2.40435"/><path class="cls-1" d="M67.77018,35.28678a3.00825,3.00825,0,0,0,1.253,2.40435H65.83993s-1.01593.1016-1.01593-2.40435V28.07372c0-1.93025-1.01592-2.40435-1.01592-2.40435h1.93025c.67729,0,2.06572,0,2.06572,2.6414v6.976Z"/><path class="cls-1" d="M77.59078,26.61756s-.237-.91433-1.59162-.91433c-2.06571,0-2.50594,2.40436-2.50594,2.40436-.10159-1.93026-.67728-2.50595-2.06571-2.50595H69.49725s1.15138.4741,1.15138,2.50595v7.17919c0,2.40435.91433,2.40435.91433,2.40435h3.18323a2.74777,2.74777,0,0,1-1.253-2.40435V29.32669a2.15229,2.15229,0,0,1,.81273-1.253,2.62917,2.62917,0,0,1,3.31869.44024v-1.8964Z"/><path class="cls-1" d="M92.55872,26.95621a3.51486,3.51486,0,0,1,1.82866.57569V25.70323H91.746V22.85865a8.57432,8.57432,0,0,1-2.1673,2.40435,15.57916,15.57916,0,0,1-2.84459,1.72707H88.7998v8.3983c0,2.2689,1.01593,2.2689,1.01593,2.2689h3.18322a2.91966,2.91966,0,0,1-1.253-2.2689V26.95621Z"/><path class="cls-1" d="M102.27772,30.61353c-1.82866,1.93026-3.18322,1.59162-4.3346,2.98005a2.9861,2.9861,0,0,0,1.59162,2.50594,2.71356,2.71356,0,0,0,3.75892-1.253V36.7768s-.81274,1.01593-3.42028,1.01593c-3.18323,0-5.35054-2.50595-5.35054-5.82463s1.79479-6.40032,5.11348-6.40032c3.18323,0,4.9103,2.6414,2.6414,5.04575m-1.96411-.71114c.44023-1.01593.91433-3.55574-.91434-3.42028-2.06571.23705-1.72707,5.82463-1.72707,5.82463.71115-.77888,1.86253-.91433,2.64141-2.40435"/><path class="cls-1" d="M66.28016,24.65345a1.49,1.49,0,1,0-1.49-1.49,1.55,1.55,0,0,0,1.49,1.49"/><path class="cls-1" d="M80.90946,36.3027a1.40386,1.40386,0,0,1-1.253-1.49c0-2.98,2.50594-3.42027,3.18323-4.233v5.01189c-.33864.3725-.54183.71114-1.93026.71114m1.93026-6.84055c-.81274,1.253-6.50191,1.49-5.58758,6.06168a2.64463,2.64463,0,0,0,2.98,2.2689,2.84783,2.84783,0,0,0,2.6414-1.49c.237,1.35457.91433,1.35457.91433,1.35457h3.18323a3.00825,3.00825,0,0,1-1.253-2.40435v-6.7051c0-1.59161-1.82866-2.98-3.65733-2.98a5.64945,5.64945,0,0,0-3.08164.91433v2.1673a2.77242,2.77242,0,0,1,2.40436-1.72707c1.59161,0,1.72707.81274,1.72707,1.253a3.2981,3.2981,0,0,1-.27091,1.28683"/><path class="cls-1" d="M109.35532,34.474A2.20506,2.20506,0,0,1,106.951,36.4043a2.50215,2.50215,0,0,1-2.2689-1.72707v2.1673a5.11271,5.11271,0,0,0,2.98.91433c2.1673,0,4.4362-1.72707,4.3346-3.996a3.81771,3.81771,0,0,0-.67728-2.1673,16.43838,16.43838,0,0,0-3.18323-2.2689,1.97954,1.97954,0,0,1-.91433-1.253c0-.44023.23705-1.253,1.82866-1.253a2.72194,2.72194,0,0,1,2.2689,1.72707V26.48211a5.64941,5.64941,0,0,0-3.08164-.91434c-1.93026,0-3.65732,1.253-3.65732,2.84459a3.78856,3.78856,0,0,0,1.82866,3.18323,11.09208,11.09208,0,0,0,1.72707,1.01592,2.31888,2.31888,0,0,1,1.21912,1.86253"/></svg>