<svg id="aw" xmlns="http://www.w3.org/2000/svg" viewBox="0 0 120 60"><defs><style>.cls-1{fill:#b89e67;}</style></defs><title>ai_template_etihad_full_1</title><path class="cls-1" d="M66.04988,15.53338l-.0596-.05563-1.16822-1.19206-1.22384,1.23179,1.22384,1.22782Zm2.69008,0-.0596-.05563-1.16424-1.19206L66.2883,15.51748l1.22782,1.22782ZM63.01808,26.12282a1.78963,1.78963,0,0,0,0,.26623c0,.42119.07947,1.23576.755,1.506A1.39073,1.39073,0,0,0,65.136,27.7917l.09536-.0596-.09139-.07152c-.39735-.298-.47682-1.1563-.47285-1.61723v-.21854H68.887V21.4142h0V16.789l-.151.26623a6.024,6.024,0,0,1-1.10464,1.16424,4.88284,4.88284,0,0,1-.96954.7351c-.12318.05563-.22649.08345-.22252.21458v.13907c.07152.56424.86226.33377.902,1.19206.03179.39735.03179,2.853.03179,2.853v.894H64.65517v-.457c0-1.00132-.34172-3.0914-2.78146-3.08742h-.13113c-.79471.02384-1.47815.03973-2.07418.03973-1.58941,0-2.48743-.147-2.71392-.57219l-.04371-.07549-.07152.04768a.9854.9854,0,0,0-.39735.86225c0,.56822.3139,1.19206.86622,1.24769.39736,0,.92584.02384,1.47418.02384.98544,0,1.98677-.01986,1.98677-.01986,2.28477.01986,2.21722,1.057,2.24107,1.41854v.57219H53.19553l.02384-1.15629V12.50158l-.151.25431a6.15877,6.15877,0,0,1-1.15233,1.16424,4.97433,4.97433,0,0,1-1.00927.7351c-.12715.05961-.23047.08345-.23047.21457v.13908c.07947.56424.89405.33377.93776,1.19205.05165.63974.05562,4.53777.05562,6.755v2.86491H63.00616ZM44.52927,27.31488a2.20069,2.20069,0,0,0,2.33643,1.43047h.11524a2.61006,2.61006,0,0,0,2.551-1.50994V21.41817a.44538.44538,0,0,0,0-.06755c0-.27417-.06358-1.351-1.057-1.36292H39.53455v-.22649c.03576-.8702.65563-.63576.71523-1.19206V18.438a.19081.19081,0,0,0-.02384-.07948c-.12318-.09139-.07947,0-.21457-.09139a2.97233,2.97233,0,0,1-.70729-.65563,8.09,8.09,0,0,0-.906-.9457l-.10729-.09536v2.93246h0v1.943h8.89673a.65961.65961,0,0,1,.73112.73113v4.10068a.94966.94966,0,0,1-.92945.96946q-.01806.00039-.03611.00008A1.58947,1.58947,0,0,1,45.87629,26.85a1.502,1.502,0,0,1-.3298-.39736V24.14H38.29083v1.67683h6.23844Zm36.43722-1.58941s-.03576-3.85432-.03576-6.69936c0-1.4265,0-2.59472.03576-2.88876.04371-.86225.86623-.63179.94173-1.19205v-.143c0-.13113-.10331-.155-.23047-.21457a4.86753,4.86753,0,0,1-1.01325-.73113,6.23863,6.23863,0,0,1-1.15232-1.16822l-.151-.24635V25.81686H80.9506Zm-5.80929,2.0106L73.838,29.05926l-1.32318-1.32319L73.838,26.40892Zm-4.1126,0,2.78147,2.78147,2.78147-2.78147L74.84726,25.944l2.18544-2.31656V12.80357l-.155-.03179a5.80148,5.80148,0,0,1-.91788,1.16424,4.08867,4.08867,0,0,1-.7947.73113c-.09537.05166-.19471.09139-.18676.2106v.13907c.0596.55629.71524.32186.755,1.19206,0,.298.02384,1.15629.02384,2.15365,0,1.87153-.01987,4.25962-.02384,4.56955l-1.87948,1.959-1.88742-1.959c0-.30993-.02384-2.69405-.02384-4.56955,0-.99736,0-1.85166.02384-2.15365.03974-.8702.69139-.63577.755-1.19206v-.13907c0-.12318-.09138-.15894-.18675-.2106A4.24374,4.24374,0,0,1,71.74,13.936a5.93677,5.93677,0,0,1-.91788-1.16424l-.155.03179V23.78242L72.8605,25.948ZM55.4962,46.809l-.03179-11.75766.03973-.151a.44089.44089,0,0,1,.12716-.09536l.37351-.23444.03576-.02384v-.25828H51.9081v.25828l.39736.25033a.39722.39722,0,0,1,.12317.11921l.02782,11.75765-.05165.18278a.36572.36572,0,0,1-.10332.10332l-.35364.23443-.03576.02782v.24636h4.13247v-.25828l-.39736-.25431a.36152.36152,0,0,1-.13907-.11523M66.181,45.87919l.143-.155,2.93644-3.147-.04371-7.52586.02384-.151.11921-.11126.36953-.21854.03974-.02384v-.25828H65.62471v.25828l.39735.2543c.1351.08345.17881.155.17881.24239v3.97352H57.41938l-1.85166,2.34835.27814.0914h.03576l.56822-.33378a1.19234,1.19234,0,0,1,.28609-.13113.81885.81885,0,0,1,.26623-.03576h9.19473Zm3.92981,1.26358c-.18675-.03179-.2543-.08742-.27019-.1351l8.07817-8.41592L76.19429,36.756,65.97835,47.4686H70.4287v-.29007h-.08345a1.49409,1.49409,0,0,1-.23443,0M111.76528,39.458l-.07947.02384.07947-.02384a6.70708,6.70708,0,0,0-3.39338-3.8424,14.41059,14.41059,0,0,0-6.89009-1.31921H89.85924v.25828l.39735.25431a.39735.39735,0,0,1,.11921.11523v1.29934h11.09408a10.29669,10.29669,0,0,1,4.955.894,4.23249,4.23249,0,0,1,2.41193,3.7669A3.88609,3.88609,0,0,1,108.205,43.058a4.89532,4.89532,0,0,1-1.89935,1.62915,11.15624,11.15624,0,0,1-4.9391.85033H95.45793v-8.6146H92.42216l.02782,9.751-.05563.17086a.49267.49267,0,0,1-.10331.10332l-.34967.22251-.03576.02384v.27418h9.47288a22.72409,22.72409,0,0,0,4.27949-.30994,10.13644,10.13644,0,0,0,3.63181-1.48212,6.1828,6.1828,0,0,0,2.22914-2.42385,4.89948,4.89948,0,0,0,.48079-2.16955,5.459,5.459,0,0,0-.23444-1.58941m-34.967-3.31392L78.785,38.2977l2.257,2.27286H77.3029L75.45521,42.601l.2265.11921.03973.02384.43709-.23444a.43705.43705,0,0,1,.147-.04768h6.52453l4.15631,4.39869a.11127.11127,0,0,1,.06755.0755l.04371.13907c0,.05563-.11523.147-.50861.147h-.08345v.24636h4.506L78.53469,34.33213ZM46.44848,34.5904l.39736.25033c.13907.09537.18675.17881.18675.25033V46.67389l-.05563.18676a.882.882,0,0,1-.12715.10331l-.35762.23444-.03973.02384v.24636h4.10465v-.25828l-.3457-.25828a.39735.39735,0,0,1-.11921-.11523l-.03576-11.76164.05166-.16688.11125-.09537.32186-.21854.03576-.02782v-.2543H46.44848ZM28.47225,45.37455a1.27141,1.27141,0,0,1-.29006.1351l-9.53646.02781a11.47194,11.47194,0,0,1-4.99075-.85033,4.07432,4.07432,0,0,1-2.4914-3.79074,3.80667,3.80667,0,0,1,.65166-2.13776A5.57976,5.57976,0,0,1,15.6179,36.45c.47682-.08742.85828-.1351,1.1404-.16689.52053-.02782,1.10464-.03974,1.7563-.03974h2.96822c.31391.03179.39736.11921.39736.17484V36.454l-.02384.151v.09934h.27417l1.98676-2.38411H18.55434a26.71741,26.71741,0,0,0-3.13909.13509,9.09442,9.09442,0,0,0-1.10861.19471,10.08466,10.08466,0,0,0-2.78147,1.07682A7.06089,7.06089,0,0,0,8.4894,38.76658a5.21716,5.21716,0,0,0-.48875,2.28875c0,2.12186,1.13643,3.80266,3.39339,5.02253a10.72839,10.72839,0,0,0,3.41724,1.15233,24.94607,24.94607,0,0,0,3.83047.22649h8.83712l1.98677-2.408h-.43312ZM24.43118,41.5997v.09537h.298l1.93511-2.41988H12.94769l-1.27947,1.93113H24.05767c.30993.03576.39735.12318.39735.17881v.03576Zm-.69139-4.97485.27814.09139h.03179l.56822-.28609a.99737.99737,0,0,1,.56026-.17087h7.76427V46.67389l-.04768.17484a.47665.47665,0,0,1-.11126.09536l-.36159.23444-.03576.02384v.26623h4.13246v-.26226l-.42516-.2543-.13113-.11921V36.25928h6.902c.294.03577.39735.11524.36954.18279v.298h.25828l1.98676-2.40795H25.57555Z"/></svg>