<svg id="LOGOTYPE" xmlns="http://www.w3.org/2000/svg" viewBox="0 0 1007.15 254.77"><defs><style>.cls-1{fill:#881c55;}.cls-2{fill:#6bcce0;}.cls-3{fill:#00a6ce;}.cls-4{fill:#bdbbbb;}.cls-5{fill:#af1f65;}</style></defs><title>Eurowings_LOGOTYPE_ARTWORK_FOUR_COLOUR_MASTER_RGB</title><path class="cls-1" d="M166.5,344l-4.39,19.58H112.18v27.5h49l-4.08,21.23H112.18v29.91H166.5l-4.07,19.62H88.62V344Z" transform="translate(-88.62 -246.45)"/><path class="cls-1" d="M840.73,410.42c4.41.55,10.39,1.41,13.36,2.9a22.87,22.87,0,0,1,7.25,5.83,20.24,20.24,0,0,1,3.81,7.28,29.84,29.84,0,0,1,1.15,8.2v1.65a27.39,27.39,0,0,1-2.64,12.5,21.88,21.88,0,0,1-7.53,8.44c-3.26,2.15-9.46,3.88-14,4.87A71.14,71.14,0,0,1,827,463.58a112.39,112.39,0,0,1-14.89-1.07A97.33,97.33,0,0,1,796.17,459l3.67-16.16a110.82,110.82,0,0,0,14.08,2.91,100.41,100.41,0,0,0,12.58.91,67.39,67.39,0,0,0,9.09-.24,12.13,12.13,0,0,0,5.52-1.85,7.28,7.28,0,0,0,3-3.61,10.48,10.48,0,0,0,.43-3.48,9.47,9.47,0,0,0-2-6c-1.27-1.71-3.9-2.64-8-3.19l-12.29-1.69c-8.61-1.1-17.47-3.45-21.55-7.53s-6.12-9.49-6.12-16.22V401.1q0-13.07,9.68-19.61c6.45-4.36,18.28-7.12,30.31-7.12a89.83,89.83,0,0,1,16.13,1.33,66.88,66.88,0,0,1,11.51,3l-3.94,15.68a95.5,95.5,0,0,0-11.51-2.23,88,88,0,0,0-11.79-.78c-7.61,0-12.52.43-15.22,2s-3.89,3.12-3.89,6.65c0,3,1,4.63,2.64,5.89s4.3,2.29,8.49,2.84Z" transform="translate(-88.62 -246.45)"/><path class="cls-1" d="M762.22,375.93a77.41,77.41,0,0,0-19.57-2c-6.76,0-14.9.85-20.23,2.44a35.65,35.65,0,0,0-13.58,7.37,32.28,32.28,0,0,0-8.59,12.74,51.32,51.32,0,0,0-3,18.54v5.79q0,21,8.51,30.87c5.67,6.57,16.18,10.79,27.41,10.79,11.69,0,19-3.2,25-9v3.77c0,9.16-1.55,14.62-5.39,19.26s-10.67,6.65-19.48,6.27a108.76,108.76,0,0,1-14.42-1.41,102.91,102.91,0,0,1-13.08-3l-3.85,17.52A89.41,89.41,0,0,0,718.5,500a158.45,158.45,0,0,0,18.82,1.24c14.2.33,25-3.86,32.55-11.59s10.84-18.64,10.84-32.77v-74A87.46,87.46,0,0,0,762.22,375.93Zm-4.08,46.84q0,11.58-4.47,17t-14.24,5.47a21.91,21.91,0,0,1-9.18-1.66,12.56,12.56,0,0,1-5.55-4.88,21.45,21.45,0,0,1-2.73-7.86,69.44,69.44,0,0,1-.74-10.76v-6q0-13.25,5-18.87t16-5.63a45.55,45.55,0,0,1,8.6.83,21.88,21.88,0,0,1,7.29,2.65Z" transform="translate(-88.62 -246.45)"/><path class="cls-1" d="M603.13,461.81v-85.9h21l1.32,9.27a26.72,26.72,0,0,1,10.68-8.36,36.63,36.63,0,0,1,15-2.9,48.81,48.81,0,0,1,13.69,1.82,26.71,26.71,0,0,1,9.85,5.55,25.47,25.47,0,0,1,6.45,9.35,34.73,34.73,0,0,1,2.32,13.24v57.93H660.54V409.34q0-10.43-3.81-14.81c-2.54-2.92-6.33-4.37-12.29-4.37a17.45,17.45,0,0,0-14.23,7.34c-3,4.15-3.48,12.47-3.48,20v44.34Z" transform="translate(-88.62 -246.45)"/><path class="cls-1" d="M330.9,395.15q-2-.5-4.8-1a33.46,33.46,0,0,0-5.8-.5q-10.92,0-15.8,5.71c-3.26,3.81-4.09,7.93-4.09,15.76v46.68H275.65v-85.9h22.11l1.32,10.26a26.8,26.8,0,0,1,10.27-8.52,34.21,34.21,0,0,1,14.73-2.9,38,38,0,0,1,5.87.41,31.8,31.8,0,0,1,5.38,1.41Z" transform="translate(-88.62 -246.45)"/><path class="cls-1" d="M260.4,375.91v85.9h-21l-1.33-9.27a26.62,26.62,0,0,1-10.67,8.36,36.66,36.66,0,0,1-15,2.89A48.4,48.4,0,0,1,198.77,462a26.55,26.55,0,0,1-9.85-5.54,25.38,25.38,0,0,1-6.46-9.35,34.74,34.74,0,0,1-2.31-13.24V375.91H203v52.47q0,10.42,3.81,14.81c2.54,2.92,6.33,4.37,12.29,4.37a17.48,17.48,0,0,0,14.23-7.34c3-4.15,3.48-12.47,3.48-20V375.91Z" transform="translate(-88.62 -246.45)"/><path class="cls-1" d="M575.62,341.23c4.6,0,8.14,1,10.21,3s3.1,4.91,3.1,8.44-1,6.51-3.1,8.44-5.61,2.84-10.21,2.84-8.27-.91-10.34-2.84-3.1-4.91-3.1-8.44,1-6.51,3.1-8.44S571,341.23,575.62,341.23Zm-11.46,34.68h23.3v85.9h-23.3Z" transform="translate(-88.62 -246.45)"/><path class="cls-1" d="M516.63,428.68l12.64-52.77h23l-25.33,85.9H506l-15-51.95L476.2,461.81H454.49l-25.89-85.9h24.28l12.77,53.31,14.09-49.67h22.84Z" transform="translate(-88.62 -246.45)"/><path class="cls-1" d="M421.66,398.83a32.31,32.31,0,0,0-6.46-13.07A30.79,30.79,0,0,0,403,377.15C398,375.06,389.73,374,382.12,374s-16.13,1.3-21.21,3.39A30.79,30.79,0,0,0,348.75,386a33.08,33.08,0,0,0-6.54,13.07,62.45,62.45,0,0,0-2.39,16.19v6.95a66.68,66.68,0,0,0,2.23,16.43,33,33,0,0,0,6.46,13.16,30.36,30.36,0,0,0,12.16,8.69c5.08,2.09,13.72,3.38,21.45,3.38s16.17-1.17,21.3-3.37a30.62,30.62,0,0,0,12.16-8.94,33.46,33.46,0,0,0,6.29-13.16,68.17,68.17,0,0,0,2.22-16.11v-6.95A68.05,68.05,0,0,0,421.66,398.83Zm-20.51,24.75q0,13.4-4.22,18.95t-14.65,5.54a28.9,28.9,0,0,1-8.77-1.16,12.85,12.85,0,0,1-6-4,17.27,17.27,0,0,1-3.47-7.53,54.26,54.26,0,0,1-1.08-11.83V414q0-13.25,4.39-18.79t15-5.54q10.59,0,14.73,5.54T401.15,414Z" transform="translate(-88.62 -246.45)"/><path class="cls-2" d="M948.32,246.84c-18.72-2.56-28.22,7.86-41.34,17.43l-44.81,35.2h0l8.63,4.56.06,0c11.23,5.52,26.84,3.63,37.47-4.25l18.92-15,7.24-5.76,36.07-28.66Z" transform="translate(-88.62 -246.45)"/><path class="cls-3" d="M862.17,299.47l8.61,4.57.06,0c11.23,5.52,26.84,3.63,37.47-4.25l18.92-15,7.24-5.76Z" transform="translate(-88.62 -246.45)"/><path class="cls-1" d="M1024.86,268.57l-24.07-4.33s-16.74-4-30.75,6.86c0,0-10.33,7.69-17.94,13.64l-16.94,13.42L896,329.34h0l-.32.26,11.83,6.25c11.22,5.55,26.87,3.68,37.52-4.22l35-27.76,28.27-22.26Z" transform="translate(-88.62 -246.45)"/><path class="cls-4" d="M952.1,284.74C959.71,278.79,970,271.1,970,271.1a35.1,35.1,0,0,1,8.11-4.68L934.47,279h0l-7.24,5.76-18.92,15c-10.63,7.88-26.24,9.77-37.47,4.25,9.58,5.73,24.44,7.05,46.83.37L933,299.9l2.19-1.74Z" transform="translate(-88.62 -246.45)"/><path class="cls-4" d="M1013.71,298.1c7.21-5.64,12.66-9.74,18.08-12.16L982.9,301.62,980,303.87l-35,27.76c-10.65,7.9-26.3,9.77-37.52,4.22,17.25,9.48,43.83,2.52,66.17-5.44h0l1.33-1.07S1012.37,299.08,1013.71,298.1Z" transform="translate(-88.62 -246.45)"/><path class="cls-4" d="M1071.2,329.6c-19.62-5.7-25.51-2.1-48.62,4.86h0l-1.93,1.6h0l0,0,0,0,0,0-37.26,29.53c-10.61,7.87-27.2,9.39-38.43,3.9,13.86,7.21,28.17,5.44,52.67-2.19l98.19-30.15Z" transform="translate(-88.62 -246.45)"/><path class="cls-1" d="M1077.71,288.86l-26-4.73c-15.57-2.88-22.93,2.15-38,14-1.34,1-38.75,31.24-38.75,31.24h0l-42,33.89,11.83,6.25c11.22,5.55,27.89,4,38.53-3.85l37.26-29.53,0,0,0,0Z" transform="translate(-88.62 -246.45)"/><polygon class="cls-5" points="844.35 53.45 927.41 29.08 894.28 55.17 807.01 83.16 844.35 53.45"/><polygon class="cls-5" points="885.02 83.97 975.46 53.7 933.96 88.01 844.35 116.78 885.02 83.97"/></svg>