<svg id="aw" xmlns="http://www.w3.org/2000/svg" viewBox="0 0 120 60"><defs><style>.cls-1{fill:#192a6b;}</style></defs><title>ai_template_finnair_full_1</title><path class="cls-1" d="M23.21031,35.19273h3.21174a1.688,1.688,0,0,0,1.63617-.93928c.36359-.72719,5.0297-10.5139,5.0297-10.5139H29.90648a1.688,1.688,0,0,0-1.63617.93928c-.36359.72718-5.06,10.5139-5.06,10.5139"/><path class="cls-1" d="M84.83933,35.19273h3.21174a1.688,1.688,0,0,0,1.63616-.93928c.3636-.72719,5.02971-10.5139,5.02971-10.5139H91.5052a1.688,1.688,0,0,0-1.63617.93928c-.33329.72718-5.0297,10.5139-5.0297,10.5139"/><path class="cls-1" d="M19.15019,23.73955a3.32388,3.32388,0,0,0-1.78767.39389c-.1818.0909-2.24216,1.18168-3.72683,1.96946a5.72438,5.72438,0,0,0-2.51485,2.57545C9.60587,31.76889,8,35.19273,8,35.19273h3.21174a1.688,1.688,0,0,0,1.63617-.93928c.12119-.2727.84838-1.78767,1.57557-3.30264h5.2418c.72718,0,.99988-.1212,1.27257-.69689l.2727-.57569H14.90827c.57569-1.18168,1.42407-2.96934,1.42407-2.96934a1.62227,1.62227,0,0,1,1.72707-1.06048h6.78707a1.688,1.688,0,0,0,1.63616-.93928l.4545-.93928h-7.787"/><path class="cls-1" d="M68.417,23.73955H66.93237a1.688,1.688,0,0,0-1.63617.93928c-.21209.42419-2.333,4.87821-3.42383,7.15066a1.94512,1.94512,0,0,0-.3636-.75748c-1.96946-2.72695-4.33281-5.90839-5.0903-6.99917a.83842.83842,0,0,0-1.15138-.18179c-.36359.18179-.54539.27269-.909.48479a4.90951,4.90951,0,0,0-2.30276,2.45425c-1.48467,3.12084-3.93892,8.36264-3.93892,8.36264H49.5708a1.688,1.688,0,0,0,1.63617-.93928c.15149-.3333,1.96946-4.12072,2.99964-6.33258a1.01961,1.01961,0,0,0,.24239.51509c1.63617,2.18155,4.12073,5.51449,4.36312,5.84778a1.86943,1.86943,0,0,0,1.66647.87869h2.424Z"/><path class="cls-1" d="M50.51008,23.73955H49.02541a1.688,1.688,0,0,0-1.63616.93928c-.2121.42419-2.33306,4.87821-3.42384,7.15066a1.945,1.945,0,0,0-.36359-.75748c-1.96946-2.72695-4.33282-5.90839-5.0903-6.99917a.83842.83842,0,0,0-1.15138-.18179c-.36359.18179-.54539.27269-.909.48479a4.90951,4.90951,0,0,0-2.30276,2.45425c-1.48467,3.12084-3.93892,8.36264-3.93892,8.36264h1.45437A1.688,1.688,0,0,0,33.3,34.25345c.1515-.3333,1.96946-4.12072,2.99964-6.33258a1.31987,1.31987,0,0,0,.2121.51509c1.63617,2.18155,4.12072,5.51449,4.36311,5.84778a1.86946,1.86946,0,0,0,1.66647.87869h2.424Z"/><path class="cls-1" d="M85.23321,26.3756c-.15149-.1212-2.39365-1.818-2.54515-1.90887a3.792,3.792,0,0,0-2.30275-.72718h-3.545a3.25917,3.25917,0,0,0-1.78767.39389c-.1818.0909-2.21186,1.15138-3.69653,1.93916A5.61932,5.61932,0,0,0,68.78063,28.739c-1.48467,3.12084-3.09054,6.45378-3.09054,6.45378h3.21174a1.688,1.688,0,0,0,1.63617-.93928c.1212-.2424.81808-1.69677,1.57557-3.30264h7.36276c-.54539,1.12108-1.06048,2.18156-1.42407,2.939-.3333.66659.0303,1.30288.87868,1.30288h2.87844s3.39354-7.09007,3.57534-7.45366c.39389-.66659.36359-.99988-.15151-1.36347M72.78016,29.64793c.84838-1.72706,1.39377-2.90874,1.39377-2.90874a1.63122,1.63122,0,0,1,1.78767-1.12108h5.2721c.54539,0,.69688.303.51509.69689-.4545.93928-1.03018,2.15126-1.60587,3.36323-2.06037-.0303-5.12061-.0303-7.36276-.0303"/><path class="cls-1" d="M111.56341,26.3756c-.1515-.1212-2.24216-1.69677-2.36335-1.818a4.16473,4.16473,0,0,0-2.51485-.81808h-3.33294a3.2592,3.2592,0,0,0-1.78766.39389c-.1818.0909-2.03007,1.06048-3.51474,1.84826a5.48013,5.48013,0,0,0-2.78755,2.81785c-1.48467,3.12084-3.02994,6.39318-3.02994,6.39318h3.21174a1.688,1.688,0,0,0,1.63617-.93928c.12119-.2727.96958-2.03006,1.69677-3.545h1.87857a1.46627,1.46627,0,0,1,1.54527.87869c.66659,1.15138,1.45437,2.42395,1.57557,2.66635a1.63848,1.63848,0,0,0,1.75736.93928h3.66623s-.93929-1.54527-2.03007-3.39353a1.08624,1.08624,0,0,0-.909-.57569c-.1818-.0303-.84838-.1515-1.57558-.2727l.03031-.2424h2.96934c1.99976,0,2.90874-.42419,3.33293-1.27257.2121-.39389.72719-1.57557.78779-1.69677.303-.66659.2727-.99988-.24239-1.36347M108.079,26.315c-.33329.69688-.606,1.30287-1.03017,2.18155-.303.63629-.87869.909-2.18157.909H99.26184c.57569-1.18168,1.36347-2.84815,1.36347-2.84815a1.55223,1.55223,0,0,1,1.63617-.93928h5.33269c.5151,0,.6666.303.4848.69689"/></svg>