<svg id="aw" xmlns="http://www.w3.org/2000/svg" xmlns:xlink="http://www.w3.org/1999/xlink" viewBox="0 0 120 60"><defs><style>.cls-1{fill:url(#linear-gradient);}.cls-2{fill:url(#linear-gradient-2);}.cls-3{fill:url(#linear-gradient-3);}</style><linearGradient id="linear-gradient" x1="44.74727" y1="33.59349" x2="44.74727" y2="21.22807" gradientUnits="userSpaceOnUse"><stop offset="0" stop-color="#a51c22"/><stop offset="0.5" stop-color="#db1c2e"/><stop offset="1" stop-color="#db1c2e"/></linearGradient><linearGradient id="linear-gradient-2" x1="81.49453" y1="33.59419" x2="109.30571" y2="33.59419" xlink:href="#linear-gradient"/><linearGradient id="linear-gradient-3" x1="93.37939" y1="24.11924" x2="112" y2="24.11924" gradientUnits="userSpaceOnUse"><stop offset="0" stop-color="#ec7417"/><stop offset="0.85" stop-color="#f9cc08"/><stop offset="1" stop-color="#f9cc08"/></linearGradient></defs><title>ai_template_iberia_full_1</title><path class="cls-1" d="M8.26943,20.97589A56.96058,56.96058,0,0,0,8,26.7836c0,1.94589.08981,3.802.26943,5.62809H11.323a49.24093,49.24093,0,0,0,.26943-5.62809c0-2.00576-.11975-4.19113-.26943-5.80771Zm52.8981,0a57.57528,57.57528,0,0,0-.26943,5.83765c0,1.94588.08982,3.802.26943,5.62809h3.05354a49.24093,49.24093,0,0,0,.26943-5.62809c0-2.00576-.11974-4.19114-.26943-5.80772H61.16753ZM18.7772,27.6817h4.31088a1.72336,1.72336,0,0,1,1.22741.3293,1.03974,1.03974,0,0,1,.38917.86817,1.24032,1.24032,0,0,1-.35924.928,2.172,2.172,0,0,1-1.64651.449H18.897c-.08981-.928-.11975-1.82614-.11975-2.57456m.11975-4.55037h2.99367c1.19746,0,1.61658.08981,1.94588.44905a1.22632,1.22632,0,0,1,.26943.83822,1.49623,1.49623,0,0,1-.53886,1.16753H18.7772c.02994-.83822.05988-1.64651.11975-2.4548m-3.38284-2.15544c-.17963,1.70639-.26943,3.86183-.26943,5.7179s.0898,3.68221.26943,5.7179h6.76568c2.39494,0,3.86183-.26943,4.75993-.8981a2.97457,2.97457,0,0,0,1.1376-2.51468,2.89865,2.89865,0,0,0-1.97582-2.75417,2.71855,2.71855,0,0,0,1.37708-2.33506,2.51776,2.51776,0,0,0-.83822-2.03569c-.98791-.83823-2.78411-.8981-4.70006-.8981Zm15.597,0c-.17962,1.82613-.26943,3.86183-.26943,5.7179s.11975,3.89177.26943,5.7179H42.038c-.05988-.74841-.08981-1.46689-.14969-2.27518H34.464c-.05987-.86817-.08981-1.64652-.08981-2.42487h6.8555V25.5562h-6.8555c0-.62867.02993-1.55671.08981-2.30513h7.42429c.02994-.80829.08981-1.46689.14969-2.27518ZM48.654,23.10139h3.11341c1.1376,0,1.70639.14968,2.06563.50892a1.27177,1.27177,0,0,1,.32931.8981,1.735,1.735,0,0,1-.86816,1.49684H48.53426c0-.80829.02993-1.76627.11974-2.90386m-3.38284-2.1255c-.17962,1.76626-.26943,3.86183-.26943,5.7179s.08981,3.74208.26943,5.7179h3.53253c-.14969-1.49683-.2395-2.75417-.26943-4.251h3.56246a13.299,13.299,0,0,1,1.13759,1.52677,16.45605,16.45605,0,0,1,1.37709,2.72423H58.563a25.87157,25.87157,0,0,0-1.91594-3.08347A12.07135,12.07135,0,0,0,55.3,27.6817a3.39365,3.39365,0,0,0,2.39493-3.293,3.21567,3.21567,0,0,0-.86816-2.27519C56.04836,21.30519,54.8509,20.946,52.935,20.946H45.27116Zm28.58952,2.6943c.77836,1.37708,1.4669,2.78411,2.24525,4.4905H71.64537c.74842-1.67646,1.437-3.08348,2.21531-4.4905m-1.7962-2.6943a49.04776,49.04776,0,0,0-3.05354,5.26885,62.77337,62.77337,0,0,0-2.75417,6.19689h3.74208c.2395-.71848.50892-1.437.80829-2.1255h6.137a19.62161,19.62161,0,0,1,.80829,2.1255h3.74208a66.76414,66.76414,0,0,0-2.75417-6.167,46.24788,46.24788,0,0,0-3.05354-5.26886H72.06448Z"/><path class="cls-2" d="M86.88313,36.15378l-5.3886,5.44847h0c18.68048,0,23.08118-4.40069,25.65573-10.388l2.15545-5.6281c-6.28671.17962-15.77663,3.89177-22.42258,10.56765"/><path class="cls-3" d="M99.4266,23.43069l-6.04721,6.137c5.74784-4.13126,11.49568-6.616,17.21358-7.27461L112,18.67076c-8.502,0-9.6396,1.85608-12.5734,4.75993"/></svg>