<svg id="aw" xmlns="http://www.w3.org/2000/svg" viewBox="0 0 120 60"><defs><style>.cls-1{fill:#e2001a;}.cls-2{fill:#fff;}.cls-3{fill:#231916;}</style></defs><title>ai_template</title><path class="cls-1" d="M17.47989,29.71491a4.7961,4.7961,0,0,0,.00852-1.06325,3.16037,3.16037,0,0,1-1.3278,1.64334A3.5702,3.5702,0,0,0,17.38943,28.061a4.7199,4.7199,0,0,0-.4258-1.13714,3.69053,3.69053,0,0,1-.00773.46335,3.62466,3.62466,0,0,1-1.27308,2.48831,3.58739,3.58739,0,0,0,.95322-3.48358,4.75789,4.75789,0,0,0-7.75821,0,3.58767,3.58767,0,0,0,.95326,3.48358A3.62475,3.62475,0,0,1,8.558,27.38716a3.69623,3.69623,0,0,1-.00773-.46335,4.72315,4.72315,0,0,0-.4258,1.13709A3.57021,3.57021,0,0,0,9.35331,30.295a3.16039,3.16039,0,0,1-1.32785-1.64338A4.79183,4.79183,0,0,0,8.034,29.71491a3.58573,3.58573,0,0,0,.95415,1.19269,3.37827,3.37827,0,0,1-.86535-.68339,4.75823,4.75823,0,0,0,9.26827,0,3.3763,3.3763,0,0,1-.86539.68339A3.58522,3.58522,0,0,0,17.47989,29.71491Zm-7.80632-2.116a3.08339,3.08339,0,1,1,5.6233,1.74834l-.00538-.00186c-1.82322,2.33506-4.638-.43708-.63973-2.69745-.21324-.13864-.6824-.885-1.2155-.885a1.004,1.004,0,0,0-.81032.4158l-2.4203.24526,2.60152.13859c.27722.02134.42653.14926.42653.37317s-.36255.47978-.60775.67173a3.3015,3.3015,0,0,0-1.31411,2.71566,2.57505,2.57505,0,0,0,.14128.60026,1.31072,1.31072,0,0,1-.34277-.71736,3.088,3.088,0,0,1-1.43677-2.60717Z"/><path class="cls-2" d="M10.669,32.33469a1.13516,1.13516,0,0,0,.32412.02477.43632.43632,0,0,0,.34272-.31653l.305-.77816h.606l-.27678.76944a.83485.83485,0,0,1-.92385.64941c-.176,0-.48385-.02976-.48385-.02976Z"/><path class="cls-2" d="M12.907,31.26477h.81311l.1496,1.36178h-.64325l-.0233-.22636h-.60971l-.18588.22636h-.67888Zm.263.83739.01361-.39006-.34668.39006Z"/><path class="cls-2" d="M14.5424,31.26477h.64873l-.349,1.07246h.79167l-.098.28932h-1.483Z"/><g id="g4288"><path id="path4290" class="cls-3" d="M111.35151,30.05034c-.5008,1.27869-2.2275,1.67512-4.09305,1.67512-1.8663,0-3.06274-.3979-2.7826-1.67512h2.37056c-.062.34189.14874.5596.84986.5596.7001,0,1.15378-.22355,1.28269-.5596.32774-.83475-4.36379-.01876-3.61705-1.93007.418-1.06926,2.06412-1.57236,3.9205-1.57236,1.85589,0,2.91174.39425,2.68788,1.57164h-2.32443c.03717-.31511-.062-.5545-.76012-.5545-.69959,0-1.07272.24377-1.19394.55522-.33716.85255,4.40443.02242,3.6597,1.93007"/></g><g id="g4292"><path id="path4294" class="cls-3" d="M69.85767,31.58009H67.48612l1.90944-4.88387h2.37228"/></g><g id="g4296"><path id="path4298" class="cls-3" d="M87.79028,31.58009H85.42119l1.90845-4.88387h2.36957"/></g><g id="g4300"><path id="path4302" class="cls-3" d="M103.06549,31.58009H97.30273l1.90744-4.88387h5.7655l-.36643.93751h-3.39393l-.38552.98575h2.822l-.36541.93606h-2.823l-.38551.9889h3.39194"/></g><g id="g4304"><path id="path4306" class="cls-3" d="M55.95166,31.58009h-1.9171L52.427,28.69544l-1.128,2.88465H49.38568l1.9072-4.88387h2.22725l1.42105,2.56638,1.00132-2.56638h1.91786"/></g><g id="g4308"><path id="path4310" class="cls-3" d="M95.83185,31.58009h-1.9186l-1.60747-2.88465-1.128,2.88465H89.2651l1.908-4.88387h2.22751l1.4193,2.56638,1.00131-2.56638h1.91937"/></g><g id="g4312"><path id="path4314" class="cls-3" d="M27.15982,29.94516c-.64867,1.661-2.24944,1.7988-3.38885,1.7988a7.71612,7.71612,0,0,1-1.64778-.16387l.40509-1.03493c1.08562.12443,2.01494.03045,2.37764-.90025l1.15305-2.948h2.37154"/></g><g id="g4316"><path id="path4318" class="cls-3" d="M40.76446,28.253a1.12123,1.12123,0,0,1-1.01891.6178H38.43011l.4833-1.23631h1.32c.42939,0,.66987.263.531.61851m-.16993-1.556H36.90829l-1.9087,4.88387h2.37069l.69266-1.77275h1.31779c2.19094,0,3.37065-.57591,3.75368-1.55508.38239-.97843-.34584-1.556-2.53988-1.556"/></g><g id="g4320"><path id="path4322" class="cls-3" d="M77.09279,28.253a1.123,1.123,0,0,1-1.0182.6178H74.75767l.4832-1.23631h1.31989c.43111,0,.6716.263.532.61851m-.16908-1.556h-3.687l-1.90819,4.88387h2.37081l.69193-1.77275h.71622l.46955,1.77275h2.58822l-.63418-1.95A2.4519,2.4519,0,0,0,79.46185,28.253c.38551-.97843-.34511-1.556-2.53814-1.556"/></g><g id="g4324"><path id="path4326" class="cls-3" d="M82.117,30.54516l1.5068-3.84822H81.25328l-1.90646,4.88387h5.38072l.40509-1.03565"/></g><g id="g4328"><path id="path4330" class="cls-3" d="M30.62143,29.68216l1.276-1.56261.05926,1.56261Zm3.3031-2.98522H31.80411a1.03171,1.03171,0,0,0-.7275.36162l-3.97368,4.52225h1.9595l.78825-.96114h2.14159l.03719.96114H34.401"/></g><g id="g4332"><path id="path4334" class="cls-3" d="M45.00442,29.68216,46.282,28.11955l.05763,1.56261Zm3.30394-2.98522H46.18722a1.03773,1.03773,0,0,0-.72838.36162l-3.97145,4.52225h1.95815l.789-.96114h2.14086l.0363.96114H48.784"/></g><g id="g4336"><path id="path4338" class="cls-3" d="M63.10486,29.68216l1.27749-1.56261.05926,1.56261Zm3.3047-2.98522H64.28888a1.03456,1.03456,0,0,0-.72884.36162L59.5871,31.58081h1.96023l.78678-.96114h2.14172l.03767.96114h2.36931"/></g></svg>