<svg id="aw" xmlns="http://www.w3.org/2000/svg" viewBox="0 0 120 60"><defs><style>.cls-1{fill:#f9b100;fill-rule:evenodd;}.cls-2{fill:#252541;}</style></defs><title>Airline Logo_Jetairways_Full_Dark</title><path class="cls-1" d="M109.9,25a3.92,3.92,0,0,0-.75-2.77c-1.74-2.06-5.86-.69-9.22,3.07S95.27,33.72,97,35.78s5.86.68,9.22-3.07a19.07,19.07,0,0,0,1.45-1.86l-5.54-.57,8-1L101.31,28,112,26.89,103.27,26Z"/><path class="cls-2" d="M89.08,25c.64,0,1.22.2,1.61.19.1,0,.19,0,.19.17s0,.05,0,.1S91,26,91,26.59c0,.21,0,.28-.22.28s-.2-.1-.22-.25a1.08,1.08,0,0,0-.27-.65A1.69,1.69,0,0,0,89,25.54c-1,0-1.51.6-1.47,1.31s.7,1.24,1.84,1.93c1.59,1,2.06,1.59,2.06,2.65s-.9,2.44-3.15,2.44a4.13,4.13,0,0,1-1.62-.3c-.21-.09-.23-.14-.24-.51a10,10,0,0,1,0-1.28c0-.13.06-.2.22-.2s.2.06.22.23a3,3,0,0,0,.07.51,1.48,1.48,0,0,0,1.63,1,1.57,1.57,0,0,0,1.77-1.43c0-.93-.54-1.43-2.06-2.29s-1.81-1.73-1.79-2.5c0-1.29,1-2.12,2.62-2.12m-43.9,4.46c0-.51,0-2.63,0-4.17,0-.06,0-.1-.09-.1H43.29c-.2,0-.28.06-.28.23a.19.19,0,0,0,.19.2c.6.06.68.33.7,1.07,0,1.08,0,1.9,0,2.77,0,1.13,0,2.6-.06,4.17,0,.06,0,.1.09.1h1.15a.09.09,0,0,0,.1-.1c0-1.54,0-2.89,0-4.17m34.73-.24.62.94c0,1,0,2.2-.06,3.47a.08.08,0,0,0,.09.1h1.15a.09.09,0,0,0,.1-.1c0-1.27,0-2.4,0-3.48,1-1.54,2.1-3.27,3.15-4.84,0-.07,0-.12-.05-.12H83.23c-.2,0-.28.06-.28.23s.07.18.19.2c.35.06.44.3.24.62-.61,1-1.27,2.08-1.93,3.12l-.53-.83-2.08-3.24c0-.08-.06-.1-.16-.1H77.33c-.06,0-.09.05,0,.12,1,1.37,2,3,2.63,3.91m-4.17,4.41a.13.13,0,0,0,.12.1h1.28c.06,0,.09,0,.07-.09-.69-1.5-1.44-3.2-1.88-4.24-.83-2-1.21-3-1.63-4.11a.12.12,0,0,0-.12-.1H72.17c-.2,0-.28.06-.28.23a.18.18,0,0,0,.19.2c.29.05.5.17.5.53a2,2,0,0,1-.18.69c-.4,1-.73,1.76-1.06,2.56-.45,1-1.18,2.72-1.88,4.23a.07.07,0,0,0,.07.1h.81a.15.15,0,0,0,.13-.1l.83-2.12,1.78,0,1.78,0c.29.71.59,1.43.88,2.12m-4.16-2.82.36-.92c.31-.77.62-1.51,1.1-2.67.5,1.16.81,1.9,1.14,2.67l.38.92h-3m-4.32-5.62c-.19,0-.29.05-.29.22s.08.19.2.21c.37.08.46.38.33.74-.33,1-.61,1.8-.92,2.67s-.51,1.45-.89,2.52c-.42-1.11-.66-1.76-1-2.52-.45-1.18-.82-2.15-1.36-3.59-.06-.15-.1-.25-.26-.25s-.2.1-.25.25c-.52,1.44-.88,2.41-1.32,3.59-.27.73-.54,1.45-.93,2.52-.4-1.11-.63-1.76-.91-2.52-.43-1.18-.83-2.3-1.35-3.74a.13.13,0,0,0-.12-.1H57c-.06,0-.09,0-.07.09.59,1.46,1.24,3.2,1.63,4.24.71,2,1.06,2.85,1.49,4.06.07.21.12.3.27.3s.24-.17.28-.3c.37-1,1.23-3.26,1.54-4.06.22-.57.46-1.16.73-1.83.31.74.43,1.05.73,1.83.76,2,1.12,2.85,1.57,4.06.08.21.13.3.28.3s.23-.16.28-.3c.35-1,1.16-3.26,1.45-4.06s1.11-2.91,1.64-4.23c0-.06,0-.1-.06-.1Zm-42.86,0c-1.28,0-1.92,0-3.46,0-.06,0-.08,0-.09.09l-.17.72c0,.07,0,.12.1.12l3-.12c0,1.08,0,2.64,0,3.49,0,1.13,0,2.6-.06,4.17,0,.06,0,.1.09.1H25c.06,0,.09,0,.09-.1,0-1.54,0-2.89,0-4.17,0-.44,0-2.07,0-3.5L28,26c.05,0,.09,0,.11-.08l.16-.75c0-.06,0-.09-.08-.09-1.54,0-2.48,0-3.76,0M40,33.59a.13.13,0,0,0,.13.1h1.27c.06,0,.09,0,.07-.09-.7-1.5-1.44-3.2-1.88-4.24-.83-2-1.22-3-1.63-4.11a.13.13,0,0,0-.12-.1H36.41c-.2,0-.28.06-.28.23a.18.18,0,0,0,.19.2c.29.05.5.17.5.53a2.06,2.06,0,0,1-.19.69c-.39,1-.72,1.76-1.06,2.56-.44,1-1.17,2.72-1.87,4.23a.07.07,0,0,0,.07.1h.81a.13.13,0,0,0,.12-.1c.31-.77.58-1.46.84-2.12l1.78,0,1.77,0L40,33.59m-4.17-2.82c.13-.31.25-.61.37-.92.31-.77.62-1.51,1.1-2.67.5,1.16.81,1.9,1.14,2.67l.38.92h-3m14.46-5a6.15,6.15,0,0,1,.81,0c1.25,0,2.07.58,2.07,2a1.73,1.73,0,0,1-1.87,1.9,4.36,4.36,0,0,1-1-.12c0-.72,0-1.95,0-3.69m1.45,4.44a13.39,13.39,0,0,0,2.17,2.8,2.9,2.9,0,0,0,2,.71c.59,0,1.23-.09,1.23-.28s-.1-.15-.44-.2a3.21,3.21,0,0,1-1.84-1,13.7,13.7,0,0,1-2-2.43,2.79,2.79,0,0,0,1.54-2.42c0-1.83-1.78-2.31-3.13-2.31H48.35c-.2,0-.28.06-.28.23a.19.19,0,0,0,.19.2c.6.06.68.33.7,1.07,0,1.08,0,1.9,0,2.77,0,1.13,0,2.6-.06,4.17,0,.06,0,.1.09.1h1.16c.06,0,.09,0,.09-.1,0-1.24,0-2.36,0-3.41a8.23,8.23,0,0,0,1.27.08h.21M16.61,32.93c0-1.19,0-2.26,0-3.29.57,0,1.56.1,2.36.15.05,0,.09,0,.1-.09l.16-.74c0-.06,0-.1-.07-.09-.92,0-1.67.06-2.55.06,0-.71,0-1.95,0-3.06.72,0,1.52.1,2.54.17.06,0,.09,0,.11-.08l.16-.75c0-.06,0-.09-.07-.09l-3.11,0H14.7c-.2,0-.28.06-.28.23a.18.18,0,0,0,.19.2c.6.06.68.33.7,1.07,0,1.08,0,1.9,0,2.77,0,1.13,0,2.6-.06,4.17a.08.08,0,0,0,.09.1h1.15l2.94,0a.09.09,0,0,0,.11-.09l.16-.74c0-.07,0-.1-.07-.1-1.18.08-2.25.13-3.05.14m-5-7.68c0-.06,0-.1-.09-.1H9.56c-.2,0-.28.06-.28.23a.18.18,0,0,0,.19.2c.62.06.75.26.77,1.07,0,1.08,0,1.9,0,2.77,0,1.6,0,2.76,0,3.87a8,8,0,0,1-.53,3.5C9,38.29,8,38.3,8,38.58a.18.18,0,0,0,.21.18c.42-.07,3.34-1.15,3.34-5.16,0-1.4,0-2.6,0-4.18,0-.51,0-2.63,0-4.17"/></svg>