<svg id="aw" xmlns="http://www.w3.org/2000/svg" xmlns:xlink="http://www.w3.org/1999/xlink" viewBox="0 0 120 60"><defs><style>.cls-1{fill:none;}.cls-2{clip-path:url(#clip-path);}.cls-3{clip-path:url(#clip-path-2);}.cls-4{fill:#004fa3;}.cls-5{fill:#fff;}.cls-6{fill:#e20613;}</style><clipPath id="clip-path"><rect class="cls-1" x="8" y="23.91" width="104" height="12.18"/></clipPath><clipPath id="clip-path-2"><rect class="cls-1" x="2.53" y="0.73" width="114.07" height="57.03"/></clipPath></defs><title>Airline Logo_Koreanair_Full_Dark</title><g class="cls-2"><g class="cls-3"><path class="cls-4" d="M40.68,24.64a64.64,64.64,0,0,1-8,.13.34.34,0,0,0-.42.3.36.36,0,0,0,.11.49,2.61,2.61,0,0,1,1.14,2.54v3.54s.17,1.94-1.17,2.68c0,0-.28.09-.13.47a.32.32,0,0,0,.4.3,31.92,31.92,0,0,1,5.52,0s.26,0,.33-.15a1.05,1.05,0,0,1,.1-.18s.25-.26-.13-.52-1-.64-1.09-2.27a8.54,8.54,0,0,1,0-1.67h.24s.83-.08,1.38,1.17c0,0,1.06,2.57,1.23,2.88a1.43,1.43,0,0,0,1.63.87,75.37,75.37,0,0,1,12.28,0A.8.8,0,0,0,55,34.7s1-2.66,1.23-3.08c0,0,2.09-.06,3.23,0a3.5,3.5,0,0,1,.42,1.58,1.07,1.07,0,0,1-.75,1.06.48.48,0,0,0,.26.85A56,56,0,0,1,68,35s.33.13.44-.31a.35.35,0,0,0-.15-.51s-1.3-.3-1.3-2.37,0-3.54,0-3.54,1,1.41,2.16,3.52,1.8,3,1.8,3a1.25,1.25,0,0,0,1.74.53,31,31,0,0,0,3.12-1.8.34.34,0,0,0,.13-.48l-.11-.21s0-.13-.4-.17c0,0-.86.2-.88-1s-.07-3,0-4.75a1.56,1.56,0,0,1,1-1.41s.36,0,.19-.48l-.11-.22s0-.18-.25-.15a16.94,16.94,0,0,1-3.21,0,.38.38,0,0,0-.37.37s-.09.33.17.44a1.86,1.86,0,0,1,1.21,1.85c.05,1.41.07,3.38.07,3.38s-2.09-3.09-3.43-5.45a1,1,0,0,0-1-.59,29.72,29.72,0,0,1-4.06,0,.39.39,0,0,0-.44.38.48.48,0,0,0,.22.55s1.1.7,1.1.94,0,5.12,0,5.12.09,2-.45,1.74c0,0-.31.21-1.06-1.17a72.89,72.89,0,0,1-3.3-7.16s-.33-1.06-1-1.06a2.14,2.14,0,0,0-.83.25,15.81,15.81,0,0,1-3.16,1.4.37.37,0,0,0-.25.47s-.06.28.35.43a1.66,1.66,0,0,1,.86.51,16,16,0,0,1-1.2,2.75c-.77,1.4-1.75,3.71-4.6,3.71H49.91s-.29,0-.29-.37V30.26h.73s1.19-.26,1.76,1.29c0,0,.11.47.52.29a.48.48,0,0,0,.42-.52,18.88,18.88,0,0,1,0-2.81.38.38,0,0,0-.33-.4.47.47,0,0,0-.52.09A2.11,2.11,0,0,1,50.5,29h-.87V26.26s0-.18.12-.2a3.51,3.51,0,0,1,2.66.35,4.08,4.08,0,0,1,1.19,1.34s.18.45.66.14c0,0,.37-.05.18-.62a19.1,19.1,0,0,1-.55-2.2.6.6,0,0,0-.68-.55,48.45,48.45,0,0,1-8.2.21.37.37,0,0,0-.46.32.41.41,0,0,0,.15.53s1.08.5,1.08,2.41v3.19s.18,2.53-.71,2.53c0,0-.39.17-1-1.14s-.7-1.34-.7-1.34a2.89,2.89,0,0,0-2.83-1.78s3.18-.53,2.89-2.91c0,0-.06-1.82-2.44-1.9Zm-3.32,4.5v-1.8s0-1.34,1.08-1.34.93,1.31.94,1.47-.06,1.67-2,1.67m19.41,1.21a21.79,21.79,0,0,1,1-2.05,8.86,8.86,0,0,1,1.11,2.07,7.61,7.61,0,0,1-2.09,0"/><path class="cls-4" d="M92.27,31.14s.07,2.41-.83,2.24c0,0-.31.2-1.06-1.18a70.53,70.53,0,0,1-3.31-7.15s-.33-1.07-1-1.07a2.06,2.06,0,0,0-.83.26,15.63,15.63,0,0,1-3.16,1.39.38.38,0,0,0-.25.48s-.06.28.34.42a1.73,1.73,0,0,1,.87.52,16,16,0,0,1-1.2,2.75c-.77,1.4-1.45,3.43-3.26,4.35,0,0-.36.07-.24.5s.36.35.36.35a11.16,11.16,0,0,1,3.24,0c.47,0,.4-.35.4-.35a.31.31,0,0,0,0-.39L82.1,34s-.79-.2.33-2.45c0,0,2.09-.06,3.23,0a3.45,3.45,0,0,1,.42,1.58,1.07,1.07,0,0,1-.75,1.06.37.37,0,0,0-.16.51.39.39,0,0,0,.42.34A114.09,114.09,0,0,1,97,35a.44.44,0,0,0,.44-.29.46.46,0,0,0-.14-.61,2.19,2.19,0,0,1-1-2c-.07-1.56,0-4.51,0-4.51s-.08-1.65,1-2.17a.36.36,0,0,0,.13-.49.39.39,0,0,0-.41-.31,41,41,0,0,1-5.43,0s-.37,0-.44.3a.4.4,0,0,0,.13.53A2.72,2.72,0,0,1,92.27,28Zm-8.32-3a6.28,6.28,0,0,1,1.12,2.07,9.77,9.77,0,0,1-2.09,0,17.84,17.84,0,0,1,1-2"/><path class="cls-4" d="M106.88,24.5a41.73,41.73,0,0,1-7.79.11.41.41,0,0,0-.53.37s0,.32.17.45a2.56,2.56,0,0,1,1.08,2.35c.06,1.73.09,1.23.06,3.58,0,0,.14,2.26-1.14,2.81,0,0-.33.07-.15.55,0,0,.11.37.42.24a44,44,0,0,1,5.62,0s.29.11.38-.28c0,0,.24-.26-.13-.53a2.38,2.38,0,0,1-1.09-1.91c-.08-1.15-.06-2.07-.06-2.07H104s.86-.11,1.45,1.24,1,2.36,1,2.36a3.07,3.07,0,0,0,1,1.42s.25.25,1.21.13a9.64,9.64,0,0,0,3.1-.8.35.35,0,0,0,.24-.48s.07-.31-.37-.4-.77-.52-1.08-1.14-.79-1.54-.79-1.54A2.9,2.9,0,0,0,107,29.36s2.89-.49,2.89-2.66-2.57-2.2-2.57-2.2Zm-3.16,4.57v-1.8s0-1.34,1-1.34,1,1.13,1,1.5-.15,1.64-2,1.64"/><path class="cls-5" d="M32.16,30a6.09,6.09,0,1,1-6.08-6.09A6.08,6.08,0,0,1,32.16,30"/><path class="cls-6" d="M28.69,26.33a4.55,4.55,0,0,1,3.2,4.34,5,5,0,0,1-.08.87v0a5.17,5.17,0,0,1-.93,2.16h0a6.09,6.09,0,0,0-8.79-8.34h0a4.22,4.22,0,0,0-1.37,3.12A4.1,4.1,0,0,0,21,30v0a2.68,2.68,0,0,0,5.13-1.11V27.75a1.4,1.4,0,0,1,.73-1.24h0A2.34,2.34,0,0,1,28,26.22a2.53,2.53,0,0,1,.73.11Z"/><path class="cls-4" d="M21.42,33.91a6.08,6.08,0,0,0,8.66.68v0a4.22,4.22,0,0,0,1.37-3.12A4.42,4.42,0,0,0,31.21,30v0a2.69,2.69,0,0,0-5.13,1.11v1.16a1.4,1.4,0,0,1-.74,1.23h0a2.35,2.35,0,0,1-1.15.3,2.24,2.24,0,0,1-.73-.12h0a4.53,4.53,0,0,1-3.2-4.33,4.14,4.14,0,0,1,.09-.87v0a5.21,5.21,0,0,1,.93-2.17h0a6.09,6.09,0,0,0-.66,6.48l-.05,0s-.24.18-.71-.37-3.29-3.95-3.29-3.95a13.36,13.36,0,0,1,3.53-2.68s.46-.14.34-.55L20.38,25s0-.26-.42-.21a21.53,21.53,0,0,1-4.22,0,.47.47,0,0,0-.41.24s-.18.31,0,.49.85.65.85,1.27c0,0,.14.46-.87,1.2a21.42,21.42,0,0,1-2.05,1.42l0-1.72a2.6,2.6,0,0,1,1-2.13.27.27,0,0,0,.16-.35L14.36,25a.33.33,0,0,0-.37-.26,37.64,37.64,0,0,1-5.43,0,.35.35,0,0,0-.33.17l-.07.14s-.13.33.07.48a2.4,2.4,0,0,1,1.08,2.16s.1,2.88,0,4a3.24,3.24,0,0,1-1.12,2.55.39.39,0,0,0-.13.45l.13.24s.09.19.4.15a31,31,0,0,1,5.43,0,.23.23,0,0,0,.3-.12l.13-.26a.36.36,0,0,0-.13-.46,2.38,2.38,0,0,1-1-1.93c0-1.14,0-1.85,0-1.85s.5.2,3.14,4.11a2.05,2.05,0,0,0,2.92.64A16.94,16.94,0,0,0,21.35,34Z"/></g></g></svg>