<svg id="aw" xmlns="http://www.w3.org/2000/svg" viewBox="0 0 120 60"><defs><style>.cls-1{fill:#28348a;}.cls-2{fill:#e63358;}</style></defs><title>ai_template</title><path class="cls-1" d="M109.05926,38.44341c-1.9362,0-3.20359.821-3.20359,2.0869,0,1.19276.96882,1.64063,2.5333,1.93621l.74785.15221c1.11373.22251,1.70937.59571,1.70937,1.19133s-.59564,1.042-2.084,1.042a5.16819,5.16819,0,0,1-2.68551-.67029l-.2971,1.04206a6.71735,6.71735,0,0,0,2.9065.59857c2.087,0,3.27678-.821,3.27678-2.087,0-1.19418-1.04055-1.7898-2.68259-2.0869l-.742-.14783c-1.19568-.22242-1.56886-.44788-1.56886-1.0435,0-.597.67468-1.04349,2.01377-1.04349a6.6417,6.6417,0,0,1,2.31086.37034l.22246-.8928a7.17765,7.17765,0,0,0-2.45722-.44779M41.77188,45.74769H42.89L39.5342,38.8912a.55171.55171,0,0,0-.51808-.2971h-.821L34.6944,45.74769h1.11665l.89421-1.86448h4.171Zm13.78618,0V43.13976a4.3363,4.3363,0,0,0,2.087.44636,5.391,5.391,0,0,0,1.11811-.07316l1.48692,2.23473h1.19421l-1.63619-2.53325a2.62608,2.62608,0,0,0,1.70937-2.38409c0-1.342-1.11372-2.31235-3.129-2.31235H54.44141v7.22969Zm27.72018,0V39.86011l4.91589,5.58763a.72089.72089,0,0,0,.67175.29995h.66736V38.5941H88.4927v5.66231L83.64849,38.8912c-.14926-.22385-.29707-.2971-.66735-.2971h-.74785v7.15359ZM40.42986,42.9144h-3.2797l1.63912-3.35291Zm17.28834-.29567a4.58458,4.58458,0,0,1-2.16014-.52389V39.41366h2.908c1.41522,0,1.93769.745,1.93769,1.41669,0,.96739-.74931,1.78838-2.68552,1.78838m8.56732,3.129H71.5029v-.96881H67.40657V38.5941h-1.121Zm-18.4767,0H48.927V38.5941H47.80882ZM95.12673,38.5941v7.15359h5.73547V44.70277H96.24338V42.46652h4.02025v-.96587H96.24338V39.56149h4.471V38.5941Zm-19.526,7.15359h1.121V38.5941h-1.121Z"/><path class="cls-1" d="M58.91884,30.60077h3.48752L56.97384,19.90258a1.16585,1.16585,0,0,0-1.21616-.72586H52.76335l-5.7135,11.42405H50.53l1.01567-2.1045h6.40137Zm28.56607,0h3.44946l-5.4369-10.69819a1.15978,1.15978,0,0,0-1.20885-.72586H81.287L75.57347,30.60077h3.48606l1.01422-2.1045h6.40134ZM99.76368,27.807a1.16264,1.16264,0,0,0,1.13421.68932h3.2841L106.61578,21.77l2.30648,8.83076H112l-2.55088-10.12446a1.5104,1.5104,0,0,0-1.73864-1.29959h-3.205l-2.308,6.68669-1.82352-5.67687a1.32316,1.32316,0,0,0-1.4196-1.00982H95.3483L92.39057,30.60077h3.12017l2.267-8.83076ZM85.34234,26.18543H81.08355L83.232,21.60761Zm-28.53241,0H52.557L54.704,21.60761ZM44.619,30.60077,45.91125,27.968h-7.6585V19.17672h-3.2797V30.60077Zm22.77209,0h3.15384V21.80958l5.51739-.36445V19.17672H61.878v2.26841l5.513.36445Z"/><path class="cls-2" d="M9.47668,21.66514l6.11449,2.21865c1.60254-.58391,3.2797-1.19123,4.82956-1.75175-4.52514-1.63625-9.91816-3.59-11.66118-4.23391C8.3366,17.7444,8,17.5703,8,18.01961v1.76345a1.88475,1.88475,0,0,0,1.47668,1.88208M8.00732,26.04537c.02341.4259.20342.48155.6571.344.21661-.079.53711-.19911.94982-.344.098-.038.20636-.07753.31612-.11853h.0044c.6849-.24735,1.56741-.56633,2.55965-.92345-1.61864-.58829-3.11286-1.1254-3.9339-1.43134-.36147-.13309-.55319-.03653-.55319.3849v2.08842Zm15.5175.70692c1.59521-.57811,2.77626-1.00839,2.99138-1.0845,1.1591-.423,1.35667-.83411.84591-1.02152.02635.01027.04975.019.07318.02635a1.4648,1.4648,0,0,0-.161-.06583c-.16391-.06146-.91616-.3322-2.02256-.7288-1.26884.45806-3.028,1.0961-4.831,1.75032Zm-.0117-5.74137L14.20378,17.702a1.88649,1.88649,0,0,1-1.47668-1.88208V14.05644c0-.45226.33515-.27512.7581-.12149,3.09824,1.14149,12.96515,4.63633,13.7891,4.9378a1.175,1.175,0,0,1,.26782.12738c.27807.21072-.0278.56346-1.02592.92782-.18731.063-1.34642.48593-3.00308,1.083"/><path class="cls-1" d="M27.36269,18.90732c.53856.18883.31172.59419-.84738,1.02009-.61027.218-12.27,4.44026-16.58145,6.00032V25.9263c-.11415.04243-.221.08048-.319.12-.41418.14346-.73323.26342-.95129.3439-.45221.13614-.63222.08058-.65565-.3439,0,.26342-.0073.80053.45661.966l3.80071,1.3815a.96175.96175,0,0,0,.52541,0C13.13891,28.27081,27.149,23.188,27.149,23.188c.68638-.2502.72443-.82688.72443-2.48645,0-1.54836,0-1.61571-.51076-1.79427M20.39789,34.9575c0-.73023.07463-1.35666-.57224-1.11951l-7.15652,2.59034v3.46849l6.99553-2.51718c.6864-.24877.73323-.73318.73323-1.46493Zm-4.36123,7.30295c0-.73175.07756-1.35524-.57077-1.124l-2.79676,1.02v3.47l2.63578-.944c.68637-.25171.73175-.73469.73175-1.46644ZM27.149,28.93226,12.6662,34.18332v-3.4977S25.76453,25.941,26.51531,25.66574c1.1591-.423,1.35814-.83564.84738-1.02.52246.18874.51076.2502.51076,1.79864,0,1.66109-.038,2.23911-.72443,2.48788"/></svg>