<svg id="aw" xmlns="http://www.w3.org/2000/svg" viewBox="0 0 120 60"><defs><style>.cls-1{fill:#006;}</style></defs><title>ai_template_lufthansa_full_1</title><path class="cls-1" d="M60.08848,25.82966h.47193v-1.8582H59.05615c-1.97618,0-3.038,1.06183-3.038,3.156v.236H54.83834V29.2216h1.17981V35.858h2.802V29.2216h1.62223V27.36341H58.82019v-.236a1.172,1.172,0,0,1,1.26829-1.29778"/><path class="cls-1" d="M62.06466,27.36341H60.88485V29.2216h1.17981v4.07034c0,1.74021.82586,2.56608,2.4481,2.56608h2.09416V33.88184H66.017l-.94384-.118a2.5382,2.5382,0,0,1-.236-1.17981V29.2216h1.62223V27.36341H64.83721V24.67934h-2.802v2.68407Z"/><path class="cls-1" d="M69.99886,23.97146h-2.802V35.858h2.802v-4.8962c0-1.17981.47192-1.74022,1.38627-1.74022.82587,0,1.17981.5899,1.17981,1.74022V35.858h2.802v-4.8962a5.91029,5.91029,0,0,0-.35394-2.4481A2.82756,2.82756,0,0,0,72.329,27.12744a2.34032,2.34032,0,0,0-2.33012,1.17981Z"/><path class="cls-1" d="M80.61712,28.86766c.82587,0,1.17981.236,1.17981.82587,0,.35394-.236.5899-.82587.70788l-2.4481.47192c-1.62223.47193-2.4481,1.38628-2.4481,2.68406a2.296,2.296,0,0,0,.94385,1.97618,3.65656,3.65656,0,0,0,2.33011.70788,4.62873,4.62873,0,0,0,2.802-1.06182l.118.70788h2.56608l-.236-1.1798V30.28343c0-2.21214-1.26829-3.274-3.95236-3.274s-4.07033,1.06182-4.07033,3.038h2.56608c-.059-.70789.41294-1.17981,1.47476-1.17981m-.47192,3.392,1.74021-.47193v.70789c0,1.1798-.5899,1.74021-1.97617,1.74021-.70788,0-1.17981-.236-1.17981-.82586.02949-.58991.47192-.94385,1.41577-1.15031"/><path class="cls-1" d="M88.0794,27.36341H85.51332v8.5241h2.802V30.96182c0-1.17981.47192-1.74022,1.38628-1.74022.82586,0,1.26829.5899,1.26829,1.74022V35.858h2.802v-4.8962A6.41374,6.41374,0,0,0,93.3,28.51372,2.82755,2.82755,0,0,0,90.616,27.12744a2.91047,2.91047,0,0,0-2.4481,1.17981Z"/><path class="cls-1" d="M97.51786,29.57554q0-.70788,1.06183-.70788c.82586,0,1.1798.35394,1.26829,1.17981H102.532l-.47193-1.50426c-.47192-1.06182-1.62223-1.50425-3.39194-1.50425-2.802,0-4.07033.94385-4.07033,2.92,0,1.2683.94385,2.09416,2.92,2.56608h.82586c1.06183.236,1.62223.58991,1.62223,1.06183s-.47192.70788-1.38627.70788c-.94385,0-1.50426-.35394-1.50426-1.06182v-.118H94.39136c0,2.09415,1.38628,3.156,4.42427,3.156,2.56609,0,3.95236-.94385,3.95236-2.92,0-1.38628-1.06183-2.33012-3.038-2.68406l-.94385-.236c-.79636-.177-1.26828-.41293-1.26828-.85536"/><path class="cls-1" d="M107.78218,28.86766c.82586,0,1.1798.236,1.1798.82587,0,.35394-.236.5899-.82586.70788l-2.44809.47192c-1.62224.47193-2.4481,1.38628-2.4481,2.68406a2.296,2.296,0,0,0,.94385,1.97618,3.65659,3.65659,0,0,0,2.33012.70788,4.62873,4.62873,0,0,0,2.802-1.06182l.118.70788H112l-.236-1.1798V30.28343c0-2.21214-1.29778-3.274-3.95235-3.274-2.56608,0-3.95235,1.06182-4.07033,3.038h2.56608c-.059-.70789.41292-1.17981,1.47474-1.17981m-.47192,3.392,1.74021-.47193v.70789c0,1.1798-.5899,1.74021-1.97618,1.74021-.70788,0-1.15031-.236-1.15031-.82586-.02949-.58991.44243-.94385,1.38628-1.15031"/><path class="cls-1" d="M23.131,23.61752a8.08458,8.08458,0,0,0-6.16449-2.56608,8.98191,8.98191,0,0,0-6.40045,2.56608A8.5236,8.5236,0,0,0,8,29.9a8.34141,8.34141,0,0,0,2.56608,6.28247,8.52361,8.52361,0,0,0,6.28247,2.56608A8.5236,8.5236,0,0,0,23.131,36.18246,8.34142,8.34142,0,0,0,25.69711,29.9,8.45681,8.45681,0,0,0,23.131,23.61752M16.73057,21.8773a8.30259,8.30259,0,0,1,5.84005,2.33012A8.082,8.082,0,0,1,11.12649,35.62206,8.03763,8.03763,0,0,1,16.73057,21.8773"/><path class="cls-1" d="M10.92,27.92381l-.118.47193L9.53375,28.0418l-.118.47192A18.19753,18.19753,0,0,1,13.01418,30.136a29.11276,29.11276,0,0,0,8.37663,3.62791l.82586-.70789h-.5899a5.38483,5.38483,0,0,1-4.18831-1.74021,8.59166,8.59166,0,0,1,3.95235-.94385l.94385.118.35394-.47192H21.62677l-2.4481.118.118-.35394h3.62791l.35394-.47192H19.53261l.118-.236H23.485l.236-.35394-3.83437-.118.118-.354,3.95235.118.35394-.354-3.156-.236-3.156.236a2.74822,2.74822,0,0,1-2.802,2.09416,4.38556,4.38556,0,0,1-2.09416-.70788l-.35394-.236.118-.118,1.8582.70789.118-.236Z"/><polygon class="cls-1" points="40.504 23.971 37.613 23.971 37.613 35.858 45.518 35.858 45.518 33.528 40.504 33.528 40.504 23.971"/><path class="cls-1" d="M54.27793,27.36341h-2.802v4.8962c0,1.1798-.47193,1.74021-1.38628,1.74021-.82586,0-1.1798-.5899-1.1798-1.74021v-4.8962h-2.802v5.13216a3.85837,3.85837,0,0,0,.47192,2.21213A2.61066,2.61066,0,0,0,49.26375,36.094a3.33157,3.33157,0,0,0,2.4481-1.06183V35.858h2.56608V27.36341Z"/></svg>