<svg id="aw" xmlns="http://www.w3.org/2000/svg" viewBox="0 0 120 60"><defs><style>.cls-1{fill:#002b5c;}.cls-2{fill:#ed1c24;}</style></defs><title>Airline Logo_Malaysianair_Full_Dark</title><g id="g10"><path id="path22" class="cls-1" d="M89.23,26.7l-.09.34,1.58,0c1,0,1.67.1,1.74.73A3,3,0,0,1,92.21,29l-.32,1.15a2.76,2.76,0,0,1-.45,1,1.71,1.71,0,0,1-.89.6,23.26,23.26,0,0,1-2.78,0c0,.15-.09.31-.13.47,1.48.07,2.9,0,4.41,0a6.59,6.59,0,0,0,1.41,0,1.78,1.78,0,0,0,1.35-1.2c.2-.6.38-1.29.57-1.92a4.33,4.33,0,0,1,.32-1,2.05,2.05,0,0,1,.59-.66,1.84,1.84,0,0,1,1.91-.31,1,1,0,0,1,.55,1,4.75,4.75,0,0,1-.28,1.24c-.35,1.26-.66,2.32-1,3.55a9,9,0,0,1-.34,1.17,2.24,2.24,0,0,1-1.71,1.33,15.51,15.51,0,0,1-2.16,0H86.75s-.11.32-.16.49c2.86,0,5.8,0,8.58,0A20.71,20.71,0,0,0,97.29,36a12.9,12.9,0,0,0,4.94-1.46,13.83,13.83,0,0,0,5.42-5.2,4.49,4.49,0,0,1,4.13-2.26l.14-.36Z"/><path id="path26" class="cls-1" d="M36.59,23.83h2.65C38.08,27.89,37,32,35.8,36H33.18c1.11-4.09,2.26-8.15,3.41-12.2"/><path id="path30" class="cls-1" d="M8,36V36c.93-3.16,1.77-6.39,2.71-9.54h8.9a5.21,5.21,0,0,1,1.37.11,2.17,2.17,0,0,1,1.55,2.7c-.17.76-.44,1.59-.64,2.28-.33,1.15-.64,2.28-1,3.39A6.15,6.15,0,0,1,20.59,36c-.86,0-1.78,0-2.6,0,.48-1.79,1.12-4,1.64-5.83a2.56,2.56,0,0,0,.16-.9c-.07-.87-1.08-.76-2.05-.76-.62,2.19-1.24,4.41-1.84,6.58a6.29,6.29,0,0,1-.3.93c-.85,0-1.77,0-2.59,0,.66-2.52,1.41-5,2.07-7.49H12.74c-.7,2.52-1.38,5-2.12,7.51H8"/><path id="path34" class="cls-1" d="M25.17,26.42h4c1.45,0,2.61-.08,3.46.51a2.12,2.12,0,0,1,.91,1.77,6.68,6.68,0,0,1-.38,1.93c-.51,1.78-1,3.67-1.53,5.4H27.4c-1.35,0-3.06.17-4-.29a1.79,1.79,0,0,1-1-1.46,3.82,3.82,0,0,1,2.34-3.74c1.53-.64,3.75-.2,5.81-.33a1.71,1.71,0,0,0,.11-1.31c-.33-.66-1.77-.46-2.82-.46H24.6c.17-.69.35-1.37.57-2m1.43,5.8a1.22,1.22,0,0,0-1.25,1.4.82.82,0,0,0,.77.39c1,.07,2.39,0,3.44,0,.17-.59.34-1.19.5-1.79-1.06.06-2.43-.08-3.46,0"/><path id="path38" class="cls-1" d="M40.4,26.42h4.14a18.74,18.74,0,0,1,2,0,2.32,2.32,0,0,1,2.18,2.73,15.78,15.78,0,0,1-.61,2.3c-.44,1.56-.82,3.06-1.28,4.54H42.49c-1.42,0-3.08.16-4-.38a1.76,1.76,0,0,1-.84-1.41,3.66,3.66,0,0,1,.68-2.33A3.62,3.62,0,0,1,40,30.54c1.54-.65,3.78-.2,5.81-.33A1.71,1.71,0,0,0,46,28.9c-.33-.66-1.77-.46-2.82-.46h-3.3c.18-.69.36-1.37.57-2m1.41,5.8a1.85,1.85,0,0,0-.66.18,1.24,1.24,0,0,0-.55,1.26c.08.22.42.33.73.35,1.11.09,2.36-.06,3.46,0,.17-.59.34-1.18.5-1.79-1.11.07-2.34-.1-3.48,0"/><path id="path42" class="cls-1" d="M51.05,26.42h2.62c-.41,1.56-1,3.48-1.46,5.23-.15.56-.54,1.43-.2,1.92s.9.33,1.59.33h1.89c.73-2.46,1.41-5,2.12-7.48h2.64c-1,3.41-2,7-2.89,10.32a4.4,4.4,0,0,1-1.25,2.08A5.39,5.39,0,0,1,54,40a13.92,13.92,0,0,1-3.23.13H47.43c.15-.7.37-1.34.55-2h2.5c.88,0,1.78.06,2.51,0a1.92,1.92,0,0,0,1.52-.88A6.24,6.24,0,0,0,54.9,36c-2.13-.06-4.68.34-5.53-1a2,2,0,0,1-.3-.91,6,6,0,0,1,.36-2c.52-1.84,1.09-3.81,1.58-5.6,0,0,0-.06,0-.07"/><path id="path46" class="cls-1" d="M71.06,26.42c-.19.67-.37,1.35-.57,2H65.76a3.93,3.93,0,0,0-1.44.13,1.21,1.21,0,0,0-.66,1.24c.17.37.62.4,1,.4h1.46a6.94,6.94,0,0,1,2.64.26,1.91,1.91,0,0,1,1,2A4.06,4.06,0,0,1,68.7,34.9,3.88,3.88,0,0,1,66.21,36c-1.13.1-2.37,0-3.59,0H59c.13-.64.36-1.36.55-2h5.3a3,3,0,0,0,1.53-.22,1.13,1.13,0,0,0,.5-1.19c-.18-.56-1.71-.38-2.48-.38a7.07,7.07,0,0,1-2.6-.26,1.83,1.83,0,0,1-1.07-2,3.73,3.73,0,0,1,.41-1.37,3.85,3.85,0,0,1,3.35-2.15c1.09-.07,2.19,0,3.28,0Z"/><path id="path50" class="cls-1" d="M72.82,26.42h2.61c-.87,3.22-1.77,6.4-2.68,9.59-.72.05-1.84,0-2.6,0-.05-.09,0-.21,0-.29.85-3,1.76-6.19,2.62-9.25,0,0,0-.07,0-.07"/><path id="path54" class="cls-1" d="M77.26,26.42h5.37c1.69,0,3,.65,3,2.28a6.68,6.68,0,0,1-.38,1.93c-.5,1.79-1,3.61-1.53,5.38-1.36,0-2.82,0-4.28,0s-3,.17-4-.31a1.79,1.79,0,0,1-.77-.82A3.15,3.15,0,0,1,75,32.29a3.72,3.72,0,0,1,1.62-1.64c1.61-.82,4-.29,6.08-.44a1.71,1.71,0,0,0,.11-1.31c-.32-.66-1.78-.46-2.82-.46h-3.3c.15-.68.36-1.29.52-2,0,0,0-.06.05-.07m1.41,5.8a2.08,2.08,0,0,0-.66.18,1.21,1.21,0,0,0-.55,1.28c.09.21.43.31.75.33,1.1.08,2.35,0,3.44,0,.16-.6.34-1.19.5-1.79-1.11.08-2.33-.1-3.48,0"/><path id="path58" class="cls-1" d="M68.74,37c-.44,1.81-1,3.65-1.5,5.51h-.8Q67.22,39.75,68,37a2.68,2.68,0,0,1,.77,0"/><path id="path62" class="cls-1" d="M58.54,38.15h1.75c.9,0,1.78-.11,2,.51A2.35,2.35,0,0,1,62.07,40c-.22.8-.45,1.69-.68,2.48-.9,0-2,.06-2.85,0a1,1,0,0,1-1-.93,1.77,1.77,0,0,1,.64-1.33c.72-.55,2-.29,3.19-.35.07-.26.26-.56.16-.84s-.91-.25-1.44-.25H58.36a4,4,0,0,1,.18-.62m.21,2.46a.91.91,0,0,0-.44.89c.13.64,1.72.23,2.46.35.11-.33.2-.73.3-1.06,0-.11.12-.24,0-.33-.65.12-1.86-.15-2.36.15"/><path id="path66" class="cls-1" d="M64.1,38.15c-.37,1.47-.8,2.87-1.19,4.32h-.77q.59-2.17,1.2-4.32Z"/><path id="path70" class="cls-1" d="M64.44,42.49h-.78c.17-.68.43-1.57.66-2.41s.44-1.61,1.23-1.86a7.11,7.11,0,0,1,1.51-.07,2.81,2.81,0,0,1-.19.62,7.14,7.14,0,0,0-.84,0c-.66.12-.78.73-1,1.35s-.48,1.75-.64,2.34"/><path id="path74" class="cls-1" d="M70,38.15c-.41,1.44-.81,2.88-1.21,4.32H68c.39-1.42.78-2.84,1.18-4.25a.07.07,0,0,1,0-.07Z"/><path id="path78" class="cls-1" d="M70.7,38.15c1.42.15,3.63-.51,3.55,1a4.54,4.54,0,0,1-.2.85c-.22.77-.47,1.64-.67,2.43h-.79c.17-.67.46-1.65.68-2.43.11-.38.27-.84,0-1.09s-1.34-.08-2-.18c-.38,1.21-.7,2.46-1,3.7h-.78c.39-1.45.79-2.89,1.21-4.32"/><path id="path82" class="cls-1" d="M78.87,38.15a5.61,5.61,0,0,1-.18.62c-.63,0-1.2-.05-1.73,0A1.73,1.73,0,0,0,75.53,40c.86,0,1.82,0,2.73,0,0,.21-.11.39-.16.6H75.37a1.2,1.2,0,0,0-.07.79c.22.76,1.64.41,2.5.49,0,.19-.1.41-.13.62-1.29,0-2.59.23-3.06-.58-.57-1,.19-2.55.87-3.14a2.5,2.5,0,0,1,1.32-.6c.7-.06,1.3.05,2.07,0"/><path id="path86" class="cls-1" d="M83.33,38.18c-.07.19-.11.42-.18.62-.8.11-2.1-.19-2.71.08-.25.12-.62.53-.43.89s1.77.09,2.25.31c.68.3.6,1.26.21,1.79a1.62,1.62,0,0,1-1.09.6c-.94.09-2.11-.07-3.12,0a5.61,5.61,0,0,1,.18-.62c.93-.11,2.85.28,3.35-.33a.75.75,0,0,0,.11-.71c-.24-.5-2-.05-2.5-.4a.88.88,0,0,1-.32-.84,1.66,1.66,0,0,1,1.57-1.39c.9-.08,1.74,0,2.68,0"/><path id="path90" class="cls-2" d="M112,26.47c-1.6,0-2.8-.66-2.92-2.11,0-.29,0-.56,0-.82a6.69,6.69,0,0,0-.52-2.06c-1.05-2.39-3.11-3.72-6.42-4H91.83c0,.18-.1.3-.12.49h6.65a9.37,9.37,0,0,1,2.14.06,1.11,1.11,0,0,1,.84,1.15,5.09,5.09,0,0,1-.29,1.13c-.32,1.1-.6,2.2-.91,3.3a5.59,5.59,0,0,1-.8,2,1.92,1.92,0,0,1-2,.7,1,1,0,0,1-.66-.42c-.35-.53,0-1.34.13-1.92.09-.32.19-.62.27-.91a3.23,3.23,0,0,0,.23-1,.88.88,0,0,0-.63-.89,5.57,5.57,0,0,0-1.44-.06c-1.46,0-3,0-4.46,0,0,.15-.09.28-.12.44,1.28,0,3.33-.16,3.33.89a3.21,3.21,0,0,1-.16.77c-.14.47-.28.94-.41,1.42a5.31,5.31,0,0,1-.21.71,1.34,1.34,0,0,1-1.43,1H89.29l-.06.23h22.69a1.49,1.49,0,0,1,.08-.23"/></g></svg>