<svg id="aw" xmlns="http://www.w3.org/2000/svg" viewBox="0 0 120 60"><defs><style>.cls-1{fill:#002563;}.cls-2{fill:#fff;}</style></defs><title>ai_template_norwegian_full_1</title><path class="cls-1" d="M100.5393,34.99292c-9.16705,4.72333-18.18431,7.61924-22.54815,6.73049C74.18652,40.9545,75.994,35.73188,81.48621,31.408h1.1284c-4.3139,3.6149-4.62346,8.13851-1.89732,8.468,3.09563.37947,11.05439-1.32812,19.1929-5.06285Z"/><path class="cls-1" d="M110.05586,28.50209a5.99244,5.99244,0,0,1,.739.10984,1.85737,1.85737,0,0,1,.33951.12982.50948.50948,0,0,1,.15978.08987c.0699.05992.05991.09986.08987.16976a.75891.75891,0,0,1-.14979.51927,5.2227,5.2227,0,0,1-1.32813,1.2782,19.16574,19.16574,0,0,1-1.57777,1.10843c-.09986.04993-.2097.1398-.30956.18973l.24965.11983h0l.08987.04993c.14979-.05992.23966-.1398.42939-.21969a.56921.56921,0,0,1,.40943-.0699.50928.50928,0,0,1,.28959.31955.78892.78892,0,0,1,0,.55921c.669.32954,1.30815.61912,1.99718.93867.15978.08988.29958.1398.45935.23967s-.05992.2097-.1398.28959a1.89727,1.89727,0,0,1-.729.30956c-.28959-.0699-.53924-.11983-.82883-.19972-.43938-.07989-.82883-.17974-1.2682-.25963l-1.11841-.17975a5.10332,5.10332,0,0,0-.75893-.09986,7.99037,7.99037,0,0,0-.99859,0,7.01024,7.01024,0,0,1-1.2083-.0699c-.63909.28959-1.22826.57919-1.92727.81885-.44937.14979-.88875.30956-1.3481.43937.14979.18973.37946.2896.45935.51927a.08734.08734,0,0,1-.05991.07989,1.14813,1.14813,0,0,1-.2796.08987c-.43939-.09985-.90872-.22967-1.3481-.33952h-.10984c-.22968,0-.53924.24965-.729,0a.689.689,0,0,1,0-.19972.55891.55891,0,0,0-.11983-.08987.909.909,0,0,0-.19972-.07989,1.62132,1.62132,0,0,1-.40942-.12982,6.80775,6.80775,0,0,1-.86878-.28959.1398.1398,0,0,1-.01238-.19732l.01238-.01238a.719.719,0,0,1,.61913-.11983,1.87633,1.87633,0,0,1,.62911.0699h0c-.25964-.25963-.4993-.51927-.74894-.7789,0-.05991-.10985-.10984-.09986-.19972s.05991-.10984.10984-.14979l.13981-.07989c.18973-.09985.25963-.16975.42939-.10984l1.3481.58917c.09985,0,.19971.11983.31954.09985a3.30306,3.30306,0,0,0,.32954-.14979,2.88856,2.88856,0,0,0,.24965-.15977,4.17313,4.17313,0,0,0,.40942-.26962c.29958-.19972.48931-.31955.719-.48931-.37946-.16976-.75893-.37947-1.15837-.53924a4.36253,4.36253,0,0,0-.88874-.23966l-.5692-.1398-1.10843-.27961c-.22968-.09986-.48931-.10984-.719-.22967a.12983.12983,0,0,1,0-.11984,1.92767,1.92767,0,0,1,.32954-.30956,2.04727,2.04727,0,0,1,.45935-.24964,6.25988,6.25988,0,0,1,.99859.08987,8.9864,8.9864,0,0,1,1.36807.16976c.44937.0699,1.22827.12981,1.8374.22967h.29958a.65934.65934,0,0,1,.14979,0,2.28678,2.28678,0,0,1,.93867-.56919.57918.57918,0,0,1,.50929.26962,17.50411,17.50411,0,0,1,1.99718-1.30815,8.67716,8.67716,0,0,1,1.82742-.7789,5.74141,5.74141,0,0,1,1.15837-.19972.53953.53953,0,0,0,.17974,0"/><path class="cls-2" d="M110.4553,28.9215a4.09375,4.09375,0,0,0-.86878.26962c-.30956.12981-.78888.31954-1.17833.51926a16.39806,16.39806,0,0,0-1.68762.94866,6.4607,6.4607,0,0,0-.709.54923,7.41547,7.41547,0,0,1-.99859-.08988h.0699a11.09544,11.09544,0,0,1,1.35808-.90871,16.89408,16.89408,0,0,1,1.64768-.85879,7.03985,7.03985,0,0,1,1.52784-.41941,1.87738,1.87738,0,0,1,.87876,0"/><path class="cls-2" d="M103.66489,31.22824a2.92563,2.92563,0,0,1,.25964-.17975.99835.99835,0,0,1,.22968-.11983c-.05991.1398,0,.2097,0,.37946s.08987.1398.10984.18974c-.2097.12981-.39943.28959-.60914.39943a.36949.36949,0,0,1-.11983-.19972.73889.73889,0,0,1,0-.39943Z"/><path class="cls-2" d="M103.3054,32.99574c-.26962.15978-.52925.28959-.78889.4294-.51926.2796-1.09844.59915-1.85737.93867a1.07851,1.07851,0,0,1-.6391.09986,1.52866,1.52866,0,0,1-.31955-.04993l-.82883-.8488a.60678.60678,0,0,1-.12981-.1398l.17974-.09986h.0699c.40943.17974.689.30956,1.07848.50928a4.83217,4.83217,0,0,0,.46934.2097,1.26912,1.26912,0,0,0,.45935-.12982l.11983-.0699.43939-.2796,1.18832-.739.07989-.05992.50928.21969"/><path class="cls-1" d="M8,20.91281h2.89591v.75892a3.79465,3.79465,0,0,1,4.43374-.53923c1.26821.76891,1.26821,1.99717,1.26821,3.33528v3.99436H13.71193V25.28663c0-.719.05992-1.67763-.679-2.147a1.45793,1.45793,0,0,0-1.47791.07989c-.739.54922-.65907,1.14838-.65907,2.22685v3.05569H8Z"/><path class="cls-1" d="M22.44959,22.72025a1.81744,1.81744,0,0,1,1.64767.51927,2.27677,2.27677,0,0,1,.51927,1.7675,1.91731,1.91731,0,0,1-.94866,1.428,1.7575,1.7575,0,0,1-1.7675-.10985,1.99717,1.99717,0,0,1-.76892-1.47791,2.137,2.137,0,0,1,.62911-1.6976,1.77765,1.77765,0,0,1,.689-.37947m-2.32671-1.428a3.68479,3.68479,0,0,0-1.99718,2.93585,3.80462,3.80462,0,0,0,.93867,3.10562c1.51786,1.56778,4.20406,1.59774,5.71193,1.10843a3.83458,3.83458,0,0,0,2.73614-2.7561,3.70474,3.70474,0,0,0-.53924-3.22545c-1.24823-1.85738-3.81461-1.99718-4.86313-1.85738a5.90186,5.90186,0,0,0-1.99718.6391"/><path class="cls-1" d="M42.58116,24.41786a2.77581,2.77581,0,0,1-.24965.75892L41.253,28.51207H38.25727l-2.86595-7.58928h3.17551l.99859,3.16553a3.93416,3.93416,0,0,1,.2097.87876,3.15568,3.15568,0,0,1,.19972-.87876l.99859-3.16553H44.109l.99859,3.16553a2.99554,2.99554,0,0,1,.18973.87876,3.93418,3.93418,0,0,1,.20971-.87876l.99859-3.16553h3.1855l-2.87594,7.58928H43.94923l-1.05851-3.31531a3.90449,3.90449,0,0,1-.25963-.7789"/><path class="cls-1" d="M56.93089,23.7488H53.48576a1.49788,1.49788,0,0,1,1.29816-1.20829,1.87734,1.87734,0,0,1,2.147,1.20829m1.99718-1.66764C57.56,20.4934,54.744,20.43348,53.42584,20.84291a3.65483,3.65483,0,0,0-2.76609,2.72614,3.91447,3.91447,0,0,0,.4993,3.43515c1.34809,1.99718,3.99436,1.85738,5.24259,1.65766A3.99438,3.99438,0,0,0,59.707,26.30519v-.0699l-2.866-.32954a1.52777,1.52777,0,0,1-.46933.44937,2.56639,2.56639,0,0,1-1.94725.1398,1.63771,1.63771,0,0,1-.91871-1.15836h6.42093v-.1398a5.05283,5.05283,0,0,0-.99859-3.1156"/><path class="cls-1" d="M65.05941,23.12968a1.8973,1.8973,0,0,1,1.6277.4194,1.22827,1.22827,0,0,1,.37946.99859,1.33807,1.33807,0,0,1-.53924.99859,1.99712,1.99712,0,0,1-1.78747,0,1.18829,1.18829,0,0,1-.679-.88874,1.428,1.428,0,0,1,.28959-.99859,1.34814,1.34814,0,0,1,.709-.46934m-3.67481,5.692A2.8459,2.8459,0,0,0,61.67419,29.98c.739,1.30815,1.99718,1.58776,3.67481,1.58776s2.9059-.09986,3.84457-1.19831a4.85311,4.85311,0,0,0,.719-3.36525V20.91281h-2.866v.669a3.26539,3.26539,0,0,0-1.81743-.89873A3.69478,3.69478,0,0,0,61.814,22.01126a4.27393,4.27393,0,0,0-.709,3.23543A3.40522,3.40522,0,0,0,62.92243,27.873a3.99439,3.99439,0,0,0,4.09422-.40942,5.23276,5.23276,0,0,1-.09986,1.30815,1.14838,1.14838,0,0,1-.99859.65907c-.29958,0-1.16835.19972-1.46793-.36948a1.27894,1.27894,0,0,1-.10984-.23966Z"/><path class="cls-1" d="M72.12943,18.0868h2.89591v1.92728H72.12943Zm0,2.836h2.89591v7.5793H72.12943Z"/><path class="cls-1" d="M82.78438,25.1668a1.74753,1.74753,0,0,1-1.57777,1.418,1.31816,1.31816,0,0,1-1.438-.44937.789.789,0,0,1-.05991-.54922c.19972-.41941.59915-.37947,1.50787-.38945Zm-2.99577-2.097a.82881.82881,0,0,1,.29958-.45935,3.29531,3.29531,0,0,1,2.147,0c.41941.21969.4993.53924.54923,1.0585a11.41057,11.41057,0,0,0-1.49789,0,14.05209,14.05209,0,0,0-1.66764.16976c-1.26821.15978-2.52643.38945-2.846,1.89732a2.29676,2.29676,0,0,0,1.1284,2.5564l.07989.0699a5.692,5.692,0,0,0,4.91306-.54923,1.91726,1.91726,0,0,0,.11983.689h3.33528a2.05712,2.05712,0,0,1-.50928-1.57777V23.6789a3.1656,3.1656,0,0,0-.35949-1.99718c-.679-.90872-1.91729-1.08846-4.14415-1.08846-1.7675,0-2.99577.07988-3.67481.99859a2.29672,2.29672,0,0,0-.42939,1.438Z"/><path class="cls-1" d="M87.88717,20.92279h2.89592v.75893a3.77467,3.77467,0,0,1,4.42375-.54922c1.27819.76891,1.27819,1.99718,1.27819,3.33529v3.99436h-2.9059V25.28663c0-.719.05991-1.66764-.66905-2.147a1.47792,1.47792,0,0,0-1.4879.07989c-.729.54922-.64908,1.14838-.64908,2.23684v3.0457H87.88717Z"/><path class="cls-1" d="M34.42268,20.813v2.99577a3.35515,3.35515,0,0,0-2.04711.50928v4.224H29.47966V20.91281h2.89591v.86877a2.39672,2.39672,0,0,1,.99859-.7789,3.3052,3.3052,0,0,1,1.06849-.18973"/></svg>