<svg id="aw" xmlns="http://www.w3.org/2000/svg" viewBox="0 0 120 60"><defs><style>.cls-1{fill:#4e504d;}.cls-2{fill:#d7001f;}</style></defs><title>ai_template_pegasus_full_1</title><path class="cls-1" d="M107.49767,36.86519a2.273,2.273,0,0,0-1.11628-.29767h-.4093a2.89824,2.89824,0,0,0-.7814.14883,2.42185,2.42185,0,0,0-1.37675,1.26512,1.76613,1.76613,0,0,0-.07442,1.37674,1.45868,1.45868,0,0,0,.63256.7814c.18605.14884.40931.29767.63256.44651a.77677.77677,0,0,1,.29767.59535.72534.72534,0,0,1-.03721.29767,1.01,1.01,0,0,1-.7814.707,1.03009,1.03009,0,0,1-.33488.03721,1.67941,1.67941,0,0,1-.93023-.26047h0l-.44651.81861-.11163.22325.03721.03721a2.27634,2.27634,0,0,0,.44651.18605,3.44042,3.44042,0,0,0,1.07908.14884,3.59692,3.59692,0,0,0,1.07906-.14884,2.22893,2.22893,0,0,0,1.48838-1.33954,2.56116,2.56116,0,0,0,.11162-.29767,1.645,1.645,0,0,0,.07442-.74419,1.54642,1.54642,0,0,0-.7814-1.22791,4.51427,4.51427,0,0,1-.52092-.37209L105.6,39.20937a.86968.86968,0,0,1-.26047-.26046.76633.76633,0,0,1-.11162-.55814.1367.1367,0,0,1,.03721-.11163.78106.78106,0,0,1,.85581-.63256,8.77359,8.77359,0,0,1,1.04186.14884h0l.14883-.26046.186-.29768.14883-.26046C107.57209,36.9024,107.53488,36.86519,107.49767,36.86519Z"/><path class="cls-1" d="M100.72558,38.31635c.03721-.14883.03721-.26046.07442-.4093a.1367.1367,0,0,1,.03721-.11163c0-.03721.03721-.03721.03721-.07441V37.6838h.03721a.472.472,0,0,1,.22326-.03721h1.56279l.186-1.00465H99.64651a.26192.26192,0,0,0-.14883.186c-.3721,1.74884-.74419,3.49768-1.07907,5.28372v.03721l-.22326,1.11628h3.34884l.22326-1.04186H99.907c.11163-.59535.22325-1.15349.37209-1.67442,0-.07442.14883-.11163.22326-.11163h1.22791c.07441,0,.186-.03721.186-.07442.07442-.26046.11163-.52093.186-.8186v-.07442h-1.6A10.17765,10.17765,0,0,0,100.72558,38.31635Z"/><path class="cls-1" d="M85.73023,42.18612l1.15349-5.58139H85.65581c-.22326,0-.29767.07441-.37209.29767-.29768,1.52558-.63256,3.05116-.93023,4.57675l-.33488,1.71162h3.2372l.22326-1.00465Z"/><path class="cls-1" d="M82.08372,36.60473a3.25656,3.25656,0,0,0-.59535-.07442,5.83536,5.83536,0,0,0-1.6.14884c-.14883.03721-.29767.07441-.4093.11163l-.22326.11163h0a.39888.39888,0,0,0-.07442.22325c-.14883.8186-.33488,1.63721-.52093,2.45581L78.214,41.814a4.7862,4.7862,0,0,1-.14883.707l-.14884.707h1.48837l.63256-2.86512.07442.07442c0,.03721.03721.03721.03721.07442l.4093,1.26511a12.58412,12.58412,0,0,1,.40931,1.26512.2821.2821,0,0,0,.07442.14884l.07441.07442h1.52559L82.04652,41.814l-.59535-1.45116.44651-.11163a2.02335,2.02335,0,0,0,.96744-.59535,3.953,3.953,0,0,0,.33488-.4093A1.60734,1.60734,0,0,0,82.08372,36.60473ZM82.04651,38.428a1.54248,1.54248,0,0,1-1.11628,1.45117,5.551,5.551,0,0,1-.7814.07441l.3721-1.86046.03721-.22326c.07442-.4093.11163-.44651.52093-.44651.707-.03721,1.04186.29768.96744,1.00465Z"/><path class="cls-1" d="M71.70232,36.64194a.35361.35361,0,0,0-.37209.22325C70.25116,38.9117,69.17209,40.921,68.093,42.96752a1.81454,1.81454,0,0,0-.11163.26046h.66977a1.0163,1.0163,0,0,0,1.11628-.707c.29768-.63255.55814-.8186,1.15349-.74418a6.36425,6.36425,0,0,0,1.1907,0l.11163,1.41395h1.52558l-.74419-6.54883Zm-1.15348,4.31627,1.37674-2.8279.14884,2.8279Z"/><path class="cls-1" d="M76.13023,36.64194,74.7907,43.228h1.56279l1.33953-6.586Z"/><path class="cls-1" d="M95.85116,40.58612c0-.03721-.03721-.03721-.03721-.07442L95.293,39.135c-.29768-.78139-.59536-1.52558-.893-2.307a.33546.33546,0,0,0-.22325-.22325h-.96744c-.07442,0-.14884,0-.18605.07442a.28422.28422,0,0,0-.07442.186c-.14883.63256-.26046,1.30233-.4093,1.93489l-.55814,2.75349-.11163.55813L91.64651,43.228h1.07907c.07442,0,.11163,0,.14883-.03721a.2046.2046,0,0,0,.11163-.186c.14884-.707.29768-1.37674.40931-2.08372l.22326-.96744c.07441-.33489.14883-.707.22325-1.07907l.03722.07441h0l.93023,2.41861c.22326.55814.44651,1.11628.63256,1.67442.03721.03721.03721.11163.11162.14883l.03722.03721h1.04186l1.37674-6.54883H96.707Z"/><path class="cls-1" d="M90.12093,36.60473c-.22326,0-.29768.07441-.33488.29767l-.893,4.24186-.29768,1.33954a6.0472,6.0472,0,0,1-.14883.707h1.56279l.37209-1.86046.8186-3.907.14884-.78139C90.93953,36.64194,90.53023,36.64194,90.12093,36.60473Z"/><path class="cls-2" d="M78.95814,32.8838a5.21351,5.21351,0,0,0,1.78605-4.91163,4.26281,4.26281,0,0,0-.93024-1.93489c-.8186-1.04186-1.71163-2.08372-2.53023-3.16279a6.1529,6.1529,0,0,1-.8186-1.33953,1.86893,1.86893,0,0,1,.93023-2.45581l.33488-.11163a3.31542,3.31542,0,0,1,2.82791.4093A2.201,2.201,0,0,1,81.6,20.71635a.37215.37215,0,0,0,.48372.29768.19332.19332,0,0,0,.14884-.07442.85054.85054,0,0,0,.26046-.37209c.186-.48372.33488-.96744.52093-1.414a.31153.31153,0,0,0-.11163-.44651h-.03721a7.87174,7.87174,0,0,0-4.72558-1.33953,7.167,7.167,0,0,0-4.13024,1.2279A5.58851,5.58851,0,0,0,72.66976,26.335a2.04423,2.04423,0,0,0,.26046.33488c.893,1.07907,1.82325,2.15814,2.71628,3.27442a2.83045,2.83045,0,0,1,.44651.707,1.69386,1.69386,0,0,1-.893,2.12093,3.48523,3.48523,0,0,1-1.07907.22325,3.54031,3.54031,0,0,1-2.79069-1.07907,1.49652,1.49652,0,0,1-.44652-.78139.4124.4124,0,0,0-.44651-.3721.52888.52888,0,0,0-.22325.07442.85062.85062,0,0,0-.26047.3721,8.56676,8.56676,0,0,0-.33488.93023c-.03721-.11163-.03721-.14884-.07442-.186L68.986,29.60938l-2.38139-10.307c-.07442-.37209-.07442-.4093.26046-.59535a.47876.47876,0,0,0,.22326-.63256.63169.63169,0,0,0-.22326-.22325.84809.84809,0,0,0-.4093-.11163H61.73023a.46687.46687,0,0,0-.4093.22325c-2.60466,4.13024-5.20931,8.26047-7.85117,12.42791a1.47361,1.47361,0,0,1-1.11628.85582.448.448,0,0,0-.37209.48372.1367.1367,0,0,0,.03721.11163.50215.50215,0,0,0,.55814.33488H55.293a.57274.57274,0,0,0,.55813-.37209c.07442-.26046-.03721-.4093-.29767-.59535s-.29768-.29767-.14884-.55814c.81861-1.30232,1.63721-2.64186,2.4186-3.94418a.39077.39077,0,0,1,.33488-.186h4.093c.186,0,.26046.07442.29767.26046.29768,1.26512.59535,2.56745.893,3.83256.11163.4093.11163.4093-.26046.66977a.47687.47687,0,0,0-.186.63256c.03721.11163.11163.14884.22326.22325a.81831.81831,0,0,0,.52093.07442h5.87906a4.86757,4.86757,0,0,1-.186.55814.19487.19487,0,0,0,.07441.29768.03645.03645,0,0,1,.03722.0372c.26046.14884.52092.33489.8186.48373a8.18238,8.18238,0,0,0,4.87442.85581A6.17261,6.17261,0,0,0,78.95814,32.8838Zm-19.907-8.11163,2.19535-3.53489h.07442l.8186,3.53489Z"/><path class="cls-2" d="M97.26511,26.93031c1.15349-2.3814,2.12093-4.83721,3.16279-7.25582a1.07706,1.07706,0,0,1,.93024-.78139.4124.4124,0,0,0,.37209-.44651v-.03721a.55562.55562,0,0,0-.48372-.52093h-5.6186a.33142.33142,0,0,0-.29768.18605c-.66977,1.52558-1.33954,3.08837-1.97209,4.61395-1.00465,2.307-1.9721,4.57674-2.97675,6.88372a2.10842,2.10842,0,0,1-1.89767,1.33954c-1.11628.0372-1.78605-.66977-1.56279-1.67442a9.46043,9.46043,0,0,1,.52092-1.74884c1.11628-2.60465,2.26977-5.24651,3.386-7.85116a1.07959,1.07959,0,0,1,.893-.74419.491.491,0,0,0,.40931-.52093c0-.03721,0-.03721-.03721-.07442a.49322.49322,0,0,0-.55814-.37209H85.24651a.63344.63344,0,0,0-.63255.4093c-.07442.22325.03721.4093.33488.59535a.301.301,0,0,1,.186.4093c0,.03721-.03721.03721-.03721.07442-.707,1.6-1.33953,3.2-2.08372,4.76279a10.98251,10.98251,0,0,0-1.07907,4.20465A3.65867,3.65867,0,0,0,84.20465,32.028a9.11375,9.11375,0,0,0,5.35814.63256A9.87828,9.87828,0,0,0,97.26511,26.93031Z"/><path class="cls-2" d="M54.43721,25.7024a.41239.41239,0,0,0,.37209-.44651v-.03721a.45244.45244,0,0,0-.44651-.44651H48.22326a.6709.6709,0,0,0-.3721.07442.743.743,0,0,0-.29767.37209.37961.37961,0,0,0,.22325.44651l.11163.07442c.33489.18605.40931.33488.26047.707a5.27128,5.27128,0,0,1-.29768.66976c-.29767.707-.59535,1.414-.96744,2.12094a2.39755,2.39755,0,0,1-1.74884,1.33953,2.1,2.1,0,0,1-2.67906-2.307,12.59919,12.59919,0,0,1,3.68372-7.33023,6.17174,6.17174,0,0,1,3.31163-1.86046,4.31248,4.31248,0,0,1,3.16279.48372,1.82665,1.82665,0,0,1,.78139,1.04186.45971.45971,0,0,0,.52093.33488.32162.32162,0,0,0,.22326-.11163.50021.50021,0,0,0,.22325-.26046c.22326-.48372.4093-.96744.63256-1.48837l-1.00465-.48372a12.55031,12.55031,0,0,0-7.81395-.96745,11.02383,11.02383,0,0,0-8.03721,6.06512A9.13385,9.13385,0,0,0,36.98605,28.121a4.60641,4.60641,0,0,0,4.31628,4.46511,10.04856,10.04856,0,0,0,4.31628-.707c.11163-.03721.26046-.11163.29767.07441s.18605.22326.3721.22326h4.53953A.33.33,0,0,0,51.2,31.95356c.74419-1.786,1.52558-3.53488,2.26977-5.32093C53.65581,26.1117,53.87907,25.77682,54.43721,25.7024Z"/><path class="cls-2" d="M36.57675,23.43263a.59082.59082,0,0,0-.74419.22326.93119.93119,0,0,1-.93023.44651H31.92558a.1367.1367,0,0,1,.03721-.11163c.66977-1.52558,1.30233-3.05116,1.93488-4.53953.07442-.14884.14884-.14884.29768-.14884h3.34884c.29767,0,.4093.07442.4093.37209a.55963.55963,0,0,0,.37209.52093.57469.57469,0,0,0,.59535-.33488c.07442-.14884.14884-.29767.22325-.48372l.707-1.6H28.05581a.4751.4751,0,0,0-.14883.93023c.4093.18605.44651.33489.26046.74419l-1.71162,3.94418L22.8093,31.87914a2.56574,2.56574,0,0,0-.11162.29768H35.27442a.28973.28973,0,0,0,.33489-.22326c.186-.48372.4093-.93023.59535-1.41395a.51214.51214,0,0,0-.07442-.59535.50367.50367,0,0,0-.59535-.11163A.59385.59385,0,0,0,35.2,30.0931a1.09078,1.09078,0,0,1-1.04186.52093H29.09768c.03721-.07442.03721-.14884.07442-.186.66976-1.56279,1.33953-3.12558,2.0093-4.72558a.33.33,0,0,1,.37209-.22325c.96744,0,1.93488,0,2.90233.03721.4093,0,.44651.0372.48372.44651a.41294.41294,0,0,0,.4093.4093.3378.3378,0,0,0,.26047-.11163,1.45681,1.45681,0,0,0,.29767-.37209l.7814-1.786A.45155.45155,0,0,0,36.57675,23.43263Z"/><path class="cls-2" d="M111.814,18.74426A8.04489,8.04489,0,0,0,104,17.96287a5.52923,5.52923,0,0,0-2.12093,8.74418c.52093.63256,1.07907,1.26512,1.6,1.93489.44652.52093.85581,1.04186,1.26512,1.56279a1.68775,1.68775,0,0,1-.40931,2.38139,1.70953,1.70953,0,0,1-.59535.26047,3.69563,3.69563,0,0,1-3.16279-.66977,1.831,1.831,0,0,1-.7814-1.11628.404.404,0,0,0-.44651-.33488.19327.19327,0,0,0-.14883.07441.94493.94493,0,0,0-.29768.3721c-.18605.48372-.33488.96744-.52093,1.45116-.11163.26046-.03721.37209.18605.52093a8.48216,8.48216,0,0,0,4.61395,1.37674c.52093-.03721,1.04186-.07441,1.5628-.14883a5.81635,5.81635,0,0,0,4.4279-3.12559,4.57009,4.57009,0,0,0,.07442-4.4279,6.42192,6.42192,0,0,0-.707-1.04186c-.7814-.96745-1.6-1.89768-2.34418-2.90233a6.40814,6.40814,0,0,1-.81861-1.37674,1.79313,1.79313,0,0,1,.893-2.307,3.27536,3.27536,0,0,1,3.38605.37209,1.85724,1.85724,0,0,1,.85581,1.1907.39641.39641,0,0,0,.48371.29767h.03722a.64029.64029,0,0,0,.4093-.4093c.186-.48372.33488-1.00465.52093-1.48837a.25793.25793,0,0,0-.11163-.37209Z"/><path class="cls-2" d="M25.93488,20.04659a2.63429,2.63429,0,0,0-2.8279-2.307H13.87907a1.52623,1.52623,0,0,0-.4093.03721.51561.51561,0,0,0-.40931.4093.41482.41482,0,0,0,.29768.48372c.29767.14884.33488.26047.186.55814L8.893,30.05589,8,32.17682h5.95349a.67087.67087,0,0,0,.37209-.07442,1.05528,1.05528,0,0,0,.29768-.4093.57611.57611,0,0,0-.29768-.4093c-.26046-.186-.29767-.22326-.14884-.52093.55814-1.33954,1.15349-2.71628,1.71163-4.05582a.26623.26623,0,0,1,.33489-.186h3.94418a5.64611,5.64611,0,0,0,3.72093-1.26512A5.15059,5.15059,0,0,0,25.93488,20.04659Zm-7.107,4.50232a3.98488,3.98488,0,0,1-2.08372.22326l.63255-1.45117c.55814-1.26511,1.11628-2.56744,1.63721-3.83255a.283.283,0,0,1,.29768-.22326,1.56555,1.56555,0,0,1,1.71163,1.45116v.33489A3.74957,3.74957,0,0,1,18.82791,24.54891Z"/></svg>