<svg id="aw" xmlns="http://www.w3.org/2000/svg" xmlns:xlink="http://www.w3.org/1999/xlink" viewBox="0 0 120 60"><defs><style>.cls-1{fill:#323232;}.cls-2{fill:url(#New_Gradient_Swatch_20);}.cls-3{fill:#fdfdfd;}.cls-4{fill:url(#New_Gradient_Swatch_copy_16);}.cls-5{fill:url(#New_Gradient_Swatch_copy_16-2);}.cls-6{fill:url(#New_Gradient_Swatch_copy_16-3);}</style><linearGradient id="New_Gradient_Swatch_20" x1="8" y1="29.92205" x2="36.2302" y2="29.92205" gradientUnits="userSpaceOnUse"><stop offset="0" stop-color="red"/><stop offset="1" stop-color="#be0000"/></linearGradient><linearGradient id="New_Gradient_Swatch_copy_16" x1="11.07175" y1="25.68927" x2="18.17856" y2="31.16456" gradientUnits="userSpaceOnUse"><stop offset="0" stop-color="#fff"/><stop offset="1" stop-color="#bcbcbc"/></linearGradient><linearGradient id="New_Gradient_Swatch_copy_16-2" x1="18.67786" y1="36.33259" x2="28.40781" y2="36.33259" xlink:href="#New_Gradient_Swatch_copy_16"/><linearGradient id="New_Gradient_Swatch_copy_16-3" x1="22.37896" y1="29.29294" x2="22.37896" y2="28.9058" xlink:href="#New_Gradient_Swatch_copy_16"/></defs><title>ai_template</title><path class="cls-1" d="M35.47523,27.03734a10.46233,10.46233,0,0,1,6.78038.01518c1.7128.59961,3.38007,2.00375,3.5344,3.919A3.93655,3.93655,0,0,1,44.28972,34.263c.81466-.00759,1.63185-.00253,2.449-.00253-.45793.74128-.81718,1.771-1.79123,1.943-1.76594.14674-3.54452.038-5.31551.086A9.52421,9.52421,0,0,1,33.87375,34.941a4.30829,4.30829,0,0,1-1.90762-4.36423A5.15689,5.15689,0,0,1,35.47523,27.03734Zm1.99616,1.80388a3.5803,3.5803,0,0,0-2.7501,1.95063,2.10476,2.10476,0,0,0,.969,2.38325,6.06754,6.06754,0,0,0,5.01444.6072,3.08243,3.08243,0,0,0,2.28965-2.067,2.21026,2.21026,0,0,0-1.15368-2.21881A6.09756,6.09756,0,0,0,37.47139,28.84122Z"/><path class="cls-1" d="M51.28768,28.41619a2.91641,2.91641,0,0,1,4.93854.11891c1.48764,2.57806,2.98539,5.15106,4.4705,7.72912-.92851.00506-1.85449.00253-2.783.00253q-.53509-.888-1.07525-1.771H50.51856c-.34914.58948-.70081,1.1815-1.04742,1.771-.91079,0-1.81906.00253-2.72986-.00253C48.25928,33.64821,49.76462,31.02714,51.28768,28.41619Zm2.32759.47057q-1.04742,1.91648-2.09483,3.83547,2.17072.0038,4.34652,0A32.1278,32.1278,0,0,0,53.61527,28.88676Z"/><path class="cls-1" d="M61.648,27.16131c1.06513-.01518,2.27446-.1265,3.13213.64262,2.1682,1.79882,4.31617,3.62295,6.47931,5.42683.00506-2.024,0-4.048.00253-6.072h2.53v9.108H71.27714q-3.55211-2.97906-7.09663-5.96066c-.00506,1.986,0,3.97209-.00253,5.96066h-2.53Z"/><path class="cls-1" d="M74.804,27.15878h12.65v2.024c-1.68751.00253-3.37248-.00253-5.06,0-.00253,2.36049.00253,4.7235,0,7.084h-2.53c-.00253-2.36048.00253-4.72349,0-7.084-1.6875-.00253-3.37248.00253-5.06,0C74.80142,28.50727,74.804,27.83429,74.804,27.15878Z"/><path class="cls-1" d="M89.7815,28.41366a2.91638,2.91638,0,0,1,4.93854.11891q2.23526,3.86709,4.4705,7.73165c-.931.00506-1.86461.00759-2.79564-.00759-.35926-.592-.72864-1.17645-1.10055-1.76087H88.97443q-.50473.888-1.00947,1.771H85.23763Q87.507,32.33894,89.7815,28.41366Zm.24794,4.30857c1.44968.00253,2.89937.00506,4.34905,0-.71345-1.28776-1.4092-2.58818-2.1429-3.8633C91.3678,30.06321,90.78084,31.44459,90.02944,32.72223Z"/><path class="cls-1" d="M101.2879,27.8267a12.68614,12.68614,0,0,1,5.66971-.60973,26.09245,26.09245,0,0,1,4.67795.71093c-.167.63756-.334,1.27764-.511,1.91267a24.40824,24.40824,0,0,0-7.44324-.60214c-.40733.07337-.9108.0759-1.16632.46046.081.39974.55406.39215.85766.49841,2.13279.43769,4.30858.64768,6.42112,1.18151,1.00694.24794,2.148.92091,2.19856,2.07712a2.45452,2.45452,0,0,1-1.80135,2.29976,14.16982,14.16982,0,0,1-5.77091.58949,21.24318,21.24318,0,0,1-4.56158-.73876c.14674-.678.37444-1.3333.5819-1.99363a19.1326,19.1326,0,0,0,7.76455.64515c.425-.086,1.11319-.1518.99934-.75647-2.42626-.66539-4.97143-.77418-7.39263-1.45475a2.49371,2.49371,0,0,1-1.99617-1.84436A2.258,2.258,0,0,1,101.2879,27.8267Z"/><path class="cls-2" d="M24.173,27.83635c-1.46959-1.46454-2.91646-2.95684-4.38352-4.42392a11.88028,11.88028,0,0,0-8.09029-3.59062H8v.02273c.15655.44692.32827.89134.5025,1.33322a6.84881,6.84881,0,0,0,2.57555,2.88614c1.71453.93681,3.66639,1.308,5.42384,2.15136A15.9821,15.9821,0,0,1,20.446,28.86405c.3434.33836.97719.66156,1.28524.101-.08584-.25-.255-.75248-.33835-1.00246a9.29918,9.29918,0,0,1,2.1564.952c.34846.23736.68683.49239,1.02012.75247-1.30545,1.058-3.2649.57319-4.55015,1.67917a1.089,1.089,0,0,0,.42168,1.765,20.21341,20.21341,0,0,1,8.108,5.48443c-.81812-.452-1.52513-1.07062-2.32557-1.54787a20.89458,20.89458,0,0,0-7.43126-2.79522c-.36361.00251-.48482-.31816-.58834-.606a7.46527,7.46527,0,0,0-2.02-4.30269c-2.0857-2.09329-5.01982-3.23461-6.73939-5.71169q2.36346,6.21922,4.71176,12.44349c.49745,1.31557.9772,2.64122,1.50241,3.94667H36.2302C32.19514,35.97461,28.20049,31.88907,24.173,27.83635Z"/><path class="cls-3" d="M8.50249,21.17776a6.84888,6.84888,0,0,0,2.57557,2.88615c1.71451.9368,3.66638,1.308,5.42383,2.15135A15.98186,15.98186,0,0,1,20.446,28.86405c.34341.33836.9772.66157,1.28526.101-.08585-.25-.255-.75247-.33836-1.00245a9.29942,9.29942,0,0,1,2.1564.952c.34846.23736.68682.49239,1.02013.75247-1.30546,1.058-3.26491.57319-4.55016,1.67916a1.089,1.089,0,0,0,.42168,1.765,20.21337,20.21337,0,0,1,8.108,5.48443c-.81812-.452-1.52513-1.07062-2.32558-1.54786a20.89469,20.89469,0,0,0-7.43125-2.79524c-.36361.00252-.48481-.31816-.58834-.606a7.4653,7.4653,0,0,0-2.02-4.3027c-2.0857-2.09327-5.01982-3.2346-6.73939-5.71169C9.10346,22.8241,8.81055,21.99841,8.50249,21.17776Z"/><path class="cls-4" d="M14.9282,26.83183l-3.2354-2.10162a2.77666,2.77666,0,0,1-.9882-.898,7.26017,7.26017,0,0,1-2.20211-2.65448c.30806.82065.601,1.64634.94185,2.45436,1.71957,2.47709,4.65369,3.61841,6.73939,5.71169a7.4653,7.4653,0,0,1,2.02,4.3027c.01154.03211.02339.06463.03569.09706C18.041,28.28108,14.9282,26.83183,14.9282,26.83183Z"/><path class="cls-5" d="M26.22337,37.04777c.754.44957,1.42525,1.02449,2.18444,1.4675-4.71433-4.78515-9.3111-4.35541-9.3111-4.35541l-.41885.08107a.52709.52709,0,0,0,.11426.0116A20.89469,20.89469,0,0,1,26.22337,37.04777Z"/><path class="cls-6" d="M20.6289,29.02038l.403,1.48929,3.09712-.69132-1.32734-.38714a1.77991,1.77991,0,0,1-1.34082-1.44594l-.06792-.02267c.08333.25.25251.75247.33836,1.00245C21.47208,29.43672,20.98231,29.28266,20.6289,29.02038Z"/></svg>