<svg id="aw" xmlns="http://www.w3.org/2000/svg" viewBox="0 0 120 60"><defs><style>.cls-1{fill:#505967;}.cls-2{fill:#5c0632;}.cls-3{fill:#747f8a;}</style></defs><title>ai_template_qatar_airways_full_1</title><path class="cls-1" d="M27.08057,41.14634c-.21765,0-.4353.03628-.65294.03628-.25393,0-.50785-.03628-.76178-.03628l.7255-1.77746Zm.798,1.99512c.1451,0,.32647-.03627.54412-.03627s.4353.03627.54412.03627c-.32647-.68922-.798-1.77747-1.08824-2.39414-.25393-.61667-.68922-1.59609-1.052-2.57551a.46015.46015,0,0,1-.21765.03627.70832.70832,0,0,1-.25393-.03627c-.18137.5804-.58039,1.52354-1.30589,3.15591l-.83432,1.85c.10882,0,.21765-.03628.32647-.03628s.25393.03628.36275.03628c.10883-.399.36275-1.0157.5804-1.55982.2902,0,.5804-.03628.8706-.03628a7.28409,7.28409,0,0,1,.90687.03628l.2902.76177Z"/><path class="cls-1" d="M29.61981,39.87672c0,1.23335,0,2.43042-.07255,3.26474.1451,0,.36275-.03627.50785-.03627.18138,0,.32648.03627.50785.03627a21.94958,21.94958,0,0,1-.07255-2.43041c0-.7255,0-1.95884.07255-2.503a2.56941,2.56941,0,0,1-.50785.03628c-.10882,0-.36275-.03628-.50785-.03628a14.62079,14.62079,0,0,1,.07255,1.66864"/><path class="cls-1" d="M33.864,40.67477a1.3463,1.3463,0,0,0,1.23334-1.34217,1.12532,1.12532,0,0,0-.32647-.798,1.50983,1.50983,0,0,0-1.12452-.36275c-.18137,0-1.0157.03627-1.19707.03627-.36275,0-.54412-.03627-.7255-.03627.03628.94314.03628,1.01569.03628,1.95884,0,1.37845,0,1.55982-.07255,2.97454a2.23044,2.23044,0,0,1,.50785-.03628c.18137,0,.32647.03628.47157.03628,0-.18138-.03627-1.12452-.03627-1.3059V40.7836H32.812c.399.54412.83432,1.16079,1.19707,1.74119.10883.18137.25392.4353.36275.5804a2.7524,2.7524,0,0,1,.5804-.03628c.25392,0,.43529.03628.653.03628-.4353-.5804-.653-.83433-1.19708-1.63237-.10882-.1451-.25392-.399-.36274-.54412Zm-1.1608-2.06766c.10883,0,.36275-.03628.50785-.03628a.99019.99019,0,0,1,.653.18138.81962.81962,0,0,1,.2902.76177.90958.90958,0,0,1-.97942.97942,2.23048,2.23048,0,0,1-.50785-.03628v-1.85Z"/><path class="cls-1" d="M37.63655,41.43654c-.32647-1.0157-.798-2.39414-1.01569-3.22846a2.39525,2.39525,0,0,1-.50785.03627c-.18138,0-.4353-.03627-.54412-.03627.2902.76177.54412,1.451.72549,1.99512.32648.94314.54413,1.59609.79805,2.35786l.18137.54412a.90163.90163,0,0,1,.2902-.03627,1.02106,1.02106,0,0,1,.2902.03627c.10883-.36274.25393-.83432.36275-1.12452.2902-.83432.32648-.94314.68922-1.95884l.21765-.5804c.07255.21765.21765.5804.2902.83433.07255.21765.4353,1.30589.54413,1.55982.10882.32647.1451.399.399,1.26962.07255,0,.21765-.03628.32647-.03628s.18138.03628.2902.03628c.2902-.8706.2902-.94315.68922-2.10395.399-1.12452.65295-1.77746,1.052-2.82943a1.00446,1.00446,0,0,1-.32648.03627c-.1451,0-.25392-.03627-.32647-.03627-.25393.94314-.399,1.37844-.5804,1.99511-.32647,1.0157-.399,1.12452-.5804,1.66864-.21765-.61667-.47157-1.23334-.65294-1.88629-.10883-.36275-.54413-1.77746-.54413-1.81374a.90048.90048,0,0,1-.32647.03628c-.1451,0-.21765-.03628-.32648-.03628-.21764.8706-.97942,2.97454-1.052,3.19219l-.18137.47157Z"/><path class="cls-1" d="M44.85525,41.14634c-.21765,0-.4353.03628-.65295.03628-.25392,0-.50785-.03628-.76177-.03628l.7255-1.77746Zm.83432,1.99512c.1451,0,.32647-.03627.54412-.03627s.47158.03627.54413.03627c-.32648-.68922-.798-1.77747-1.08825-2.39414-.25392-.61667-.68922-1.59609-1.052-2.57551a.46015.46015,0,0,1-.21765.03627.70824.70824,0,0,1-.25392-.03627c-.18138.5804-.5804,1.52354-1.3059,3.15591l-.83432,1.85c.10883,0,.21765-.03628.32647-.03628s.25393.03628.36275.03628c.10883-.399.36275-1.0157.5804-1.55982.2902,0,.5804-.03628.8706-.03628a7.28409,7.28409,0,0,1,.90687.03628l.2902.76177Z"/><path class="cls-1" d="M48.70038,41.21889a.31354.31354,0,0,1,.10883-.21765c.2902-.50784.5804-1.052.90687-1.55982.10883-.18137.61667-1.01569.7255-1.19707a.62355.62355,0,0,1-.2902.03628c-.1451,0-.2902-.03628-.4353-.03628a19.08923,19.08923,0,0,1-1.23334,2.43042c-.61668-1.052-.8706-1.63237-1.26962-2.43042a3.319,3.319,0,0,1-.5804.03628,3.759,3.759,0,0,1-.5804-.03628c.36275.61668.97942,1.63237,1.34217,2.249l.4353.7255c0,.4353-.03628,1.37845-.03628,1.95884.1451,0,.32648-.03627.47158-.03627.18137,0,.32647.03627.50785.03627-.03628-.65295-.03628-1.052-.03628-1.66864v-.2902Z"/><path class="cls-1" d="M50.8406,42.05322a2.12265,2.12265,0,0,1-.18137.798,2.7137,2.7137,0,0,0,1.34216.36275,1.59986,1.59986,0,0,0,1.81375-1.55982,1.29994,1.29994,0,0,0-.36275-.94315,2.18338,2.18338,0,0,0-.97942-.50784c-.61667-.25393-1.0157-.399-1.0157-.90687a.74508.74508,0,0,1,.83432-.76178.92092.92092,0,0,1,.94315.61668h.10883a3.65412,3.65412,0,0,1,.21764-.68923,2.76662,2.76662,0,0,0-1.19707-.2902c-1.30589,0-1.66864.79805-1.66864,1.451a1.24368,1.24368,0,0,0,.90687,1.26962c.21765.07254.54412.21764.7255.2902a.87615.87615,0,0,1,.5804.83432.886.886,0,0,1-.94315.90687c-.4353,0-.798-.10883-1.12452-.83432h0Z"/><path class="cls-2" d="M10.93826,28.77662c0-5.44123,2.902-6.89222,5.11476-6.89222,3.51866,0,5.07848,2.93826,5.07848,6.0579a8.79451,8.79451,0,0,1-1.08825,4.82455,4.73679,4.73679,0,0,1-3.954,2.1765c-3.99023,0-5.151-3.80887-5.151-6.16673m10.73736,11.1001a19.28137,19.28137,0,0,1,2.39414-1.34216l-4.86083-3.01082c3.01081-1.052,4.86083-3.73631,4.86083-7.36379,0-5.18731-3.954-7.3638-7.98047-7.3638C11.73631,20.79615,8,23.22657,8,28.6678a7.27715,7.27715,0,0,0,2.06767,5.1873A7.91908,7.91908,0,0,0,16.053,36.03159a4.86212,4.86212,0,0,0,.72549-.03627l4.89711,3.8814"/><path class="cls-2" d="M34.11789,29.71977c-.65294.03627-1.30589.07255-1.99511.07255-.76177,0-1.48727-.07255-2.249-.07255l2.21276-5.29613Zm2.43042,6.02162a15.19423,15.19423,0,0,1,1.59609-.1451,15.02373,15.02373,0,0,1,1.66865.1451c-.97942-2.10394-2.39414-5.3324-3.22847-7.21869-.76177-1.81375-2.06766-4.82456-3.11963-7.76282a3.05413,3.05413,0,0,1-.653.10882,2.5135,2.5135,0,0,1-.7255-.10882,94.0294,94.0294,0,0,1-3.954,9.43146l-2.46669,5.55005a7.017,7.017,0,0,1,.97942-.1451,4.603,4.603,0,0,1,1.052.1451,43.91157,43.91157,0,0,1,1.74119-4.67946c.8706-.03627,1.74119-.07255,2.57551-.07255.94315,0,1.85.03628,2.75689.07255l.90687,2.28532Z"/><path class="cls-2" d="M46.12487,24.82266c0-.83432.03627-1.63237.03627-2.43041,1.48727,0,3.01082.03627,4.28044.1451a3.77115,3.77115,0,0,1-.10883-.76178,4.73867,4.73867,0,0,1,.10883-.83432c-2.06767.10883-3.954.1451-5.7677.1451-1.66865,0-4.06279-.03627-5.76771-.1451a2.98046,2.98046,0,0,1,0,1.5961c1.08825-.10883,3.15591-.1451,3.37357-.1451H43.368c.03628.83432.03628,1.59609.03628,2.39414l.03627,6.02162c0,1.63237-.1451,3.301-.21765,4.93338.76177-.07255,1.08825-.1451,1.451-.1451.25392,0,.94314.07255,1.55982.1451a22.001,22.001,0,0,1-.1451-2.93826V24.82266Z"/><path class="cls-2" d="M58.09557,29.71977c-.653.03627-1.3059.07255-1.99512.07255-.76177,0-1.48727-.07255-2.249-.07255l2.21277-5.29613Zm2.46669,6.02162a15.19423,15.19423,0,0,1,1.59609-.1451,15.02373,15.02373,0,0,1,1.66865.1451c-.97942-2.10394-2.39415-5.3324-3.22846-7.21869-.76178-1.81375-2.06767-4.82456-3.11964-7.76282a2.27779,2.27779,0,0,1-.68922.10882,2.5135,2.5135,0,0,1-.7255-.10882,94.03041,94.03041,0,0,1-3.954,9.43146L49.6798,35.74139a7.017,7.017,0,0,1,.97942-.1451,4.6029,4.6029,0,0,1,1.052.1451c.36275-1.23334,1.052-3.01081,1.7412-4.67946.8706-.03627,1.74119-.07255,2.57551-.07255.94315,0,1.85.03628,2.75689.07255l.90688,2.28532Z"/><path class="cls-2" d="M72.49669,28.41387c1.95884-.36275,3.73631-1.59609,3.73631-3.99023a3.557,3.557,0,0,0-.97942-2.43042,4.50849,4.50849,0,0,0-3.37356-1.052c-.50785,0-3.01082.10882-3.55494.10882-1.08824,0-1.66864-.07255-2.14021-.10882.14509,2.79316.14509,3.08336.14509,5.9128,0,4.17161-.03627,4.64318-.18137,8.88734a9.841,9.841,0,0,1,1.48727-.1451,8.53049,8.53049,0,0,1,1.451.1451c0-.54412-.07254-3.33728-.07254-3.954V28.74034h.50784c1.1608,1.63237,2.503,3.51866,3.59121,5.22358.32647.50785.79805,1.3059,1.12452,1.77747a11.59922,11.59922,0,0,1,1.7412-.1451,14.85356,14.85356,0,0,1,1.92256.1451c-1.34216-1.70492-1.92256-2.46669-3.62748-4.86083-.32647-.47157-.798-1.16079-1.12452-1.63237ZM68.978,22.13832c.32648-.03627,1.12453-.10882,1.52355-.10882a3.19718,3.19718,0,0,1,1.99511.54412,2.485,2.485,0,0,1,.90687,2.249,2.775,2.775,0,0,1-2.93826,2.97454c-.54412,0-1.08825-.03627-1.48727-.07255V22.13832Z"/><path class="cls-3" d="M104.70875,28.45015a24.66847,24.66847,0,0,1-4.752.36275,5.34,5.34,0,0,1-1.12452-.798,37.99551,37.99551,0,0,1,5.87653.4353"/><path class="cls-3" d="M102.71364,23.77069a22.45593,22.45593,0,0,1-3.99024.32647c.32647-.18137.68922-.399,1.052-.58039a10.33982,10.33982,0,0,1,2.93827.25392"/><path class="cls-3" d="M85.30171,33.8551c-1.08825,0-2.0314.03627-2.75689.03627-1.052,0-1.92257-.32647-1.92257-.72549s.87059-.7255,1.92257-.7255c.94314,0,2.21276,0,3.7.03627-.5804.83433-.83432,1.3059-.87059,1.34217a.12662.12662,0,0,0-.07255.03628"/><path class="cls-3" d="M85.88211,34.87079a8.98075,8.98075,0,0,0,1.16079,1.19708s.18138.25392.68922.03627a3.1549,3.1549,0,0,0,1.48727-1.19707c1.48727.03627,3.08336.07255,4.60691.10882.14509.18138.399.5804.72549,1.052-4.3167.10882-9.03243.18137-11.42657.18137-1.0157,0-1.81375-.32647-1.81375-.68922,0-.399.79805-.68923,1.81375-.68923.72549-.03627,1.66864-.03627,2.75689,0h0"/><path class="cls-3" d="M84.21346,38.462c-.90687,0-1.59609-.2902-1.59609-.61668s.7255-.61667,1.59609-.61667c2.35787,0,7.18242.07255,11.31775.18138.18138.2902.399.58039.5804.83432-4.24415.1451-9.43146.21765-11.89815.21765"/><path class="cls-3" d="M97.92536,40.42085c-3.48239.1451-9.43146.25392-11.93443.25392-.68922,0-1.26962-.21765-1.26962-.47157s.5804-.47158,1.26962-.47158c2.35786,0,7.94419.10883,11.46285.21765l.47158.47158"/><path class="cls-3" d="M88.89292,41.72674c2.03139,0,8.27067.1451,8.27067.32648s-6.23928.32647-8.27067.32647c-.399,0-.7255-.1451-.7255-.32647s.32648-.32648.7255-.32648"/><path class="cls-3" d="M88.89292,29.13937c-2.57552.03627-4.8971.07255-6.38438.07255-1.052,0-1.92256-.32648-1.92256-.7255s.87059-.7255,1.92256-.7255c1.7412,0,4.57064.03628,7.654.10883a13.97724,13.97724,0,0,0-1.26962,1.26962"/><path class="cls-3" d="M101.55285,25.83836a10.42231,10.42231,0,0,1,2.46668.25392,11.07211,11.07211,0,0,1-2.93826.2902,1.61515,1.61515,0,0,0,.47158-.54412"/><path class="cls-3" d="M83.12522,26.7815c-1.0157,0-1.81375-.32647-1.81375-.68922,0-.399.79805-.68922,1.81375-.68922,2.06766,0,5.804.03627,9.54028.1451-.47157.399-.90687.76177-1.30589,1.16079-3.301.03628-6.42065.07255-8.23439.07255"/><path class="cls-3" d="M94.29787,24.206c-3.84514.10882-7.98047.1451-10.12068.1451-.90687,0-1.59609-.2902-1.59609-.61667s.7255-.61668,1.59609-.61668c2.35787,0,7.18242.07255,11.28148.18138a6.97472,6.97472,0,0,0-.61667.47157c-.1451.1451-.36275.2902-.54413.4353"/><path class="cls-3" d="M86.0272,21.8844c-.68922,0-1.26962-.21765-1.26962-.47158s.5804-.47157,1.26962-.47157c2.64807,0,9.21381.10883,12.5511.2902l-.65294.4353c-3.48239.10882-9.43146.21765-11.89816.21765"/><path class="cls-3" d="M82.32717,31.56978c-1.08825,0-1.95884-.32647-1.95884-.76177,0-.399.87059-.76177,1.95884-.76177,1.37845,0,3.40983.03627,5.69515.07255-.4353.50785-.798.97942-1.12452,1.41472-1.85,0-3.44611.03627-4.57063.03627"/><path class="cls-3" d="M88.16742,19.52653c0-.18137.32648-.32647.7255-.32647,2.03139,0,8.27067.1451,8.27067.32647s-6.23928.32648-8.27067.32648c-.399.03627-.7255-.1451-.7255-.32648"/><path class="cls-2" d="M104.9264,30.26389v1.12452c-3.62748.1451-7.07359.36275-7.07359.61667s3.37355.47157,6.96477.61667c-.07255.399-.14509.83432-.25392,1.23335-3.51867.1451-6.81968.36275-6.81968.58039s3.04709.4353,6.45693.5804a7.86853,7.86853,0,0,1-.54413,1.26962c-2.902.1451-5.3324.32648-5.3324.54412,0,.18138,2.10394.36275,4.752.50785a4.619,4.619,0,0,1-.47156.68923c-.18138.25392-.36275.47157-.54413.72549-1.66864.10883-2.79316.25393-2.79316.4353,0,.1451.79805.25392,2.06767.36275a10.96119,10.96119,0,0,1-2.4667,1.85,21.66019,21.66019,0,0,1-2.06766-2.10394c-.83432-1.01569-2.57552-3.66376-3.01081-4.24415-.399-.5804-.68922-.76178-1.1608-.5804a6.917,6.917,0,0,1-1.63237.32647c-.21765,0-.36275-.07255.03628-.25392a5.36788,5.36788,0,0,0,2.68434-2.35787,6.23613,6.23613,0,0,0,.10882-3.99023,2.97506,2.97506,0,0,1-.94315,1.70492,3.73492,3.73492,0,0,0-.5804-2.93826l-.32647,1.451s-.18137,0-.68922.399a1.828,1.828,0,0,0-.61667,1.0157.98674.98674,0,0,0,.83432-.21765,18.14979,18.14979,0,0,1-2.06766,4.96965,3.57151,3.57151,0,0,1-1.7412,1.55982c-.50784.21765-.68922-.03627-.68922-.03627a8.98009,8.98009,0,0,1-1.16079-1.19707s-.03628-.03628.07255-.03628a1.37963,1.37963,0,0,0,.79805-.61667c.10882-.21765.10882-.36275.03627-.36275s-.1451.1451-.65295.47158c-.47157.32647-.72549.10882-.87059-.07255-.1451-.1451,0-.2902.07255-.399s2.64806-4.93338,9.504-10.01186c8.99616-6.6383,14.72758-8.452,15.05407-8.56087.21765-.07255.5804-.18137.65294-.10882.07255.10882.1451.18137.10882.2902,0,.10882-.07255.18137-.47157.36275a69.00414,69.00414,0,0,0-9.68539,5.36867A45.12658,45.12658,0,0,0,94.87827,24.605c-.21765.1451-.07255.32648.07255.25393,4.752-3.15592,10.30206-5.29613,16.46878-7.0736.29019-.07255.47157-.07255.50785-.03628A.30607.30607,0,0,1,112,18.003c0,.10882-.07255.18137-.32647.25392-6.602,2.46669-11.49913,4.752-14.61877,6.856,0,0-.32647.18137-.32647.4353,0,.07255.18138.10882.18138.10882,1.55981.03628,3.66376.10883,4.67945.18138,0,0-.14509.50785-1.08824.90687a4.73825,4.73825,0,0,1-2.10394.25392.18869.18869,0,0,0-.1451.32648c0,.07255,1.451,2.39414,6.67456,2.93826"/><path class="cls-2" d="M57.00732,42.34341h-.87059s-.10883-.54412.21765-.76177a4.29246,4.29246,0,0,1,.68922-.36275v1.12452ZM61.21521,40.312a7.16429,7.16429,0,0,0-.8706.61667c-.32647.2902.07255.399.07255.399v1.01569H57.84165V38.78848s-.94315.87059-1.0157.97942c-.10883.10882.21765.21765.21765.21765l-.03628.32647a7.62476,7.62476,0,0,0-.83432.50785c-.4353.2902-.79805.68922-.79805.94314s-.10882,1.3059-.10882,1.3059h5.94908V40.312m-5.3324-1.30589c.2902,0,.50784-.10883.50784-.36275,0-.21765-.1451-.399-.50784-.399-.32648,0-.399.1451-.399.399,0,.2902.10883.36275.399.36275m1.08824,0c.2902,0,.50785-.10883.50785-.36275,0-.21765-.1451-.399-.50785-.399-.32647,0-.399.1451-.399.399,0,.2902.10882.36275.399.36275m1.66864,4.42553c-.32647,0-.399.1451-.399.399s.10882.36275.399.36275.50785-.10883.50785-.36275c0-.21765-.1451-.399-.50785-.399m1.1608,0c-.32647,0-.399.1451-.399.399s.10882.36275.399.36275.50785-.10883.50785-.36275a.43773.43773,0,0,0-.50785-.399m12.8413-4.49808c.2902,0,.50784-.10883.50784-.36275,0-.21765-.1451-.399-.50784-.399-.32648,0-.399.1451-.399.399-.03627.2902.10883.36275.399.36275m1.12452,0c.2902,0,.50784-.10883.50784-.36275,0-.21765-.14509-.399-.50784-.399-.32647,0-.399.1451-.399.399,0,.2902.10883.36275.399.36275m3.15591.10882c-.1451.1451-.10883.2902.07255.2902v3.80886h.83432v-4.752s-.76177.50784-.90687.65294m-3.40984,2.14022h-.54412c0-.2902.54412-.47158.54412-.47158Zm-3.59121.61667v.54412h-4.752v-.83432c.10883-.32647.32648-.36275.65295-.36275H69.3045c.7255,0,.61667.399.61667.65295M75.5075,39.3326v3.04709H74.383V39.6228s-.21765.07255-.54412.21765-1.451.61667-1.451,1.23335v.72549h1.16079v.5804H70.79176V41.763a1.38978,1.38978,0,0,0-1.451-1.37845H66.14858a1.34456,1.34456,0,0,0-.97942.2902V38.35318s-.50785.36275-.8706.61667c-.36274.2902,0,.47158,0,.47158V42.416h-1.052l-.03628-2.53924s-.7255.54413-.94315.68923-.10883.2902.1451.2902c0,0-.03628,1.88629-.03628,2.32159s-.36275.94314-1.16079.7255c0,0-.25393.03627-.03628.21764a1.1175,1.1175,0,0,0,.7255.32648A1.24217,1.24217,0,0,0,63.174,43.17774H76.34181V38.38946s-.76178.50784-.94315.65294c-.14509.1451-.10881.2902.10884.2902"/></svg>