<svg xmlns="http://www.w3.org/2000/svg" viewBox="0 0 137.13 44"><defs><style>.cls-1{fill:#bed600;}.cls-2{fill:#75777a;}.cls-3{fill:#fefefe;}</style></defs><title>Asset 6</title><g id="Layer_2" data-name="Layer 2"><g id="aw"><g id="M3baTl.tif"><path class="cls-1" d="M0,20.1a20.09,20.09,0,0,0,.43-2.44A22,22,0,0,1,18.09.35,21.82,21.82,0,0,1,43.48,17.46c1.83,9.07-1.17,16.59-8.51,22.26a20.72,20.72,0,0,1-11.06,4.17c-.1,0-.2,0-.24.11H20.24c-.08-.16-.23-.1-.35-.12a21,21,0,0,1-5.38-1.22A21.78,21.78,0,0,1,.42,26.26,17.44,17.44,0,0,0,0,24Zm19.84-9.59c-1.32,0-2.75.07-4.17.23a9.15,9.15,0,0,0-4.91,1.92,6.15,6.15,0,0,0-.94,8.66,13.09,13.09,0,0,0,2.86,2.33,22.38,22.38,0,0,1,3.64,2.54,2.28,2.28,0,0,1,0,3.4,4.63,4.63,0,0,1-3,1.25,17.26,17.26,0,0,1-5.5-.42c-.35-.09-.55-.05-.67.35-.27.87-.56,1.73-.91,2.57-.19.47-.05.61.38.71A20.78,20.78,0,0,0,14,34.5a9.4,9.4,0,0,0,6.14-3.13,6.05,6.05,0,0,0,.41-7.67,13,13,0,0,0-3.35-2.82,25.86,25.86,0,0,1-3.29-2.34,2.28,2.28,0,0,1,.6-3.64,6.45,6.45,0,0,1,2.32-.51l4.69,0c.27,0,.5,0,.63-.34.39-1,.81-2.08,1.24-3.11.14-.32,0-.4-.28-.39Zm11.49,3.75-.28.73q-2.82,7.08-5.65,14.16c-.15.38-.09.48.32.47,1.18,0,2.37,0,3.55,0a.49.49,0,0,0,.54-.37q3.56-8.92,7.12-17.84c.27-.7.13-.9-.62-.9-3.34,0-6.67,0-10,0a.6.6,0,0,0-.65.47c-.35.92-.73,1.83-1.09,2.75-.25.62-.25.63.41.62C27.06,14.34,29.16,14.38,31.33,14.26Z"/><path class="cls-2" d="M48.8,29.62c.42-1.05.81-2,1.21-3q3.16-7.8,6.32-15.6a.66.66,0,0,1,.74-.51c1.11,0,2.21,0,3.32,0a.53.53,0,0,1,.59.38Q64.6,20,68.22,29.19c0,.12.08.25.14.43H64.21c-.29,0-.32-.23-.39-.42-.39-1-.78-2.06-1.15-3.1a.5.5,0,0,0-.56-.41c-2.36,0-4.73,0-7.09,0a.51.51,0,0,0-.57.41c-.36,1-.75,2.07-1.13,3.11-.07.2-.11.41-.39.41Zm9.71-15.26-2.84,8.11h5.76Z"/><path class="cls-2" d="M118.91,23.74h-4.58c-.26,0-.48,0-.43.37a3.46,3.46,0,0,0,4.31,3,2.38,2.38,0,0,0,1.72-1.29.52.52,0,0,1,.56-.34c.92,0,1.83,0,2.75,0,.49,0,.47.19.35.52a5.49,5.49,0,0,1-4,3.75,7.38,7.38,0,0,1-7.17-1.5,6.91,6.91,0,0,1-2.18-4.76,7.62,7.62,0,0,1,1.46-5.5,6.55,6.55,0,0,1,6.65-2.5c2.78.44,4.34,2.26,5.12,4.85a14.83,14.83,0,0,1,.45,2.81c0,.47-.08.63-.58.62C121.88,23.72,120.39,23.74,118.91,23.74ZM117,21.21c.84,0,1.67,0,2.51,0,.49,0,.63-.11.51-.61a2.9,2.9,0,0,0-3-2.39,3.05,3.05,0,0,0-3,2.67c-.06.37.13.32.34.32Z"/><path class="cls-2" d="M99.71,17.53a5.09,5.09,0,0,1,2.79-2c3.33-.77,6.06,1.12,6.19,4.73.1,3,0,6,0,9,0,.35-.16.41-.46.4-.91,0-1.82,0-2.74,0-.44,0-.54-.14-.53-.56,0-2.44,0-4.87,0-7.31,0-.23,0-.46,0-.69a2.32,2.32,0,0,0-1.71-2.46A2.73,2.73,0,0,0,100.2,20a3.82,3.82,0,0,0-.4,1.82c0,2.4,0,4.8,0,7.2,0,.46-.1.63-.59.61-.86,0-1.72,0-2.57,0-.4,0-.57-.07-.57-.53q0-6.45,0-12.91c0-.38.11-.49.49-.48.89,0,1.79,0,2.68,0,.4,0,.49.14.47.49S99.71,17.09,99.71,17.53Z"/><path class="cls-2" d="M126.5,25.14a3,3,0,0,0,.52,0c.73-.09,1.28,0,1.47.9a1.76,1.76,0,0,0,1.21,1.14,4.33,4.33,0,0,0,3.07,0,1.36,1.36,0,0,0,1-1.32,1.29,1.29,0,0,0-1-1.24,25.2,25.2,0,0,0-3.23-.74,13.56,13.56,0,0,1-1.86-.53,3.46,3.46,0,0,1-2.46-3,4,4,0,0,1,1.78-4,8,8,0,0,1,7.94.16,4.68,4.68,0,0,1,1.81,2.95c.07.36,0,.56-.44.54-.8,0-1.6,0-2.4,0-.28,0-.43,0-.5-.37A1.92,1.92,0,0,0,131.64,18a4.29,4.29,0,0,0-2.25.16,1.38,1.38,0,0,0-1,1.29c0,.64.47.92,1,1.1,1.16.39,2.38.48,3.56.79a14.11,14.11,0,0,1,1.53.46,3.6,3.6,0,0,1,2.58,3.1,4,4,0,0,1-1.91,4.15,7.77,7.77,0,0,1-4.91.93,7.22,7.22,0,0,1-3-.88,4.75,4.75,0,0,1-2.41-3.62c0-.29,0-.38.31-.37C125.59,25.15,126,25.14,126.5,25.14Z"/><path class="cls-2" d="M88.29,20.11c0,3,0,6,0,9,0,.46-.13.59-.57.57-.88,0-1.75,0-2.63,0-.35,0-.49-.07-.49-.46q0-9.1,0-18.22c0-.35.1-.46.45-.45.91,0,1.83,0,2.74,0,.42,0,.5.14.5.53C88.28,14.05,88.29,17.08,88.29,20.11Z"/><path class="cls-2" d="M78.91,17.88c.24-.34.45-.7.71-1a3.32,3.32,0,0,1,3.25-1.23c.19,0,.32.09.32.31v2.68c0,.27-.14.29-.37.29-2.39-.06-3.76,1.18-3.83,3.59-.06,2.17,0,4.34,0,6.51,0,.51-.14.65-.64.63-.87-.05-1.75,0-2.63,0-.33,0-.46-.08-.46-.44q0-6.53,0-13c0-.32.1-.42.42-.42.92,0,1.83,0,2.74,0,.3,0,.41.09.4.39,0,.57,0,1.14,0,1.7Z"/><path class="cls-2" d="M94.06,22.68c0,2.13,0,4.27,0,6.4,0,.41-.09.58-.54.56-.91,0-1.82,0-2.74,0-.35,0-.45-.11-.45-.46q0-6.48,0-13c0-.4.16-.46.5-.45.9,0,1.79,0,2.69,0,.43,0,.54.11.54.54C94.05,18.41,94.06,20.55,94.06,22.68Z"/><path class="cls-2" d="M73.2,22.73c0,2.1,0,4.19,0,6.29,0,.52-.16.64-.64.62-.88,0-1.76,0-2.63,0-.32,0-.43-.09-.42-.42v-13c0-.3,0-.44.4-.44q1.42,0,2.85,0c.39,0,.43.15.43.48C73.19,18.39,73.2,20.56,73.2,22.73Z"/><path class="cls-2" d="M92.22,13.82H90.68c-.24,0-.34-.08-.33-.33,0-.87,0-1.74,0-2.62,0-.26.09-.37.36-.36h3c.25,0,.34.1.34.34,0,.89,0,1.78,0,2.67,0,.27-.15.31-.36.3Z"/><path class="cls-2" d="M71.36,13.82c-.5,0-1,0-1.49,0-.27,0-.36-.09-.35-.36,0-.86,0-1.71,0-2.57,0-.29.08-.4.38-.39h2.91c.3,0,.4.1.39.39,0,.86,0,1.71,0,2.57,0,.27-.09.36-.36.35Z"/><path class="cls-3" d="M19.84,10.51h3.25c.32,0,.42.07.28.39-.43,1-.85,2.07-1.24,3.11-.13.35-.36.33-.63.34l-4.69,0a6.45,6.45,0,0,0-2.32.51,2.28,2.28,0,0,0-.6,3.64,25.86,25.86,0,0,0,3.29,2.34,13,13,0,0,1,3.35,2.82,6.05,6.05,0,0,1-.41,7.67A9.4,9.4,0,0,1,14,34.5a20.78,20.78,0,0,1-7.37-.45c-.43-.1-.57-.24-.38-.71.35-.84.64-1.7.91-2.57.12-.4.32-.44.67-.35a17.26,17.26,0,0,0,5.5.42,4.63,4.63,0,0,0,3-1.25,2.28,2.28,0,0,0,0-3.4,22.38,22.38,0,0,0-3.64-2.54,13.09,13.09,0,0,1-2.86-2.33,6.15,6.15,0,0,1,.94-8.66,9.15,9.15,0,0,1,4.91-1.92C17.09,10.58,18.52,10.54,19.84,10.51Z"/><path class="cls-3" d="M31.33,14.26c-2.17.12-4.27.08-6.36.08-.66,0-.66,0-.41-.62.36-.92.74-1.83,1.09-2.75a.6.6,0,0,1,.65-.47c3.34,0,6.67,0,10,0,.75,0,.89.2.62.9q-3.55,8.93-7.12,17.84a.49.49,0,0,1-.54.37c-1.18,0-2.37,0-3.55,0-.41,0-.47-.09-.32-.47Q28.24,22.07,31.05,15Z"/></g></g></g></svg>