<svg id="aw" xmlns="http://www.w3.org/2000/svg" viewBox="0 0 120 60"><defs><style>.cls-1{fill:#a39161;}.cls-2{fill:#221f72;}.cls-3{fill:#004990;}</style></defs><title>ai_template</title><path class="cls-1" d="M21.62281,19.79936a7.22328,7.22328,0,0,1,4.35577,1.26143A5.57252,5.57252,0,0,1,27.30729,22.262c-.06207.03013-.10663-.01575-.153-.037a12.71956,12.71956,0,0,0-2.359-.85681,7.61411,7.61411,0,0,0-2.099-.19881c-.02474.00111-.05419-.00736-.0778.03044a9.41142,9.41142,0,0,1,1.008.4024,7.17407,7.17407,0,0,1,2.075,1.50511,5.60963,5.60963,0,0,1,1.44939,2.5358c.013.05187.04682.1038.0103.1692-.08008-.00077-.11186-.07009-.15393-.119a11.65136,11.65136,0,0,0-2.56321-2.2679,6.44332,6.44332,0,0,0-1.56442-.74777.97222.97222,0,0,0-.335-.07066c.01105.09661.08312.13537.13458.18267a6.71906,6.71906,0,0,1,1.5164,2.11511,5.55349,5.55349,0,0,1,.51045,1.69833,4.58325,4.58325,0,0,1,.00437.87886.38878.38878,0,0,1-.08379.24058c-.06467-.13938-.12065-.256-.17331-.37416a11.20153,11.20153,0,0,0-1.6274-2.62753,5.68031,5.68031,0,0,0-1.11247-1.04225.31879.31879,0,0,0-.19621-.08973A6.23349,6.23349,0,0,1,22.069,26.003a5.10075,5.10075,0,0,1-.33777,2.41578c-.09937-.02385-.07731-.09155-.08344-.14065a14.95064,14.95064,0,0,0-.459-2.29826,7.804,7.804,0,0,0-.62253-1.5752,1.91993,1.91993,0,0,0-.24233-.36377,1.34822,1.34822,0,0,0-.081.44264c-.05031.3522-.0854.70658-.12551,1.06022-.00629.0554-.00855.11139-.00993.16717-.00169.06779.0159.12767.09145.14507.13492.03107.12556.133.113.23154-.031.2423-.06667.484-.1002.726-.03834.27658-.07477.55344-.11552.82966-.013.08808-.02773.165.0904.195.10084.02565.088.115.07943.19064-.04384.38832-.09012.77637-.1364,1.16441-.01652.1386-.03613.27682-.053.41538-.0095.07822-.01465.15433.07754.19482.08256.03626.07293.10889.06272.18q-.10563.73588-.211,1.4718c-.00693.04836-.01341.09681-.0215.145a.22421.22421,0,0,0,.14569.26681c.18354.0854.36213.18147.54229.27405.04958.02548.0982.05317.14543.08276a.06613.06613,0,0,1,.037.06924.06338.06338,0,0,1-.05845.05091,1.16516,1.16516,0,0,1-.1457.0114q-.9744.00108-1.94881-.00048c-.074-.00019-.1844.02611-.20652-.05571-.02769-.10243.0937-.12064.16211-.15784.15947-.08673.32338-.16524.48493-.24819.2105-.10809.22512-.13226.1924-.35763-.05919-.40758-.12146-.81471-.18225-1.222-.01546-.10357-.02981-.20729-.04543-.31083-.01309-.08677-.0174-.16679.08385-.21081.0728-.03165.06452-.1.05711-.16354q-.0898-.76937-.18-1.53867c-.01269-.10916-.05111-.22706.11114-.26883.07249-.01866.0569-.08592.04978-.14112-.03572-.27691-.071-.55387-.10853-.83055-.0328-.24206-.06929-.48362-.1022-.72567-.01639-.12057-.03373-.24031.13378-.27885.06476-.01491.07058-.08317.0661-.13966-.00936-.11815-.02439-.23586-.03758-.3537q-.06638-.59294-.13346-1.18581c-.00382-.03355-.00263-.07136-.05134-.09395-.08262.04025-.11645.1285-.16071.20311a7.26734,7.26734,0,0,0-.69691,1.7016A14.53293,14.53293,0,0,0,17.675,28.316c-.004.03389-.00311.07-.03967.09423-.06654.00592-.07218-.05363-.08846-.09459a3.94721,3.94721,0,0,1-.25322-1.01338A7.9642,7.9642,0,0,1,17.4565,24.598a4.76124,4.76124,0,0,1,.35211-1.00323.22745.22745,0,0,0-.17664.06945,6.25464,6.25464,0,0,0-1.34,1.3152,11.55735,11.55735,0,0,0-1.4967,2.53741c-.02226.05113-.04582.10179-.07133.15134-.00511.00992-.0219.01383-.048.02909a.80869.80869,0,0,1-.06928-.33768,4.89621,4.89621,0,0,1,.51445-2.43307A6.66554,6.66554,0,0,1,16.64553,22.792a.38889.38889,0,0,0,.13777-.16253c-.04967-.04726-.10278-.01618-.152-.00361a5.72865,5.72865,0,0,0-1.38642.58354,10.26838,10.26838,0,0,0-1.909,1.42521A14.38423,14.38423,0,0,0,12.30784,25.707a.99473.99473,0,0,1-.10622.09929c-.00767.00646-.02543.00094-.05156.00094a.91959.91959,0,0,1,.05977-.3031,5.55779,5.55779,0,0,1,1.14835-2.09682A7.16235,7.16235,0,0,1,16.60886,21.237a.19648.19648,0,0,0,.09468-.05763c-.05788-.00408-.11569-.00956-.17364-.012a8.2698,8.2698,0,0,0-3.44928.66679c-.3046.12181-.60259.26011-.90449.38879-.048.02044-.09139.067-.1767.032a7.29563,7.29563,0,0,1,5.70248-2.45173,1.75108,1.75108,0,0,0-.85042-.5358,1.46506,1.46506,0,0,1,.75541-.19192,2.15914,2.15914,0,0,1,1.33029.36388c.10118.07134.1222.06185.15057-.06011a2.13736,2.13736,0,0,1,.33426-.82882c.021-.02792.04125-.05649.06388-.083.13837-.16229.21388-.16254.35235-.00355a2.00741,2.00741,0,0,1,.38407.82891c.01766.06506.00449.14243.07791.19571a2.2919,2.2919,0,0,1,2.17424-.24888c-.16719.12628-.34117.1428-.47727.23538A1.12949,1.12949,0,0,0,21.62281,19.79936Z"/><path class="cls-1" d="M20.65324,34.71262c.13661.09761.2758.2.418.29812q.79335.54735,1.58857,1.092c.17274.1182.17786.1201.33833-.01973a5.28506,5.28506,0,0,1,.6567-.51876,1.57292,1.57292,0,0,1,.454-.21107.5102.5102,0,0,1,.42448.04447.30648.30648,0,0,1-.00869.52417c-.14935.09326-.31052.03863-.4199-.14234-.07536-.12467-.076-.12555-.192-.03553a4.0795,4.0795,0,0,0-.39381.34471q-.66479.66878-1.3321,1.335a4.15689,4.15689,0,0,1-.53262.43961.74308.74308,0,0,1-.57065.156.32268.32268,0,0,1-.26412-.30877.302.302,0,0,1,.24561-.29788.29845.29845,0,0,1,.30605.137c.09767.12391.1.12443.21314.01554a7.13347,7.13347,0,0,0,.5261-.56877c.09185-.11.08987-.13279-.0321-.2091-.36707-.22966-.73664-.45531-1.10365-.68506-.37886-.23717-.75878-.47289-1.13211-.71855a.29169.29169,0,0,0-.36193.00239c-.737.46778-1.46854.94451-2.218,1.39252-.13759.08225-.13957.10594-.04357.22094a6.94111,6.94111,0,0,0,.54116.58332c.097.09228.1019.09115.18524-.02a.3083.3083,0,0,1,.29954-.15293.30237.30237,0,0,1,.26122.28476.32212.32212,0,0,1-.26887.32535.74737.74737,0,0,1-.56972-.15967,4.10766,4.10766,0,0,1-.51669-.42609q-.6896-.68844-1.37707-1.379a4.74368,4.74368,0,0,0-.39723-.34081c-.05932-.04781-.11056-.06062-.14082.03219a.30583.30583,0,0,1-.05111.0906.28675.28675,0,0,1-.29226.12318.27382.27382,0,0,1-.23044-.21588.29586.29586,0,0,1,.0973-.3217.47675.47675,0,0,1,.45742-.06787,1.67251,1.67251,0,0,1,.45524.20925,6.1119,6.1119,0,0,1,.65616.51975c.16865.14416.1703.13947.35591.01075q.91251-.63287,1.82591-1.26442c.05587-.03879.12516-.06348.158-.13043-.01262-.06671-.0714-.084-.117-.11139a30.71214,30.71214,0,0,0-3.34443-1.78262,12.47875,12.47875,0,0,0-2.415-.82346,6.08855,6.08855,0,0,0-1.64178-.15946,3.97725,3.97725,0,0,0-.968.16507.47941.47941,0,0,1-.20315.04968c-.02876-.06323.02877-.08627.05869-.11565a2.97828,2.97828,0,0,1,1.68452-.82288,6.01339,6.01339,0,0,1,2.50751.20335,15.71441,15.71441,0,0,1,3.58563,1.55381c.572.32366,1.11927.68609,1.66372,1.05318.18382.124.18673.12554.36746.00086a21.56207,21.56207,0,0,1,3.0752-1.78966,11.22941,11.22941,0,0,1,3.01321-.9973,4.55532,4.55532,0,0,1,2.276.12952,2.81348,2.81348,0,0,1,1.07749.66752c.02838.02868.06767.05143.06977.10068-.03667.04453-.07723.01187-.11176.00035a4.59474,4.59474,0,0,0-2.153-.14037,11.49156,11.49156,0,0,0-3.00915.94154,30.53286,30.53286,0,0,0-3.28848,1.75411C20.74365,34.60785,20.67856,34.62666,20.65324,34.71262Z"/><path class="cls-1" d="M29.38992,35.40526a1.6073,1.6073,0,0,1-.1841.45265,12.22,12.22,0,0,1-1.091,1.71151,11.0951,11.0951,0,0,1-7.35955,4.23506,10.23744,10.23744,0,0,1-1.5021.10226,11.25291,11.25291,0,0,1-4.33786-.90713A11.41483,11.41483,0,0,1,11.022,38.25692a11.21558,11.21558,0,0,1-1.65736-2.3331,11.444,11.444,0,0,1-1.28121-4.05034,10.64686,10.64686,0,0,1-.02707-2.42231,11.596,11.596,0,0,1,.48315-2.35488,10.90494,10.90494,0,0,1,1.34521-2.782c.0284-.042.04673-.10421.12356-.09482.02522.07922-.02866.13365-.06053.19116a11.04108,11.04108,0,0,0-1.2888,3.895A10.58934,10.58934,0,0,0,8.54559,29.954a11.34794,11.34794,0,0,0,1.501,5.51808A11.11646,11.11646,0,0,0,17.44817,40.846a10.39181,10.39181,0,0,0,2.53929.22263,11.10726,11.10726,0,0,0,4.46317-1.09236,11.225,11.225,0,0,0,2.36467-1.53731,11.022,11.022,0,0,0,1.89978-2.08378c.19269-.27454.37769-.55368.544-.8451A.15186.15186,0,0,1,29.38992,35.40526Z"/><path class="cls-1" d="M14.16667,38.02449a1.24454,1.24454,0,0,1-.903-.32067,1.00541,1.00541,0,0,1-.1-.10683.124.124,0,0,1-.02681-.15328c.04281-.06571.10576-.05475.16838-.03363a.29884.29884,0,0,1,.03909.01493,1.22517,1.22517,0,0,0,.97535.01351,6.65871,6.65871,0,0,0,1.38076-.69391c.04765-.02907.09513-.0586.141-.09027a.15256.15256,0,0,1,.22246.02451c.13.13635.26679.26633.395.40433.07834.08433.07321.11751-.03444.17437a6.18317,6.18317,0,0,1-1.94482.74554A2.24617,2.24617,0,0,1,14.16667,38.02449Z"/><path class="cls-1" d="M25.185,38.0259a3.44048,3.44048,0,0,1-1.25358-.27846,8.56688,8.56688,0,0,1-.983-.46416c-.17126-.09145-.1722-.10678-.03147-.25318q.1522-.15836.30828-.313c.13448-.13257.14433-.135.30248-.03478a8.91038,8.91038,0,0,0,.94444.538,3.21043,3.21043,0,0,0,.8874.301,1.07313,1.07313,0,0,0,.59055-.08237c.07466-.0309.16516-.09289.22817-.0044.06835.096-.0181.16958-.08016.23259A1.21866,1.21866,0,0,1,25.185,38.0259Z"/><path class="cls-2" d="M64.51315,26.20166c.00571-.05516-.0366-.07558-.06725-.0997a2.04533,2.04533,0,0,1-.73878-1.27638,3.03872,3.03872,0,0,1-.00188-1.18662,2.26113,2.26113,0,0,1,1.43551-1.70287,3.78249,3.78249,0,0,1,1.156-.27769c.85787-.07547,1.7172-.02113,2.57572-.03466.1657-.00262.19015.02778.193.20043q.00642.3876.00034.77539c-.00276.19526-.02209.21475-.22035.21533-.71953.00209-1.43912-.00367-2.1586.003a3.33862,3.33862,0,0,0-1.19215.1971,1.58194,1.58194,0,0,0-.70611.50616,1.38794,1.38794,0,0,0-.2782.88417,1.58444,1.58444,0,0,0,1.14475,1.64185,3.25722,3.25722,0,0,0,1.07.17544c1.73945.00516,3.47892.00236,5.21839.00227.0419,0,.08381-.00122.12571-.0021a.11726.11726,0,0,0,.12818-.13133c.00092-.06285.00233-.12571.00233-.18856q.00022-1.98048.00024-3.961c.00007-.32.00075-.32026.32826-.32056.31436-.00028.62874-.00135.94308.00048.23837.00139.24895.01342.25239.24769.00082.05588.00021.11178.00021.16766q0,1.93857.00013,3.87712c0,.06286.00114.12572.00261.18857a.10989.10989,0,0,0,.11665.11934c.03486.0019.06982.00255.10473.00256.45408.00016.90816.00132,1.36223-.00044.22232-.00086.23561-.014.23578-.24043q.0015-2.02239.00071-4.04479c.00007-.31327.00074-.31369.31356-.31427q.45057-.00084.90116,0c.30513.00054.30765.00227.30787.30017q.001,1.2365.00021,2.473,0,.7859.00026,1.5718c.00049.24962.00588.2544.2617.25492q.6392.0013,1.2784,0c.25249-.00056.26015-.0072.2603-.2573q.0012-1.99093.00064-3.98189c0-.06983.0013-.13968.00287-.2095a.13764.13764,0,0,1,.15633-.15327c.02793.00037.05588-.00126.08381-.00126.35628-.00009.71256-.00161,1.06883.00053.21805.0013.23285.01879.23755.24315.00117.05586.00035.11177.00035.16765q.00007,2.06432.00053,4.12862a2.95925,2.95925,0,0,0,.05161.68775.9151.9151,0,0,0,.77183.728,1.48545,1.48545,0,0,0,.56106-.0043.903.903,0,0,0,.73962-.68557,1.29146,1.29146,0,0,0,.05109-.35161c.00087-.15367.00519-.30733.00522-.461q.00058-2.91309.00033-5.82616c0-.06986-.00252-.13994.0021-.20952.01049-.15785.03083-.18206.18954-.1835q.57627-.00523,1.15262.00081c.14881.00178.1661.02564.17619.17283.00333.0487.00166.09776.00166.14666q0,2.98644-.001,5.97287a4.3683,4.3683,0,0,1-.04006.773,2.05167,2.05167,0,0,1-1.62672,1.74094,3.73613,3.73613,0,0,1-1.98811-.028,2.006,2.006,0,0,1-1.329-1.06883.2105.2105,0,0,0-.22585-.144c-.0555.00449-.1117.00036-.16759.00036q-8.72877,0-17.45753,0c-.37558,0-.34177-.023-.34714.35717-.00592.41863.00879.83695-.0358,1.25571a2.29089,2.29089,0,0,1-1.79354,2.07471,2.6583,2.6583,0,0,1-.26514.06145.10306.10306,0,0,1-.13789-.11116c-.00386-.13955-.00242-.2793-.00065-.41894a.15344.15344,0,0,1,.12463-.14783.8197.8197,0,0,0,.51947-.63542,2.53561,2.53561,0,0,0,.06943-.64391c-.00008-.51.00116-1.01993.00013-1.52989-.00051-.25209-.00948-.26139-.25727-.26154q-1.8757-.00111-3.75138-.00051c-.318-.00008-.32458-.00095-.314-.31a6.89756,6.89756,0,0,1,1.6291-4.43293,6.19249,6.19249,0,0,1,2.62526-1.77943,7.13951,7.13951,0,0,1,1.29591-.33573c.28449-.04586.29119-.04127.29259.25567.0003.06287.00009.12574.00009.18862q0,2.431,0,4.86212c0,.06287-.0024.12594.00175.18856.00892.13411.02977.15415.16288.16465.03474.00274.06982.00141.10475.00141q1.56132.00011,3.12265-.00081C64.394,26.22409,64.45856,26.2418,64.51315,26.20166Zm-5.09106-2.28189q0-1.00588-.00014-2.01177a1.59129,1.59129,0,0,0-.00424-.1884c-.01286-.10718-.05469-.13707-.15554-.10032a2.42512,2.42512,0,0,0-.44982.22323,4.8953,4.8953,0,0,0-2.2638,3.16582,3.9735,3.9735,0,0,0-.10032,1.03991c.00528.14907.02525.167.17123.17593.02785.00171.05587.00081.08381.00081q1.22592,0,2.45185,0c.0419,0,.08381-.00158.12571-.00179.0964-.00047.138-.05334.13927-.14493.0008-.05587.00189-.11174.0019-.16762Q59.42221,24.91519,59.42209,23.91977Z"/><path class="cls-2" d="M40.9821,23.63051q.00015,1.28843-.00038,2.57684a2.97781,2.97781,0,0,0,.04734.58338.92375.92375,0,0,0,.90284.78413c.08357.00444.1676.00441.25129.00191a.935.935,0,0,0,.96212-.886,6.19778,6.19778,0,0,0,.04278-.68937q-.00428-2.28354-.00135-4.56709c.00007-.3159.001-.31633.30922-.31685q.47138-.0008.94275.00018c.25664.00092.26861.01186.26877.27466q.00126,2.095-.00021,4.19c-.0004.34882.001.69711-.026,1.04626a2.07338,2.07338,0,0,1-1.51878,1.96988,3.45453,3.45453,0,0,1-2.534-.13786,1.80394,1.80394,0,0,1-.89315-.85023.31312.31312,0,0,0-.32966-.19009c-1.30587.005-2.61176.00288-3.91764.00273-.353,0-.359-.00054-.34639-.36027a7.07085,7.07085,0,0,1,1.49491-4.27308,5.90036,5.90036,0,0,1,2.49877-1.84311,6.85065,6.85065,0,0,1,1.57864-.40338c.04135-.00579.08339-.00711.12517-.00913a.1169.1169,0,0,1,.13732.12177c.00449.06959.00525.13951.00528.20929Q40.98225,22.24781,40.9821,23.63051Zm-1.52606.25773q0-.90034,0-1.80068c0-.11167.00162-.22337-.00053-.335-.00369-.19216-.025-.20584-.20869-.12929a2.6652,2.6652,0,0,0-.42752.22046,4.98962,4.98962,0,0,0-2.25922,3.31141,3.81279,3.81279,0,0,0-.06746.89578c.00512.14646.02727.1645.175.1732.03479.00205.06978.00088.10468.00088q1.20393,0,2.40787,0c.0349,0,.06992.0012.10466-.00122.14284-.00995.162-.02961.17-.17893.003-.05569.00124-.11164.00124-.16748Q39.45616,24.88281,39.456,23.88824Z"/><path class="cls-2" d="M64.494,37.69636q0-1.81207-.00017-3.62415c-.00008-.26675-.01026-.2777-.27263-.22365-.23232.04787-.462.10835-.69391.15857-.139.0301-.156.01935-.19162-.11693-.02821-.10789-.0491-.218-.06813-.32793-.03057-.17668-.024-.194.14453-.236.25047-.06243.5017-.12486.75575-.16923a19.67292,19.67292,0,0,1,2.43181-.26952c.38376-.01866.76716-.0421,1.1506-.02942a6.60961,6.60961,0,0,1,3.09454.78734,3.87812,3.87812,0,0,1,2.04475,3.14958,4.22635,4.22635,0,0,1-.24177,1.97563A4.1394,4.1394,0,0,1,70.94114,40.804a5.01953,5.01953,0,0,1-2.24208.75045,24.82635,24.82635,0,0,1-2.96886.10611c-.34861-.00659-.69739-.02239-1.04632-.02854-.15685-.00277-.17789-.02847-.18805-.18588-.004-.06261-.00181-.12565-.00182-.18849Q64.4939,39.477,64.494,37.69636ZM66.1335,36.875q0,.93212.00016,1.86423c.00043.398-.00683.79625.00626,1.19384.01754.5333.19886.73531.72181.84018l.02068.00333a4.46351,4.46351,0,0,0,1.86918-.052,2.90369,2.90369,0,0,0,2.32935-2.28225,4.92312,4.92312,0,0,0,.06749-1.85126,3.1086,3.1086,0,0,0-1.75878-2.49174,5.88052,5.88052,0,0,0-3.00154-.49855c-.25374.0139-.25452.03081-.25465.29982Q66.13276,35.38784,66.1335,36.875Z"/><path class="cls-2" d="M61.44117,36.08365c0,.88682.00669,1.77371-.00293,2.66042a3.05289,3.05289,0,0,1-.24249,1.22471,2.7784,2.7784,0,0,1-1.50013,1.448,4.76326,4.76326,0,0,1-1.62619.36984,8.41032,8.41032,0,0,1-2.273-.11422,3.76541,3.76541,0,0,1-1.3348-.531A2.69243,2.69243,0,0,1,53.251,39.06211c-.03044-.32046-.03786-.64069-.03767-.96193q.00138-2.37767.00055-4.75535c.00005-.31778.00076-.31825.30987-.31871.34915-.00052.6983-.00117,1.04744.0003.25914.00109.27615.01871.28014.26976.00112.06981.00035.13965.00035.20948q.00009,2.52432.00072,5.04863a4.666,4.666,0,0,0,.04525.77235,1.76514,1.76514,0,0,0,1.08822,1.38582,2.7254,2.7254,0,0,0,1.05574.23692A4.22631,4.22631,0,0,0,58.269,40.856a1.9955,1.9955,0,0,0,1.26127-.86692,1.86107,1.86107,0,0,0,.25993-.91686c.018-.46016.03869-.9203.03716-1.38141-.00485-1.45242-.002-2.90487-.00164-4.35731.00007-.30355.00307-.30657.29967-.30724.35613-.0008.71226-.00166,1.06838.00045.234.00139.2508.01777.25109.24986q.00172,1.40357.00048,2.80713Z"/><path class="cls-2" d="M40.68368,39.52549a1.02226,1.02226,0,0,0-.30136-.73635,2.72329,2.72329,0,0,0-.95522-.59071c-.48249-.20588-.98625-.35149-1.48383-.51455a8.881,8.881,0,0,1-1.4364-.57784,2.75406,2.75406,0,0,1-.76256-.58074,2.169,2.169,0,0,1-.04716-2.55777,2.583,2.583,0,0,1,1.06953-.81674,5.28881,5.28881,0,0,1,1.812-.38886,6.72716,6.72716,0,0,1,2.55011.38025c.10558.03569.2061.08607.31026.12628a.13087.13087,0,0,1,.08874.19612q-.179.42468-.357.84978c-.038.09024-.09756.08759-.16622.036a4.62945,4.62945,0,0,0-.48838-.32428,3.42494,3.42494,0,0,0-1.77865-.477,2.85813,2.85813,0,0,0-1.10259.2191,1.16211,1.16211,0,0,0-.72121.78983.83817.83817,0,0,0,.19036.78144,1.90461,1.90461,0,0,0,.69628.49044,12.83145,12.83145,0,0,0,1.30214.462c.43782.14385.87937.27747,1.30317.46049a3.68938,3.68938,0,0,1,1.17855.74566,2.066,2.066,0,0,1,.59506,1.74151A2.54044,2.54044,0,0,1,40.545,41.39672a4.10889,4.10889,0,0,1-1.60132.36984,8.86832,8.86832,0,0,1-3.49125-.54927c-.48781-.18612-.3946-.15273-.269-.56.072-.23353.15124-.46487.22851-.69677.06622-.19876.07648-.204.25375-.07909a6.00517,6.00517,0,0,0,1.32424.71347,4.87165,4.87165,0,0,0,2.20133.30138,1.73412,1.73412,0,0,0,1.19219-.58718A1.1698,1.1698,0,0,0,40.68368,39.52549Z"/><path class="cls-2" d="M86.78,41.63264c-.22348,0-.44738-.00851-.67028.00276a.33117.33117,0,0,1-.34591-.20224,5.4653,5.4653,0,0,0-2.21461-2.2253,4.58228,4.58228,0,0,0-1.95642-.56118c-.16006-.00822-.31891-.03106-.48029-.02838a.35863.35863,0,0,0-.35419.23426c-.39355.83339-.805,1.65836-1.19389,2.4939a.40448.40448,0,0,1-.45879.29061c-.2002-.0216-.40459-.00269-.60709-.005-.21278-.00247-.23185-.02891-.14112-.21024q.37963-.75875.765-1.51461c.06947-.137.14414-.2713.21365-.40825q1.06188-2.09214,2.12293-4.18469c.36984-.72846.74663-1.45347,1.10841-2.18591a.36106.36106,0,0,1,.38744-.2373c.37119.01736.31773-.03175.48833.30476q1.00884,1.98988,2.01594,3.98066,1.06148,2.09228,2.12575,4.18311c.13822.2721.13724.27272-.17635.27307Q87.09424,41.633,86.78,41.63264Zm-2.30652-2.90526c-.59443-1.25717-1.18505-2.51181-1.80746-3.77073a29.9566,29.9566,0,0,0-1.385,2.91881,6.92747,6.92747,0,0,1,1.6554.19159A4.98653,4.98653,0,0,1,84.47346,38.72738Z"/><path class="cls-2" d="M51.28861,41.63263c-.22346,0-.44731-.00815-.67023.00272a.3142.3142,0,0,1-.32977-.19277,5.47053,5.47053,0,0,0-1.847-2.01822,4.7007,4.7007,0,0,0-2.295-.77662c-.174-.011-.34693-.03146-.52211-.03028a.34159.34159,0,0,0-.34.22257c-.39814.83887-.80459,1.6738-1.20831,2.51-.02429.0503-.05176.09917-.074.15033a.20786.20786,0,0,1-.215.13245c-.27928-.00272-.55867.00234-.83792-.00211-.1417-.00226-.15939-.03331-.0932-.1669.19528-.39416.39415-.78654.59364-1.17859q1.13512-2.23088,2.27182-4.461c.46317-.908.93209-1.81319,1.39041-2.72366a.32363.32363,0,0,1,.34066-.20875c.40258.01387.33725-.035.519.323q.934,1.83972,1.865,3.681,1.1325,2.23218,2.26695,4.46337c.1337.26338.12755.27239-.16556.27324C51.72156,41.63316,51.50508,41.63265,51.28861,41.63263Zm-4.08156-6.64172c-.09748.034-.10871.10238-.13493.15605-.19009.389-.37728.77943-.56579,1.16921q-.32838.679-.65712,1.3578c-.09332.1937-.087.20706.13408.20606a5.9287,5.9287,0,0,1,.9582.08585,4.88578,4.88578,0,0,1,1.93445.70272c.03237.02107.06095.05944.1285.03989Q48.1104,36.84176,47.20705,34.99091Z"/><path class="cls-2" d="M48.55948,26.18808c.59378,0,1.18764.00619,1.78129-.00219a5.7067,5.7067,0,0,0,1.1634-.13042,2.04237,2.04237,0,0,0,.6798-.26463,1.24361,1.24361,0,0,0,.548-.71556,2.09816,2.09816,0,0,0,.00116-1.21767A1.22348,1.22348,0,0,0,52.1014,23.11a2.77787,2.77787,0,0,0-.96545-.258,11.55435,11.55435,0,0,0-1.31824-.04129c-.44707-.00158-.89417.0014-1.34123-.00167-.1855-.00128-.20941-.02462-.212-.20293q-.006-.40857-.00021-.81729c.00227-.1712.02673-.20211.19286-.20084.87967.00668,1.76092-.04325,2.63851.04a3.31014,3.31014,0,0,1,1.49.45236,2.12014,2.12014,0,0,1,.93817,1.24168,4.19643,4.19643,0,0,1-.01422,2.39705,2.07788,2.07788,0,0,1-1.35738,1.40655,4.526,4.526,0,0,1-1.37416.25449c-1.3823.05972-2.76547.02047-4.14823.03091-.04187.00032-.08378-.00156-.12564-.00328-.10237-.00421-.15456-.055-.14569-.16015.02353-.279.00585-.55861.01266-.83784.00477-.19553.02286-.21751.21844-.21824.65664-.00247,1.31329-.00094,1.96994-.00094Z"/><path class="cls-2" d="M76.6925,37.34981V41.224c0,.0349.00012.06981,0,.10471-.00143.30159-.00275.30343-.30289.30383-.37.0005-.73994.00171-1.10989-.00076-.20832-.00139-.22783-.02058-.22966-.22783-.00288-.32805-.001-.65615-.001-.98423q0-3.52864.00006-7.05727c0-.33584.00044-.3361.33354-.33637.349-.00029.69806-.00112,1.04708.00038.24613.00106.26195.01575.26225.26074q.00178,1.41354.00057,2.82709Q76.69252,36.732,76.6925,37.34981Z"/><path class="cls-2" d="M87.676,23.66359v3.37224c0,.04189.0004.08379-.00018.12567-.00336.2469-.01438.25926-.26249.26019-.34909.00132-.69821.00249-1.04727-.00094-.1819-.00179-.20184-.02578-.20912-.20649-.00169-.04183-.00066-.08377-.00066-.12566q0-3.44556.00006-6.8911c0-.34336.00043-.34351.34532-.34367.31418-.00015.62839-.00164.94255.00075.20971.0016.22939.01892.2305.22733.00286.53758.00123,1.0752.00128,1.6128Q87.676,22.67915,87.676,23.66359Z"/><path class="cls-2" d="M41.80144,30.39555a.16074.16074,0,0,1-.05865.09769c-.22468.23867-.448.47868-.676.71415-.10156.10489-.11968.10474-.22071.00344q-.34728-.34821-.6866-.70432c-.10252-.10817-.09995-.13386.006-.24377q.33407-.34654.67455-.68688c.105-.10489.12455-.107.22122-.00766.23351.23984.46185.4847.69184.72795A.14319.14319,0,0,1,41.80144,30.39555Z"/><path class="cls-2" d="M40.09018,18.0911a.13834.13834,0,0,1,.1.05q.362.37785.72313.7565a.11506.11506,0,0,1-.00144.182c-.23649.24689-.46993.49675-.70926.74084-.08886.09061-.12366.08838-.209.00013-.23279-.24077-.46065-.48629-.69355-.72694a.13166.13166,0,0,1,.00347-.21412c.22744-.23621.45077-.47638.67673-.714C40.01327,18.13081,40.04555,18.091,40.09018,18.0911Z"/><path class="cls-2" d="M37.8396,18.09787c.04845-.006.078.02649.10621.0562.23506.24742.46869.49621.70376.74364a.11557.11557,0,0,1-.00135.18192q-.35273.371-.70367.74376c-.068.07236-.12731.06585-.19379-.00311-.23211-.24075-.4687-.47722-.6987-.71994-.0947-.09994-.093-.12932.0014-.22828.226-.23691.45617-.46991.68515-.704A.19071.19071,0,0,1,37.8396,18.09787Z"/><path class="cls-2" d="M44.05847,30.40641c.00131.02206-.02848.05295-.0571.08332-.22994.24393-.45808.48963-.69178.72992-.09195.09454-.12379.09211-.2075.00514q-.33421-.34719-.66356-.699c-.12094-.12965-.11948-.14837.00124-.276q.324-.34245.65095-.68211c.095-.099.12382-.10413.22178-.00381.23417.23981.46258.48525.693.72868A.16647.16647,0,0,1,44.05847,30.40641Z"/><path class="cls-3" d="M98.61277,32.68736a2.289,2.289,0,0,1,.3748.04582,2.17491,2.17491,0,0,0,1.29406-.34672,6.84572,6.84572,0,0,0,.92351-.72132c.50385-.4431.97439-.921,1.449-1.3946a1.00086,1.00086,0,0,0,.07272-.07534c.06588-.0812.06031-.11177-.04628-.14356-.31444-.09382-.62868-.18981-.947-.2688-.46046-.11426-.3173-.139-.65085.16866a10.822,10.822,0,0,1-1.28144,1.07713,2.56725,2.56725,0,0,1-1.28032.48,2.3488,2.3488,0,0,1-1.79374-.54251.71758.71758,0,0,1-.02493-1.09281,1.94859,1.94859,0,0,1,.76812-.49459,4.65588,4.65588,0,0,1,1.57659-.29883,7.20218,7.20218,0,0,1,1.39859.08186.38958.38958,0,0,0,.38033-.11486c.15515-.16048.32352-.30813.48453-.463a20.64353,20.64353,0,0,1,1.64916-1.5163,3.83684,3.83684,0,0,1,1.78042-.84125,2.56892,2.56892,0,0,1,2.00135.477c.10021.07581.19792.155.29469.23521.0296.02453.072.04816.04872.102-.06434.02486-.1035-.0278-.1495-.05209a2.36421,2.36421,0,0,0-.90219-.24491,3.13292,3.13292,0,0,0-2.073.59046,7.25738,7.25738,0,0,0-.95545.74886c-.41251.387-.81548.78413-1.2225,1.177-.0201.0194-.03971.0393-.05968.05885-.064.06259-.05311.1085.03182.13488.10669.03313.21428.06338.321.09657.27339.085.54778.16714.81907.25841a.24394.24394,0,0,0,.28164-.06966c.24972-.254.50012-.5077.7587-.75259a4.61049,4.61049,0,0,1,1.35863-.93084,2.4838,2.4838,0,0,1,2.26056.05483,2.577,2.577,0,0,1,.361.25071c.02164.017.04393.036.03816.071-.02706.03625-.0607.01586-.09134.00534a2.55823,2.55823,0,0,0-1.97383.14552,3.91872,3.91872,0,0,0-1.05105.71742c-.223.21138-.44935.41914-.67254.63028a.50638.50638,0,0,0-.13872.15884c.0254.0713.09465.07179.15166.08834.32859.09538.65954.18313.98576.2859a.31519.31519,0,0,0,.355-.08822,4.34281,4.34281,0,0,1,1.26153-.88755,2.258,2.258,0,0,1,1.7702-.1133,1.66563,1.66563,0,0,1,.61735.385.59762.59762,0,0,1-.02835.93608,1.82841,1.82841,0,0,1-.86084.40974,3.3273,3.3273,0,0,1-.74851.05925,6.39289,6.39289,0,0,1-1.3716-.14507.26266.26266,0,0,0-.27485.09654c-.46547.48255-.93081.96527-1.4013,1.44291a19.663,19.663,0,0,1-1.64381,1.55328,4.68175,4.68175,0,0,1-1.54136.91143,2.198,2.198,0,0,1-2.247-.45759c-.03366-.03006-.08684-.05172-.06731-.113a.06874.06874,0,0,1,.08-.00239,2.14323,2.14323,0,0,0,1.7109-.028,5.51154,5.51154,0,0,0,1.476-.90635,17.49388,17.49388,0,0,0,1.31772-1.22768q.65211-.65186,1.30531-1.30261c.03955-.03947.08147-.077.11733-.11964.0686-.08154.06264-.11169-.0423-.14487-.26629-.08419-.53351-.16585-.80231-.2416-.49668-.14-.34472-.17615-.71331.18552-.42379.41582-.83667.84283-1.26312,1.25585a5.03882,5.03882,0,0,1-1.382,1.007,2.0675,2.0675,0,0,1-1.66564.114A1.23166,1.23166,0,0,1,98.61277,32.68736Zm1.69187-3.14825c-.05985-.01471-.08544-.02391-.11175-.027a5.27015,5.27015,0,0,0-1.76477.12465,2.02834,2.02834,0,0,0-.90237.41969.8904.8904,0,0,0-.26611.36965.43546.43546,0,0,0,.34574.62912,1.162,1.162,0,0,0,.45605.01164,2.13819,2.13819,0,0,0,.68257-.25465,5.373,5.373,0,0,0,.98756-.73769A6.53671,6.53671,0,0,0,100.30464,29.53911Zm6.11267,1.11493a.13857.13857,0,0,0,.10216.05118,3.94714,3.94714,0,0,0,1.39019-.10559,1.35857,1.35857,0,0,0,.633-.35184.31409.31409,0,0,0-.22832-.56391,1.32265,1.32265,0,0,0-.58984.11774,5.03941,5.03941,0,0,0-1.1824.70542A.26759.26759,0,0,0,106.41731,30.654Z"/><path class="cls-3" d="M109.03691,24.56076c.08333-.00994.109.03856.14217.06958a8.73356,8.73356,0,0,1-1.646,14.05078,8.30987,8.30987,0,0,1-3.10852,1.0101,8.45254,8.45254,0,0,1-4.54029-.69263,8.94982,8.94982,0,0,1-2.112-1.34859.52207.52207,0,0,1-.18094-.2219c.10033.06914.16261.10968.22238.15362a8.5,8.5,0,0,0,9.27149.54182,8.50738,8.50738,0,0,0,4.062-5.3179,8.27978,8.27978,0,0,0,.27758-2.59355,8.60411,8.60411,0,0,0-2.13375-5.34456C109.20705,24.77069,109.12731,24.67008,109.03691,24.56076Z"/><path class="cls-3" d="M105.74535,21.96179c.26417-.37217.53086-.72956.77974-1.099.14675-.21786.14819-.21693.40632-.13023.086.02887.17217.05719.25778.08712.21846.07636.22358.08243.1682.29727-.10276.39861-.20844.79647-.313,1.19461-.05317.20245-.1048.40532-.16042.6071-.0489.17743-.065.185-.2298.13305-.34235-.108-.34156-.10833-.24536-.45236.09206-.32921.18157-.65914.27165-.98891.00714-.02619.01833-.05395-.00476-.08065-.058.00684-.06967.06161-.09593.09915-.224.32015-.44558.642-.66973.962-.11377.16248-.12936.16757-.28936.12923-.14549-.03485-.27908-.068-.29581-.26386-.03562-.41678-.0879-.83213-.13418-1.248-.00432-.03878.01074-.08111-.02874-.12969-.0568.23236-.11044.45431-.16539.67594-.04869.19639-.09554.39334-.14939.58833-.04468.16182-.057.16555-.21849.14677-.41043-.04771-.36164-.055-.27372-.40767.1367-.54835.278-1.09558.41849-1.643.05575-.21709.07234-.227.28619-.18613.10277.01963.205.04193.30757.06266.23548.04758.24591.04645.27043.293.04136.41607.1073.83029.10773,1.24994Q105.7454,21.91016,105.74535,21.96179Z"/><path class="cls-3" d="M98.74719,21.15811a.38385.38385,0,0,1,.04967.02509.14921.14921,0,0,1,.02733.03125c.19512.23752.18359.29731-.08546.45554-.24067.14155-.48233.28153-.72047.42723-.1193.073-.12094.09548-.05725.21869.0128.02475.02836.04809.04294.07191.09469.15466.0963.15741.2558.0658.23-.1321.45653-.27026.68658-.40228.05746-.033.12446-.102.18883-.04637a.44891.44891,0,0,1,.16139.28356c.00655.056-.05323.077-.09431.10135-.22813.13534-.4573.26893-.68553.40409-.20341.12046-.20308.121-.09052.31585.14232.24633.1422.24612.38607.10041.23371-.13963.46642-.281.702-.41737.17575-.10171.18906-.09578.29449.07484.01834.02969.03571.06.0542.08959a.11938.11938,0,0,1-.0514.19023c-.1514.08675-.30131.17611-.45168.26467-.29473.17358-.58888.34814-.88417.52076-.16941.099-.18468.09542-.27743-.06432q-.45219-.77867-.90247-1.55845c-.02445-.04228-.04585-.0863-.06949-.129a.11505.11505,0,0,1,.04811-.17583c.1263-.07441.25124-.15114.37733-.22591q.45933-.27236.91933-.54357A.42119.42119,0,0,1,98.74719,21.15811Z"/><path class="cls-3" d="M102.85931,22.43169a.26011.26011,0,0,1-.28917-.1559c-.2124-.363-.15806-.32172-.55633-.26177-.10352.01558-.20653.03621-.31058.04627a.23344.23344,0,0,0-.23093.2254c-.0119.08263-.03556.16364-.05538.245a.18254.18254,0,0,1-.13956.14122c-.108.02844-.21543.06058-.32488.08194-.11091.02164-.14194-.0094-.11807-.1244.04115-.1982.09069-.39468.13781-.59161.11863-.49577.243-.99025.35407-1.48768a.31172.31172,0,0,1,.29686-.28442c.41085-.06292.35555-.01544.51435.24029.33891.54581.67065,1.09609,1.00481,1.64485.13411.22024.1311.22637-.11667.26168C102.97041,22.42046,102.91476,22.4254,102.85931,22.43169Zm-1.063-1.49359-.0433.0081c-.042.19566-.08334.39145-.12611.58694-.01969.09.01076.13636.10623.12285.10291-.01456.20562-.03141.30765-.05118.09512-.01842.1066-.07357.06016-.15152C101.99883,21.2819,101.89778,21.10987,101.79631,20.9381Z"/><path class="cls-3" d="M93.19528,34.68574a.66269.66269,0,0,1,.27517-.56173c.0528-.041.11047-.09844.18537-.04035a.3301.3301,0,0,1,.0695.27079.10733.10733,0,0,1-.026.03232.45239.45239,0,0,0-.193.3761.94293.94293,0,0,0,.18767.52395.38788.38788,0,0,0,.19561.1513.262.262,0,0,0,.35041-.22546.99047.99047,0,0,0-.02292-.31159,3.19852,3.19852,0,0,1-.09626-.78695.57021.57021,0,0,1,.47037-.56367.554.554,0,0,1,.45642.09664,1.48559,1.48559,0,0,1,.5155,1.32212.68455.68455,0,0,1-.33587.45852c-.05665.03216-.11371.0555-.16674-.012a.24081.24081,0,0,1-.03975-.26761.06542.06542,0,0,1,.01568-.01379.48229.48229,0,0,0,.22256-.50462.94772.94772,0,0,0-.29806-.64965.29653.29653,0,0,0-.50682.18213,1.34416,1.34416,0,0,0,.03261.45626,4.76476,4.76476,0,0,1,.07229.58057.50525.50525,0,0,1-.32669.55076.5557.5557,0,0,1-.63665-.12695A1.344,1.344,0,0,1,93.19528,34.68574Z"/><path class="cls-3" d="M96.89261,25.37587c-.00915.02081-.01821.04687-.03144.0706-.19544.35058-.2792.36509-.587.109q-.475-.39526-.95345-.78641c-.13811-.11286-.147-.11066-.2639.03043-.08463.10216-.16663.20653-.24874.31074a.12375.12375,0,0,1-.19762.02733l-.04963-.03854c-.191-.15177-.19239-.17415-.03768-.364q.50939-.62526,1.01739-1.25167c.11161-.13691.13051-.13758.26827-.02744.02725.0218.05175.04724.07993.06766a.12806.12806,0,0,1,.02685.21215c-.08835.10814-.17451.21808-.2604.32819-.1033.13245-.10341.14587.0248.25215.34939.28965.701.57668,1.05023.86651C96.79332,25.23486,96.86878,25.27927,96.89261,25.37587Z"/><path class="cls-3" d="M93.63763,31.78535c-.1214-.13988-.223-.26144-.3294-.37856-.20176-.222-.40655-.44123-.60963-.662a.44271.44271,0,0,1-.08928-.51465c.07544-.00368.10546.06051.14516.104.18344.20087.36346.40485.54451.6079.02785.03123.05309.06492.08219.0949.11312.11656.13987.11976.26.01853.208-.1753.4134-.3538.62106-.52956.14377-.12167.28693-.24434.43542-.36007.08519-.0664.12376-.04848.1374.05322a.42054.42054,0,0,1-.16985.43785c-.27321.20472-.52882.433-.79016.65338-.12735.10737-.12715.12465-.01721.24972.04144.04715.08965.08882.12761.13847a.27536.27536,0,0,0,.25729.107c.14609-.00919.29246-.01408.43873-.02034.14294-.00611.18474.02743.19392.15434.01029.14223-.03218.19827-.1628.21351a.48789.48789,0,0,1-.06272.00249c-.57928-.00757-1.1576.02585-1.73636.04-.04185.001-.08389.00236-.12558-.00033-.13628-.00881-.16578-.036-.1741-.15586-.00944-.13612.01948-.1745.15123-.19775a3.56273,3.56273,0,0,1,.522-.02843A1.198,1.198,0,0,0,93.63763,31.78535Z"/><path class="cls-3" d="M95.32931,28.09393a.18948.18948,0,0,1-.27592.20409c-.17159-.05867-.34541-.11256-.51228-.18276a.46447.46447,0,0,0-.34344-.00406c-.352.11289-.70641.21808-1.06007.32564-.06.01825-.12082.03406-.1816.04967-.0786.02019-.10463-.01512-.08851-.08875a.38413.38413,0,0,1,.31078-.34532c.27907-.05971.55193-.14882.82683-.22746.13553-.03877.14181-.05147.06135-.16454-.17391-.24436-.35384-.48444-.52845-.72831a.35092.35092,0,0,1-.01205-.44184c.02945-.04384.06412-.054.1009-.01368a1.11,1.11,0,0,1,.08859.11634c.22272.32094.44788.64026.66554.96459a.51709.51709,0,0,0,.28866.22389c.18644.05741.36854.129.55211.19563C95.27434,27.99614,95.32939,28.01518,95.32931,28.09393Z"/><path class="cls-3" d="M108.04336,21.07526a.36319.36319,0,0,1,.388.37437.38571.38571,0,0,1-.36243.386.40891.40891,0,0,1-.39673-.383A.387.387,0,0,1,108.04336,21.07526Zm.08426.6377c.204-.09751.23293-.16282.16723-.37705a.27054.27054,0,0,0-.38-.1276c-.12959.0759-.1568.20434-.08009.3781A.20708.20708,0,0,0,108.12762,21.713Z"/><path class="cls-3" d="M108.12837,21.71423c-.1104-.02009-.07612-.13651-.12569-.19682-.07053-.00223-.10035.08219-.16979.07107a.71786.71786,0,0,1,.11251-.262c.074-.12821.09736-.1331.2268-.0641.04216.02247.08233.04866.12341.07315-.00152.0572-.00579.122-.05932.14866C108.13462,21.53484,108.13055,21.62194,108.12837,21.71423Z"/></svg>