<svg id="aw" xmlns="http://www.w3.org/2000/svg" viewBox="0 0 120 60"><defs><style>.cls-1{fill:#979395;}.cls-2{fill:#134294;}.cls-3{fill:#fff;}</style></defs><title>ai_template_SAS_full_1</title><path id="_Path_" data-name=" Path " class="cls-1" d="M92.97032,30.55019v-1.183h-.84645v5.22141h.84645V32.1207c0-.70367.18356-1.87645,1.43793-1.87645h.27534v-1.0198h0a2.03961,2.03961,0,0,0-1.66228,1.30535Z"/><path id="_Path_2" data-name=" Path 2" class="cls-1" d="M101.82224,29.24484a2.03963,2.03963,0,0,0-1.856,1.35634v-1.234h-.83624v5.22141h.85664V32.34505c0-1.0198.47931-2.38635,1.5501-2.38635.70367,0,.70367.69347.70367,1.25437v3.37556h.84644V30.63178a1.58081,1.58081,0,0,0-.28554-.91783,1.16261,1.16261,0,0,0-1.01981-.46911Z"/><path id="_Compound_Path_" data-name=" Compound Path " class="cls-1" d="M106.085,29.23464a1.92744,1.92744,0,0,0-1.64189.73426,3.0595,3.0595,0,0,0-.48951,1.84585c0,1.84585.93822,2.90645,2.59031,2.90645a3.753,3.753,0,0,0,1.22377-.19376h.07139v-.5201h-.153a2.519,2.519,0,0,1-.78524.11218c-1.72348,0-1.96823-1.39714-1.96823-2.78407h3.05942a2.68224,2.68224,0,0,0-.23456-1.20338,1.65207,1.65207,0,0,0-1.63169-.90762Zm-1.15237,1.6113a1.11159,1.11159,0,0,1,1.09119-1.12179c.84644,0,1.01981.60169,1.01981,1.12179Z"/><path id="_Path_3" data-name=" Path 3" class="cls-1" d="M111.11268,31.75356c-.22436-.14277-.45891-.26515-.65267-.36713-.57109-.29574-1.01981-.5099-1.01981-.95862s.45891-.60168.86684-.60168a2.733,2.733,0,0,1,1.27475.39772h0V29.4692h0l-.22436-.07139a2.998,2.998,0,0,0-1.0198-.204c-1.16258,0-1.80506.5099-1.80506,1.44812,0,.77506.59149,1.0912,1.15238,1.39714l.27535.16317.23456.13258c.4997.28554.86683.4895.86683.93822s-.40792.81584-1.01981.81584a2.74331,2.74331,0,0,1-1.41753-.47931h0v.76486h0l.102.051a3.3654,3.3654,0,0,0,1.31555.28554c1.43793,0,1.958-.80565,1.958-1.5603a1.51952,1.51952,0,0,0-.90763-1.40734Z"/><polygon id="_Path_4" data-name=" Path 4" class="cls-1" points="90.217 29.377 90.196 29.377 90.196 34.589 91.043 34.589 91.043 29.377 90.217 29.377 90.217 29.377"/><polygon id="_Path_5" data-name=" Path 5" class="cls-1" points="91.012 28.245 91.043 28.245 91.043 27.256 90.186 27.256 90.186 28.245 91.012 28.245 91.012 28.245"/><polygon id="_Path_6" data-name=" Path 6" class="cls-1" points="95.316 27.246 95.295 27.246 95.295 34.589 96.152 34.589 96.152 27.246 95.316 27.246 95.316 27.246"/><polygon id="_Path_7" data-name=" Path 7" class="cls-1" points="97.243 29.377 97.223 29.377 97.223 34.589 98.08 34.589 98.08 29.377 97.243 29.377 97.243 29.377"/><polygon id="_Path_8" data-name=" Path 8" class="cls-1" points="98.049 28.245 98.069 28.245 98.069 27.256 97.223 27.256 97.223 28.245 98.049 28.245 98.049 28.245"/><path id="_Compound_Path_2" data-name=" Compound Path 2" class="cls-1" d="M87.02484,27.246H86.005L83.5371,34.58863h.86684l.69347-2.17219h2.72288l.74446,2.17219h1.01981L87.035,27.26641h0Zm-1.72347,4.51774,1.15238-3.59992,1.15238,3.59992Z"/><polygon id="_Path_9" data-name=" Path 9" class="cls-1" points="54.595 28.245 54.626 28.245 54.626 27.256 53.769 27.256 53.769 28.245 54.595 28.245 54.595 28.245"/><polygon id="_Path_10" data-name=" Path 10" class="cls-1" points="70.494 28.235 70.524 28.235 70.524 27.256 69.668 27.256 69.668 28.235 70.494 28.235 70.494 28.235"/><path id="_Path_11" data-name=" Path 11" class="cls-1" d="M31.39437,34.711c1.6011,0,2.55972-.76485,2.55972-2.03961,0-.928-.35693-1.26456-1.17278-1.80506a7.13776,7.13776,0,0,0-.826-.45891c-.73426-.37733-1.43792-.73426-1.43792-1.47872s.4895-1.01981,1.234-1.01981a4.59937,4.59937,0,0,1,1.70308.38753h0v-.77506h0a6.11882,6.11882,0,0,0-1.55011-.24475,2.69227,2.69227,0,0,0-1.65209.46911,1.6725,1.6725,0,0,0-.62208,1.36654,1.958,1.958,0,0,0,1.20337,1.79486l.5303.27535c.86684.43852,1.6113.826,1.6113,1.64189s-.4997,1.25437-1.44812,1.25437a4.50754,4.50754,0,0,1-1.78467-.47932h0v.86684h0a5.03768,5.03768,0,0,0,1.64189.28554Z"/><path id="_Compound_Path_3" data-name=" Compound Path 3" class="cls-1" d="M41.02135,29.26524c-1.17278,0-1.81525.4895-1.89684,1.47872h1.01981c0-.39773.09178-1.01981.88723-1.01981s.89743.66288.89743,1.30535v.58129c-.81585,0-2.90645.17337-2.90645,1.75407a1.285,1.285,0,0,0,.39772.928,1.47873,1.47873,0,0,0,1.01981.39772,1.75405,1.75405,0,0,0,1.47872-.826v.70366h.85664V31.0193A1.51948,1.51948,0,0,0,41.052,29.27544Zm.86684,3.46734A1.29516,1.29516,0,0,1,40.695,34.07873a.7649.7649,0,0,1-.79545-.84645c0-.67307.65268-1.0198,1.94784-1.132h0v.59149Z"/><path id="_Path_12" data-name=" Path 12" class="cls-1" d="M46.81385,31.22327v3.36536h.84645V30.642a1.52968,1.52968,0,0,0-.28555-.90763,1.132,1.132,0,0,0-1.01981-.46911,2.03959,2.03959,0,0,0-1.856,1.34614v-1.234h-.80566v5.21122h.84645V32.35525c0-1.0198.47931-2.38635,1.5501-2.38635.69347,0,.69347.69347.69347,1.25437Z"/><path id="_Compound_Path_4" data-name=" Compound Path 4" class="cls-1" d="M50.31179,34.711a1.64188,1.64188,0,0,0,1.51952-1.0198v.93822h.86683v-7.3732H51.8517v2.99823a1.44813,1.44813,0,0,0-1.41753-1.01981,1.62153,1.62153,0,0,0-1.45833.80565,3.69181,3.69181,0,0,0-.47931,1.99882,3.90589,3.90589,0,0,0,.36714,1.86625,1.52969,1.52969,0,0,0,1.44812.84644Zm.255-4.88487c.94843,0,1.26457,1.41753,1.26457,2.03961,0,1.31555-.5507,2.23338-1.336,2.23338s-1.01981-1.12179-1.01981-2.03962c0-.66287.11218-2.22318,1.10139-2.22318Z"/><path id="_Path_13" data-name=" Path 13" class="cls-1" d="M58.38866,29.26524a2.03962,2.03962,0,0,0-1.85605,1.34614v-1.234h-.826v5.21122H56.553V32.35525c0-1.0198.47931-2.38635,1.55011-2.38635.69347,0,.69347.69347.69347,1.25437v3.36536H59.643V30.642a1.52968,1.52968,0,0,0-.28555-.90763,1.132,1.132,0,0,0-1.0198-.46911Z"/><polygon id="_Path_14" data-name=" Path 14" class="cls-1" points="68.342 29.377 68.332 29.377 68.322 29.398 66.935 33.406 65.385 29.398 65.385 29.377 64.436 29.377 64.457 29.408 66.496 34.578 66.506 34.589 67.292 34.589 67.292 34.578 69.148 29.408 69.158 29.377 68.342 29.377 68.342 29.377"/><path id="_Path_15" data-name=" Path 15" class="cls-1" d="M79.723,29.73435a1.132,1.132,0,0,0-1.01981-.46911,2.03962,2.03962,0,0,0-1.84585,1.34614v-1.234h-.83624v5.21122h.85663V32.35525c0-1.0198.47931-2.38635,1.55011-2.38635.68327,0,.68327.69347.68327,1.25437v3.36536h.85663V30.642a1.52974,1.52974,0,0,0-.28554-.90763Z"/><path id="_Path_16" data-name=" Path 16" class="cls-1" d="M38.19649,34.07873a2.28428,2.28428,0,0,1-.74446.11217c-1.68269,0-1.93764-1.5807-1.93764-2.50872,0-.57109.11218-1.88664,1.12179-1.88664.56089,0,.84644.32634.877,1.0198H38.533a1.59089,1.59089,0,0,0-.47931-1.0198,1.88664,1.88664,0,0,0-1.30535-.42832c-1.35635,0-2.1314.928-2.1314,2.55971a3.26343,3.26343,0,0,0,.57109,2.03962,2.44756,2.44756,0,0,0,2.03962.83624,3.5797,3.5797,0,0,0,1.17278-.18357h0v-.5303h-.13258Z"/><path id="_Compound_Path_5" data-name=" Compound Path 5" class="cls-1" d="M62.4373,29.255c-1.17278,0-1.81526.4997-1.89684,1.48892h1.0198c0-.39773.08159-1.01981.88723-1.01981s.89743.66287.89743,1.31555v.57109c-.81584.051-2.90644.18357-2.90644,1.76427a1.33591,1.33591,0,0,0,.38752.928,1.47871,1.47871,0,0,0,1.01981.39773,1.77447,1.77447,0,0,0,1.48892-.826v.70367h.84644V31.0193c0-.75465-.17337-1.75406-1.71328-1.75406Zm.86683,3.47754a1.30536,1.30536,0,0,1-1.20337,1.34615.76483.76483,0,0,1-.78525-.84645c0-.67307.65267-1.0198,1.94783-1.132h0V32.702Z"/><path id="_Compound_Path_6" data-name=" Compound Path 6" class="cls-1" d="M73.36963,29.255c-1.17278,0-1.81526.4997-1.89685,1.48892h1.01981c0-.39773.08159-1.01981.88724-1.01981s.90762.67307.90762,1.29515v.5711c-.81585.051-2.90645.18356-2.90645,1.76426a1.30538,1.30538,0,0,0,.39773.928,1.43791,1.43791,0,0,0,1.01981.39772,1.77446,1.77446,0,0,0,1.48891-.79545v.70367h.84644V31.0193c0-.75465-.17336-1.75406-1.71327-1.75406Zm.91782,3.47754a1.30535,1.30535,0,0,1-1.25436,1.34615.76483.76483,0,0,1-.78525-.84645c0-.67307.65268-1.0198,1.94783-1.132h0V32.702Z"/><polygon id="_Path_17" data-name=" Path 17" class="cls-1" points="53.8 29.377 53.769 29.377 53.769 34.589 54.626 34.589 54.626 29.377 53.8 29.377 53.8 29.377"/><polygon id="_Path_18" data-name=" Path 18" class="cls-1" points="69.698 29.377 69.678 29.377 69.678 34.589 70.524 34.589 70.524 29.377 69.698 29.377 69.698 29.377"/><path id="_Path_19" data-name=" Path 19" class="cls-2" d="M8,38.20894a.5201.5201,0,0,0,.52.5202l.0103-.0001H24.939a.5201.5201,0,0,0,.52011-.5201V21.841a.52011.52011,0,0,0-.52011-.5201H8.5201A.5201.5201,0,0,0,8,21.841H8Z"/><path id="_Compound_Path_7" data-name=" Compound Path 7" class="cls-3" d="M18.96292,29.39781H17.4842a.13255.13255,0,0,0-.102,0L13.303,34.44586v.06119h.68327l.86683-1.11159h1.50932l-.204,1.09119v.06119h1.76426l1.01981-5.099a.04993.04993,0,0,0-.051-.051ZM16.4746,32.855H15.32221l1.51952-1.94783h0l-.37733,1.958h0Z"/><path id="_Path_20" data-name=" Path 20" class="cls-3" d="M9.37674,33.90536c0,.051,0,.11218.13257.19376a2.84532,2.84532,0,0,0,1.78467.5405c1.74387,0,2.37615-1.132,2.162-2.03962-.06119-.255-.38753-1.5807-.43852-1.76426-.13257-.5507.12238-.93822.64248-.93822a1.754,1.754,0,0,1,.95862.31614h.09178c.0102,0,.08158-.44872.08158-.44872a.17509.17509,0,0,0-.07138-.13257,2.77382,2.77382,0,0,0-1.40734-.30594c-1.5603,0-2.23337,1.0198-1.958,2.0906a18.50669,18.50669,0,0,1,.43852,1.907.67309.67309,0,0,1-.73426.75466,2.03965,2.03965,0,0,1-1.42773-.68327s-.07138,0-.08158.051l-.153.4997Z"/><path id="_Path_21" data-name=" Path 21" class="cls-3" d="M18.63659,33.92575c0,.06119,0,.11218.13257.204a2.70256,2.70256,0,0,0,1.73367.5099c1.74387,0,2.37615-1.132,2.162-2.03962-.06119-.30594-.38753-1.5807-.38753-1.81525-.13258-.5405.13257-.928.64248-.928a1.62149,1.62149,0,0,1,.95861.31613h.09179c.0102,0,.09178-.43851.09178-.43851a.12239.12239,0,0,0-.08158-.13258,2.73314,2.73314,0,0,0-1.40734-.31614c-1.5603,0-2.23338,1.01981-1.958,2.10081a18.50971,18.50971,0,0,1,.43852,1.907.67308.67308,0,0,1-.81585.78526,2.03964,2.03964,0,0,1-1.40733-.66288.06119.06119,0,0,0-.102,0l-.102.5201Z"/></svg>