<svg id="aw" xmlns="http://www.w3.org/2000/svg" viewBox="0 0 120 60"><defs><style>.cls-1{fill:#005291;}.cls-2{fill:#f2c137;}</style></defs><title>ai_template_singapore_airlines_full_1</title><g id="_Group_" data-name=" Group "><path id="_Path_" data-name=" Path " class="cls-1" d="M9.5864,35.8631h1.35233c.33809,0,.44212.104.44212.44211s-.104.57215-.44212.57215H8.104v.78019H10.8087a1.44285,1.44285,0,0,0,1.5864-1.35234,1.51048,1.51048,0,0,0-1.56039-1.45636h0c-.44211,0-1.35234.104-1.35234.104a.51457.51457,0,0,1-.44211-.54614.41061.41061,0,0,1,.3901-.44211h2.88672V33.0544H9.5864A1.27576,1.27576,0,0,0,8.13,34.40674,1.34967,1.34967,0,0,0,9.5864,35.8631Z"/><path id="_Path_2" data-name=" Path 2" class="cls-1" d="M87.26781,35.75908h1.35235a.50532.50532,0,0,1,.44211.57214.39325.39325,0,0,1-.36409.44211H85.78546v.91023h2.70467a1.44285,1.44285,0,0,0,1.5864-1.35234,1.45779,1.45779,0,0,0-1.5864-1.45636H87.13779c-.33808,0-.44211-.104-.44211-.44211s.104-.44211.44211-.44211h2.8087v-.91023H87.24181c-1.01425,0-1.58639.57214-1.58639,1.35234S86.25356,35.75908,87.26781,35.75908Z"/><path id="_Path_3" data-name=" Path 3" class="cls-1" d="M23.52588,37.65755h2.15854V34.6408H24.67017v2.13253H23.42186A1.29379,1.29379,0,0,1,21.96549,35.317a1.27558,1.27558,0,0,1,1.45637-1.35233h2.26256V33.0544H23.52588A2.44949,2.44949,0,0,0,20.92523,35.421,2.41939,2.41939,0,0,0,23.52588,37.65755Z"/><polygon id="_Path_4" data-name=" Path 4" class="cls-1" points="13.409 37.658 14.424 37.658 14.424 33.054 13.409 33.054 13.409 37.658"/><polygon id="_Path_5" data-name=" Path 5" class="cls-1" points="61.365 37.658 62.38 37.658 62.38 33.054 61.365 33.054 61.365 37.658"/><polygon id="_Path_6" data-name=" Path 6" class="cls-1" points="73.172 37.658 74.187 37.658 74.187 33.054 73.172 33.054 73.172 37.658"/><path id="_Path_7" data-name=" Path 7" class="cls-1" d="M16.7902,33.96463h1.69042a.72714.72714,0,0,1,.67617.67617v3.04276H20.171v-3.1728A1.42105,1.42105,0,0,0,18.7927,33.0544H17.36234l-.57214.7802v-.7802H15.77594v4.62916H16.7902Z"/><path id="_Path_8" data-name=" Path 8" class="cls-1" d="M76.44912,33.96463h1.69042a.64373.64373,0,0,1,.67617.62415v3.09478H79.83v-3.1728a1.421,1.421,0,0,0-1.37834-1.45636H77.02126l-.57214.7802v-.7802H75.43486v4.62916h1.01426V33.96463Z"/><path id="_Compound_Path_" data-name=" Compound Path " class="cls-1" d="M56.19005,37.65755l.57214-1.35234h2.13253l.67617,1.35234h1.11828l-2.26256-4.62916H57.30833l-2.23656,4.62916Zm1.69042-3.69292.67617,1.58639H57.20431l.67616-1.58639Z"/><path id="_Path_9" data-name=" Path 9" class="cls-1" d="M43.811,33.96463h1.69043a.6856.6856,0,0,1,.54613.8062.66277.66277,0,0,1-.54613.54613H44.25306l2.02851,2.3666h1.11828l-1.35234-1.69043h0a1.57752,1.57752,0,0,0,1.01426-1.45636,1.51048,1.51048,0,0,0-1.56039-1.45636H42.90072v4.60315H43.811V33.96463Z"/><path id="_Path_10" data-name=" Path 10" class="cls-1" d="M63.73193,37.65755h1.01426V33.96463h1.58639a.67817.67817,0,1,1,.104,1.35234H65.11028l2.02851,2.36659h1.2223l-1.45636-1.69042A1.48284,1.48284,0,0,0,67.919,34.53677a1.421,1.421,0,0,0-1.37835-1.45636H63.78394v4.57714Z"/><polygon id="_Path_11" data-name=" Path 11" class="cls-1" points="51.899 37.658 51.899 36.877 49.194 36.877 49.194 35.655 51.561 35.655 51.561 34.849 49.194 34.849 49.194 33.965 51.899 33.965 51.899 33.054 48.206 33.054 48.206 37.658 51.899 37.658"/><polygon id="_Path_12" data-name=" Path 12" class="cls-1" points="84.771 33.965 84.771 33.054 81.078 33.054 81.078 37.658 84.771 37.658 84.771 36.877 82.093 36.877 82.093 35.655 84.433 35.655 84.433 34.849 82.093 34.849 82.093 33.965 84.771 33.965"/><polygon id="_Path_13" data-name=" Path 13" class="cls-1" points="72.522 37.658 72.522 36.877 70.026 36.877 70.026 33.054 69.011 33.054 69.011 37.658 72.522 37.658"/><path id="_Compound_Path_2" data-name=" Compound Path 2" class="cls-1" d="M27.921,36.33122h2.13253l.57214,1.35234h1.11829L29.48137,33.0544H28.46712l-2.26257,4.62916h1.11828Zm1.01425-2.49662.7802,1.69042H28.25907Z"/><path id="_Compound_Path_3" data-name=" Compound Path 3" class="cls-1" d="M33.33033,35.421h0l.57215.7802h1.01425a1.50026,1.50026,0,0,0,1.5864-1.37835v-.20805a1.54314,1.54314,0,0,0-1.50838-1.5864H32.31608v4.62916h1.01425V35.421Zm0-1.45636h1.5864a.63527.63527,0,0,1,.57214.67617c0,.33808-.23406.78019-.57214.78019h-1.5864V33.96463Z"/><path id="_Compound_Path_4" data-name=" Compound Path 4" class="cls-1" d="M39.51988,37.89161A2.53647,2.53647,0,1,0,37.04926,35.291v.104A2.49188,2.49188,0,0,0,39.51988,37.89161Zm0-4.161a1.63924,1.63924,0,0,1,0,3.27682,1.706,1.706,0,0,1-1.5864-1.5864A1.76549,1.76549,0,0,1,39.51988,33.73057Z"/><polygon id="_Path_14" data-name=" Path 14" class="cls-2" points="8 39.582 8 41.038 91.195 41.038 92.209 39.582 8 39.582"/><path id="_Path_15" data-name=" Path 15" class="cls-2" d="M98.3986,39.00989s3.14679-4.62916,3.38085-5.07127a2.542,2.542,0,0,0,.104-2.02851c-.234-.23406-4.94123-7.64591-4.94123-7.64591a1.983,1.983,0,0,1,0-1.79445c.44211-.67617,1.24831-1.92448,1.24831-1.92448s5.74743,8.99825,5.95548,9.46637a2.55345,2.55345,0,0,1,0,2.8087c-.44211.7802-4.161,6.18955-4.161,6.18955Z"/><path id="_Path_16" data-name=" Path 16" class="cls-2" d="M97.38435,39.582s3.6149-5.27932,3.823-5.74743a1.71021,1.71021,0,0,0,0-1.79445c-.104-.23406-5.1753-8.21806-5.1753-8.21806s-.91023,1.35234-1.24831,1.79445a1.72284,1.72284,0,0,0,.104,1.79445s3.61491,5.64341,3.71893,5.95549a1.71164,1.71164,0,0,1,0,1.79445c-.23406.44211-4.057,5.85146-4.057,5.85146h10.8187a2.42838,2.42838,0,0,0,2.26257-1.11828c.44211-.67617,2.26257-3.27682,2.47062-3.5889a1.55613,1.55613,0,0,1,1.11827-.67617H112l-1.69042-2.60065h-2.60065a2.06533,2.06533,0,0,0-1.45637,1.01426c-.23406.33808-2.0285,3.04276-2.36659,3.48487-.23406.33808-.57215.23406-.7802.23406.104-.23406,3.14679-4.62916,3.71893-5.51338a4.16089,4.16089,0,0,0,0-4.29107c-.31207-.52013-6.50162-10.42861-6.50162-10.42861s-.91023,1.24831-1.24831,1.69042a1.73115,1.73115,0,0,0,.104,1.79445s5.17529,8.32208,5.51338,8.7902a3.23016,3.23016,0,0,1,0,3.04276c-.44211.78019-4.161,6.18955-4.161,6.18955h2.91273c1.01425,0,1.35234-.33809,1.5864-.67617a31.78859,31.78859,0,0,0,2.0285-2.93874c.23406-.23406.67617-.91023,1.24831-.91023h1.92448a2.07824,2.07824,0,0,0-1.11828.67617c-.234.44211-2.13253,3.27682-2.36659,3.5889a1.87283,1.87283,0,0,1-1.45636.7802Z"/></g></svg>