<svg id="aw" xmlns="http://www.w3.org/2000/svg" viewBox="0 0 120 60"><defs><style>.cls-1{fill:#e60005;}.cls-2{fill:#fff;}</style></defs><title>ai_template_swiss_full_1</title><g id="_Group_" data-name="&lt;Group&gt;"><path id="_Compound_Path_" data-name="&lt;Compound Path&gt;" class="cls-1" d="M27.31181,17.89336H40.304c-2.01238,8.04952-3.95416,16.099-5.96654,24.11328H8v0q9.63825-12.07429,19.31181-24.11328M25.8643,22.55361v5.18983H20.70978v4.44842H25.8643v5.18983H30.348V32.19186h5.18983V27.74344H30.348V22.55361Z"/><path id="_Path_" data-name="&lt;Path&gt;" class="cls-1" d="M44.57593,23.295a7.25173,7.25173,0,0,1,5.0133-1.4475A6.14966,6.14966,0,0,1,54.073,23.61276a4.52226,4.52226,0,0,1,.98854,2.75378H51.24856a1.83838,1.83838,0,0,0-1.16506-1.65933,2.48426,2.48426,0,0,0-2.78909.67079,1.458,1.458,0,0,0,.7414,1.97708c2.04769,1.02385,4.55434,1.20037,6.21367,2.895a4.773,4.773,0,0,1-.7061,6.602,7.41368,7.41368,0,0,1-5.0133,1.271,6.59828,6.59828,0,0,1-4.519-1.76525A4.4719,4.4719,0,0,1,42.91659,33.251h3.81294a2.65734,2.65734,0,0,0,.60018,1.4475,2.82975,2.82975,0,0,0,2.47135.60018,1.65054,1.65054,0,0,0,.49427-3.17744c-1.72994-.91793-3.84824-1.02385-5.47227-2.22422A4.39215,4.39215,0,0,1,44.57593,23.295Z"/><path id="_Path_2" data-name="&lt;Path&gt;" class="cls-1" d="M87.43613,23.295a6.88248,6.88248,0,0,1,4.80148-1.4475,6.27042,6.27042,0,0,1,4.58964,1.65933,4.43255,4.43255,0,0,1,1.09446,2.8597H94.10877a1.75272,1.75272,0,0,0-1.05915-1.58872,2.75208,2.75208,0,0,0-2.61256.31775,1.38492,1.38492,0,0,0-.07061,1.94177,4.68368,4.68368,0,0,0,2.01238.98854,13.79718,13.79718,0,0,1,4.20129,1.76524,4.6,4.6,0,0,1,.17652,6.88447,7.106,7.106,0,0,1-5.15452,1.51811,6.668,6.668,0,0,1-4.73086-1.80055,4.44322,4.44322,0,0,1-1.09446-3.07153h3.81294a2.54906,2.54906,0,0,0,.60018,1.4122,2.95808,2.95808,0,0,0,2.895.52957,1.60821,1.60821,0,0,0,.6708-2.61256,7.86679,7.86679,0,0,0-3.00092-1.30629,7.02815,7.02815,0,0,1-3.88355-2.1889A4.58992,4.58992,0,0,1,87.43613,23.295Z"/><path id="_Path_3" data-name="&lt;Path&gt;" class="cls-1" d="M101.27568,23.2244a7.51348,7.51348,0,0,1,5.61348-1.30628,5.58789,5.58789,0,0,1,3.98946,1.90647,4.75592,4.75592,0,0,1,.84731,2.542H107.913a2.48232,2.48232,0,0,0-.60019-1.30628,2.7521,2.7521,0,0,0-2.61256-.31774,1.393,1.393,0,0,0-.88262,1.69463,2.25466,2.25466,0,0,0,1.65933,1.30629,18.25883,18.25883,0,0,1,4.87208,1.94177c2.18891,1.55342,2.15361,5.18982.17653,6.91977a8.27408,8.27408,0,0,1-9.70886-.10592,4.38571,4.38571,0,0,1-1.271-3.28336h3.81293a2.21861,2.21861,0,0,0,1.34158,1.90647,2.57883,2.57883,0,0,0,2.93031-.60018,1.55368,1.55368,0,0,0-.353-2.22422c-1.83586-1.16506-4.2366-1.12975-5.93123-2.57726A4.32339,4.32339,0,0,1,101.27568,23.2244Z"/><path id="_Path_4" data-name="&lt;Path&gt;" class="cls-1" d="M55.55576,22.20056h3.95416c.88262,3.42458,1.72994,6.88446,2.57726,10.309,1.02384-3.42458,2.01238-6.88446,3.00092-10.309h3.88354c1.02385,3.42458,1.97708,6.88446,3.03623,10.27374.812-3.42458,1.69464-6.84916,2.542-10.27374H78.504c-1.4122,5.15452-2.8244,10.309-4.2719,15.46357H70.1014c-1.02384-3.5305-2.04769-7.02569-3.03623-10.55618-1.05914,3.53049-2.04768,7.061-3.07153,10.55618H59.863C58.38016,32.54491,57.03857,27.35508,55.55576,22.20056Z"/><path id="_Path_5" data-name="&lt;Path&gt;" class="cls-1" d="M80.02209,37.69943V22.23587h4.02477V37.69943Z"/><path id="_Path_6" data-name="&lt;Path&gt;" class="cls-2" d="M25.8643,22.55361H30.348v5.18983h5.18983v4.44842H30.348v5.18983H25.8643V32.19186H20.70978V27.74344H25.8643Z"/></g></svg>