<svg id="aw" xmlns="http://www.w3.org/2000/svg" viewBox="0 0 120 60"><defs><style>.cls-1{fill:#f5c300;}.cls-2{fill:#370e62;}.cls-3{fill:#b6007d;}</style></defs><title>ai_template_thai_airways_full_1</title><g id="_Group_" data-name=" Group "><g id="g6837"><path id="path5411" class="cls-1" d="M39.90353,33.80313A7.89177,7.89177,0,0,0,38.88392,32.08a8.35057,8.35057,0,0,0-1.40706-1.34588c-.28549-.18353-.571-.34666-.84627-.4996h0a3.19172,3.19172,0,0,0-.469-.21412c.15294-.102.30588-.16314.469-.2549a6.78031,6.78031,0,0,0,.84627-.49961,7.30061,7.30061,0,0,0,1.36628-1.3051,7.89193,7.89193,0,0,0,1.01961-1.72314,8.9117,8.9117,0,0,0,.622-2.03922,10.61458,10.61458,0,0,0,.14274-1.52941v-.69333a8.15639,8.15639,0,0,0-.40784-1.78431,8.43239,8.43239,0,0,0-.7851-1.68236,8.2282,8.2282,0,0,0-2.72236-2.66117,8.50324,8.50324,0,0,0-1.87608-.81569,8.28934,8.28934,0,0,0-2.131-.32627,7.83018,7.83018,0,0,0-2.03922.19372,7.45327,7.45327,0,0,0-1.84549.71373,7.27989,7.27989,0,0,0-1.611,1.13176,6.89284,6.89284,0,0,0-1.13176,1.49882,6.11789,6.11789,0,0,0-.59138,1.78432,5.51719,5.51719,0,0,0-.09176,1.01961,7.31915,7.31915,0,0,0,.06118.81568,12.23513,12.23513,0,0,0-1.78432-.84627,10.19626,10.19626,0,0,0-2.43686-.40785,8.90124,8.90124,0,0,0-2.31451.25491,7.739,7.739,0,0,0-1.978.74431,10.1246,10.1246,0,0,0-1.68235,1.13177A9.47087,9.47087,0,0,0,14.189,23.709a9.74718,9.74718,0,0,0-.7749.81569c-.28549.33647-.56079.68314-.87687,1.091l-.66274.84627c-.18353.24471-.36706.469-.56079.68314s-.56078.63216-.87686.938A8.81958,8.81958,0,0,1,8.7851,29.429a1.16217,1.16217,0,0,1-.37726.2549,1.39556,1.39556,0,0,1-.2549.15294A.23452.23452,0,0,0,8,30c0,.09177.09176.12236.15294.18353a.59138.59138,0,0,1,.2549.12236,2.039,2.039,0,0,1,.37726.2549,8.81958,8.81958,0,0,1,1.65176,1.34588c.31608.30588.60157.622.87686.938s.37726.43843.56079.68314l.66274.84627c.31608.40785.59138.7851.87687,1.091a9.74718,9.74718,0,0,0,.7749.81569,7.23943,7.23943,0,0,0,1.07059,1.01961A8.53419,8.53419,0,0,0,16.942,38.43215a7.7386,7.7386,0,0,0,1.978.74431,8.73785,8.73785,0,0,0,4.75137-.15294,9.105,9.105,0,0,0,1.78432-.86666,7.32154,7.32154,0,0,0-.06118.81568,5.51633,5.51633,0,0,0,.09177,1.01961,6.11741,6.11741,0,0,0,.59137,1.78431,6.8924,6.8924,0,0,0,1.13176,1.47844,6.36247,6.36247,0,0,0,1.56,1.13176,7.45367,7.45367,0,0,0,1.84549.71373,7.83061,7.83061,0,0,0,2.03922.19372,8.28943,8.28943,0,0,0,2.131-.31608,10.1963,10.1963,0,0,0,1.87608-.81568,8.22839,8.22839,0,0,0,2.72235-2.66118,8.43239,8.43239,0,0,0,.7851-1.68236,8.15639,8.15639,0,0,0,.40784-1.78431v-.69333a10.61365,10.61365,0,0,0-.13255-1.46824,8.91112,8.91112,0,0,0-.622-2.03921"/><path id="path5413" class="cls-2" d="M38.11922,34.48627a6.11772,6.11772,0,0,0-2.37569-2.68157,6.6378,6.6378,0,0,0-1.662-.72392,6.25019,6.25019,0,0,0-1.87608-.28549,7.13716,7.13716,0,0,0-2.03922.2549,7.32085,7.32085,0,0,0-1.56.56078,6.88229,6.88229,0,0,0-1.2847.7851c-.40785.2753-.75451.56078-1.13177.84628a7.84115,7.84115,0,0,1-1.01961.7749,6.23006,6.23006,0,0,1-1.19294.60157,5.21035,5.21035,0,0,1-1.40706.21411,4.85332,4.85332,0,0,1-1.87608-.37725,4.92475,4.92475,0,0,1-2.55921-2.62039,4.89255,4.89255,0,0,1,1.01961-5.23059,5.098,5.098,0,0,1,1.52941-1.01961,4.71057,4.71057,0,0,1,3.28313-.15294,5.64887,5.64887,0,0,1,1.19295.59137,10.1959,10.1959,0,0,1,1.0196.7851c.37726.27529.72392.59137,1.13177.83608a6.37307,6.37307,0,0,0,1.28471.7851,6.91307,6.91307,0,0,0,1.56.59137,8.42172,8.42172,0,0,0,2.03921.22431A6.25019,6.25019,0,0,0,34.07137,28.96a6.99455,6.99455,0,0,0,1.662-.71372,6.31174,6.31174,0,0,0,1.37647-1.16236,5.99538,5.99538,0,0,0,1.01961-1.52941,6.2811,6.2811,0,0,0,.45883-1.88627,6.31142,6.31142,0,0,0-.71373-3.87451,6.20926,6.20926,0,0,0-1.10118-1.47843,7.13739,7.13739,0,0,0-1.46823-1.01961,5.669,5.669,0,0,0-1.72314-.59137,5.38358,5.38358,0,0,0-1.93726-.09177,5.09819,5.09819,0,0,0-1.78431.5302,4.868,4.868,0,0,0-2.81412,4.24157,5.23052,5.23052,0,0,0,.32628,1.87608.72388.72388,0,0,0,.06117.2447v.102a.19769.19769,0,0,0,.06118.15294.102.102,0,0,0,.06118,0c.06117,0,.06117,0,.06117-.06117a.67289.67289,0,0,0,0-.28549,3.65028,3.65028,0,0,1,.24471-.938,3.05881,3.05881,0,0,1,1.091-1.34589,3.71141,3.71141,0,0,1,1.69255-.53019,3.42588,3.42588,0,0,1,1.84549.37725,2.94671,2.94671,0,0,1,1.25411,1.19295,3.62982,3.62982,0,0,1,.40785,1.71294,3.4972,3.4972,0,0,1-.49961,1.75372,3.05873,3.05873,0,0,1-1.31529,1.3051,3.28318,3.28318,0,0,1-1.78432.34667,5.67948,5.67948,0,0,1-1.22353-.34667,6.60687,6.60687,0,0,1-1.12156-.72392,13.33612,13.33612,0,0,1-1.10118-.90745c-.36706-.30588-.7749-.65255-1.15216-.938A12.23461,12.23461,0,0,0,24.64,23.4949a7.66694,7.66694,0,0,0-1.56-.65255,7.98371,7.98371,0,0,0-1.8251-.30589,7.74926,7.74926,0,0,0-1.94745.19373,5.70966,5.70966,0,0,0-1.56.59137,6.444,6.444,0,0,0-1.25412.84628,11.95924,11.95924,0,0,0-1.091,1.01961c-.34666.37725-.66274.78509-1.0196,1.19294s-.59138.7749-.90746,1.15215a14.81279,14.81279,0,0,1-1.0196,1.10118,5.77125,5.77125,0,0,1-1.13177.938,1.07054,1.07054,0,0,1-.2447.15294c-.06118.06118-.13255.06118-.19373.09176a.25489.25489,0,0,0-.09176.16314,1.21811,1.21811,0,0,0,.09176.12235l.19373.09177a1.07054,1.07054,0,0,1,.2447.15294,7.13707,7.13707,0,0,1,1.13177.938c.33647.34667.68313.72392,1.0196,1.10118a12.554,12.554,0,0,1,.90746,1.18274,7.64143,7.64143,0,0,0,1.0196,1.16235,11.95924,11.95924,0,0,0,1.091,1.01961,6.444,6.444,0,0,0,1.25412.84628,5.70966,5.70966,0,0,0,1.56.59137,6.55606,6.55606,0,0,0,1.94745.19373A7.98405,7.98405,0,0,0,23.131,37.127a7.66747,7.66747,0,0,0,1.56-.65254,10.91991,10.91991,0,0,0,1.31529-.87687c.37726-.28549.7851-.63215,1.15216-.938a13.33623,13.33623,0,0,1,1.10118-.90746,5.03715,5.03715,0,0,1,1.12157-.69333,3.31361,3.31361,0,0,1,1.22353-.33647,3.171,3.171,0,0,1,1.78431.30588,3.0588,3.0588,0,0,1,1.34588,1.22353,3.49721,3.49721,0,0,1,.44863,1.86588,3.84394,3.84394,0,0,1-.40784,1.74353,2.82434,2.82434,0,0,1-1.25412,1.16235,3.426,3.426,0,0,1-1.84549.37726,3.71142,3.71142,0,0,1-1.69255-.5302,3.05878,3.05878,0,0,1-1.091-1.34588,3.65028,3.65028,0,0,1-.24471-.938.69315.69315,0,0,0,0-.28549.06117.06117,0,0,0-.06117-.06118h0a.06118.06118,0,0,0-.06118.06118h0a.18946.18946,0,0,1-.06117.12235c-.06118.06118,0,.07137,0,.102a.72372.72372,0,0,0-.06118.24471,5.23048,5.23048,0,0,0-.2549,1.87608,5.39351,5.39351,0,0,0,.40784,1.72313,4.90441,4.90441,0,0,0,.96863,1.46824,5.00643,5.00643,0,0,0,1.43765,1.10118,5.29168,5.29168,0,0,0,1.78431.53019,4.96524,4.96524,0,0,0,1.93725-.102,5.66893,5.66893,0,0,0,1.72314-.59137,6.81065,6.81065,0,0,0,1.46823-1.01961,6.36189,6.36189,0,0,0,1.02981-1.56,6.76,6.76,0,0,0,.68314-1.8251,6.4951,6.4951,0,0,0,.06117-2.03921,6.37236,6.37236,0,0,0-.49961-1.84549"/><path id="path5415" class="cls-3" d="M29.01412,30h0v-.07137A5.832,5.832,0,0,1,26.9749,28.909c-.65255-.469-1.2847-1.0196-1.96784-1.46823a4.45572,4.45572,0,0,0-2.22275-.87687,3.22191,3.22191,0,0,0-1.87607.40785,3.05875,3.05875,0,0,0-1.25412,1.25411A3.47682,3.47682,0,0,0,19.13412,30h0a3.47681,3.47681,0,0,0,.469,1.77412,3.05875,3.05875,0,0,0,1.25412,1.28471,3.49725,3.49725,0,0,0,1.87607.43843,4.7921,4.7921,0,0,0,2.22275-.90745c.68314-.469,1.31529-1.01961,1.96784-1.46824A5.83235,5.83235,0,0,1,28.96314,30.102h0"/><path id="path5417" class="cls-2" d="M97.79686,39.37019h7.51452c-1.509-.87686-1.978-1.72314-2.91608-3.9153C97.23608,23.4745,95.39059,19.3145,95.39059,19.3145s-1.12157,1.91687-4.80235,2.66118a1.54982,1.54982,0,0,1,.53019,1.16235,3.2118,3.2118,0,0,1-.31608,1.31529L85.88784,35.45489c-1.01961,2.31451-1.662,3.32392-3.05882,3.82353-1.17255-.66274-1.41726-1.2847-1.41726-3.59921V24.32078c0-2.37569.24471-2.99765,1.46824-3.691H76.19137c1.21334.69333,1.46824,1.28471,1.46824,3.691v3.8847H68.34039v-3.8847c0-2.40628.21412-2.99765,1.46824-3.691H63.05882c1.25412.69333,1.46824,1.28471,1.46824,3.691V35.67921c0,2.40627-.21412,2.99764-1.46823,3.691h6.72941c-1.25412-.69334-1.46824-1.28471-1.46824-3.691V30.79529h9.31922v4.88392c0,2.37569-.2549,2.99764-1.509,3.691H89.3851a1.94747,1.94747,0,0,1-1.15216-1.63137,4.80235,4.80235,0,0,1,.59138-1.8149l1.01961-2.498h7.41254L98.38824,36.24a3.84406,3.84406,0,0,1,.43843,1.52941A2.18194,2.18194,0,0,1,97.79686,39.37019Zm-6.91294-8.25883L93.698,24.382l2.72235,6.72941H90.88392"/><path id="path5419" class="cls-2" d="M110.56235,35.67921V24.32078c0-2.40628.2447-2.96706,1.43765-3.691h-6.658c1.21334.72392,1.43765,1.28471,1.43765,3.691V35.67921c0,2.40627-.22431,2.96706-1.43765,3.691H112c-1.19294-.72392-1.43765-1.28471-1.43765-3.691"/><path id="path5421" class="cls-2" d="M62.48784,19.35529h0c-.69333.56078-1.78431,1.27451-4.75137,1.27451H49.3451a2.72236,2.72236,0,0,1-2.6-1.56,15.09017,15.09017,0,0,1-3.25255,4.31294h7.851V35.45489c0,2.41647-.31608,3.16079-1.49882,3.9153h6.71921c-1.22353-.72392-1.43764-1.28471-1.43764-3.691V23.38274h1.10117a8.8197,8.8197,0,0,0,3.222-.43843,4.16,4.16,0,0,0,3.05882-3.589h0"/></g></g></svg>