<svg id="aw" xmlns="http://www.w3.org/2000/svg" viewBox="0 0 120 60"><defs><style>.cls-1{fill:#1f419a;}.cls-2{fill:#da251c;}.cls-3{fill:#fff;}</style></defs><title>ai_template_turkish_airlines_full_1-01</title><path class="cls-1" d="M56.83969,32.98657,54.504,26.81928H52.48322l-2.33564,6.16729H51.9584l.31493-.89229H54.714l.31492.89229ZM54.294,30.70333H52.71942l.78732-2.3357Z"/><rect class="cls-1" x="57.46955" y="26.81928" width="1.60087" height="6.16729"/><path class="cls-1" d="M65.63136,32.98657l-1.25969-2.257a1.88889,1.88889,0,0,0,1.23345-1.86331,1.98519,1.98519,0,0,0-2.152-2.047H60.35636v6.1673h1.60087V30.91331h.81356l1.0235,2.07326Zm-2.41443-3.46416h-1.2597v-1.3122h1.2597a.66333.66333,0,1,1,0,1.31219"/><polygon class="cls-1" points="70.723 32.987 70.723 31.595 68.23 31.595 68.23 26.819 66.629 26.819 66.629 32.987 70.723 32.987"/><rect class="cls-1" x="71.71992" y="26.81928" width="1.60087" height="6.16729"/><polygon class="cls-1" points="80.328 32.987 80.328 26.819 78.727 26.819 78.727 30.205 76.234 26.819 74.607 26.819 74.607 32.987 76.181 32.987 76.181 29.418 78.806 32.987 80.328 32.987"/><polygon class="cls-1" points="86.154 32.987 86.154 31.595 83.215 31.595 83.215 30.546 86.102 30.546 86.102 29.181 83.215 29.181 83.215 28.211 86.154 28.211 86.154 26.819 81.64 26.819 81.64 32.987 86.154 32.987"/><path class="cls-1" d="M89.5657,33.09156c1.65335,0,2.57189-.81357,2.57189-2.07326,0-2.28325-3.49042-1.73208-3.49042-2.46692,0-.26244.20994-.41991.65609-.41991a2.85206,2.85206,0,0,1,1.81082.6561l.866-1.20721a3.71968,3.71968,0,0,0-2.51941-.866c-1.57462,0-2.44067.91854-2.44067,1.96829,0,2.38818,3.49042,1.70588,3.49042,2.5194,0,.31492-.34117.49863-.866.49863a2.73318,2.73318,0,0,1-1.96828-.81355l-.8398,1.23345a3.76447,3.76447,0,0,0,2.72935.971"/><polygon class="cls-1" points="11.333 32.987 11.333 28.211 13.039 28.211 13.039 26.819 8 26.819 8 28.211 9.732 28.211 9.732 32.987 11.333 32.987"/><path class="cls-1" d="M16.92289,33.09156c1.96829,0,2.91306-1.076,2.91306-2.62439V26.79305H18.23508v3.62164a1.17865,1.17865,0,0,1-1.28595,1.2597,1.18653,1.18653,0,0,1-1.31219-1.2597V26.81928H14.00983v3.67413c-.0262,1.52215.91853,2.59815,2.91306,2.59815"/><path class="cls-1" d="M26.39694,32.98657l-1.2597-2.257a1.88889,1.88889,0,0,0,1.23347-1.86331,1.9852,1.9852,0,0,0-2.152-2.047H21.1219v6.1673h1.60087V30.91331h.81357l1.04976,2.07326Zm-2.44067-3.46416H22.69652v-1.3122h1.2597a.679.679,0,0,1,.75629.59158q.00393.03213.00478.06451c.02625.41991-.31492.6561-.76107.6561"/><polygon class="cls-1" points="33.01 32.987 30.465 29.706 32.879 26.819 30.911 26.819 29.022 29.365 29.022 26.819 27.421 26.819 27.421 32.987 29.022 32.987 29.022 31.176 29.441 30.677 31.042 32.987 33.01 32.987"/><rect class="cls-1" x="33.66643" y="26.81928" width="1.60087" height="6.16729"/><path class="cls-1" d="M38.83646,33.09156c1.65335,0,2.57188-.81357,2.57188-2.07326,0-2.28325-3.49042-1.73208-3.49042-2.46692,0-.26244.20995-.41991.65609-.41991a2.85209,2.85209,0,0,1,1.81083.6561l.866-1.20721a3.7197,3.7197,0,0,0-2.51941-.866c-1.57462,0-2.44067.91854-2.44067,1.96829,0,2.38818,3.49043,1.70588,3.49043,2.5194,0,.31492-.34118.49863-.86605.49863a2.73326,2.73326,0,0,1-1.96829-.81355l-.83979,1.23345a3.85561,3.85561,0,0,0,2.72935.971"/><polygon class="cls-1" points="48.101 32.987 48.101 26.819 46.5 26.819 46.5 29.129 43.927 29.129 43.927 26.819 42.353 26.819 42.353 32.987 43.927 32.987 43.927 30.52 46.5 30.52 46.5 32.987 48.101 32.987"/><path class="cls-2" d="M103.317,38.54377a8.71246,8.71246,0,0,1-4.09226-1.02628,8.6,8.6,0,0,1-2.31588-1.79244,8.49708,8.49708,0,0,1-1.9044-3.33277,8.29339,8.29339,0,0,1-.31683-1.64316,8.43392,8.43392,0,0,1-.01056-1.43882,8.45176,8.45176,0,0,1,1.88664-4.683,8.66759,8.66759,0,0,1,4.4259-2.89632,8.49593,8.49593,0,0,1,2.76255-.30643,8.63585,8.63585,0,0,1,4.30128,1.38091,8.6308,8.6308,0,0,1,3.7507,5.36686,8.42288,8.42288,0,0,1-.61276,5.40694,8.4471,8.4471,0,0,1-1.17578,1.83711,8.71811,8.71811,0,0,1-2.52761,2.0672,8.33341,8.33341,0,0,1-2.42594.87991c-.37891.07257-.76506.1097-1.14913.152C103.71565,38.5373,103.51574,38.53514,103.317,38.54377Zm-6.87095-4.585a7.98613,7.98613,0,0,0,8.99309,3.61948,7.80546,7.80546,0,0,0,4.59591-3.32994,7.64909,7.64909,0,0,0,1.13062-2.75444Zm14.75322-2.67663a.59015.59015,0,0,0,.01959-.07942c.03252-.3588.08206-.71718.09236-1.07666a7.43155,7.43155,0,0,0-.341-2.43768,7.9871,7.9871,0,0,0-6.89788-5.56162,8.2006,8.2006,0,0,0-1.85724.0391A7.99835,7.99835,0,0,0,99.944,22.833a.46783.46783,0,0,0-.05537.03732l.07881.03094c.50553.19766,1.01911.37716,1.5149.5968a9.77636,9.77636,0,0,1,2.70635,1.73031,5.193,5.193,0,0,1,1.302,1.76545,3.22526,3.22526,0,0,1,.03261,2.59628,4.33383,4.33383,0,0,1-.91576,1.356c-.04448.046-.08759.0934-.14221.15177Zm-9.36311-3.75406c-.014-.21154-.02338-.42351-.04289-.63454a5.42922,5.42922,0,0,0-.54921-1.92209,6.13609,6.13609,0,0,0-1.53973-1.94381.09591.09591,0,0,0-.12624-.01319,8.00629,8.00629,0,0,0-1.88238,1.37215,7.84515,7.84515,0,0,0-2.33293,4.95579,7.88772,7.88772,0,0,0,.04128,1.66719,7.55551,7.55551,0,0,0,.31869,1.39179,8.06565,8.06565,0,0,0,.53732,1.255c.02183.04121.04447.065.09845.05583a8.37522,8.37522,0,0,0,1.61783-.42969,5.59478,5.59478,0,0,0,2.7115-2.10817A6.39669,6.39669,0,0,0,101.83617,27.52807Z"/><path class="cls-3" d="M96.44606,33.95876l14.71962-2.4649a7.64909,7.64909,0,0,1-1.13062,2.75444,7.80546,7.80546,0,0,1-4.59591,3.32994A7.98613,7.98613,0,0,1,96.44606,33.95876Z"/><path class="cls-3" d="M111.19928,31.28213l-6.734-.18425c.05462-.05837.09773-.10573.14221-.15177a4.33383,4.33383,0,0,0,.91576-1.356,3.22526,3.22526,0,0,0-.03261-2.59628,5.193,5.193,0,0,0-1.302-1.76545,9.77636,9.77636,0,0,0-2.70635-1.73031c-.49579-.21964-1.00937-.39914-1.5149-.5968l-.07881-.03094A.46783.46783,0,0,1,99.944,22.833a7.99835,7.99835,0,0,1,2.27115-.66716,8.2006,8.2006,0,0,1,1.85724-.0391,7.985,7.985,0,0,1,6.89788,5.56162,7.43155,7.43155,0,0,1,.341,2.43768c-.0103.35948-.05984.71786-.09236,1.07666A.59015.59015,0,0,1,111.19928,31.28213Z"/><path class="cls-3" d="M101.83617,27.52807a6.39669,6.39669,0,0,1-1.14831,3.6463,5.59478,5.59478,0,0,1-2.7115,2.10817,8.37522,8.37522,0,0,1-1.61783.42969c-.054.00913-.07662-.01462-.09845-.05583a8.06565,8.06565,0,0,1-.53732-1.255,7.55551,7.55551,0,0,1-.31869-1.39179,7.88772,7.88772,0,0,1-.04128-1.66719,7.84515,7.84515,0,0,1,2.33293-4.95579,8.00629,8.00629,0,0,1,1.88238-1.37215.09591.09591,0,0,1,.12624.01319,6.13609,6.13609,0,0,1,1.53973,1.94381,5.42922,5.42922,0,0,1,.54921,1.92209C101.81279,27.10456,101.82216,27.31653,101.83617,27.52807Z"/></svg>