<svg id="aw" xmlns="http://www.w3.org/2000/svg" viewBox="0 0 120 60"><defs><style>.cls-1{fill:#005daa;}</style></defs><title>Airline Logo_United_Full_Dark</title><g id="Globe"><path id="Globe-2" data-name="Globe" class="cls-1" d="M112,20.9V39.09h-3.77a11.94,11.94,0,0,0-4.82-14.24,12.07,12.07,0,0,0-8.89-1.59l-.72.18V20.9ZM98.81,23.76a5.26,5.26,0,0,0-3.38-.42l.4,0,.06,0a5.93,5.93,0,0,1,1.58.08c-.16,0-.44.14-.64.22a2.26,2.26,0,0,1,.35.17c.21-.07.65-.19.86-.23a4,4,0,0,1,1,.5,10.19,10.19,0,0,0-1.25.21,1.61,1.61,0,0,1,.24.28,11.61,11.61,0,0,1,1.44-.15,2.49,2.49,0,0,1,.58.73,13.23,13.23,0,0,0-1.68,0,1.45,1.45,0,0,1,.13.4,14.08,14.08,0,0,1,1.8.07,3.23,3.23,0,0,1,.22.94,13.49,13.49,0,0,0-1.92-.25,3,3,0,0,1,0,.52,15.26,15.26,0,0,1,2,.36,4.57,4.57,0,0,1-.14,1,16.28,16.28,0,0,0-2-.56,5,5,0,0,1-.28.82,15.3,15.3,0,0,1,2,.82,6,6,0,0,1-.4.88,20.33,20.33,0,0,0-1.92-1,10.47,10.47,0,0,1-.68,1c.63.38,1.22.79,1.81,1.23-.17.26-.43.57-.58.76-.56-.47-1.72-1.39-1.72-1.39a6.14,6.14,0,0,1-1.06,1c.47.49,1.09,1.19,1.48,1.67a4.08,4.08,0,0,1-.63.54c-.47-.58-1-1.31-1.37-1.77a6.72,6.72,0,0,1-1.22.8v.68l.75,1.51a3.73,3.73,0,0,1-.53.27l-.22-.44V36c2.9-1.29,5.85-4.13,6.71-7.22a4.88,4.88,0,0,0-.14-3.43,3.58,3.58,0,0,0-1.56-1.59m-.43-.45.37.15h.06a5.57,5.57,0,0,1,1.75.59c-.29,0-.59,0-.88,0a3.76,3.76,0,0,1,.35.34q.59,0,1.14,0a3.41,3.41,0,0,1,1,1,11.43,11.43,0,0,0-1.56-.23c.07.16.14.32.2.49a16.69,16.69,0,0,1,1.74.33,4.77,4.77,0,0,1,.39,1.23A14.26,14.26,0,0,0,101,26.7c0,.21,0,.43,0,.64a15.08,15.08,0,0,1,2,.72,4.58,4.58,0,0,1-.14,1.24,15.85,15.85,0,0,0-2-.87,8.52,8.52,0,0,1-.34,1.12c.66.34,1.31.68,1.93,1.08a5.3,5.3,0,0,1-.49,1c-.61-.41-1.22-.82-1.85-1.17a7.46,7.46,0,0,1-.82,1.33c.57.45,1.15.91,1.7,1.4a5.34,5.34,0,0,1-.7.87c-.39-.42-1.06-1-1.61-1.48A12.48,12.48,0,0,1,97.34,34c.36.37,1.42,1.64,1.42,1.64a6.92,6.92,0,0,1-.75.63l-1.34-1.72a11.34,11.34,0,0,1-1.9,1.25c.3.51,1,1.88,1,1.88a3.92,3.92,0,0,1-.58.29c-.35-.57-.77-1.41-1-1.88a4,4,0,0,1-.43.19v2.49a14.41,14.41,0,0,0,6.08-3.89A11.64,11.64,0,0,0,103.12,29a4.7,4.7,0,0,0-1.71-4.6,5.4,5.4,0,0,0-3-1.12m-.75,1.18a4,4,0,0,0-3.83-.76v.12a4.86,4.86,0,0,1,1-.12,5.65,5.65,0,0,0-.61.45,1.09,1.09,0,0,1,.24.07,9.16,9.16,0,0,1,.83-.53,2.86,2.86,0,0,1,1,.17,6.63,6.63,0,0,0-1.31.63.79.79,0,0,1,.18.14A10.51,10.51,0,0,1,96.61,24a2.06,2.06,0,0,1,.63.4,12.29,12.29,0,0,0-1.85.56,1.32,1.32,0,0,1,.15.24,17.15,17.15,0,0,1,2-.54,2.16,2.16,0,0,1,.35.55,15.32,15.32,0,0,0-2.19.37,1.72,1.72,0,0,1,.08.28A16.24,16.24,0,0,1,98,25.61a2.69,2.69,0,0,1,.11.7,15,15,0,0,0-2.34.06c0,.09,0,.27,0,.38a15.73,15.73,0,0,1,2.33.08,4.92,4.92,0,0,1-.16.78,13.72,13.72,0,0,0-2.29-.32,2.11,2.11,0,0,1-.17.5,14.3,14.3,0,0,1,2.2.59,7.18,7.18,0,0,1-.34.68,17.43,17.43,0,0,0-2.11-.78,3.85,3.85,0,0,1-.44.7c.44.22,1.3.7,1.89,1.08a5,5,0,0,1-.47.56,20.51,20.51,0,0,0-1.75-1.26,5.3,5.3,0,0,1-.67.67v.07l1.42,1.51a4.52,4.52,0,0,1-.49.4l-.93-1.19v2.1a10.55,10.55,0,0,0,3.72-3.7,4.59,4.59,0,0,0,.53-4.13,3,3,0,0,0-.42-.6m4.24,0,.42,0a4.39,4.39,0,0,1,1.15.89,2.75,2.75,0,0,1,.35.43c-.34-.09-.68-.21-1-.29a3.59,3.59,0,0,1,.29.59c.4.12.8.25,1.18.39a5,5,0,0,1,.52,1.51c-.45-.22-.9-.44-1.36-.62a4.29,4.29,0,0,1,0,.8,12.92,12.92,0,0,1,1.42.76,5.67,5.67,0,0,1-.13,1.45,11.7,11.7,0,0,0-1.46-.92,6.11,6.11,0,0,1-.41,1.33c.49.34,1,.68,1.45,1.08a9.81,9.81,0,0,1-.53,1.14c-.46-.4-.94-.79-1.43-1.16a8,8,0,0,1-1,1.58c.48.43.93.86,1.38,1.33a7.28,7.28,0,0,1-.76.94c-.43-.46-.87-.94-1.32-1.38A14.53,14.53,0,0,1,99.06,36a13.66,13.66,0,0,1,1.21,1.48c-.28.24-.53.46-.81.66l-1.16-1.5a17.08,17.08,0,0,1-2.25,1.44l.61,1h1.89c2.9-2,5.52-4.92,6.33-8.2a6,6,0,0,0-1.36-5.56,4.56,4.56,0,0,0-2.14-1.24,3.45,3.45,0,0,1,.49.42m-8.07-.17v.35l.2-.13a1.42,1.42,0,0,1,.47.2c-.23.13-.46.26-.67.4v.22c.28-.17.61-.37.87-.5a1,1,0,0,1,.27.27c-.37.15-.9.4-1.14.53v.23a9.38,9.38,0,0,1,1.32-.54,1.26,1.26,0,0,1,.13.34,9.06,9.06,0,0,0-1.45.46v.2A11.24,11.24,0,0,1,95.31,26a2,2,0,0,1,0,.42,14.32,14.32,0,0,0-1.54.24v.23a12.57,12.57,0,0,1,1.52-.1,2.62,2.62,0,0,1-.13.48,12.46,12.46,0,0,0-1.39-.05v.32a8.9,8.9,0,0,1,1.22.19,2.82,2.82,0,0,1-.22.42,8.17,8.17,0,0,0-1-.27v.62c.2.09.48.23.58.29a2.31,2.31,0,0,1-.28.33l-.3-.18v.8a9.51,9.51,0,0,0,.91-1,3.54,3.54,0,0,0,.68-3.25,2.05,2.05,0,0,0-1.59-1.11m10.63,1.75a6.61,6.61,0,0,1,.36.7l.51.23a6.33,6.33,0,0,1,.8,1.87c-.28-.18-.56-.36-.85-.51a6.42,6.42,0,0,1,.07.89,10.72,10.72,0,0,1,1,.74,7.38,7.38,0,0,1-.1,1.64,8.13,8.13,0,0,0-1-.87,7.25,7.25,0,0,1-.46,1.51,8.68,8.68,0,0,1,1.09,1,7.8,7.8,0,0,1-.54,1.21c-.35-.37-.72-.75-1.1-1.08A15.24,15.24,0,0,1,103,35.18c.38.39.73.79,1.07,1.19a9.36,9.36,0,0,1-.81,1c-.35-.4-.67-.81-1-1.2a13.94,13.94,0,0,1-1.66,1.69c.38.47,1,1.25,1,1.25h.33a18.38,18.38,0,0,0,1.75-1.78,11.83,11.83,0,0,0,2.74-5.37,6.51,6.51,0,0,0-1.55-5.7l-.39-.15Zm1.33,1.06v0a6.69,6.69,0,0,1,1.34,2.43h0l-.46-.35a9.46,9.46,0,0,1,.12,1.07,4.21,4.21,0,0,1,.65.62,8.37,8.37,0,0,1-.08,1.87,6.9,6.9,0,0,0-.72-.81,8,8,0,0,1-.44,1.62,7.73,7.73,0,0,1,.76,1,6.77,6.77,0,0,1-.54,1.28c-.26-.34-.45-.62-.79-1a15.38,15.38,0,0,1-1.19,1.86c.3.36.58.73.84,1.1a12.93,12.93,0,0,1-.81,1c-.27-.38-.56-.75-.85-1.13a11.67,11.67,0,0,1-1.28,1.36h2.23a12.24,12.24,0,0,0,2.91-5.6,6.92,6.92,0,0,0-1.26-5.92,3.26,3.26,0,0,0-.41-.42m1.9,2.93a9.28,9.28,0,0,1,.18,1.26,5,5,0,0,1,.36.49,8,8,0,0,1-.14,1.87l-.34-.42a10.21,10.21,0,0,1-.46,1.72l.38.65A9.13,9.13,0,0,1,107.1,37c-.14-.22-.27-.47-.41-.67a16.68,16.68,0,0,1-1.18,1.91l.52.84h.12a11.79,11.79,0,0,0,2.2-6.3,5.67,5.67,0,0,0-.63-2.66l-.06-.05Zm1,3.37c0,.32-.07.64-.13.94l-.1-.14a9.21,9.21,0,0,1-.48,1.84l.15.43a10.6,10.6,0,0,1-.49,1.39,2,2,0,0,0-.23-.46,15.24,15.24,0,0,1-.94,1.64h.83a13.58,13.58,0,0,0,1.08-2.78,8.23,8.23,0,0,0,.31-2.86Zm0,2.31a27.86,27.86,0,0,1-.76,2.87l-.09-.19-.31.65H108a11.6,11.6,0,0,0,.74-3.33M95.39,38.38A12.72,12.72,0,0,1,93.8,39v.1h2l-.4-.71Zm4.37.13c-.21.15-.47.39-.79.59h1.17l-.38-.59"/></g><g id="UNITED"><path id="path16" class="cls-1" d="M79,27.94h2c2.23,0,3.13.94,3.13,2.63S83.22,33.2,81,33.2H79ZM76.27,25.8v9.55h4.81c4,0,5.9-1.8,5.9-4.79,0-2.83-1.75-4.76-5.9-4.76Z"/><polygon id="polygon18" class="cls-1" points="71.02 25.8 71.02 27.89 64.81 27.89 64.81 29.58 70.07 29.58 70.07 31.52 64.81 31.52 64.81 33.27 71.06 33.27 71.06 35.35 62.1 35.35 62.1 25.8 71.02 25.8"/><polygon id="polygon20" class="cls-1" points="57.38 25.8 57.38 27.96 53.87 27.96 53.87 35.34 51.15 35.34 51.15 27.96 47.65 27.96 47.65 25.8 57.38 25.8"/><polygon id="polygon22" class="cls-1" points="40.09 25.8 42.85 25.8 42.85 35.35 40.09 35.35 40.09 27.99 40.09 25.8"/><polygon id="polygon24" class="cls-1" points="26.16 29.37 32.03 35.35 34.06 35.35 34.06 25.8 31.53 25.8 31.53 31.52 25.98 25.8 23.63 25.8 23.63 35.35 26.16 35.35 26.16 29.37"/><path id="path26" class="cls-1" d="M18.43,31.13c0,2.92-1.82,4.39-5.2,4.39S8,34.06,8,31.15V25.8h2.71v5.36c0,1.45.83,2.18,2.53,2.18s2.48-.72,2.48-2.17V25.8h2.71Z"/></g></svg>