<svg id="aw" xmlns="http://www.w3.org/2000/svg" viewBox="0 0 120 60"><defs><style>.cls-1{fill:#88898b;}.cls-1,.cls-2{fill-rule:evenodd;}.cls-2{fill:#ffce2d;}</style></defs><title>Airline Logo_vueling_full_dark</title><path class="cls-1" d="M14.86,34.65l-2.68-9.17A2,2,0,0,0,10.26,24,2.06,2.06,0,0,0,8,26a2.92,2.92,0,0,0,.3,1.19l3.49,9.89c.68,2,1.32,2.6,3.07,2.6h.34c1.79,0,2.22-.64,2.9-2.56l3.53-9.93A3.57,3.57,0,0,0,21.89,26a2,2,0,0,0-2.26-2,1.88,1.88,0,0,0-1.87,1.44L15,34.65Z"/><path class="cls-1" d="M58.23,16.62a2.16,2.16,0,1,1,4.31,0V37.37a2.16,2.16,0,1,1-4.31,0V16.62Z"/><path class="cls-1" d="M65.94,26.29A2.1,2.1,0,0,1,68.12,24a2.07,2.07,0,0,1,2.13,2.25V37.37a2.13,2.13,0,0,1-2.13,2.35,2.16,2.16,0,0,1-2.18-2.35V26.29Z"/><path class="cls-1" d="M87.67,37.41a2.17,2.17,0,1,1-4.34,0V30.34a2.57,2.57,0,0,0-2.73-2.85,2.53,2.53,0,0,0-2.81,2.85v7.07a2.16,2.16,0,1,1-4.31,0V31c0-4.77,2.52-7.11,7.12-7.11s7.07,2.34,7.07,7.07v6.47Z"/><path class="cls-1" d="M24.19,26.17a2.16,2.16,0,0,1,2.17-2.3,2.12,2.12,0,0,1,2.13,2.3v7.11a2.53,2.53,0,0,0,2.73,2.81,2.53,2.53,0,0,0,2.85-2.81V26.17a2.16,2.16,0,1,1,4.31,0v6.47c0,4.73-2.52,7.12-7.12,7.12s-7.07-2.39-7.07-7.12V26.17Z"/><path class="cls-1" d="M101.14,28.72c0-.51-1-1.23-2.77-1.23-2.69,0-3.71,1.7-3.71,4.39,0,3.06,1,4.21,3.19,4.21s3.29-1.44,3.29-4.34v-3Zm2.08-3.83a2.67,2.67,0,0,1,2,2.6V40.35c0,4.61-2.43,7.63-7.84,7.63-2.64,0-6.09-1.41-6.09-3.24A1.75,1.75,0,0,1,92.83,43c1.36,0,2.38,1.2,4.85,1.2s3.46-1.24,3.46-3.28V38.44a5.58,5.58,0,0,1-4,1.32c-4,0-6.77-2.94-6.77-7.88s3.11-8,7.84-8a11.77,11.77,0,0,1,5,1Z"/><path class="cls-1" d="M51.29,30.43c-.13-2.05-1.07-3.28-3.07-3.28s-2.9.89-3.07,3.28Zm-6.14,2.85a3,3,0,0,0,3.33,2.94c2.13,0,3.32-.81,4.38-.81a1.76,1.76,0,0,1,1.58,1.75c0,1.66-2.85,2.56-6,2.56-4.6,0-7.45-3-7.45-7.89s2.81-8,7.37-8c4.81,0,6.94,3.24,6.94,7.63,0,1.23-.51,1.87-1.74,1.87Z"/><path class="cls-2" d="M112,18.45a2.77,2.77,0,0,1-5.54,0,2.77,2.77,0,0,1,5.54,0Z"/></svg>