<svg id="aw" xmlns="http://www.w3.org/2000/svg" viewBox="0 0 120 60"><defs><style>.cls-1{fill:#fff;}.cls-2{fill:#003c71;}.cls-3{fill:#00aaa6;}</style></defs><title>Airline Logo_Westjet_Full_Dark</title><g id="_Group_" data-name="&lt;Group&gt;"><path id="_Path_" data-name="&lt;Path&gt;" class="cls-1" d="M110.52,29.82l1.48-2s-1.67.31-2,.36-.34-.08-.37-.26-.07-1.09-.07-1.09L107.1,28l0-.06L109,24.54l-1.64.72c-.41.17-.57.14-.63-.14s-.34-2.35-.37-2.46c-.12.11-2.16,2.19-2.44,2.46s-.48.31-.75.13l-1-.71-1,4.71h-.06L99.5,26.92l-.87,1a.62.62,0,0,1-.58.25c-.33-.05-1.8-.35-1.8-.35s-.12,1.81-.14,2a.92.92,0,0,1-.4.68l-.07.07L95,30.6,97.09,33c.47.56.47.78,0,1.38l-.62.75,3.15-.53c.35-.06.71,0,.62.53l-.38,2.15,1.61-2.77h.06l4.12.64s0-.63,0-1.09a.67.67,0,0,1,.45-.65L111,30.63l-.48-.25C110.23,30.24,110.39,30,110.52,29.82Z"/><polygon id="_Path_2" data-name="&lt;Path&gt;" class="cls-2" points="39.77 30.18 40.25 29.06 28.84 29.06 29.96 27.98 25.66 27.98 21.36 32.76 21.38 29.06 15.77 29.06 12.49 32.57 12.52 29.06 8 29.06 9.29 34.76 13.85 34.76 17.88 30.38 17.93 30.38 18.44 34.76 22.96 34.76 28.32 29.56 26.14 34.76 38.1 34.76 38.57 33.63 31.04 33.63 31.56 32.39 38.43 32.39 38.88 31.31 32.01 31.31 32.48 30.18 39.77 30.18"/><path id="_Path_3" data-name="&lt;Path&gt;" class="cls-2" d="M54.31,30.19l-1.92,4.57h4.43l1.92-4.57h4.08l.48-1.13H51c-.89-.06-1.91-.1-3-.1-3.32,0-7.38.38-8,1.75-.87,2.07,7.25,1.41,6.81,2.47-.19.45-1.56.55-3,.55a22.52,22.52,0,0,1-4.41-.38l-.9,1.26a45.62,45.62,0,0,0,4.82.24c3.69,0,7.46-.4,8.09-1.88.86-2.06-7.24-1.44-6.86-2.36.21-.5,2.08-.53,3.2-.53a22.49,22.49,0,0,1,3.57.26l.11-.16h2.78Z"/><path id="_Path_4" data-name="&lt;Path&gt;" class="cls-2" d="M95,30.62l2.08,2.45c.47.55.46.78,0,1.37l-.62.75,3.15-.53c.35-.06.7,0,.61.53l-.37,2.15,1.61-2.79,2.91-4.95-8.73,1Z"/><path id="_Path_5" data-name="&lt;Path&gt;" class="cls-3" d="M64.52,29.06l-1.9,4.52a3.73,3.73,0,0,1-3.14,1.89,11.4,11.4,0,0,1-1.93-.14L57,36.6c.73.06,1.7.15,2.67.15,4.49,0,6.64-1.5,7.16-2.71l2.1-5Z"/><polygon id="_Path_6" data-name="&lt;Path&gt;" class="cls-3" points="70.31 29.06 67.91 34.76 79.87 34.76 80.34 33.63 72.81 33.63 73.33 32.39 80.2 32.39 80.65 31.31 73.78 31.31 74.25 30.18 84.71 30.18 82.79 34.76 87.21 34.76 89.13 30.18 93.22 30.18 93.69 29.06 70.31 29.06"/><path id="_Path_7" data-name="&lt;Path&gt;" class="cls-3" d="M107.08,27.93,109,24.54l-1.64.72c-.41.17-.57.14-.63-.14s-.34-2.35-.37-2.46c-.12.11-2.16,2.19-2.44,2.46s-.48.31-.75.13l-1-.71-1,4.71Z"/><path id="_Path_8" data-name="&lt;Path&gt;" class="cls-3" d="M110.52,29.82l1.48-2s-1.67.31-2,.36-.34-.08-.37-.26-.07-1.09-.07-1.09L107.1,28l-5.57,6.57,4.12.64s0-.63,0-1.09a.69.69,0,0,1,.45-.65L111,30.64l-.47-.25C110.23,30.24,110.39,30,110.52,29.82Z"/><path id="_Path_9" data-name="&lt;Path&gt;" class="cls-3" d="M101.07,29.28l-1.58-2.34s-.7.8-.86,1a.61.61,0,0,1-.58.26c-.34-.05-1.81-.36-1.81-.36s-.12,1.82-.13,2a1,1,0,0,1-.4.69Z"/><polygon id="_Path_10" data-name="&lt;Path&gt;" class="cls-1" points="107.11 27.99 101.53 34.56 101.46 34.55 104.37 29.61 95.63 30.55 95.71 30.48 101.08 29.28 101.14 29.27 107.08 27.94 107.11 27.99"/></g></svg>